<svg xmlns="http://www.w3.org/2000/svg" xmlns:xlink="http://www.w3.org/1999/xlink" xmlns:lucid="lucid" width="1225.88" height="1080"><g transform="translate(-180 -80)" lucid:page-tab-id="0_0"><path d="M500 105a5 5 0 0 1 5-5h696a5 5 0 0 1 5 5v1030a5 5 0 0 1-5 5H505a5 5 0 0 1-5-5z" stroke="#3d4752" stroke-width="2" fill-opacity="0"/><use xlink:href="#a" transform="matrix(1,0,0,1,508.0000000000001,108) translate(194.76562499999997 18.15451388888889)"/><use xlink:href="#b" transform="matrix(1,0,0,1,508.0000000000001,108) translate(258.34201388888886 18.15451388888889)"/><use xlink:href="#c" transform="matrix(1,0,0,1,508.0000000000001,108) translate(270.546875 18.15451388888889)"/><use xlink:href="#d" transform="matrix(1,0,0,1,508.0000000000001,108) translate(305.2951388888889 18.15451388888889)"/><use xlink:href="#e" transform="matrix(1,0,0,1,508.0000000000001,108) translate(428.60243055555554 18.15451388888889)"/><path d="M247.33 409.54c0 7.94-6.44 14.4-14.4 14.4-7.94 0-14.38-6.46-14.38-14.4 0-7.95 6.44-14.4 14.4-14.4 7.94 0 14.38 6.45 14.38 14.4z" stroke="#000" stroke-width="2" fill="#fcfcca"/><path d="M232.94 423.93v35.3a15.6 15.6 0 0 0 2.9 9.07l30.04 42m-32.94-46.07L200 510.3m0-71.98h65.88" stroke="#000" stroke-width="2" fill="none"/><path d="M200 400.14a5 5 0 0 1 5-5h55.88a5 5 0 0 1 5 5V527.3a5 5 0 0 1-5 5H205a5 5 0 0 1-5-5z" fill="none"/><use xlink:href="#f" transform="matrix(1,0,0,1,120,510.2857142857142) translate(94.77083333333333 17.15451388888889)"/><path d="M421.45 294.4c0 7.94-6.44 14.4-14.4 14.4-7.94 0-14.38-6.46-14.38-14.4 0-7.96 6.44-14.4 14.4-14.4 7.94 0 14.38 6.44 14.38 14.4z" stroke="#3d4752" stroke-width="2" fill="#ff8f8f"/><path d="M407.06 308.8v35.3a15.6 15.6 0 0 0 2.9 9.05l30.04 42m-32.94-46.06l-32.94 46.04m0-71.96H440" stroke="#3d4752" stroke-width="2" fill="none"/><path d="M374.12 285a5 5 0 0 1 5-5H435a5 5 0 0 1 5 5v127.14a5 5 0 0 1-5 5h-55.88a5 5 0 0 1-5-5z" fill="none"/><use xlink:href="#g" transform="matrix(1,0,0,1,294.11764705882354,395.1428571428571) translate(46.95833333333333 17.15451388888889)"/><use xlink:href="#h" transform="matrix(1,0,0,1,294.11764705882354,395.1428571428571) translate(114.50173611111111 17.15451388888889)"/><path d="M421.45 513.54c0 7.94-6.44 14.4-14.4 14.4-7.94 0-14.38-6.46-14.38-14.4 0-7.95 6.44-14.4 14.4-14.4 7.94 0 14.38 6.45 14.38 14.4z" stroke="#3d4752" stroke-width="2" fill="#c3f7c8"/><path d="M407.06 527.93v35.3a15.6 15.6 0 0 0 2.9 9.07l30.04 42m-32.94-46.07l-32.94 46.06m0-71.98H440" stroke="#3d4752" stroke-width="2" fill="none"/><path d="M374.12 504.14a5 5 0 0 1 5-5H435a5 5 0 0 1 5 5V631.3a5 5 0 0 1-5 5h-55.88a5 5 0 0 1-5-5z" fill="none"/><use xlink:href="#i" transform="matrix(1,0,0,1,294.11764705882354,614.2857142857142) translate(60.052951388888886 17.15451388888889)"/><use xlink:href="#h" transform="matrix(1,0,0,1,294.11764705882354,614.2857142857142) translate(101.40711805555556 17.15451388888889)"/><path d="M1367.33 394.4c0 7.94-6.44 14.4-14.4 14.4-7.94 0-14.38-6.46-14.38-14.4 0-7.96 6.44-14.4 14.4-14.4 7.94 0 14.38 6.44 14.38 14.4z" stroke="#3d4752" stroke-width="2" fill="#635dff"/><path d="M1352.94 408.8v35.3a15.6 15.6 0 0 0 2.9 9.05l30.04 42m-32.94-46.06L1320 495.13m0-71.96h65.88" stroke="#3d4752" stroke-width="2" fill="none"/><path d="M1320 385a5 5 0 0 1 5-5h55.88a5 5 0 0 1 5 5v127.14a5 5 0 0 1-5 5H1325a5 5 0 0 1-5-5z" fill="none"/><use xlink:href="#j" transform="matrix(1,0,0,1,1240,495.1428571428571) translate(87.52690972222223 17.15451388888889)"/><path d="M235.65 463.7h79.77a5 5 0 0 0 5-5V353.58a5 5 0 0 1 5-5h79.78M235.68 463.7h-4.03M405.17 348.57h4.03M235.65 463.7h79.77a5 5 0 0 1 5 5v94a5 5 0 0 0 5 5h79.78M235.68 463.7h-4.03M405.17 567.7h4.03" stroke="#000" stroke-width="2" fill="none"/><path d="M928.56 207.3c0 26.14-33.83 47.32-75.56 47.32-41.73 0-75.56-21.18-75.56-47.3 0-26.14 33.83-47.32 75.56-47.32 41.73 0 75.56 21.18 75.56 47.3z" stroke="#3d4752" stroke-width="2" fill="#d7faf5"/><use xlink:href="#k" transform="matrix(1,0,0,1,777.4444444444446,160) translate(46.40777777777778 43.220486111111114)"/><use xlink:href="#l" transform="matrix(1,0,0,1,777.4444444444446,160) translate(31.90690972222222 63.91493055555556)"/><path d="M407 337.13l368.5-129.5M407.03 337.12l-3.8 1.34" stroke="#e81313" stroke-width="2" fill="none"/><path d="M776.44 207.3l.03 1.06-.66.23-.66-1.9 1.34-.46z" stroke="#e81313" stroke-width=".05" fill="#e81313"/><path d="M406.84 555.98l392.86-312.9M406.86 555.97l-3.15 2.5" stroke="#54c45e" stroke-width="2" fill="none"/><path d="M800.92 242.74l.5.27-1.12.9-1.24-1.57.53-.43z" stroke="#54c45e" stroke-width=".05" fill="#54c45e"/><path d="M924.72 567.3c0 26.14-33.83 47.32-75.55 47.32-41.73 0-75.56-21.18-75.56-47.3 0-26.14 33.84-47.32 75.57-47.32 41.72 0 75.55 21.18 75.55 47.3z" stroke="#3d4752" stroke-width="2" fill="#edf5ff"/><use xlink:href="#m" transform="matrix(1,0,0,1,773.6111111111114,520.0000000000001) translate(25.813159722222217 55.095486111111114)"/><path d="M409.06 556.63l362.55 10.65M409.08 556.63l-4.02-.1" stroke="#54c45e" stroke-width="2" fill="none"/><path d="M772.64 566.3l-.03 1 .04 1-1.08-.02.05-2z" stroke="#54c45e" stroke-width=".05" fill="#54c45e"/><path d="M926 687.3c0 26.14-33.83 47.32-75.56 47.32-41.72 0-75.55-21.18-75.55-47.3 0-26.14 33.82-47.32 75.54-47.32 41.73 0 75.56 21.18 75.56 47.3z" stroke="#3d4752" stroke-width="2" fill="#edf5ff"/><use xlink:href="#n" transform="matrix(1,0,0,1,774.8888888888891,640.0000000000002) translate(36.368715277777774 55.095486111111114)"/><path d="M928.56 327.3c0 26.14-33.83 47.32-75.56 47.32-41.73 0-75.56-21.18-75.56-47.3 0-26.14 33.83-47.32 75.56-47.32 41.73 0 75.56 21.18 75.56 47.3z" stroke="#3d4752" stroke-width="2" fill="#d7faf5"/><use xlink:href="#o" transform="matrix(1,0,0,1,777.4444444444446,280) translate(44.39388888888888 55.095486111111114)"/><path d="M407.06 337.45l368.77-5.36M407.08 337.45l-4.02.06" stroke="#e81313" stroke-width="2" fill="none"/><path d="M776.96 332.93l.03.15h-1.18l-.03-2h.88z" stroke="#e81313" stroke-width=".05" fill="#e81313"/><path d="M406.95 556.15l385.5-198.1M406.97 556.14l-3.58 1.84" stroke="#54c45e" stroke-width="2" fill="none"/><path d="M793.46 357.7l.77.57-1.35.7-.9-1.78.52-.3z" stroke="#54c45e" stroke-width=".05" fill="#54c45e"/><path d="M1350.97 437.2L930.52 327.57M1350.95 437.2l3.9 1.02" stroke="#635dff" stroke-width="2" fill="none"/><path d="M930.8 326.6l-.5 1.93-.78-.2.04-1.02-.03-1.03z" stroke="#635dff" stroke-width=".05" fill="#635dff"/><path d="M407 556.94l365.95 130.03M407.03 556.95l-3.8-1.35" stroke="#54c45e" stroke-width="2" fill="none"/><path d="M773.92 686.26l-.03 1.04v1.08l-1.3-.47.66-1.88z" stroke="#54c45e" stroke-width=".05" fill="#54c45e"/><path d="M927.28 807.3c0 26.14-33.83 47.32-75.56 47.32-41.73 0-75.55-21.18-75.55-47.3 0-26.14 33.82-47.32 75.55-47.32s75.56 21.18 75.56 47.3z" stroke="#3d4752" stroke-width="2" fill="#edf5ff"/><use xlink:href="#p" transform="matrix(1,0,0,1,776.1666666666669,760.0000000000003) translate(25.726354166666667 55.095486111111114)"/><path d="M926 927.3c0 26.14-33.83 47.32-75.56 47.32-41.72 0-75.55-21.18-75.55-47.3 0-26.14 33.82-47.32 75.54-47.32 41.73 0 75.56 21.18 75.56 47.3z" stroke="#3d4752" stroke-width="2" fill="#edf5ff"/><use xlink:href="#q" transform="matrix(1,0,0,1,774.8888888888891,880.0000000000005) translate(55.18815972222222 55.095486111111114)"/><path d="M928.56 1047.3c0 26.14-33.83 47.32-75.56 47.32-41.73 0-75.56-21.18-75.56-47.3 0-26.14 33.83-47.32 75.56-47.32 41.73 0 75.56 21.18 75.56 47.3z" stroke="#3d4752" stroke-width="2" fill="#edf5ff"/><use xlink:href="#r" transform="matrix(1,0,0,1,777.4444444444446,1000.0000000000006) translate(30.253263888888892 43.220486111111114)"/><use xlink:href="#s" transform="matrix(1,0,0,1,777.4444444444446,1000.0000000000006) translate(50.02322916666667 63.91493055555556)"/><path d="M1350.98 437.75l-424.3 129.27M1350.96 437.76l3.85-1.17" stroke="#635dff" stroke-width="2" fill="none"/><path d="M927 567.97l-1.3.4.02-1.06-.02-1.03.7-.22z" stroke="#635dff" stroke-width=".05" fill="#635dff"/><path d="M1352.07 451.3L927.87 686.8M1352.04 451.3l3.52-1.95" stroke="#635dff" stroke-width="2" fill="none"/><path d="M928.38 687.68l-1.42.8.04-1.17-.03-1.12.44-.24z" stroke="#635dff" stroke-width=".05" fill="#635dff"/><path d="M1351.2 438.12L929.02 806.65M1351.17 438.14l3.03-2.65" stroke="#635dff" stroke-width="2" fill="none"/><path d="M929.7 807.4l-1.47 1.27.05-1.36-.03-1.3.14-.12z" stroke="#635dff" stroke-width=".05" fill="#635dff"/><path d="M1352.27 451.55l-424.6 475M1352.26 451.57l2.68-3" stroke="#635dff" stroke-width="2" fill="none"/><path d="M928.43 927.2l-1.48 1.67.05-1.56-.03-1.4z" stroke="#635dff" stroke-width=".05" fill="#635dff"/><path d="M1352.36 451.62L930.13 1046.5M1352.35 451.64l2.33-3.28" stroke="#635dff" stroke-width="2" fill="none"/><path d="M930.96 1047.05l-1.46 2.07.06-1.8-.04-1.3z" stroke="#635dff" stroke-width=".05" fill="#635dff"/><path d="M406.9 557.17l367.44 249.58M406.9 557.18l-3.32-2.26" stroke="#54c45e" stroke-width="2" fill="none"/><path d="M775.2 806.13l-.03 1.17.03 1.24-1.44-.98 1.12-1.66z" stroke="#54c45e" stroke-width=".05" fill="#54c45e"/><path d="M406.76 557.3l366.42 369.3M406.78 557.33l-2.83-2.85" stroke="#54c45e" stroke-width="2" fill="none"/><path d="M773.93 925.93l-.04 1.37.02 1.46-1.46-1.48 1.42-1.4z" stroke="#54c45e" stroke-width=".05" fill="#54c45e"/><path d="M406.66 557.4l369.18 489.1M406.68 557.42l-2.43-3.2" stroke="#54c45e" stroke-width="2" fill="none"/><path d="M776.44 1047.3l.04 1.53.02.2-1.47-1.94 1.46-1.1z" stroke="#54c45e" stroke-width=".05" fill="#54c45e"/><path d="M926 447.3c0 26.14-33.83 47.32-75.56 47.32-41.72 0-75.55-21.18-75.55-47.3 0-26.14 33.82-47.32 75.54-47.32 41.73 0 75.56 21.18 75.56 47.3z" stroke="#3d4752" stroke-width="2" fill="#d7faf5"/><use xlink:href="#t" transform="matrix(1,0,0,1,774.8888888888891,400) translate(37.94857638888889 55.095486111111114)"/><use xlink:href="#u" transform="matrix(1,0,0,1,774.8888888888891,400) translate(75.68295138888888 55.095486111111114)"/><path d="M407.03 337.7l374.85 86.68M407.06 337.7l-3.92-.9" stroke="#e81313" stroke-width="2" fill="none"/><path d="M783.58 423.74l-1.44 1.72-.5-.12.44-1.94z" stroke="#e81313" stroke-width=".05" fill="#e81313"/><path d="M407.03 556.37l372.38-89.34M407.06 556.37l-3.92.93" stroke="#54c45e" stroke-width="2" fill="none"/><path d="M781 467.68l-1.38.33-.47-1.93.6-.15z" stroke="#54c45e" stroke-width=".05" fill="#54c45e"/><path d="M1350.94 437.46H926.4M1350.92 437.46h4.02" stroke="#635dff" stroke-width="2" fill="none"/><path d="M926.44 438.46h-.73l-.26-.92-.4-1.08h1.4z" stroke="#635dff" stroke-width=".05" fill="#635dff"/><defs><path fill="#3d4752" d="M169-1493h935v291H516v278h553v291H516V0H169v-1493" id="v"/><path fill="#3d4752" d="M559-209c139-2 231-135 215-295H607c-121 0-201 40-203 150-1 92 61 146 155 145zm25-938c365 0 515 144 515 508V0H774v-166C694-45 612 25 431 29 223 33 75-127 79-336c7-293 188-379 505-381h190c7-155-90-192-248-192-148 0-262 34-359 92v-273c127-34 264-57 417-57" id="w"/><path fill="#3d4752" d="M155-1556h322V0H155v-1556" id="x"/><path fill="#3d4752" d="M660-1147c120 1 218 25 309 62v292c-75-57-153-97-269-98-188-2-285 135-285 332s97 333 285 332c116-1 202-41 269-99v293C879 4 778 28 660 29 298 32 79-195 79-559s219-591 581-588" id="y"/><path fill="#3d4752" d="M851-559c0-185-53-332-217-332-165 0-219 146-219 332s54 332 219 332c164 0 217-147 217-332zm-772 0c0-357 205-588 555-588 352 0 553 231 553 588S986 29 634 29C284 29 79-203 79-559" id="z"/><path fill="#3d4752" d="M813-1147c255 0 355 190 355 465V0H844c-2-224 8-517-6-722-6-99-51-155-145-155-155 0-216 151-216 326V0H155v-1120h322v164c84-110 170-191 336-191" id="A"/><g id="a"><use transform="matrix(0.008680555555555556,0,0,0.008680555555555556,0,0)" xlink:href="#v"/><use transform="matrix(0.008680555555555556,0,0,0.008680555555555556,9.887152777777779,0)" xlink:href="#w"/><use transform="matrix(0.008680555555555556,0,0,0.008680555555555556,20.677083333333336,0)" xlink:href="#x"/><use transform="matrix(0.008680555555555556,0,0,0.008680555555555556,26.154513888888893,0)" xlink:href="#y"/><use transform="matrix(0.008680555555555556,0,0,0.008680555555555556,35.63368055555556,0)" xlink:href="#z"/><use transform="matrix(0.008680555555555556,0,0,0.008680555555555556,46.62326388888889,0)" xlink:href="#A"/></g><path fill="#3d4752" d="M100-735h565v291H100v-291" id="B"/><use transform="matrix(0.008680555555555556,0,0,0.008680555555555556,0,0)" xlink:href="#B" id="b"/><path fill="#3d4752" d="M169-1493h347V0H169v-1493" id="C"/><path fill="#3d4752" d="M634-1520c174 1 323 31 470 74v316c-123-61-255-111-415-111-143 0-243 30-243 156 0 110 72 125 186 151l147 33c267 65 413 148 413 442 0 341-184 489-534 488-198-1-361-45-514-107v-325c144 83 287 149 481 153 132 2 234-44 234-162 0-47-15-81-41-108-43-44-208-78-298-101-240-60-385-164-388-436-4-304 191-466 502-463" id="D"/><path fill="#3d4752" d="M1275-1006c0 322-201 491-531 488H516V0H169v-1493h575c330-3 531 166 531 487zm-357 0c0-133-78-209-211-208H516v417h191c133 1 211-76 211-209" id="E"/><g id="c"><use transform="matrix(0.008680555555555556,0,0,0.008680555555555556,0,0)" xlink:href="#C"/><use transform="matrix(0.008680555555555556,0,0,0.008680555555555556,5.946180555555556,0)" xlink:href="#D"/><use transform="matrix(0.008680555555555556,0,0,0.008680555555555556,17.46527777777778,0)" xlink:href="#E"/></g><path fill="#3d4752" d="M169-1493h441l306 799 308-799h440V0h-328v-1092l-309 805H807l-309-805V0H169v-1493" id="F"/><path fill="#3d4752" d="M535 205c243 4 321-137 306-395C761-77 678 0 508 0 240 0 83-280 83-573c0-295 157-572 425-572 170 0 254 77 333 191v-166h324v1007c0 369-222 558-599 555-140-1-251-25-360-65V98c97 60 191 105 329 107zm306-778c0-174-59-314-213-314-153 0-211 141-211 314 0 179 52 313 211 313 154 0 213-140 213-313" id="G"/><path fill="#3d4752" d="M638-1147c325 0 530 249 523 584v102H408c13 163 105 252 278 252 174 0 302-60 427-135v276C978-11 832 27 656 29 291 32 79-193 79-559c0-355 209-588 559-588zm192 465c3-126-73-228-194-227-138 2-208 95-225 227h419" id="H"/><path fill="#3d4752" d="M783-1147c155 0 259 93 306 213 69-117 167-213 330-213 255 0 356 190 356 465V0h-324c1-217 2-438 2-651 0-135-19-226-134-226-61 0-108 28-141 84s-52 137-52 243V0H802v-584c0-124-10-204-29-240s-54-53-103-53c-61 0-108 29-142 85s-51 136-51 241V0H153v-1120h324v164c67-107 154-191 306-191" id="I"/><path fill="#3d4752" d="M535 0C267-4 184-113 184-389v-475H24v-256h160v-318h323v318h332v256H507v475c3 109 27 133 138 133h166V0H535" id="J"/><g id="d"><use transform="matrix(0.008680555555555556,0,0,0.008680555555555556,0,0)" xlink:href="#F"/><use transform="matrix(0.008680555555555556,0,0,0.008680555555555556,15.92013888888889,0)" xlink:href="#w"/><use transform="matrix(0.008680555555555556,0,0,0.008680555555555556,26.710069444444443,0)" xlink:href="#A"/><use transform="matrix(0.008680555555555556,0,0,0.008680555555555556,38.09895833333333,0)" xlink:href="#w"/><use transform="matrix(0.008680555555555556,0,0,0.008680555555555556,48.888888888888886,0)" xlink:href="#G"/><use transform="matrix(0.008680555555555556,0,0,0.008680555555555556,60.338541666666664,0)" xlink:href="#H"/><use transform="matrix(0.008680555555555556,0,0,0.008680555555555556,71.18923611111111,0)" xlink:href="#I"/><use transform="matrix(0.008680555555555556,0,0,0.008680555555555556,87.85590277777779,0)" xlink:href="#H"/><use transform="matrix(0.008680555555555556,0,0,0.008680555555555556,98.70659722222223,0)" xlink:href="#A"/><use transform="matrix(0.008680555555555556,0,0,0.008680555555555556,110.09548611111111,0)" xlink:href="#J"/></g><path fill="#3d4752" d="M22-1120h323l271 760 230-760h322L744 106c-43 125-92 212-149 262s-131 74-224 74H184V207c79 0 180 4 220-29 29-23 54-81 68-135" id="K"/><path fill="#3d4752" d="M542-1147c149 0 269 26 400 62v272c-115-53-235-96-381-96-103 0-181 17-181 104 0 97 114 93 211 109 165 27 276 62 333 115s86 137 86 251c0 264-188 360-474 359-157-1-294-29-425-70v-272c113 62 242 104 403 104 106 0 190-24 190-115 0-106-113-97-221-116-254-44-388-98-388-357 0-260 168-350 447-350" id="L"/><g id="e"><use transform="matrix(0.008680555555555556,0,0,0.008680555555555556,0,0)" xlink:href="#D"/><use transform="matrix(0.008680555555555556,0,0,0.008680555555555556,11.519097222222223,0)" xlink:href="#K"/><use transform="matrix(0.008680555555555556,0,0,0.008680555555555556,21.944444444444446,0)" xlink:href="#L"/><use transform="matrix(0.008680555555555556,0,0,0.008680555555555556,31.467013888888893,0)" xlink:href="#J"/><use transform="matrix(0.008680555555555556,0,0,0.008680555555555556,39.114583333333336,0)" xlink:href="#H"/><use transform="matrix(0.008680555555555556,0,0,0.008680555555555556,49.96527777777778,0)" xlink:href="#I"/></g><path fill="#3d4752" d="M675 29c-356 0-515-220-515-590v-932h183v907c3 290 68 451 332 451s331-162 331-451v-907h183v932c2 370-158 590-514 590" id="M"/><path fill="#3d4752" d="M494-1147c125 1 234 21 322 60v174c-84-48-179-80-302-80-144 0-247 39-247 168 0 43 17 75 45 101 30 28 149 62 233 83 205 51 325 110 325 332S691 33 454 29C320 27 211-1 100-41v-190c105 60 212 104 357 106 137 2 243-47 243-170 0-50-18-86-46-115-28-30-163-69-256-92-182-45-291-113-291-315 0-221 156-332 387-330" id="N"/><path fill="#3d4752" d="M596-1147c288 0 446 236 440 541v90H274c12 235 125 389 360 389 150 0 259-43 363-104v174C890-7 771 28 625 29c-329 3-523-240-523-578s174-598 494-598zm274 487c1-183-98-331-272-331-198 0-306 137-318 332" id="O"/><path fill="#3d4752" d="M334-946c67-144 215-228 423-191l1 189c-35-23-77-35-133-35-208 0-291 166-291 393V0H167v-1120h167v174" id="P"/><g id="f"><use transform="matrix(0.008680555555555556,0,0,0.008680555555555556,0,0)" xlink:href="#M"/><use transform="matrix(0.008680555555555556,0,0,0.008680555555555556,11.710069444444445,0)" xlink:href="#N"/><use transform="matrix(0.008680555555555556,0,0,0.008680555555555556,20.04340277777778,0)" xlink:href="#O"/><use transform="matrix(0.008680555555555556,0,0,0.008680555555555556,29.88715277777778,0)" xlink:href="#P"/></g><path fill="#3d4752" d="M61-1493h184L527-231l282-1262h204l283 1262 282-1262h184L1425 0h-229L913-1296 626 0H398" id="Q"/><path fill="#3d4752" d="M174-1120h165V0H174v-1120zm0-436h165v233H174v-233" id="R"/><path fill="#3d4752" d="M508 0C239-6 171-93 171-369v-608H50v-143h121v-318h167v318h341v143H338v608c6 171 13 215 170 215h171V0H508" id="S"/><path fill="#3d4752" d="M660-1147c256 0 352 192 352 471V0H846v-670c0-188-54-317-223-317-190 0-289 153-289 354V0H167v-1556h167v610c70-117 159-201 326-201" id="T"/><path fill="#3d4752" d="M851-559c0-228-84-432-287-432S276-789 276-559c0 134 26 240 77 317s122 115 211 115c203 0 287-203 287-432zm-749 0c0-335 149-588 462-588 311 0 463 254 463 588S875 29 564 29c-312 0-462-254-462-588" id="U"/><path fill="#3d4752" d="M510 29c-255 0-353-193-353-471v-678h165v671c0 188 54 316 223 318 191 3 290-153 290-354v-635h166V0H835v-172C764-54 678 29 510 29" id="V"/><g id="g"><use transform="matrix(0.008680555555555556,0,0,0.008680555555555556,0,0)" xlink:href="#Q"/><use transform="matrix(0.008680555555555556,0,0,0.008680555555555556,15.425347222222223,0)" xlink:href="#R"/><use transform="matrix(0.008680555555555556,0,0,0.008680555555555556,19.869791666666668,0)" xlink:href="#S"/><use transform="matrix(0.008680555555555556,0,0,0.008680555555555556,26.13715277777778,0)" xlink:href="#T"/><use transform="matrix(0.008680555555555556,0,0,0.008680555555555556,36.27604166666667,0)" xlink:href="#U"/><use transform="matrix(0.008680555555555556,0,0,0.008680555555555556,46.059027777777786,0)" xlink:href="#V"/><use transform="matrix(0.008680555555555556,0,0,0.008680555555555556,56.19791666666667,0)" xlink:href="#S"/></g><path fill="#3d4752" d="M630-1294L383-551h495zm-103-199h207L1246 0h-189L934-383H328L206 0H14" id="W"/><path fill="#3d4752" d="M608-1147c116 1 209 28 291 70v172c-81-49-167-86-283-86-233 0-340 182-340 432s106 432 340 432c116 0 202-37 283-86v170C814 1 720 28 598 29c-319 1-496-254-496-588 0-342 179-589 506-588" id="X"/><path fill="#3d4752" d="M660-1147c256 0 352 192 352 471V0H846v-670c0-188-54-317-223-317-190 0-289 153-289 354V0H167v-1120h167v174c70-117 159-201 326-201" id="Y"/><g id="h"><use transform="matrix(0.008680555555555556,0,0,0.008680555555555556,0,0)" xlink:href="#W"/><use transform="matrix(0.008680555555555556,0,0,0.008680555555555556,10.625,0)" xlink:href="#X"/><use transform="matrix(0.008680555555555556,0,0,0.008680555555555556,19.41840277777778,0)" xlink:href="#X"/><use transform="matrix(0.008680555555555556,0,0,0.008680555555555556,28.211805555555557,0)" xlink:href="#U"/><use transform="matrix(0.008680555555555556,0,0,0.008680555555555556,37.99479166666667,0)" xlink:href="#V"/><use transform="matrix(0.008680555555555556,0,0,0.008680555555555556,48.13368055555556,0)" xlink:href="#Y"/><use transform="matrix(0.008680555555555556,0,0,0.008680555555555556,58.272569444444436,0)" xlink:href="#S"/></g><g id="i"><use transform="matrix(0.008680555555555556,0,0,0.008680555555555556,0,0)" xlink:href="#Q"/><use transform="matrix(0.008680555555555556,0,0,0.008680555555555556,15.425347222222223,0)" xlink:href="#R"/><use transform="matrix(0.008680555555555556,0,0,0.008680555555555556,19.869791666666668,0)" xlink:href="#S"/><use transform="matrix(0.008680555555555556,0,0,0.008680555555555556,26.13715277777778,0)" xlink:href="#T"/></g><path fill="#3d4752" d="M514-1147c169 0 260 77 323 197v-606h166V0H837v-168C774-48 683 29 514 29c-122 0-218-57-298-162-149-197-149-655 0-852 80-105 176-162 298-162zM348-878c-92 141-92 497 0 638 97 149 317 148 414 0 92-141 92-497 0-638-97-148-317-149-414 0" id="Z"/><path fill="#3d4752" d="M658-1147c166 0 258 102 300 242 74-142 163-242 352-242 238 0 329 206 329 471V0h-167v-670c-1-187-43-317-208-317-184 0-278 156-278 354V0H820v-670c-1-188-43-317-210-317-183 0-276 157-276 354V0H167v-1120h167v174c68-121 154-201 324-201" id="aa"/><g id="j"><use transform="matrix(0.008680555555555556,0,0,0.008680555555555556,0,0)" xlink:href="#W"/><use transform="matrix(0.008680555555555556,0,0,0.008680555555555556,10.625,0)" xlink:href="#Z"/><use transform="matrix(0.008680555555555556,0,0,0.008680555555555556,20.78125,0)" xlink:href="#aa"/><use transform="matrix(0.008680555555555556,0,0,0.008680555555555556,36.36284722222222,0)" xlink:href="#R"/><use transform="matrix(0.008680555555555556,0,0,0.008680555555555556,40.80729166666666,0)" xlink:href="#Y"/></g><path fill="#3d4752" d="M942-440c0-191-95-272-288-273H363v547h291c193 0 288-84 288-274zm-46-662c0-160-97-225-264-225H363v450h269c168 0 264-64 264-225zm238 684C1134-141 949 0 663 0H181v-1493h464c260-3 432 120 433 369 0 180-76 292-227 319 173 39 283 179 283 387" id="ab"/><path fill="#3d4752" d="M77-1120h166l207 874 206-874h195l207 874 206-874h166L1166 0H971L754-918 536 0H341" id="ac"/><g id="k"><use transform="matrix(0.008680555555555556,0,0,0.008680555555555556,0,0)" xlink:href="#ab"/><use transform="matrix(0.008680555555555556,0,0,0.008680555555555556,10.972222222222223,0)" xlink:href="#P"/><use transform="matrix(0.008680555555555556,0,0,0.008680555555555556,17.15277777777778,0)" xlink:href="#U"/><use transform="matrix(0.008680555555555556,0,0,0.008680555555555556,26.93576388888889,0)" xlink:href="#ac"/><use transform="matrix(0.008680555555555556,0,0,0.008680555555555556,40.017361111111114,0)" xlink:href="#N"/><use transform="matrix(0.008680555555555556,0,0,0.008680555555555556,48.35069444444445,0)" xlink:href="#O"/></g><path fill="#3d4752" d="M181-1493h182v612h660v-612h182V0h-182v-711H363V0H181v-1493" id="ad"/><path fill="#3d4752" d="M656 29c-168 0-259-77-322-197v594H167v-1546h167v170c63-120 154-197 322-197 123 0 218 57 298 162 149 197 149 655 0 852C874-28 779 29 656 29zm166-269c91-141 91-497 0-638-97-149-317-148-413 0-92 141-92 497 0 638 96 148 316 149 413 0" id="ae"/><path fill="#3d4752" d="M492-125c212-3 318-199 304-438-153-2-375 0-442 51-49 38-78 92-78 174-2 130 85 215 216 213zm35-1022c309 0 435 185 435 508V0H796v-170C726-45 630 27 448 29c-207 3-339-146-337-355 3-268 170-382 453-381h232c7-185-105-285-286-284-132 1-236 38-326 92v-170c104-44 210-78 343-78" id="af"/><path fill="#3d4752" d="M554-154c204 0 283-189 283-419 0-231-78-420-283-420-204 0-281 190-281 420s77 419 281 419zm-40-993c168 0 261 78 323 197v-170h166v981c0 357-127 565-465 565-125 0-223-21-315-59V188c85 51 169 86 289 86 230 0 325-139 325-380v-91C775-78 682 0 514 0 239 0 102-270 102-573c0-173 38-312 113-417s175-157 299-157" id="ag"/><g id="l"><use transform="matrix(0.008680555555555556,0,0,0.008680555555555556,0,0)" xlink:href="#ad"/><use transform="matrix(0.008680555555555556,0,0,0.008680555555555556,12.03125,0)" xlink:href="#U"/><use transform="matrix(0.008680555555555556,0,0,0.008680555555555556,21.81423611111111,0)" xlink:href="#aa"/><use transform="matrix(0.008680555555555556,0,0,0.008680555555555556,37.395833333333336,0)" xlink:href="#O"/><use transform="matrix(0.008680555555555556,0,0,0.008680555555555556,47.239583333333336,0)" xlink:href="#ae"/><use transform="matrix(0.008680555555555556,0,0,0.008680555555555556,57.395833333333336,0)" xlink:href="#af"/><use transform="matrix(0.008680555555555556,0,0,0.008680555555555556,67.19618055555556,0)" xlink:href="#ag"/><use transform="matrix(0.008680555555555556,0,0,0.008680555555555556,77.35243055555556,0)" xlink:href="#O"/></g><path fill="#3d4752" d="M593-1520c149 1 273 32 393 76v197c-115-60-222-106-372-109-182-3-310 76-310 246s89 189 257 231l109 25c246 53 397 168 397 442 0 305-196 444-514 441-160-1-297-43-426-95v-208c125 76 251 136 426 139 191 3 325-82 325-262 0-175-99-230-261-265-277-59-495-123-495-432 0-271 192-430 471-426" id="ah"/><path fill="#3d4752" d="M822-240c91-141 91-497 0-638-97-149-317-148-413 0-92 141-92 497 0 638 96 148 316 149 413 0zM656 29c-168 0-259-77-322-197V0H167v-1556h167v606c63-120 154-197 322-197 123 0 218 57 298 162 149 197 149 655 0 852C874-28 779 29 656 29" id="ai"/><g id="m"><use transform="matrix(0.008680555555555556,0,0,0.008680555555555556,0,0)" xlink:href="#ah"/><use transform="matrix(0.008680555555555556,0,0,0.008680555555555556,10.15625,0)" xlink:href="#V"/><use transform="matrix(0.008680555555555556,0,0,0.008680555555555556,20.29513888888889,0)" xlink:href="#ai"/><use transform="matrix(0.008680555555555556,0,0,0.008680555555555556,30.45138888888889,0)" xlink:href="#N"/><use transform="matrix(0.008680555555555556,0,0,0.008680555555555556,38.78472222222222,0)" xlink:href="#X"/><use transform="matrix(0.008680555555555556,0,0,0.008680555555555556,47.578125,0)" xlink:href="#P"/><use transform="matrix(0.008680555555555556,0,0,0.008680555555555556,54.14930555555556,0)" xlink:href="#R"/><use transform="matrix(0.008680555555555556,0,0,0.008680555555555556,58.59375,0)" xlink:href="#ae"/><use transform="matrix(0.008680555555555556,0,0,0.008680555555555556,68.75,0)" xlink:href="#S"/><use transform="matrix(0.008680555555555556,0,0,0.008680555555555556,75.01736111111111,0)" xlink:href="#R"/><use transform="matrix(0.008680555555555556,0,0,0.008680555555555556,79.46180555555556,0)" xlink:href="#U"/><use transform="matrix(0.008680555555555556,0,0,0.008680555555555556,89.24479166666667,0)" xlink:href="#Y"/></g><path fill="#3d4752" d="M857-1047c0-174-95-281-266-280H363v561h228c172 1 266-106 266-281zm191 0c0 297-159 448-457 447H363V0H181v-1493h410c297-1 457 151 457 446" id="aj"/><path fill="#3d4752" d="M593 104c-47 133-94 219-137 261-67 67-181 63-310 61V272c81 0 164 8 203-36 34-22 87-175 114-254L55-1120h175l315 876 315-876h176" id="ak"/><g id="n"><use transform="matrix(0.008680555555555556,0,0,0.008680555555555556,0,0)" xlink:href="#aj"/><use transform="matrix(0.008680555555555556,0,0,0.008680555555555556,8.845486111111112,0)" xlink:href="#af"/><use transform="matrix(0.008680555555555556,0,0,0.008680555555555556,18.645833333333336,0)" xlink:href="#ak"/><use transform="matrix(0.008680555555555556,0,0,0.008680555555555556,28.107638888888893,0)" xlink:href="#aa"/><use transform="matrix(0.008680555555555556,0,0,0.008680555555555556,43.689236111111114,0)" xlink:href="#O"/><use transform="matrix(0.008680555555555556,0,0,0.008680555555555556,53.532986111111114,0)" xlink:href="#Y"/><use transform="matrix(0.008680555555555556,0,0,0.008680555555555556,63.671875,0)" xlink:href="#S"/><use transform="matrix(0.008680555555555556,0,0,0.008680555555555556,69.93923611111111,0)" xlink:href="#N"/></g><path fill="#3d4752" d="M760-1520c182 1 316 57 427 142v213c-106-108-227-189-417-189-335 0-475 249-475 609 0 359 141 608 475 608 189 0 311-81 417-189v211C1074-30 942 28 760 29c-427 2-656-328-656-774 0-448 228-777 656-775" id="al"/><g id="o"><use transform="matrix(0.008680555555555556,0,0,0.008680555555555556,0,0)" xlink:href="#al"/><use transform="matrix(0.008680555555555556,0,0,0.008680555555555556,11.171875,0)" xlink:href="#U"/><use transform="matrix(0.008680555555555556,0,0,0.008680555555555556,20.95486111111111,0)" xlink:href="#Y"/><use transform="matrix(0.008680555555555556,0,0,0.008680555555555556,31.09375,0)" xlink:href="#S"/><use transform="matrix(0.008680555555555556,0,0,0.008680555555555556,37.361111111111114,0)" xlink:href="#af"/><use transform="matrix(0.008680555555555556,0,0,0.008680555555555556,47.161458333333336,0)" xlink:href="#X"/><use transform="matrix(0.008680555555555556,0,0,0.008680555555555556,55.954861111111114,0)" xlink:href="#S"/></g><path fill="#3d4752" d="M-5-1493h1136v170H654V0H472v-1323H-5v-170" id="am"/><g id="p"><use transform="matrix(0.008680555555555556,0,0,0.008680555555555556,0,0)" xlink:href="#am"/><use transform="matrix(0.008680555555555556,0,0,0.008680555555555556,7.152777777777778,0)" xlink:href="#P"/><use transform="matrix(0.008680555555555556,0,0,0.008680555555555556,13.723958333333334,0)" xlink:href="#af"/><use transform="matrix(0.008680555555555556,0,0,0.008680555555555556,23.524305555555557,0)" xlink:href="#Y"/><use transform="matrix(0.008680555555555556,0,0,0.008680555555555556,33.66319444444444,0)" xlink:href="#N"/><use transform="matrix(0.008680555555555556,0,0,0.008680555555555556,41.99652777777778,0)" xlink:href="#af"/><use transform="matrix(0.008680555555555556,0,0,0.008680555555555556,51.796875,0)" xlink:href="#X"/><use transform="matrix(0.008680555555555556,0,0,0.008680555555555556,60.59027777777778,0)" xlink:href="#S"/><use transform="matrix(0.008680555555555556,0,0,0.008680555555555556,66.85763888888889,0)" xlink:href="#R"/><use transform="matrix(0.008680555555555556,0,0,0.008680555555555556,71.30208333333331,0)" xlink:href="#U"/><use transform="matrix(0.008680555555555556,0,0,0.008680555555555556,81.08506944444444,0)" xlink:href="#Y"/><use transform="matrix(0.008680555555555556,0,0,0.008680555555555556,91.22395833333333,0)" xlink:href="#N"/></g><path fill="#3d4752" d="M1119-748c0-391-154-576-537-579H363v1161h219c384-3 537-189 537-582zm191 0c0 519-236 746-756 748H181v-1493h373c521 2 756 227 756 745" id="an"/><g id="q"><use transform="matrix(0.008680555555555556,0,0,0.008680555555555556,0,0)" xlink:href="#an"/><use transform="matrix(0.008680555555555556,0,0,0.008680555555555556,12.317708333333334,0)" xlink:href="#V"/><use transform="matrix(0.008680555555555556,0,0,0.008680555555555556,22.456597222222225,0)" xlink:href="#O"/><use transform="matrix(0.008680555555555556,0,0,0.008680555555555556,32.30034722222222,0)" xlink:href="#N"/></g><g id="r"><use transform="matrix(0.008680555555555556,0,0,0.008680555555555556,0,0)" xlink:href="#al"/><use transform="matrix(0.008680555555555556,0,0,0.008680555555555556,11.171875,0)" xlink:href="#U"/><use transform="matrix(0.008680555555555556,0,0,0.008680555555555556,20.95486111111111,0)" xlink:href="#Y"/><use transform="matrix(0.008680555555555556,0,0,0.008680555555555556,31.09375,0)" xlink:href="#Y"/><use transform="matrix(0.008680555555555556,0,0,0.008680555555555556,41.232638888888886,0)" xlink:href="#O"/><use transform="matrix(0.008680555555555556,0,0,0.008680555555555556,51.076388888888886,0)" xlink:href="#X"/><use transform="matrix(0.008680555555555556,0,0,0.008680555555555556,59.869791666666664,0)" xlink:href="#S"/><use transform="matrix(0.008680555555555556,0,0,0.008680555555555556,66.13715277777777,0)" xlink:href="#R"/><use transform="matrix(0.008680555555555556,0,0,0.008680555555555556,70.58159722222221,0)" xlink:href="#U"/><use transform="matrix(0.008680555555555556,0,0,0.008680555555555556,80.36458333333331,0)" xlink:href="#Y"/></g><g id="s"><use transform="matrix(0.008680555555555556,0,0,0.008680555555555556,0,0)" xlink:href="#ah"/><use transform="matrix(0.008680555555555556,0,0,0.008680555555555556,10.15625,0)" xlink:href="#S"/><use transform="matrix(0.008680555555555556,0,0,0.008680555555555556,16.42361111111111,0)" xlink:href="#af"/><use transform="matrix(0.008680555555555556,0,0,0.008680555555555556,26.223958333333336,0)" xlink:href="#S"/><use transform="matrix(0.008680555555555556,0,0,0.008680555555555556,32.49131944444445,0)" xlink:href="#V"/><use transform="matrix(0.008680555555555556,0,0,0.008680555555555556,42.63020833333334,0)" xlink:href="#N"/></g><path fill="#3d4752" d="M181-1493h182v1323h654V0H181v-1493" id="ao"/><path fill="#3d4752" d="M55-1120h175l315 940 315-940h176L658 0H433" id="ap"/><g id="t"><use transform="matrix(0.008680555555555556,0,0,0.008680555555555556,0,0)" xlink:href="#ao"/><use transform="matrix(0.008680555555555556,0,0,0.008680555555555556,8.90625,0)" xlink:href="#R"/><use transform="matrix(0.008680555555555556,0,0,0.008680555555555556,13.350694444444445,0)" xlink:href="#ap"/><use transform="matrix(0.008680555555555556,0,0,0.008680555555555556,22.8125,0)" xlink:href="#O"/></g><g id="u"><use transform="matrix(0.008680555555555556,0,0,0.008680555555555556,0,0)" xlink:href="#al"/><use transform="matrix(0.008680555555555556,0,0,0.008680555555555556,11.171875,0)" xlink:href="#T"/><use transform="matrix(0.008680555555555556,0,0,0.008680555555555556,21.31076388888889,0)" xlink:href="#af"/><use transform="matrix(0.008680555555555556,0,0,0.008680555555555556,31.111111111111114,0)" xlink:href="#S"/></g></defs></g></svg>