<svg xmlns="http://www.w3.org/2000/svg" xmlns:xlink="http://www.w3.org/1999/xlink" xmlns:lucid="lucid" width="1004" height="1021"><g transform="translate(-405 -90)" lucid:page-tab-id="0_0"><path d="M477 239v4m0 8v7.98m0 8v7.98m0 8v7.98m0 8v7.98m0 8v7.98m0 8v7.98m0 8v8m0 7.98v8m0 7.98v8m0 7.98v8m0 7.98v8m0 7.98v8m0 7.98v8m0 8v7.98m0 8v7.98m0 8v7.98m0 8v7.98m0 8v7.98m0 8v7.98m0 8v8m0 7.98v8m0 7.98v8m0 7.98v8m0 7.98v8m0 7.98v8m0 7.98v8m0 7.98v2.5h3v2.5m0 8v7.98m0 8v7.98m0 8v7.98m0 8v7.98m0 8v7.98m0 8v7.98m0 8v8m0 7.98v8m0 7.98v8m0 7.98v8m0 7.98v8m0 7.98v8m0 7.98v8m0 8v7.98m0 8v7.98m0 8v7.98m0 8v7.98m0 8v7.98m0 8v7.98m0 8v8m0 7.98v8m0 7.98v8m0 7.98v8m0 7.98v8m0 7.98v8m0 7.98v8m0 7.98v4" stroke="#3d4752" stroke-width="2" fill="none"/><path d="M478 239.03h-2V235h2z" stroke="#3d4752" stroke-width=".05" fill="#3d4752"/><path d="M480 1098.97v1.03M877 239v3.98m0 7.96v7.97m0 7.97v7.96m0 7.97v7.96m0 7.96v7.97m0 7.95v7.96m0 7.97v7.97m0 7.96v7.96m0 7.97v7.96m0 7.95v7.96m0 7.98v7.96m0 7.96v7.97m0 7.96v7.96m0 7.96v7.96m0 7.96v7.96m0 7.97v7.97m0 7.96v7.97m0 7.96v7.96m0 7.97v7.95m0 7.96v7.97m0 7.97v7.96m0 7.96v7.97m0 7.96v7.95m0 7.96v7.98m0 7.96v7.96m0 7.97v7.96m0 7.96v7.96m0 7.96v7.96m0 7.96v7.97m0 7.97v7.96m0 7.97v7.96m0 7.96v7.97m0 7.95v7.96m0 7.97v7.97m0 7.96v7.96m0 7.97v7.96m0 7.95v7.96m0 7.98v7.96m0 7.96v7.97m0 7.96v7.96m0 7.96v7.96m0 7.96v7.96m0 7.97v7.97m0 7.96v7.97m0 7.96v7.96m0 7.97v7.95m0 7.96v7.97m0 7.97v7.96m0 7.96v7.97m0 7.96v7.95m0 7.96v7.98m0 7.96v7.96m0 7.97v7.96m0 7.96v7.96m0 7.96v3.98" stroke="#3d4752" stroke-width="2" fill="none"/><path d="M878 239.03h-2V235h2z" stroke="#3d4752" stroke-width=".05" fill="#3d4752"/><path d="M877 1098.97v1.03M1077 239v3.98m0 7.96v7.97m0 7.97v7.96m0 7.97v7.96m0 7.96v7.97m0 7.95v7.96m0 7.97v7.97m0 7.96v7.96m0 7.97v7.96m0 7.95v7.96m0 7.98v7.96m0 7.96v7.97m0 7.96v7.96m0 7.96v7.96m0 7.96v7.96m0 7.97v7.97m0 7.96v7.97m0 7.96v7.96m0 7.97v7.95m0 7.96v7.97m0 7.97v7.96m0 7.96v7.97m0 7.96v7.95m0 7.96v7.98m0 7.96v7.96m0 7.97v7.96m0 7.96v7.96m0 7.96v7.96m0 7.96v7.97m0 7.97v7.96m0 7.97v7.96m0 7.96v7.97m0 7.95v7.96m0 7.97v7.97m0 7.96v7.96m0 7.97v7.96m0 7.95v7.96m0 7.98v7.96m0 7.96v7.97m0 7.96v7.96m0 7.96v7.96m0 7.96v7.96m0 7.97v7.97m0 7.96v7.97m0 7.96v7.96m0 7.97v7.95m0 7.96v7.97m0 7.97v7.96m0 7.96v7.97m0 7.96v7.95m0 7.96v7.98m0 7.96v7.96m0 7.97v7.96m0 7.96v7.96m0 7.96v3.98" stroke="#3d4752" stroke-width="2" fill="none"/><path d="M1078 239.03h-2V235h2z" stroke="#3d4752" stroke-width=".05" fill="#3d4752"/><path d="M1077 1098.97v1.03M677 225v3.97m0 7.95v7.94m0 7.95v7.95m0 7.95v7.95m0 7.94v7.94m0 7.94v7.95m0 7.94v7.95m0 7.94v7.95m0 7.95v7.95m0 7.95V372m0 7.94v7.94m0 7.95v7.94m0 7.95v7.94m0 7.95v7.95m0 7.95v7.95m0 7.94v7.94m0 7.94v7.95m0 7.94v7.95m0 7.94V515m0 7.95v7.95m0 7.95v7.94m0 7.94v7.94m0 7.95v7.94m0 7.95v7.94m0 7.95v7.95m0 7.95v7.95m0 7.94v7.94m0 7.94v7.95m0 7.94v7.95m0 7.94v7.95m0 7.95v7.95m0 7.95v7.94m0 7.94v7.94m0 7.95v7.94m0 7.95v7.94m0 7.95v7.95m0 7.95v7.95m0 7.94v7.94m0 7.94v7.95m0 7.94v7.95m0 7.94v7.95m0 7.95v7.95m0 7.95v7.94m0 7.94v7.94m0 7.95v7.94m0 7.95v7.94m0 7.95v7.95m0 7.95v7.95m0 7.94v7.94m0 7.94v7.95m0 7.94v7.95m0 7.94v7.95m0 7.95v7.95m0 7.95v7.94m0 7.94v7.94m0 7.95v3.97" stroke="#3d4752" stroke-width="2" fill="none"/><path d="M678 225.03h-2V224h2z" stroke="#3d4752" stroke-width=".05" fill="#3d4752"/><path d="M677 1098.97v1.03M1277 225v3.97m0 7.95v7.94m0 7.95v7.95m0 7.95v7.95m0 7.94v7.94m0 7.94v7.95m0 7.94v7.95m0 7.94v7.95m0 7.95v7.95m0 7.95V372m0 7.94v7.94m0 7.95v7.94m0 7.95v7.94m0 7.95v7.95m0 7.95v7.95m0 7.94v7.94m0 7.94v7.95m0 7.94v7.95m0 7.94V515m0 7.95v7.95m0 7.95v7.94m0 7.94v7.94m0 7.95v7.94m0 7.95v7.94m0 7.95v7.95m0 7.95v7.95m0 7.94v7.94m0 7.94v7.95m0 7.94v7.95m0 7.94v7.95m0 7.95v7.95m0 7.95v7.94m0 7.94v7.94m0 7.95v7.94m0 7.95v7.94m0 7.95v7.95m0 7.95v7.95m0 7.94v7.94m0 7.94v7.95m0 7.94v7.95m0 7.94v7.95m0 7.95v7.95m0 7.95v7.94m0 7.94v7.94m0 7.95v7.94m0 7.95v7.94m0 7.95v7.95m0 7.95v7.95m0 7.94v7.94m0 7.94v7.95m0 7.94v7.95m0 7.94v7.95m0 7.95v7.95m0 7.95v7.94m0 7.94v7.94m0 7.95v3.97" stroke="#3d4752" stroke-width="2" fill="none"/><path d="M1278 225.03h-2V224h2z" stroke="#3d4752" stroke-width=".05" fill="#3d4752"/><path d="M1277 1098.97v1.03" stroke="#3d4752" stroke-width="2" fill="none"/><path d="M425 110h964v152H425z" stroke="#000" stroke-width="2" fill="#f2f2f2"/><path d="M486.75 147.75c0 5.38-4.37 9.75-9.75 9.75s-9.75-4.37-9.75-9.75S471.62 138 477 138s9.75 4.37 9.75 9.75z" stroke="#3d4752" stroke-width="2" fill-opacity="0"/><path d="M477 157.5v27.3l20 31.2m-20-31.2L457 216m0-48.75h40" stroke="#3d4752" stroke-width="2" fill="none"/><path d="M457 138h40v100h-40z" fill="none"/><use xlink:href="#a" transform="matrix(1,0,0,1,377,216) translate(81.05 14.6)"/><path d="M1086.75 147.75c0 5.38-4.37 9.75-9.75 9.75s-9.75-4.37-9.75-9.75 4.37-9.75 9.75-9.75 9.75 4.37 9.75 9.75z" stroke="#3d4752" stroke-width="2" fill-opacity="0"/><path d="M1077 157.5v27.3l20 31.2m-20-31.2l-20 31.2m0-48.75h40" stroke="#3d4752" stroke-width="2" fill="none"/><path d="M1057 138h40v100h-40z" fill="none"/><use xlink:href="#b" transform="matrix(1,0,0,1,977,216) translate(74.55 14.6)"/><path d="M886.75 147.75c0 5.38-4.37 9.75-9.75 9.75s-9.75-4.37-9.75-9.75S871.62 138 877 138s9.75 4.37 9.75 9.75z" stroke="#3d4752" stroke-width="2" fill-opacity="0"/><path d="M877 157.5v27.3l20 31.2m-20-31.2L857 216m0-48.75h40" stroke="#3d4752" stroke-width="2" fill="none"/><path d="M857 138h40v100h-40z" fill="none"/><use xlink:href="#a" transform="matrix(1,0,0,1,777,216) translate(81.05 14.6)"/><path d="M597 153h160v70H597z" stroke="#3d4752" stroke-width="2" fill="#d7faf5"/><use xlink:href="#c" transform="matrix(1,0,0,1,597,153) translate(10.729999999999999 27.525)"/><use xlink:href="#d" transform="matrix(1,0,0,1,597,153) translate(44.379999999999995 27.525)"/><use xlink:href="#e" transform="matrix(1,0,0,1,597,153) translate(50.029999999999994 49.125)"/><path d="M1197 153h160v70h-160z" stroke="#3d4752" stroke-width="2" fill="#e3fae3"/><use xlink:href="#f" transform="matrix(1,0,0,1,1197,153) translate(19.08 38.4625)"/><use xlink:href="#g" transform="matrix(1,0,0,1,1197,153) translate(75.97999999999999 38.4625)"/><path d="M457 278h40v740h-40z" stroke="#000" stroke-opacity="0" stroke-width="2" fill="#6db1ff"/><path d="M657 278h40v80h-40z" stroke="#000" stroke-opacity="0" stroke-width="2" fill="#00c2a8"/><path d="M498 318h140.5" stroke="#1071e5" stroke-width="2" fill="none"/><path d="M498.03 319H497v-2h1.03z" stroke="#1071e5" stroke-width=".05" fill="#1071e5"/><path d="M653.76 318l-14.26 4.64v-9.28z" stroke="#1071e5" stroke-width="2" fill="#1071e5"/><use xlink:href="#h" transform="matrix(1,0,0,1,517.4608024691358,276.1333333333333) translate(0.005000000000002558 12.622222222222224)"/><use xlink:href="#i" transform="matrix(1,0,0,1,517.4608024691358,276.1333333333333) translate(32.4370987654321 12.622222222222224)"/><use xlink:href="#j" transform="matrix(1,0,0,1,517.4608024691358,276.1333333333333) translate(35.92135802469135 31.55555555555556)"/><use xlink:href="#k" transform="matrix(1,0,0,1,517.4608024691358,276.1333333333333) translate(53.45222222222222 31.55555555555556)"/><path d="M657 398h40v80h-40z" stroke="#000" stroke-opacity="0" stroke-width="2" fill="#00c2a8"/><path d="M498 436.67h79v.06h61.5" stroke="#1071e5" stroke-width="2" fill="none"/><path d="M498.03 437.67H497v-2h1.03z" stroke="#1071e5" stroke-width=".05" fill="#1071e5"/><path d="M653.76 436.73l-14.26 4.64v-9.28z" stroke="#1071e5" stroke-width="2" fill="#1071e5"/><use xlink:href="#l" transform="matrix(1,0,0,1,533.680801083639,375.86769935354994) translate(14.007777777777775 12.622222222222224)"/><use xlink:href="#m" transform="matrix(1,0,0,1,533.680801083639,375.86769935354994) translate(0.005000000000002558 31.55555555555556)"/><use xlink:href="#n" transform="matrix(1,0,0,1,533.680801083639,375.86769935354994) translate(10.545432098765431 50.488888888888894)"/><use xlink:href="#k" transform="matrix(1,0,0,1,533.680801083639,375.86769935354994) translate(46.39604938271605 50.488888888888894)"/><path d="M657 518h40v80h-40z" stroke="#000" stroke-opacity="0" stroke-width="2" fill="#00c2a8"/><path d="M498 560.67h79v-.13h61.5" stroke="#1071e5" stroke-width="2" fill="none"/><path d="M498.03 561.67H497v-2h1.03z" stroke="#1071e5" stroke-width=".05" fill="#1071e5"/><path d="M653.76 560.54l-14.26 4.63v-9.27z" stroke="#1071e5" stroke-width="2" fill="#1071e5"/><use xlink:href="#o" transform="matrix(1,0,0,1,543.0516975367786,537.6069033231472) translate(0 12.622222222222224)"/><use xlink:href="#k" transform="matrix(1,0,0,1,543.0516975367786,537.6069033231472) translate(38.17345679012346 12.622222222222224)"/><path d="M657 638h40v80h-40z" stroke="#000" stroke-opacity="0" stroke-width="2" fill="#00c2a8"/><path d="M498 684h79v-.3h61.5" stroke="#1071e5" stroke-width="2" fill="none"/><path d="M498.03 685H497v-2h1.03z" stroke="#1071e5" stroke-width=".05" fill="#1071e5"/><path d="M653.76 683.7l-14.26 4.65v-9.27z" stroke="#1071e5" stroke-width="2" fill="#1071e5"/><use xlink:href="#p" transform="matrix(1,0,0,1,533.6639615452228,641.8500048884041) translate(10.041419753086423 12.622222222222224)"/><use xlink:href="#q" transform="matrix(1,0,0,1,533.6639615452228,641.8500048884041) translate(0.005000000000002558 31.55555555555556)"/><path d="M857 698h40v160h-40z" stroke="#000" stroke-opacity="0" stroke-width="2" fill="#6db1ff"/><path d="M698 670.67h242V850h95v.12h3.5" stroke="#00c2a8" stroke-width="2" fill="none"/><path d="M698.03 671.67H697v-2h1.03z" stroke="#00c2a8" stroke-width=".05" fill="#00c2a8"/><path d="M1053.76 850.12l-14.26 4.64v-9.27z" stroke="#00c2a8" stroke-width="2" fill="#00c2a8"/><use xlink:href="#r" transform="matrix(1,0,0,1,704.2895577680316,623.4666666666666) translate(0.0049999999999954525 14.4)"/><use xlink:href="#s" transform="matrix(1,0,0,1,704.2895577680316,623.4666666666666) translate(69.905 14.4)"/><use xlink:href="#t" transform="matrix(1,0,0,1,704.2895577680316,623.4666666666666) translate(50.904999999999994 36)"/><path d="M657 758h40v60h-40z" stroke="#000" stroke-opacity="0" stroke-width="2" fill="#00c2a8"/><path d="M856 765.62h-79v.48h-61.5" stroke="#1071e5" stroke-width="2" fill="none"/><path d="M857 766.62h-1.03v-2H857z" stroke="#1071e5" stroke-width=".05" fill="#1071e5"/><path d="M700.24 766.1l14.26-4.64v9.27z" stroke="#1071e5" stroke-width="2" fill="#1071e5"/><use xlink:href="#u" transform="matrix(1,0,0,1,714.5293257191362,713.7874679574637) translate(0.005000000000002558 14.4)"/><use xlink:href="#v" transform="matrix(1,0,0,1,714.5293257191362,713.7874679574637) translate(55.955000000000005 14.4)"/><use xlink:href="#w" transform="matrix(1,0,0,1,714.5293257191362,713.7874679574637) translate(41.505 36)"/><path d="M699 813.7c0 .56-.45 1-1 1s-1-.44-1-1c0-.54.45-1 1-1s1 .46 1 1zm4.04 0c0 .56-.45 1-1 1s-1-.44-1-1c0-.54.45-1 1-1s1 .46 1 1zm4.05 0c0 .56-.46 1-1 1-.57 0-1-.44-1-1 0-.54.43-1 1-1 .54 0 1 .46 1 1zm4.03 0c0 .56-.45 1-1 1s-1-.44-1-1c0-.54.45-1 1-1s1 .46 1 1zm4.04 0c0 .56-.45 1-1 1s-1-.44-1-1c0-.54.45-1 1-1s1 .46 1 1zm4.04 0c0 .56-.43 1-1 1-.54 0-1-.44-1-1 0-.54.46-1 1-1 .57 0 1 .46 1 1zm4.06 0c0 .56-.45 1-1 1-.56 0-1-.44-1-1 0-.54.44-1 1-1 .55 0 1 .46 1 1zm4.04 0c0 .56-.45 1-1 1s-1-.44-1-1c0-.54.45-1 1-1s1 .46 1 1zm4.04 0c0 .56-.45 1-1 1s-1-.44-1-1c0-.54.45-1 1-1s1 .46 1 1zm4.04 0c0 .56-.44 1-1 1-.55 0-1-.44-1-1 0-.54.45-1 1-1 .56 0 1 .46 1 1zm4.05 0c0 .56-.45 1-1 1-.56 0-1-.44-1-1 0-.54.44-1 1-1 .55 0 1 .46 1 1zm4.04 0c0 .56-.45 1-1 1s-1-.44-1-1c0-.54.45-1 1-1s1 .46 1 1zm4.04 0c0 .56-.44 1-1 1-.54 0-1-.44-1-1 0-.54.46-1 1-1 .56 0 1 .46 1 1zm4.05 0c0 .56-.44 1-1 1-.55 0-1-.44-1-1 0-.54.45-1 1-1 .56 0 1 .46 1 1zm4.05 0c0 .56-.45 1-1 1-.56 0-1-.44-1-1 0-.54.44-1 1-1 .55 0 1 .46 1 1zm4.04 0c0 .56-.45 1-1 1s-1-.44-1-1c0-.54.45-1 1-1s1 .46 1 1zm4.04 0c0 .56-.45 1-1 1s-1-.44-1-1c0-.54.45-1 1-1s1 .46 1 1zm4.04 0c0 .56-.44 1-1 1-.55 0-1-.44-1-1 0-.54.45-1 1-1 .56 0 1 .46 1 1zm4.05 0c0 .56-.45 1-1 1-.56 0-1-.44-1-1 0-.54.44-1 1-1 .55 0 1 .46 1 1zm4.04 0c0 .56-.44 1-1 1-.54 0-1-.44-1-1 0-.54.46-1 1-1 .56 0 1 .46 1 1zm3.06-.98c0 .55-.45 1-1 1s-1-.45-1-1c0-.56.45-1 1-1s1 .44 1 1zm4.04 0c0 .55-.45 1-1 1s-1-.45-1-1c0-.56.45-1 1-1s1 .44 1 1zm4.04 0c0 .55-.44 1-1 1-.55 0-1-.45-1-1 0-.56.45-1 1-1 .56 0 1 .44 1 1zm4.05 0c0 .55-.46 1-1 1-.57 0-1-.45-1-1 0-.56.43-1 1-1 .54 0 1 .44 1 1zm4.03 0c0 .55-.45 1-1 1s-1-.45-1-1c0-.56.45-1 1-1s1 .44 1 1zm4.04 0c0 .55-.45 1-1 1s-1-.45-1-1c0-.56.45-1 1-1s1 .44 1 1zm4.04 0c0 .55-.43 1-1 1-.54 0-1-.45-1-1 0-.56.46-1 1-1 .57 0 1 .44 1 1zm4.06 0c0 .55-.45 1-1 1-.56 0-1-.45-1-1 0-.56.44-1 1-1 .55 0 1 .44 1 1zm4.04 0c0 .55-.45 1-1 1s-1-.45-1-1c0-.56.45-1 1-1s1 .44 1 1zm4.04 0c0 .55-.45 1-1 1s-1-.45-1-1c0-.56.45-1 1-1s1 .44 1 1zm4.05 0c0 .55-.46 1-1 1-.57 0-1-.45-1-1 0-.56.43-1 1-1 .54 0 1 .44 1 1zm4.03 0c0 .55-.45 1-1 1s-1-.45-1-1c0-.56.45-1 1-1s1 .44 1 1zm4.04 0c0 .55-.45 1-1 1s-1-.45-1-1c0-.56.45-1 1-1s1 .44 1 1zm4.04 0c0 .55-.43 1-1 1-.54 0-1-.45-1-1 0-.56.46-1 1-1 .57 0 1 .44 1 1zm4.06 0c0 .55-.45 1-1 1-.56 0-1-.45-1-1 0-.56.44-1 1-1 .55 0 1 .44 1 1zm4.04 0c0 .55-.45 1-1 1s-1-.45-1-1c0-.56.45-1 1-1s1 .44 1 1z" fill="#00c2a8"/><path d="M698.03 814.7H697v-2h1.03z" stroke="#00c2a8" stroke-width=".05" fill="#00c2a8"/><path d="M853.76 812.72l-14.26 4.63v-9.27z" stroke="#00c2a8" stroke-width="2" fill="#00c2a8"/><use xlink:href="#x" transform="matrix(1,0,0,1,709.0239033306063,782.4833857788567) translate(0 14.4)"/><use xlink:href="#y" transform="matrix(1,0,0,1,709.0239033306063,782.4833857788567) translate(75.95 14.4)"/><path d="M657 958h40v60h-40zM657 858h40v60h-40z" stroke="#000" stroke-opacity="0" stroke-width="2" fill="#00c2a8"/><path d="M1057 818h40v60h-40z" stroke="#000" stroke-opacity="0" stroke-width="2" fill="#9391ff"/><path d="M715.5 868.32H1035v-1.9h21" stroke="#635dff" stroke-width="2" fill="none"/><path d="M700.24 868.32l14.26-4.64v9.27z" stroke="#635dff" stroke-width="2" fill="#635dff"/><path d="M1057 867.4h-1.03v-2h1.03z" stroke="#635dff" stroke-width=".05" fill="#635dff"/><use xlink:href="#z" transform="matrix(1,0,0,1,838.5854238628714,872.3174603174604) translate(0 14.4)"/><use xlink:href="#A" transform="matrix(1,0,0,1,838.5854238628714,872.3174603174604) translate(62.95 14.4)"/><use xlink:href="#B" transform="matrix(1,0,0,1,838.5854238628714,872.3174603174604) translate(166.8 14.4)"/><path d="M1056 828.32h-79v-3.34h-61.5" stroke="#635dff" stroke-width="2" fill="none"/><path d="M1057 829.32h-1.03v-2h1.03z" stroke="#635dff" stroke-width=".05" fill="#635dff"/><path d="M900.24 824.98l14.26-4.63v9.27z" stroke="#635dff" stroke-width="2" fill="#635dff"/><g><use xlink:href="#C" transform="matrix(1,0,0,1,906.7986612177193,799.729843173114) translate(0 14.4)"/><use xlink:href="#D" transform="matrix(1,0,0,1,906.7986612177193,799.729843173114) translate(50.900000000000006 14.4)"/></g><path d="M498 972.44h79v16.2h61.5" stroke="#1071e5" stroke-width="2" fill="none"/><path d="M498.03 973.44H497v-2h1.03z" stroke="#1071e5" stroke-width=".05" fill="#1071e5"/><path d="M653.76 988.63l-14.26 4.64V984z" stroke="#1071e5" stroke-width="2" fill="#1071e5"/><g><use xlink:href="#E" transform="matrix(1,0,0,1,520.7146193986906,930.8559103562598) translate(0.005000000000002558 12.622222222222224)"/><use xlink:href="#i" transform="matrix(1,0,0,1,520.7146193986906,930.8559103562598) translate(29.80746913580247 12.622222222222224)"/><use xlink:href="#F" transform="matrix(1,0,0,1,520.7146193986906,930.8559103562598) translate(35.87753086419753 31.55555555555556)"/></g><path d="M1257 748h40v60h-40z" stroke="#000" stroke-opacity="0" stroke-width="2" fill="#54c45e"/><path d="M1257 792.6c0 .56-.45 1-1 1s-1-.44-1-1c0-.55.45-1 1-1s1 .45 1 1zm-4 0c0 .56-.45 1-1 1-.56 0-1-.44-1-1 0-.55.44-1 1-1 .55 0 1 .45 1 1zm-4 0c0 .56-.46 1-1 1-.56 0-1-.44-1-1 0-.55.44-1 1-1 .54 0 1 .45 1 1zm-4.02 0c0 .56-.45 1-1 1s-1-.44-1-1c0-.55.45-1 1-1s1 .45 1 1zm-4 0c0 .56-.45 1-1 1-.56 0-1-.44-1-1 0-.55.44-1 1-1 .55 0 1 .45 1 1zm-4 0c0 .56-.46 1-1 1-.56 0-1-.44-1-1 0-.55.44-1 1-1 .54 0 1 .45 1 1zm-4.02 0c0 .56-.44 1-1 1-.55 0-1-.44-1-1 0-.55.45-1 1-1 .56 0 1 .45 1 1zm-4 0c0 .56-.45 1-1 1s-1-.44-1-1c0-.55.45-1 1-1s1 .45 1 1zm-4 0c0 .56-.45 1-1 1-.56 0-1-.44-1-1 0-.55.44-1 1-1 .55 0 1 .45 1 1zm-4 0c0 .56-.46 1-1 1-.57 0-1-.44-1-1 0-.55.43-1 1-1 .54 0 1 .45 1 1zm-4.02 0c0 .56-.45 1-1 1s-1-.44-1-1c0-.55.45-1 1-1s1 .45 1 1zm-4 0c0 .56-.45 1-1 1-.56 0-1-.44-1-1 0-.55.44-1 1-1 .55 0 1 .45 1 1zm-4 0c0 .56-.46 1-1 1-.56 0-1-.44-1-1 0-.55.44-1 1-1 .54 0 1 .45 1 1zm-4.02 0c0 .56-.44 1-1 1-.55 0-1-.44-1-1 0-.55.45-1 1-1 .56 0 1 .45 1 1zm-4 0c0 .56-.45 1-1 1s-1-.44-1-1c0-.55.45-1 1-1s1 .45 1 1zm-4 0c0 .56-.46 1-1 1-.56 0-1-.44-1-1 0-.55.44-1 1-1 .54 0 1 .45 1 1zm-4 0c0 .56-.46 1-1 1-.57 0-1-.44-1-1 0-.55.43-1 1-1 .54 0 1 .45 1 1zm-4.02 0c0 .56-.45 1-1 1s-1-.44-1-1c0-.55.45-1 1-1s1 .45 1 1zm-4 0c0 .56-.45 1-1 1-.56 0-1-.44-1-1 0-.55.44-1 1-1 .55 0 1 .45 1 1zm-4 0c0 .56-.46 1-1 1-.56 0-1-.44-1-1 0-.55.44-1 1-1 .54 0 1 .45 1 1zm-4.02 0c0 .56-.44 1-1 1-.55 0-1-.44-1-1 0-.55.45-1 1-1 .56 0 1 .45 1 1zm-4 0c0 .56-.45 1-1 1-.56 0-1-.44-1-1 0-.55.44-1 1-1 .55 0 1 .45 1 1zm-4 0c0 .56-.46 1-1 1-.56 0-1-.44-1-1 0-.55.44-1 1-1 .54 0 1 .45 1 1zm-4 0c0 .56-.46 1-1 1-.57 0-1-.44-1-1 0-.55.43-1 1-1 .54 0 1 .45 1 1zm-4.02 0c0 .56-.45 1-1 1s-1-.44-1-1c0-.55.45-1 1-1s1 .45 1 1zm-4 0c0 .56-.45 1-1 1-.56 0-1-.44-1-1 0-.55.44-1 1-1 .55 0 1 .45 1 1zm-4 0c0 .56-.46 1-1 1-.56 0-1-.44-1-1 0-.55.44-1 1-1 .54 0 1 .45 1 1zm-4.02 0c0 .56-.45 1-1 1s-1-.44-1-1c0-.55.45-1 1-1s1 .45 1 1zm-4 0c0 .56-.45 1-1 1-.56 0-1-.44-1-1 0-.55.44-1 1-1 .55 0 1 .45 1 1zm-4 0c0 .56-.46 1-1 1-.56 0-1-.44-1-1 0-.55.44-1 1-1 .54 0 1 .45 1 1zm-4.02 0c0 .56-.44 1-1 1-.55 0-1-.44-1-1 0-.55.45-1 1-1 .56 0 1 .45 1 1zm-4 0c0 .56-.45 1-1 1s-1-.44-1-1c0-.55.45-1 1-1s1 .45 1 1zm-4 0c0 .56-.46 1-1 1-.56 0-1-.44-1-1 0-.55.44-1 1-1 .54 0 1 .45 1 1zm-4 0c0 .56-.46 1-1 1-.57 0-1-.44-1-1 0-.55.43-1 1-1 .54 0 1 .45 1 1zm-4.02 0c0 .56-.45 1-1 1s-1-.44-1-1c0-.55.45-1 1-1s1 .45 1 1zm-4 0c0 .56-.45 1-1 1-.56 0-1-.44-1-1 0-.55.44-1 1-1 .55 0 1 .45 1 1zm-4 0c0 .56-.46 1-1 1-.56 0-1-.44-1-1 0-.55.44-1 1-1 .54 0 1 .45 1 1zm-4.02 0c0 .56-.44 1-1 1-.55 0-1-.44-1-1 0-.55.45-1 1-1 .56 0 1 .45 1 1zm-4 0c0 .56-.45 1-1 1s-1-.44-1-1c0-.55.45-1 1-1s1 .45 1 1zm-4 0c0 .56-.46 1-1 1-.56 0-1-.44-1-1 0-.55.44-1 1-1 .54 0 1 .45 1 1zm-4 0c0 .56-.46 1-1 1-.57 0-1-.44-1-1 0-.55.43-1 1-1 .54 0 1 .45 1 1zm-4.02 0c0 .56-.45 1-1 1s-1-.44-1-1c0-.55.45-1 1-1s1 .45 1 1zm-4 0c0 .56-.45 1-1 1-.56 0-1-.44-1-1 0-.55.44-1 1-1 .55 0 1 .45 1 1zm-4 0c0 .56-.46 1-1 1-.56 0-1-.44-1-1 0-.55.44-1 1-1 .54 0 1 .45 1 1zm-4.02 0c0 .56-.45 1-1 1s-1-.44-1-1c0-.55.45-1 1-1s1 .45 1 1zm-4 0c0 .56-.45 1-1 1-.56 0-1-.44-1-1 0-.55.44-1 1-1 .55 0 1 .45 1 1zm-4 0c0 .56-.46 1-1 1-.56 0-1-.44-1-1 0-.55.44-1 1-1 .54 0 1 .45 1 1zm-4.02 0c0 .56-.44 1-1 1-.55 0-1-.44-1-1 0-.55.45-1 1-1 .56 0 1 .45 1 1zm-4 0c0 .56-.45 1-1 1s-1-.44-1-1c0-.55.45-1 1-1s1 .45 1 1zm-4 0c0 .56-.45 1-1 1-.56 0-1-.44-1-1 0-.55.44-1 1-1 .55 0 1 .45 1 1zm-4 0c0 .56-.46 1-1 1-.57 0-1-.44-1-1 0-.55.43-1 1-1 .54 0 1 .45 1 1zm-4.02 0c0 .56-.45 1-1 1s-1-.44-1-1c0-.55.45-1 1-1s1 .45 1 1zm-4 0c0 .56-.45 1-1 1-.56 0-1-.44-1-1 0-.55.44-1 1-1 .55 0 1 .45 1 1zm-4 0c0 .56-.46 1-1 1-.56 0-1-.44-1-1 0-.55.44-1 1-1 .54 0 1 .45 1 1zm-4.02 0c0 .56-.44 1-1 1-.55 0-1-.44-1-1 0-.55.45-1 1-1 .56 0 1 .45 1 1zm-4 0c0 .56-.45 1-1 1s-1-.44-1-1c0-.55.45-1 1-1s1 .45 1 1zm-4 0c0 .56-.46 1-1 1-.56 0-1-.44-1-1 0-.55.44-1 1-1 .54 0 1 .45 1 1zm-4 0c0 .56-.46 1-1 1-.57 0-1-.44-1-1 0-.55.43-1 1-1 .54 0 1 .45 1 1zm-4.02 0c0 .56-.45 1-1 1s-1-.44-1-1c0-.55.45-1 1-1s1 .45 1 1zm-4 0c0 .56-.45 1-1 1-.56 0-1-.44-1-1 0-.55.44-1 1-1 .55 0 1 .45 1 1zm-4 0c0 .56-.46 1-1 1-.56 0-1-.44-1-1 0-.55.44-1 1-1 .54 0 1 .45 1 1zm-4.02 0c0 .56-.45 1-1 1s-1-.44-1-1c0-.55.45-1 1-1s1 .45 1 1zm-4 0c0 .56-.45 1-1 1-.56 0-1-.44-1-1 0-.55.44-1 1-1 .55 0 1 .45 1 1zm-4 0c0 .56-.46 1-1 1-.56 0-1-.44-1-1 0-.55.44-1 1-1 .54 0 1 .45 1 1zm-4.02 0c0 .56-.44 1-1 1-.55 0-1-.44-1-1 0-.55.45-1 1-1 .56 0 1 .45 1 1zm-4 0c0 .56-.45 1-1 1s-1-.44-1-1c0-.55.45-1 1-1s1 .45 1 1zm-4 0c0 .56-.45 1-1 1-.56 0-1-.44-1-1 0-.55.44-1 1-1 .55 0 1 .45 1 1zm-4 0c0 .56-.46 1-1 1-.56 0-1-.44-1-1 0-.55.44-1 1-1 .54 0 1 .45 1 1zm-4.02 0c0 .56-.45 1-1 1s-1-.44-1-1c0-.55.45-1 1-1s1 .45 1 1zm-4 0c0 .56-.45 1-1 1-.56 0-1-.44-1-1 0-.55.44-1 1-1 .55 0 1 .45 1 1zm-4 0c0 .56-.46 1-1 1-.56 0-1-.44-1-1 0-.55.44-1 1-1 .54 0 1 .45 1 1zm-4.02 0c0 .56-.44 1-1 1-.55 0-1-.44-1-1 0-.55.45-1 1-1 .56 0 1 .45 1 1zm-4 0c0 .56-.45 1-1 1s-1-.44-1-1c0-.55.45-1 1-1s1 .45 1 1zm-4 0c0 .56-.46 1-1 1-.56 0-1-.44-1-1 0-.55.44-1 1-1 .54 0 1 .45 1 1zm-4 0c0 .56-.46 1-1 1-.57 0-1-.44-1-1 0-.55.43-1 1-1 .54 0 1 .45 1 1zm-4.02 0c0 .56-.45 1-1 1s-1-.44-1-1c0-.55.45-1 1-1s1 .45 1 1zm-4 0c0 .56-.45 1-1 1-.56 0-1-.44-1-1 0-.55.44-1 1-1 .55 0 1 .45 1 1zm-4 0c0 .56-.46 1-1 1-.56 0-1-.44-1-1 0-.55.44-1 1-1 .54 0 1 .45 1 1zm-4.02 0c0 .56-.44 1-1 1-.55 0-1-.44-1-1 0-.55.45-1 1-1 .56 0 1 .45 1 1zm-4 0c0 .56-.45 1-1 1-.56 0-1-.44-1-1 0-.55.44-1 1-1 .55 0 1 .45 1 1zm-4 0c0 .56-.46 1-1 1-.56 0-1-.44-1-1 0-.55.44-1 1-1 .54 0 1 .45 1 1zm-4 0c0 .56-.46 1-1 1-.57 0-1-.44-1-1 0-.55.43-1 1-1 .54 0 1 .45 1 1zm-4.02 0c0 .56-.45 1-1 1s-1-.44-1-1c0-.55.45-1 1-1s1 .45 1 1zm-4 0c0 .56-.45 1-1 1-.56 0-1-.44-1-1 0-.55.44-1 1-1 .55 0 1 .45 1 1zm-4 0c0 .56-.46 1-1 1-.56 0-1-.44-1-1 0-.55.44-1 1-1 .54 0 1 .45 1 1z" fill="#008a0e"/><path d="M1257 793.6h-1.03v-2h1.03z" stroke="#008a0e" stroke-width=".05" fill="#008a0e"/><path d="M900.24 792.6l14.26-4.63v9.27z" stroke="#008a0e" stroke-width="2" fill="#008a0e"/><g><use xlink:href="#x" transform="matrix(1,0,0,1,1094.5692737430168,767.0031746031748) translate(0 14.4)"/><use xlink:href="#G" transform="matrix(1,0,0,1,1094.5692737430168,767.0031746031748) translate(75.95 14.4)"/></g><path d="M1256 757.05H915.5" stroke="#008a0e" stroke-width="2" fill="none"/><path d="M1257 758.05h-1.03v-2h1.03z" stroke="#008a0e" stroke-width=".05" fill="#008a0e"/><path d="M900.24 757.05l14.26-4.64v9.28z" stroke="#008a0e" stroke-width="2" fill="#008a0e"/><g><use xlink:href="#H" transform="matrix(1,0,0,1,1095.3403631284916,731.4476190476191) translate(0 14.4)"/><use xlink:href="#I" transform="matrix(1,0,0,1,1095.3403631284916,731.4476190476191) translate(49.9 14.4)"/></g><defs><path fill="#3d4752" d="M232-93c-1 65-40 97-104 97C67 4 28-28 28-90v-158h33c8 89-33 224 67 224 102 0 64-133 71-224h33v155" id="J"/><path fill="#3d4752" d="M135-143c-3-34-86-38-87 0 15 53 115 12 119 90S17 21 10-45l28-5c4 36 97 45 98 0-10-56-113-15-118-90-4-57 82-63 122-42 12 7 21 19 24 35" id="K"/><path fill="#3d4752" d="M100-194c63 0 86 42 84 106H49c0 40 14 67 53 68 26 1 43-12 49-29l28 8c-11 28-37 45-77 45C44 4 14-33 15-96c1-61 26-98 85-98zm52 81c6-60-76-77-97-28-3 7-6 17-6 28h103" id="L"/><path fill="#3d4752" d="M114-163C36-179 61-72 57 0H25l-1-190h30c1 12-1 29 2 39 6-27 23-49 58-41v29" id="M"/><g id="a"><use transform="matrix(0.05,0,0,0.05,0,0)" xlink:href="#J"/><use transform="matrix(0.05,0,0,0.05,12.950000000000001,0)" xlink:href="#K"/><use transform="matrix(0.05,0,0,0.05,21.950000000000003,0)" xlink:href="#L"/><use transform="matrix(0.05,0,0,0.05,31.950000000000003,0)" xlink:href="#M"/></g><path fill="#3d4752" d="M205 0l-28-72H64L36 0H1l101-248h38L239 0h-34zm-38-99l-47-123c-12 45-31 82-46 123h93" id="N"/><path fill="#3d4752" d="M85-194c31 0 48 13 60 33l-1-100h32l1 261h-30c-2-10 0-23-3-31C134-8 116 4 85 4 32 4 16-35 15-94c0-66 23-100 70-100zm9 24c-40 0-46 34-46 75 0 40 6 74 45 74 42 0 51-32 51-76 0-42-9-74-50-73" id="O"/><path fill="#3d4752" d="M210-169c-67 3-38 105-44 169h-31v-121c0-29-5-50-35-48C34-165 62-65 56 0H25l-1-190h30c1 10-1 24 2 32 10-44 99-50 107 0 11-21 27-35 58-36 85-2 47 119 55 194h-31v-121c0-29-5-49-35-48" id="P"/><path fill="#3d4752" d="M24-231v-30h32v30H24zM24 0v-190h32V0H24" id="Q"/><path fill="#3d4752" d="M117-194c89-4 53 116 60 194h-32v-121c0-31-8-49-39-48C34-167 62-67 57 0H25l-1-190h30c1 10-1 24 2 32 11-22 29-35 61-36" id="R"/><g id="b"><use transform="matrix(0.05,0,0,0.05,0,0)" xlink:href="#N"/><use transform="matrix(0.05,0,0,0.05,12,0)" xlink:href="#O"/><use transform="matrix(0.05,0,0,0.05,22,0)" xlink:href="#P"/><use transform="matrix(0.05,0,0,0.05,36.95,0)" xlink:href="#Q"/><use transform="matrix(0.05,0,0,0.05,40.900000000000006,0)" xlink:href="#R"/></g><path fill="#3d4752" d="M33 0v-248h34V0H33" id="S"/><path fill="#3d4752" d="M185-189c-5-48-123-54-124 2 14 75 158 14 163 119 3 78-121 87-175 55-17-10-28-26-33-46l33-7c5 56 141 63 141-1 0-78-155-14-162-118-5-82 145-84 179-34 5 7 8 16 11 25" id="T"/><path fill="#3d4752" d="M30-248c87 1 191-15 191 75 0 78-77 80-158 76V0H30v-248zm33 125c57 0 124 11 124-50 0-59-68-47-124-48v98" id="U"/><g id="c"><use transform="matrix(0.05,0,0,0.05,0,0)" xlink:href="#S"/><use transform="matrix(0.05,0,0,0.05,5,0)" xlink:href="#T"/><use transform="matrix(0.05,0,0,0.05,17,0)" xlink:href="#U"/><path fill="#3d4752" d="M-.9 1.25h35.45v1.32H-.9z"/></g><path fill="#3d4752" d="M240 0l2-218c-23 76-54 145-80 218h-23L58-218 59 0H30v-248h44l77 211c21-75 51-140 76-211h43V0h-30" id="V"/><path fill="#3d4752" d="M141-36C126-15 110 5 73 4 37 3 15-17 15-53c-1-64 63-63 125-63 3-35-9-54-41-54-24 1-41 7-42 31l-33-3c5-37 33-52 76-52 45 0 72 20 72 64v82c-1 20 7 32 28 27v20c-31 9-61-2-59-35zM48-53c0 20 12 33 32 33 41-3 63-29 60-74-43 2-92-5-92 41" id="W"/><path fill="#3d4752" d="M177-190C167-65 218 103 67 71c-23-6-38-20-44-43l32-5c15 47 100 32 89-28v-30C133-14 115 1 83 1 29 1 15-40 15-95c0-56 16-97 71-98 29-1 48 16 59 35 1-10 0-23 2-32h30zM94-22c36 0 50-32 50-73 0-42-14-75-50-75-39 0-46 34-46 75s6 73 46 73" id="X"/><path fill="#3d4752" d="M59-47c-2 24 18 29 38 22v24C64 9 27 4 27-40v-127H5v-23h24l9-43h21v43h35v23H59v120" id="Y"/><g id="d"><use transform="matrix(0.05,0,0,0.05,0,0)" xlink:href="#V"/><use transform="matrix(0.05,0,0,0.05,14.950000000000001,0)" xlink:href="#W"/><use transform="matrix(0.05,0,0,0.05,24.950000000000003,0)" xlink:href="#R"/><use transform="matrix(0.05,0,0,0.05,34.95,0)" xlink:href="#W"/><use transform="matrix(0.05,0,0,0.05,44.95,0)" xlink:href="#X"/><use transform="matrix(0.05,0,0,0.05,54.95,0)" xlink:href="#L"/><use transform="matrix(0.05,0,0,0.05,64.95,0)" xlink:href="#P"/><use transform="matrix(0.05,0,0,0.05,79.9,0)" xlink:href="#L"/><use transform="matrix(0.05,0,0,0.05,89.9,0)" xlink:href="#R"/><use transform="matrix(0.05,0,0,0.05,99.9,0)" xlink:href="#Y"/><path fill="#3d4752" d="M-.9 1.25h106.7v1.32H-.9z"/></g><path fill="#3d4752" d="M179-190L93 31C79 59 56 82 12 73V49c39 6 53-20 64-50L1-190h34L92-34l54-156h33" id="Z"/><g id="e"><use transform="matrix(0.05,0,0,0.05,0,0)" xlink:href="#T"/><use transform="matrix(0.05,0,0,0.05,12,0)" xlink:href="#Z"/><use transform="matrix(0.05,0,0,0.05,21,0)" xlink:href="#K"/><use transform="matrix(0.05,0,0,0.05,30,0)" xlink:href="#Y"/><use transform="matrix(0.05,0,0,0.05,35,0)" xlink:href="#L"/><use transform="matrix(0.05,0,0,0.05,45,0)" xlink:href="#P"/><path fill="#3d4752" d="M-.9 1.25h61.75v1.32H-.9z"/></g><path fill="#3d4752" d="M140-251c81 0 123 46 123 126C263-46 219 4 140 4 59 4 17-45 17-125s42-126 123-126zm0 227c63 0 89-41 89-101s-29-99-89-99c-61 0-89 39-89 99S79-25 140-24" id="aa"/><path fill="#3d4752" d="M24 0v-261h32V0H24" id="ab"/><g id="f"><use transform="matrix(0.05,0,0,0.05,0,0)" xlink:href="#aa"/><use transform="matrix(0.05,0,0,0.05,14,0)" xlink:href="#R"/><use transform="matrix(0.05,0,0,0.05,24,0)" xlink:href="#ab"/><use transform="matrix(0.05,0,0,0.05,27.950000000000003,0)" xlink:href="#Q"/><use transform="matrix(0.05,0,0,0.05,31.899999999999995,0)" xlink:href="#R"/><use transform="matrix(0.05,0,0,0.05,41.9,0)" xlink:href="#L"/><path fill="#3d4752" d="M-.9 1.25h58.7v1.32H-.9z"/></g><path fill="#3d4752" d="M160-131c35 5 61 23 61 61C221 17 115-2 30 0v-248c76 3 177-17 177 60 0 33-19 50-47 57zm-97-11c50-1 110 9 110-42 0-47-63-36-110-37v79zm0 115c55-2 124 14 124-45 0-56-70-42-124-44v89" id="ac"/><path fill="#3d4752" d="M143 0L79-87 56-68V0H24v-261h32v163l83-92h37l-77 82L181 0h-38" id="ad"/><g id="g"><use transform="matrix(0.05,0,0,0.05,0,0)" xlink:href="#ac"/><use transform="matrix(0.05,0,0,0.05,12,0)" xlink:href="#W"/><use transform="matrix(0.05,0,0,0.05,22,0)" xlink:href="#R"/><use transform="matrix(0.05,0,0,0.05,32,0)" xlink:href="#ad"/><use transform="matrix(0.05,0,0,0.05,41,0)" xlink:href="#Q"/><use transform="matrix(0.05,0,0,0.05,44.95,0)" xlink:href="#R"/><use transform="matrix(0.05,0,0,0.05,54.95,0)" xlink:href="#X"/><path fill="#3d4752" d="M-.9 1.25h66.75v1.32H-.9z"/></g><g id="h"><use transform="matrix(0.043827160493827164,0,0,0.043827160493827164,0,0)" xlink:href="#N"/><use transform="matrix(0.043827160493827164,0,0,0.043827160493827164,10.518518518518519,0)" xlink:href="#O"/><use transform="matrix(0.043827160493827164,0,0,0.043827160493827164,19.28395061728395,0)" xlink:href="#O"/></g><path fill="#3d4752" d="M84 4C-5 8 30-112 23-190h32v120c0 31 7 50 39 49 72-2 45-101 50-169h31l1 190h-30c-1-10 1-25-2-33-11 22-28 36-60 37" id="ae"/><path fill="#3d4752" d="M115-194c53 0 69 39 70 98 0 66-23 100-70 100C84 3 66-7 56-30L54 0H23l1-261h32v101c10-23 28-34 59-34zm-8 174c40 0 45-34 45-75 0-40-5-75-45-74-42 0-51 32-51 76 0 43 10 73 51 73" id="af"/><path fill="#3d4752" d="M96-169c-40 0-48 33-48 73s9 75 48 75c24 0 41-14 43-38l32 2c-6 37-31 61-74 61-59 0-76-41-82-99-10-93 101-131 147-64 4 7 5 14 7 22l-32 3c-4-21-16-35-41-35" id="ag"/><path fill="#3d4752" d="M115-194c55 1 70 41 70 98S169 2 115 4C84 4 66-9 55-30l1 105H24l-1-265h31l2 30c10-21 28-34 59-34zm-8 174c40 0 45-34 45-75s-6-73-45-74c-42 0-51 32-51 76 0 43 10 73 51 73" id="ah"/><path fill="#3d4752" d="M100-194c62-1 85 37 85 99 1 63-27 99-86 99S16-35 15-95c0-66 28-99 85-99zM99-20c44 1 53-31 53-75 0-43-8-75-51-75s-53 32-53 75 10 74 51 75" id="ai"/><g id="i"><use transform="matrix(0.043827160493827164,0,0,0.043827160493827164,0,0)" xlink:href="#T"/><use transform="matrix(0.043827160493827164,0,0,0.043827160493827164,10.518518518518519,0)" xlink:href="#ae"/><use transform="matrix(0.043827160493827164,0,0,0.043827160493827164,19.28395061728395,0)" xlink:href="#af"/><use transform="matrix(0.043827160493827164,0,0,0.043827160493827164,28.04938271604938,0)" xlink:href="#K"/><use transform="matrix(0.043827160493827164,0,0,0.043827160493827164,35.938271604938265,0)" xlink:href="#ag"/><use transform="matrix(0.043827160493827164,0,0,0.043827160493827164,43.82716049382715,0)" xlink:href="#M"/><use transform="matrix(0.043827160493827164,0,0,0.043827160493827164,49.042592592592584,0)" xlink:href="#Q"/><use transform="matrix(0.043827160493827164,0,0,0.043827160493827164,52.504938271604935,0)" xlink:href="#ah"/><use transform="matrix(0.043827160493827164,0,0,0.043827160493827164,61.27037037037036,0)" xlink:href="#Y"/><use transform="matrix(0.043827160493827164,0,0,0.043827160493827164,65.65308641975308,0)" xlink:href="#Q"/><use transform="matrix(0.043827160493827164,0,0,0.043827160493827164,69.11543209876542,0)" xlink:href="#ai"/><use transform="matrix(0.043827160493827164,0,0,0.043827160493827164,77.88086419753085,0)" xlink:href="#R"/></g><g id="j"><use transform="matrix(0.043827160493827164,0,0,0.043827160493827164,0,0)" xlink:href="#Y"/><use transform="matrix(0.043827160493827164,0,0,0.043827160493827164,4.382716049382716,0)" xlink:href="#ai"/></g><path fill="#3d4752" d="M212-179c-10-28-35-45-73-45-59 0-87 40-87 99 0 60 29 101 89 101 43 0 62-24 78-52l27 14C228-24 195 4 139 4 59 4 22-46 18-125c-6-104 99-153 187-111 19 9 31 26 39 46" id="aj"/><g id="k"><use transform="matrix(0.043827160493827164,0,0,0.043827160493827164,0,0)" xlink:href="#aj"/><use transform="matrix(0.043827160493827164,0,0,0.043827160493827164,11.351234567901235,0)" xlink:href="#W"/><use transform="matrix(0.043827160493827164,0,0,0.043827160493827164,20.116666666666667,0)" xlink:href="#M"/><use transform="matrix(0.043827160493827164,0,0,0.043827160493827164,25.3320987654321,0)" xlink:href="#Y"/></g><path fill="#3d4752" d="M233-177c-1 41-23 64-60 70L243 0h-38l-65-103H63V0H30v-248c88 3 205-21 203 71zM63-129c60-2 137 13 137-47 0-61-80-42-137-45v92" id="ak"/><path fill="#3d4752" d="M108 0H70L1-190h34L89-25l56-165h34" id="al"/><g id="l"><use transform="matrix(0.043827160493827164,0,0,0.043827160493827164,0,0)" xlink:href="#ak"/><use transform="matrix(0.043827160493827164,0,0,0.043827160493827164,11.351234567901235,0)" xlink:href="#L"/><use transform="matrix(0.043827160493827164,0,0,0.043827160493827164,20.116666666666667,0)" xlink:href="#P"/><use transform="matrix(0.043827160493827164,0,0,0.043827160493827164,33.22098765432099,0)" xlink:href="#ai"/><use transform="matrix(0.043827160493827164,0,0,0.043827160493827164,41.98641975308642,0)" xlink:href="#al"/><use transform="matrix(0.043827160493827164,0,0,0.043827160493827164,49.87530864197531,0)" xlink:href="#L"/></g><g id="m"><use transform="matrix(0.043827160493827164,0,0,0.043827160493827164,0,0)" xlink:href="#T"/><use transform="matrix(0.043827160493827164,0,0,0.043827160493827164,10.518518518518519,0)" xlink:href="#ae"/><use transform="matrix(0.043827160493827164,0,0,0.043827160493827164,19.28395061728395,0)" xlink:href="#af"/><use transform="matrix(0.043827160493827164,0,0,0.043827160493827164,28.04938271604938,0)" xlink:href="#K"/><use transform="matrix(0.043827160493827164,0,0,0.043827160493827164,35.938271604938265,0)" xlink:href="#ag"/><use transform="matrix(0.043827160493827164,0,0,0.043827160493827164,43.82716049382715,0)" xlink:href="#M"/><use transform="matrix(0.043827160493827164,0,0,0.043827160493827164,49.042592592592584,0)" xlink:href="#Q"/><use transform="matrix(0.043827160493827164,0,0,0.043827160493827164,52.504938271604935,0)" xlink:href="#ah"/><use transform="matrix(0.043827160493827164,0,0,0.043827160493827164,61.27037037037036,0)" xlink:href="#Y"/><use transform="matrix(0.043827160493827164,0,0,0.043827160493827164,65.65308641975308,0)" xlink:href="#Q"/><use transform="matrix(0.043827160493827164,0,0,0.043827160493827164,69.11543209876542,0)" xlink:href="#ai"/><use transform="matrix(0.043827160493827164,0,0,0.043827160493827164,77.88086419753085,0)" xlink:href="#R"/></g><path fill="#3d4752" d="M101-234c-31-9-42 10-38 44h38v23H63V0H32v-167H5v-23h27c-7-52 17-82 69-68v24" id="am"/><g id="n"><use transform="matrix(0.043827160493827164,0,0,0.043827160493827164,0,0)" xlink:href="#am"/><use transform="matrix(0.043827160493827164,0,0,0.043827160493827164,4.382716049382716,0)" xlink:href="#M"/><use transform="matrix(0.043827160493827164,0,0,0.043827160493827164,9.598148148148148,0)" xlink:href="#ai"/><use transform="matrix(0.043827160493827164,0,0,0.043827160493827164,18.36358024691358,0)" xlink:href="#P"/></g><path fill="#3d4752" d="M137 0h-34L2-248h35l83 218 83-218h36" id="an"/><path fill="#3d4752" d="M206 0h-36l-40-164L89 0H53L-1-190h32L70-26l43-164h34l41 164 42-164h31" id="ao"/><g id="o"><use transform="matrix(0.043827160493827164,0,0,0.043827160493827164,0,0)" xlink:href="#an"/><use transform="matrix(0.043827160493827164,0,0,0.043827160493827164,10.211728395061728,0)" xlink:href="#Q"/><use transform="matrix(0.043827160493827164,0,0,0.043827160493827164,13.674074074074076,0)" xlink:href="#L"/><use transform="matrix(0.043827160493827164,0,0,0.043827160493827164,22.439506172839508,0)" xlink:href="#ao"/></g><path fill="#3d4752" d="M106-169C34-169 62-67 57 0H25v-261h32l-1 103c12-21 28-36 61-36 89 0 53 116 60 194h-32v-121c2-32-8-49-39-48" id="ap"/><g id="p"><use transform="matrix(0.043827160493827164,0,0,0.043827160493827164,0,0)" xlink:href="#U"/><use transform="matrix(0.043827160493827164,0,0,0.043827160493827164,10.518518518518519,0)" xlink:href="#ae"/><use transform="matrix(0.043827160493827164,0,0,0.043827160493827164,19.28395061728395,0)" xlink:href="#M"/><use transform="matrix(0.043827160493827164,0,0,0.043827160493827164,24.499382716049386,0)" xlink:href="#ag"/><use transform="matrix(0.043827160493827164,0,0,0.043827160493827164,32.38827160493827,0)" xlink:href="#ap"/><use transform="matrix(0.043827160493827164,0,0,0.043827160493827164,41.1537037037037,0)" xlink:href="#W"/><use transform="matrix(0.043827160493827164,0,0,0.043827160493827164,49.91913580246913,0)" xlink:href="#K"/><use transform="matrix(0.043827160493827164,0,0,0.043827160493827164,57.80802469135802,0)" xlink:href="#L"/></g><g id="q"><use transform="matrix(0.043827160493827164,0,0,0.043827160493827164,0,0)" xlink:href="#T"/><use transform="matrix(0.043827160493827164,0,0,0.043827160493827164,10.518518518518519,0)" xlink:href="#ae"/><use transform="matrix(0.043827160493827164,0,0,0.043827160493827164,19.28395061728395,0)" xlink:href="#af"/><use transform="matrix(0.043827160493827164,0,0,0.043827160493827164,28.04938271604938,0)" xlink:href="#K"/><use transform="matrix(0.043827160493827164,0,0,0.043827160493827164,35.938271604938265,0)" xlink:href="#ag"/><use transform="matrix(0.043827160493827164,0,0,0.043827160493827164,43.82716049382715,0)" xlink:href="#M"/><use transform="matrix(0.043827160493827164,0,0,0.043827160493827164,49.042592592592584,0)" xlink:href="#Q"/><use transform="matrix(0.043827160493827164,0,0,0.043827160493827164,52.504938271604935,0)" xlink:href="#ah"/><use transform="matrix(0.043827160493827164,0,0,0.043827160493827164,61.27037037037036,0)" xlink:href="#Y"/><use transform="matrix(0.043827160493827164,0,0,0.043827160493827164,65.65308641975308,0)" xlink:href="#Q"/><use transform="matrix(0.043827160493827164,0,0,0.043827160493827164,69.11543209876542,0)" xlink:href="#ai"/><use transform="matrix(0.043827160493827164,0,0,0.043827160493827164,77.88086419753085,0)" xlink:href="#R"/></g><g id="r"><use transform="matrix(0.05,0,0,0.05,0,0)" xlink:href="#ak"/><use transform="matrix(0.05,0,0,0.05,12.950000000000001,0)" xlink:href="#L"/><use transform="matrix(0.05,0,0,0.05,22.950000000000003,0)" xlink:href="#ag"/><use transform="matrix(0.05,0,0,0.05,31.950000000000003,0)" xlink:href="#L"/><use transform="matrix(0.05,0,0,0.05,41.95,0)" xlink:href="#Q"/><use transform="matrix(0.05,0,0,0.05,45.900000000000006,0)" xlink:href="#al"/><use transform="matrix(0.05,0,0,0.05,54.900000000000006,0)" xlink:href="#L"/></g><g id="s"><use transform="matrix(0.05,0,0,0.05,0,0)" xlink:href="#T"/><use transform="matrix(0.05,0,0,0.05,12,0)" xlink:href="#ae"/><use transform="matrix(0.05,0,0,0.05,22,0)" xlink:href="#af"/><use transform="matrix(0.05,0,0,0.05,32,0)" xlink:href="#K"/><use transform="matrix(0.05,0,0,0.05,41,0)" xlink:href="#ag"/><use transform="matrix(0.05,0,0,0.05,50,0)" xlink:href="#M"/><use transform="matrix(0.05,0,0,0.05,55.95,0)" xlink:href="#Q"/><use transform="matrix(0.05,0,0,0.05,59.900000000000006,0)" xlink:href="#ah"/><use transform="matrix(0.05,0,0,0.05,69.9,0)" xlink:href="#Y"/><use transform="matrix(0.05,0,0,0.05,74.9,0)" xlink:href="#Q"/><use transform="matrix(0.05,0,0,0.05,78.85000000000001,0)" xlink:href="#ai"/><use transform="matrix(0.05,0,0,0.05,88.85000000000001,0)" xlink:href="#R"/></g><path fill="#3d4752" d="M145-31C134-9 116 4 85 4 32 4 16-35 15-94c0-59 17-99 70-100 32-1 48 14 60 33 0-11-1-24 2-32h30l-1 268h-32zM93-21c41 0 51-33 51-76s-8-73-50-73c-40 0-46 35-46 75s5 74 45 74" id="aq"/><g id="t"><use transform="matrix(0.05,0,0,0.05,0,0)" xlink:href="#ak"/><use transform="matrix(0.05,0,0,0.05,12.950000000000001,0)" xlink:href="#L"/><use transform="matrix(0.05,0,0,0.05,22.950000000000003,0)" xlink:href="#aq"/><use transform="matrix(0.05,0,0,0.05,32.95,0)" xlink:href="#ae"/><use transform="matrix(0.05,0,0,0.05,42.95,0)" xlink:href="#L"/><use transform="matrix(0.05,0,0,0.05,52.95,0)" xlink:href="#K"/><use transform="matrix(0.05,0,0,0.05,61.95,0)" xlink:href="#Y"/></g><g id="u"><use transform="matrix(0.05,0,0,0.05,0,0)" xlink:href="#aj"/><use transform="matrix(0.05,0,0,0.05,12.950000000000001,0)" xlink:href="#ap"/><use transform="matrix(0.05,0,0,0.05,22.950000000000003,0)" xlink:href="#L"/><use transform="matrix(0.05,0,0,0.05,32.95,0)" xlink:href="#ag"/><use transform="matrix(0.05,0,0,0.05,41.95,0)" xlink:href="#ad"/></g><g id="v"><use transform="matrix(0.05,0,0,0.05,0,0)" xlink:href="#ah"/><use transform="matrix(0.05,0,0,0.05,10,0)" xlink:href="#W"/><use transform="matrix(0.05,0,0,0.05,20,0)" xlink:href="#Z"/><use transform="matrix(0.05,0,0,0.05,29,0)" xlink:href="#P"/><use transform="matrix(0.05,0,0,0.05,43.95,0)" xlink:href="#L"/><use transform="matrix(0.05,0,0,0.05,53.95,0)" xlink:href="#R"/><use transform="matrix(0.05,0,0,0.05,63.95,0)" xlink:href="#Y"/></g><g id="w"><use transform="matrix(0.05,0,0,0.05,0,0)" xlink:href="#ai"/><use transform="matrix(0.05,0,0,0.05,10,0)" xlink:href="#M"/><use transform="matrix(0.05,0,0,0.05,15.949999999999998,0)" xlink:href="#O"/><use transform="matrix(0.05,0,0,0.05,25.950000000000003,0)" xlink:href="#L"/><use transform="matrix(0.05,0,0,0.05,35.95,0)" xlink:href="#M"/></g><g id="x"><use transform="matrix(0.05,0,0,0.05,0,0)" xlink:href="#U"/><use transform="matrix(0.05,0,0,0.05,12,0)" xlink:href="#W"/><use transform="matrix(0.05,0,0,0.05,22,0)" xlink:href="#Z"/><use transform="matrix(0.05,0,0,0.05,31,0)" xlink:href="#P"/><use transform="matrix(0.05,0,0,0.05,45.95,0)" xlink:href="#L"/><use transform="matrix(0.05,0,0,0.05,55.95,0)" xlink:href="#R"/><use transform="matrix(0.05,0,0,0.05,65.95,0)" xlink:href="#Y"/></g><g id="y"><use transform="matrix(0.05,0,0,0.05,0,0)" xlink:href="#P"/><use transform="matrix(0.05,0,0,0.05,14.950000000000001,0)" xlink:href="#L"/><use transform="matrix(0.05,0,0,0.05,24.950000000000003,0)" xlink:href="#Y"/><use transform="matrix(0.05,0,0,0.05,29.950000000000003,0)" xlink:href="#ap"/><use transform="matrix(0.05,0,0,0.05,39.95,0)" xlink:href="#ai"/><use transform="matrix(0.05,0,0,0.05,49.95,0)" xlink:href="#O"/></g><g id="z"><use transform="matrix(0.05,0,0,0.05,0,0)" xlink:href="#J"/><use transform="matrix(0.05,0,0,0.05,12.950000000000001,0)" xlink:href="#ah"/><use transform="matrix(0.05,0,0,0.05,22.950000000000003,0)" xlink:href="#O"/><use transform="matrix(0.05,0,0,0.05,32.95,0)" xlink:href="#W"/><use transform="matrix(0.05,0,0,0.05,42.95,0)" xlink:href="#Y"/><use transform="matrix(0.05,0,0,0.05,47.95,0)" xlink:href="#L"/></g><g id="A"><use transform="matrix(0.05,0,0,0.05,0,0)" xlink:href="#T"/><use transform="matrix(0.05,0,0,0.05,12,0)" xlink:href="#ae"/><use transform="matrix(0.05,0,0,0.05,22,0)" xlink:href="#af"/><use transform="matrix(0.05,0,0,0.05,32,0)" xlink:href="#K"/><use transform="matrix(0.05,0,0,0.05,41,0)" xlink:href="#ag"/><use transform="matrix(0.05,0,0,0.05,50,0)" xlink:href="#M"/><use transform="matrix(0.05,0,0,0.05,55.95,0)" xlink:href="#Q"/><use transform="matrix(0.05,0,0,0.05,59.900000000000006,0)" xlink:href="#ah"/><use transform="matrix(0.05,0,0,0.05,69.9,0)" xlink:href="#Y"/><use transform="matrix(0.05,0,0,0.05,74.9,0)" xlink:href="#Q"/><use transform="matrix(0.05,0,0,0.05,78.85000000000001,0)" xlink:href="#ai"/><use transform="matrix(0.05,0,0,0.05,88.85000000000001,0)" xlink:href="#R"/></g><g id="B"><use transform="matrix(0.05,0,0,0.05,0,0)" xlink:href="#T"/><use transform="matrix(0.05,0,0,0.05,12,0)" xlink:href="#Y"/><use transform="matrix(0.05,0,0,0.05,17,0)" xlink:href="#W"/><use transform="matrix(0.05,0,0,0.05,27,0)" xlink:href="#Y"/><use transform="matrix(0.05,0,0,0.05,32,0)" xlink:href="#ae"/><use transform="matrix(0.05,0,0,0.05,42,0)" xlink:href="#K"/></g><path fill="#3d4752" d="M190 0L58-211 59 0H30v-248h39L202-35l-2-213h31V0h-41" id="ar"/><g id="C"><use transform="matrix(0.05,0,0,0.05,0,0)" xlink:href="#ar"/><use transform="matrix(0.05,0,0,0.05,12.950000000000001,0)" xlink:href="#ai"/><use transform="matrix(0.05,0,0,0.05,22.950000000000003,0)" xlink:href="#Y"/><use transform="matrix(0.05,0,0,0.05,27.950000000000003,0)" xlink:href="#Q"/><use transform="matrix(0.05,0,0,0.05,31.900000000000002,0)" xlink:href="#am"/><use transform="matrix(0.05,0,0,0.05,36.900000000000006,0)" xlink:href="#Z"/></g><g id="D"><use transform="matrix(0.05,0,0,0.05,0,0)" xlink:href="#T"/><use transform="matrix(0.05,0,0,0.05,12,0)" xlink:href="#ae"/><use transform="matrix(0.05,0,0,0.05,22,0)" xlink:href="#af"/><use transform="matrix(0.05,0,0,0.05,32,0)" xlink:href="#K"/><use transform="matrix(0.05,0,0,0.05,41,0)" xlink:href="#ag"/><use transform="matrix(0.05,0,0,0.05,50,0)" xlink:href="#M"/><use transform="matrix(0.05,0,0,0.05,55.95,0)" xlink:href="#Q"/><use transform="matrix(0.05,0,0,0.05,59.900000000000006,0)" xlink:href="#ah"/><use transform="matrix(0.05,0,0,0.05,69.9,0)" xlink:href="#Y"/><use transform="matrix(0.05,0,0,0.05,74.9,0)" xlink:href="#Q"/><use transform="matrix(0.05,0,0,0.05,78.85000000000001,0)" xlink:href="#ai"/><use transform="matrix(0.05,0,0,0.05,88.85000000000001,0)" xlink:href="#R"/></g><path fill="#3d4752" d="M143 4C61 4 22-44 18-125c-5-107 100-154 193-111 17 8 29 25 37 43l-32 9c-13-25-37-40-76-40-61 0-88 39-88 99 0 61 29 100 91 101 35 0 62-11 79-27v-45h-74v-28h105v86C228-13 192 4 143 4" id="as"/><g id="E"><use transform="matrix(0.043827160493827164,0,0,0.043827160493827164,0,0)" xlink:href="#as"/><use transform="matrix(0.043827160493827164,0,0,0.043827160493827164,12.271604938271606,0)" xlink:href="#L"/><use transform="matrix(0.043827160493827164,0,0,0.043827160493827164,21.037037037037038,0)" xlink:href="#Y"/></g><g id="F"><use transform="matrix(0.043827160493827164,0,0,0.043827160493827164,0,0)" xlink:href="#T"/><use transform="matrix(0.043827160493827164,0,0,0.043827160493827164,10.518518518518519,0)" xlink:href="#Y"/><use transform="matrix(0.043827160493827164,0,0,0.043827160493827164,14.901234567901232,0)" xlink:href="#W"/><use transform="matrix(0.043827160493827164,0,0,0.043827160493827164,23.666666666666664,0)" xlink:href="#Y"/><use transform="matrix(0.043827160493827164,0,0,0.043827160493827164,28.04938271604938,0)" xlink:href="#ae"/><use transform="matrix(0.043827160493827164,0,0,0.043827160493827164,36.81481481481481,0)" xlink:href="#K"/></g><g id="G"><use transform="matrix(0.05,0,0,0.05,0,0)" xlink:href="#al"/><use transform="matrix(0.05,0,0,0.05,9,0)" xlink:href="#L"/><use transform="matrix(0.05,0,0,0.05,19,0)" xlink:href="#M"/><use transform="matrix(0.05,0,0,0.05,24.95,0)" xlink:href="#Q"/><use transform="matrix(0.05,0,0,0.05,28.899999999999995,0)" xlink:href="#am"/><use transform="matrix(0.05,0,0,0.05,33.9,0)" xlink:href="#Q"/><use transform="matrix(0.05,0,0,0.05,37.85,0)" xlink:href="#L"/><use transform="matrix(0.05,0,0,0.05,47.85,0)" xlink:href="#O"/></g><g id="H"><use transform="matrix(0.05,0,0,0.05,0,0)" xlink:href="#an"/><use transform="matrix(0.05,0,0,0.05,11,0)" xlink:href="#L"/><use transform="matrix(0.05,0,0,0.05,21,0)" xlink:href="#M"/><use transform="matrix(0.05,0,0,0.05,26.950000000000003,0)" xlink:href="#Q"/><use transform="matrix(0.05,0,0,0.05,30.899999999999995,0)" xlink:href="#am"/><use transform="matrix(0.05,0,0,0.05,35.9,0)" xlink:href="#Z"/></g><g id="I"><use transform="matrix(0.05,0,0,0.05,0,0)" xlink:href="#ah"/><use transform="matrix(0.05,0,0,0.05,10,0)" xlink:href="#W"/><use transform="matrix(0.05,0,0,0.05,20,0)" xlink:href="#Z"/><use transform="matrix(0.05,0,0,0.05,29,0)" xlink:href="#P"/><use transform="matrix(0.05,0,0,0.05,43.95,0)" xlink:href="#L"/><use transform="matrix(0.05,0,0,0.05,53.95,0)" xlink:href="#R"/><use transform="matrix(0.05,0,0,0.05,63.95,0)" xlink:href="#Y"/></g></defs></g></svg>