<svg xmlns="http://www.w3.org/2000/svg" xmlns:xlink="http://www.w3.org/1999/xlink" xmlns:lucid="lucid" width="1520" height="1180"><g transform="translate(-120 -20)" lucid:page-tab-id="0_0"><path d="M909 63.45c0 12.95-12.98 23.45-29 23.45s-29-10.5-29-23.45S863.98 40 880 40s29 10.5 29 23.45z" stroke="#3d4752" stroke-width="2" fill="#dfe3e8"/><use xlink:href="#a" transform="matrix(1,0,0,1,856,45) translate(-3.8459999999999965 23.675)"/><path d="M816 133.45c-8.84 0-16 7.16-16 16v48c0 8.84 7.16 16 16 16h128c8.84 0 16-7.16 16-16v-48c0-8.84-7.16-16-16-16z" stroke="#3d4752" stroke-width="2" fill="#e3fae3"/><use xlink:href="#b" transform="matrix(1,0,0,1,808,141.45) translate(50.022000000000006 37.175)"/><path d="M880 88.4v27.67" stroke="#3a414a" fill="none"/><path d="M879.96 87.9h.54v.5h-1v-.54z" stroke="#3a414a" stroke-width=".05" fill="#3a414a"/><path d="M880 130.83l-4.64-14.26h9.28z" stroke="#3a414a" fill="#3a414a"/><path d="M816 360c-8.84 0-16 7.16-16 16v48c0 8.84 7.16 16 16 16h128c8.84 0 16-7.16 16-16v-48c0-8.84-7.16-16-16-16z" stroke="#3d4752" stroke-width="2" fill="#f2f2ff"/><use xlink:href="#c" transform="matrix(1,0,0,1,808,367.99999999999983) translate(44.154 27.950000000000003)"/><use xlink:href="#d" transform="matrix(1,0,0,1,808,367.99999999999983) translate(28.665 46.4)"/><path d="M156 500c-8.84 0-16 7.16-16 16v48c0 8.84 7.16 16 16 16h128c8.84 0 16-7.16 16-16v-48c0-8.84-7.16-16-16-16z" stroke="#3d4752" stroke-width="2" fill="#f2f2ff"/><use xlink:href="#e" transform="matrix(1,0,0,1,148,507.99999999999966) translate(15.219000000000008 37.175)"/><use xlink:href="#f" transform="matrix(1,0,0,1,148,507.99999999999966) translate(75.861 37.175)"/><path d="M376 500c-8.84 0-16 7.16-16 16v48c0 8.84 7.16 16 16 16h128c8.84 0 16-7.16 16-16v-48c0-8.84-7.16-16-16-16z" stroke="#3d4752" stroke-width="2" fill="#fcfcca"/><use xlink:href="#g" transform="matrix(1,0,0,1,368,507.99999999999966) translate(50.112 37.175)"/><path d="M816 500c-8.84 0-16 7.16-16 16v48c0 8.84 7.16 16 16 16h128c8.84 0 16-7.16 16-16v-48c0-8.84-7.16-16-16-16z" stroke="#3d4752" stroke-width="2" fill="#fff3d9"/><use xlink:href="#h" transform="matrix(1,0,0,1,808,508) translate(17.315999999999995 37.175)"/><path d="M1036 500c-8.84 0-16 7.16-16 16v48c0 8.84 7.16 16 16 16h128c8.84 0 16-7.16 16-16v-48c0-8.84-7.16-16-16-16z" stroke="#3d4752" stroke-width="2" fill="#e3fae3"/><use xlink:href="#i" transform="matrix(1,0,0,1,1028,507.99999999999966) translate(33.219 37.175)"/><path d="M1256 500c-8.84 0-16 7.16-16 16v48c0 8.84 7.16 16 16 16h128c8.84 0 16-7.16 16-16v-48c0-8.84-7.16-16-16-16z" stroke="#3d4752" stroke-width="2" fill="#fff0f0"/><use xlink:href="#j" transform="matrix(1,0,0,1,1248,507.99999999999966) translate(51.903000000000006 37.175)"/><path d="M1476 500c-8.84 0-16 7.16-16 16v48c0 8.84 7.16 16 16 16h128c8.84 0 16-7.16 16-16v-48c0-8.84-7.16-16-16-16z" stroke="#3d4752" stroke-width="2" fill="#edf5ff"/><use xlink:href="#k" transform="matrix(1,0,0,1,1468,507.99999999999966) translate(21.71699999999999 37.175)"/><path d="M596 500c-8.84 0-16 7.16-16 16v48c0 8.84 7.16 16 16 16h128c8.84 0 16-7.16 16-16v-48c0-8.84-7.16-16-16-16z" stroke="#3d4752" stroke-width="2" fill="#fff0fb"/><use xlink:href="#l" transform="matrix(1,0,0,1,588,507.99999999999966) translate(21.959999999999994 37.175)"/><path d="M880 441.5V464a6 6 0 0 0 6 6h208a6 6 0 0 1 6 6v6.62" stroke="#635dff" fill="none"/><path d="M880.5 441.5h-1v-.5h1z" stroke="#635dff" stroke-width=".05" fill="#635dff"/><path d="M1100 497.38l-4.64-14.26h9.28z" stroke="#635dff" fill="#635dff"/><path d="M880 441.5v41.12" stroke="#635dff" fill="none"/><path d="M880.5 441.5h-1v-.5h1z" stroke="#635dff" stroke-width=".05" fill="#635dff"/><path d="M880 497.38l-4.64-14.26h9.28z" stroke="#635dff" fill="#635dff"/><path d="M880 441.5V464a6 6 0 0 1-6 6H446a6 6 0 0 0-6 6v6.62" stroke="#635dff" fill="none"/><path d="M880.5 441.5h-1v-.5h1z" stroke="#635dff" stroke-width=".05" fill="#635dff"/><path d="M440 497.38l-4.64-14.26h9.28z" stroke="#635dff" fill="#635dff"/><path d="M880 441.5V464a6 6 0 0 1-6 6H226a6 6 0 0 0-6 6v6.62" stroke="#635dff" fill="none"/><path d="M880.5 441.5h-1v-.5h1z" stroke="#635dff" stroke-width=".05" fill="#635dff"/><path d="M220 497.38l-4.64-14.26h9.28z" stroke="#635dff" fill="#635dff"/><path d="M880 441.5V464a6 6 0 0 0 6 6h428a6 6 0 0 1 6 6v6.62" stroke="#635dff" fill="none"/><path d="M880.5 441.5h-1v-.5h1z" stroke="#635dff" stroke-width=".05" fill="#635dff"/><path d="M1320 497.38l-4.64-14.26h9.28z" stroke="#635dff" fill="#635dff"/><path d="M880 441.5V464a6 6 0 0 0 6 6h648a6 6 0 0 1 6 6v6.62" stroke="#635dff" fill="none"/><path d="M880.5 441.5h-1v-.5h1z" stroke="#635dff" stroke-width=".05" fill="#635dff"/><path d="M1540 497.38l-4.64-14.26h9.28z" stroke="#635dff" fill="#635dff"/><path d="M880 441.5V464a6 6 0 0 1-6 6H666a6 6 0 0 0-6 6v6.62" stroke="#635dff" fill="none"/><path d="M880.5 441.5h-1v-.5h1z" stroke="#635dff" stroke-width=".05" fill="#635dff"/><path d="M660 497.38l-4.64-14.26h9.28z" stroke="#635dff" fill="#635dff"/><path d="M376 620c-8.84 0-16 7.16-16 16v48c0 8.84 7.16 16 16 16h128c8.84 0 16-7.16 16-16v-48c0-8.84-7.16-16-16-16z" stroke="#3d4752" stroke-width="2" fill="#fff0fb"/><use xlink:href="#m" transform="matrix(1,0,0,1,368,628) translate(5.247 27.950000000000003)"/><use xlink:href="#n" transform="matrix(1,0,0,1,368,628) translate(46.32299999999999 27.950000000000003)"/><use xlink:href="#o" transform="matrix(1,0,0,1,368,628) translate(47.682 46.4)"/><path d="M876.46 263.54a5 5 0 0 1 7.08 0l12.92 12.92a5 5 0 0 1 0 7.08l-12.92 12.92a5 5 0 0 1-7.08 0l-12.92-12.92a5 5 0 0 1 0-7.08z" stroke="#3d4752" stroke-width="2" fill="#fff"/><path d="M880.5 342.62h-1v-3h1zm0-24.32h-1v-18.87h1z" stroke="#54c45e" stroke-width=".05" fill="#54c45e"/><path d="M880 298.93l.5-.04v.54h-1v-.55z" fill="#54c45e"/><path d="M880 298.9l.52-.03v.6h-1.04v-.6zm-.48.52h.96v-.5l-.48.04-.48-.04z" stroke="#54c45e" stroke-width=".05" fill="#54c45e"/><path d="M880 357.38l-4.64-14.26h9.28z" fill="#54c45e"/><path d="M880 359l-5.32-16.38h10.64zm-3.95-15.38l3.95 12.14 3.95-12.14z" stroke="#54c45e" stroke-width=".05" fill="#54c45e"/><use xlink:href="#p" transform="matrix(1,0,0,1,864.6913580246913,318.29933056758273) translate(0 14.222222222222223)"/><path d="M1001.43 275l-.25 1-.4.95-.52.87-.66.78-.78.66-.87.53-.94.38-.98.24-1 .08h-95.6v-1H995l.88-.07.84-.2.8-.33.73-.45.66-.56.55-.67.45-.73.33-.8.2-.82v-6.45h1zM996 173.02l1 .25.95.4.87.52.78.65.66.78.53.87.38.94.24 1 .08 1-.05 67.65h-1l.05-67.63-.07-.88-.2-.85-.33-.8-.45-.73-.56-.66-.67-.56-.73-.45-.8-.33-.82-.2-18.5-.07v-1z" stroke="#e81313" stroke-width=".05" fill="#e81313"/><path d="M899.44 280.5h-.55l.03-.5-.04-.5h.54z" fill="#e81313"/><path d="M899.47 280.52h-.6l.04-.52-.03-.52h.6zm-.55-1l.04.48-.04.48h.5v-.96z" stroke="#e81313" stroke-width=".05" fill="#e81313"/><path d="M976.88 178.1l-14.26-4.65 14.26-4.64z" fill="#e81313"/><path d="M977.38 178.77L961 173.45l16.38-5.32zm-13.14-5.32l12.14 3.95v-7.9z" stroke="#e81313" stroke-width=".05" fill="#e81313"/><use xlink:href="#q" transform="matrix(1,0,0,1,989.1975308641976,247.09233609908378) translate(0 14.222222222222223)"/><path d="M880 214.95v29.73" stroke="#54c45e" fill="none"/><path d="M880.5 214.96h-1v-.5h1z" stroke="#54c45e" stroke-width=".05" fill="#54c45e"/><path d="M880 259.45l-4.64-14.27h9.28z" stroke="#54c45e" fill="#54c45e"/><path d="M376 740c-8.84 0-16 7.16-16 16v48c0 8.84 7.16 16 16 16h128c8.84 0 16-7.16 16-16v-48c0-8.84-7.16-16-16-16z" stroke="#3d4752" stroke-width="2" fill="#fff3d9"/><use xlink:href="#m" transform="matrix(1,0,0,1,368,748) translate(0.6030000000000086 27.950000000000003)"/><use xlink:href="#r" transform="matrix(1,0,0,1,368,748) translate(41.679 27.950000000000003)"/><use xlink:href="#s" transform="matrix(1,0,0,1,368,748) translate(44.298 46.4)"/><path d="M376 860c-8.84 0-16 7.16-16 16v48c0 8.84 7.16 16 16 16h128c8.84 0 16-7.16 16-16v-48c0-8.84-7.16-16-16-16z" stroke="#3d4752" stroke-width="2" fill="#e3fae3"/><use xlink:href="#m" transform="matrix(1,0,0,1,368,868) translate(12.681000000000004 37.175)"/><use xlink:href="#t" transform="matrix(1,0,0,1,368,868) translate(53.757 37.175)"/><path d="M376 980c-8.84 0-16 7.16-16 16v48c0 8.84 7.16 16 16 16h128c8.84 0 16-7.16 16-16v-48c0-8.84-7.16-16-16-16z" stroke="#3d4752" stroke-width="2" fill="#fff0f0"/><use xlink:href="#m" transform="matrix(1,0,0,1,368,988) translate(31.36500000000001 37.175)"/><use xlink:href="#u" transform="matrix(1,0,0,1,368,988) translate(72.441 37.175)"/><path d="M376 1100c-8.84 0-16 7.16-16 16v48c0 8.84 7.16 16 16 16h128c8.84 0 16-7.16 16-16v-48c0-8.84-7.16-16-16-16z" stroke="#3d4752" stroke-width="2" fill="#edf5ff"/><use xlink:href="#m" transform="matrix(1,0,0,1,368,1108) translate(1.179000000000002 37.175)"/><use xlink:href="#v" transform="matrix(1,0,0,1,368,1108) translate(42.254999999999995 37.175)"/><path d="M358.5 540H325a6 6 0 0 0-6 6v109.33a6 6 0 0 0 6 6h17.62" stroke="#fcce14" fill="none"/><path d="M359 540.5h-.5v-1h.5z" stroke="#fcce14" stroke-width=".05" fill="#fcce14"/><path d="M357.38 661.33l-14.26 4.64v-9.27z" stroke="#fcce14" fill="#fcce14"/><path d="M358.5 540H325a6 6 0 0 0-6 6v228a6 6 0 0 0 6 6h17.62" stroke="#fcce14" fill="none"/><path d="M359 540.5h-.5v-1h.5z" stroke="#fcce14" stroke-width=".05" fill="#fcce14"/><path d="M357.38 780l-14.26 4.64v-9.28z" stroke="#fcce14" fill="#fcce14"/><path d="M358.5 540H325a6 6 0 0 0-6 6v348a6 6 0 0 0 6 6h17.62" stroke="#fcce14" fill="none"/><path d="M359 540.5h-.5v-1h.5z" stroke="#fcce14" stroke-width=".05" fill="#fcce14"/><path d="M357.38 900l-14.26 4.64v-9.28z" stroke="#fcce14" fill="#fcce14"/><path d="M358.5 540H325a6 6 0 0 0-6 6v468a6 6 0 0 0 6 6h17.62" stroke="#fcce14" fill="none"/><path d="M359 540.5h-.5v-1h.5z" stroke="#fcce14" stroke-width=".05" fill="#fcce14"/><path d="M357.38 1020l-14.26 4.64v-9.28z" stroke="#fcce14" fill="#fcce14"/><path d="M358.5 540H325a6 6 0 0 0-6 6v588a6 6 0 0 0 6 6h17.62" stroke="#fcce14" fill="none"/><path d="M359 540.5h-.5v-1h.5z" stroke="#fcce14" stroke-width=".05" fill="#fcce14"/><path d="M357.38 1140l-14.26 4.64v-9.28z" stroke="#fcce14" fill="#fcce14"/><path d="M880 581.5V774a6 6 0 0 1-6 6H537.38" stroke="#fc9432" fill="none"/><path d="M880.5 581.5h-1v-.5h1z" stroke="#fc9432" stroke-width=".05" fill="#fc9432"/><path d="M522.62 780l14.26-4.64v9.28z" stroke="#fc9432" fill="#fc9432"/><path d="M1100 581.5V894a6 6 0 0 1-6 6H537.38" stroke="#54c45e" fill="none"/><path d="M1100.5 581.5h-1v-.5h1z" stroke="#54c45e" stroke-width=".05" fill="#54c45e"/><path d="M522.62 900l14.26-4.64v9.28z" stroke="#54c45e" fill="#54c45e"/><path d="M1320 581.5V1014a6 6 0 0 1-6 6H537.38" stroke="#e81313" fill="none"/><path d="M1320.5 581.5h-1v-.5h1z" stroke="#e81313" stroke-width=".05" fill="#e81313"/><path d="M522.62 1020l14.26-4.64v9.28z" stroke="#e81313" fill="#e81313"/><path d="M1540 581.5V1134a6 6 0 0 1-6 6H537.38" stroke="#1071e5" fill="none"/><path d="M1540.5 581.5h-1v-.5h1z" stroke="#1071e5" stroke-width=".05" fill="#1071e5"/><path d="M522.62 1140l14.26-4.64v9.28z" stroke="#1071e5" fill="#1071e5"/><path d="M660 581.5V654a6 6 0 0 1-6 6H537.38" stroke="#d916a8" fill="none"/><path d="M660.5 581.5h-1v-.5h1z" stroke="#d916a8" stroke-width=".05" fill="#d916a8"/><path d="M522.62 660l14.26-4.64v9.28z" stroke="#d916a8" fill="#d916a8"/><defs><path fill="#3d4752" d="M51-64l268-628h82L651-65l79 39V0H475v-26l80-39-62-165c-95 1-195-3-286 2L146-65l80 39V0H-27v-26zm413-238c-38-101-82-196-112-305-30 109-76 204-115 305h227" id="w"/><path fill="#3d4752" d="M255-509c65 0 107 14 141 47v-197l-94-28v-22c58-14 117-27 174-42v677l83 26v22L396 15c0-21-1-54 0-79-36 39-79 75-151 75C100 11 35-86 35-231c0-155 64-278 220-278zm141 125c-22-39-80-64-135-64-109 0-139 105-139 215 0 100 41 183 141 183 70 0 104-49 133-95v-239" id="x"/><path fill="#3d4752" d="M330-441c-71 2-99 56-135 95v283l83 37V0H27v-26l87-36v-361l-93-27v-23l174-41v90c37-40 87-85 159-85 64 1 125 34 134 93 42-42 86-91 165-93 99-3 146 54 145 151v295l89 37V0H632v-26l82-36v-300c1-48-32-81-80-79-71 4-99 57-137 97l1 281 83 37V0H338v-26l76-36v-299c1-48-37-82-84-80" id="y"/><path fill="#3d4752" d="M25-481l177-41v459l83 37V0H31v-26l88-37v-368l-94-27v-23zm200-200c0 37-21 56-62 56-42 0-63-18-63-54 0-37 21-55 63-55 41 0 62 18 62 53" id="z"/><path fill="#3d4752" d="M338-438c-74 0-103 54-140 95v280l78 37V0H26v-26l88-37v-360l-93-27v-23l177-41v91c34-39 85-86 153-86 100 1 162 43 162 145v301l88 37V0H346v-26l83-37v-298c-1-54-38-77-91-77" id="A"/><g id="a"><use transform="matrix(0.018,0,0,0.018,0,0)" xlink:href="#w"/><use transform="matrix(0.018,0,0,0.018,12.905999999999999,0)" xlink:href="#x"/><use transform="matrix(0.018,0,0,0.018,23.147999999999993,0)" xlink:href="#y"/><use transform="matrix(0.018,0,0,0.018,39.294,0)" xlink:href="#z"/><use transform="matrix(0.018,0,0,0.018,44.693999999999996,0)" xlink:href="#A"/></g><path fill="#3d4752" d="M490 0H25v-26l89-37v-566l-89-37v-26h267v26l-88 37v556h210l66-129h26" id="B"/><path fill="#3d4752" d="M276-509c158 0 231 103 231 260 0 153-81 260-233 260C115 11 35-90 35-249c0-153 87-260 241-260zm-1 459c107 0 145-91 145-199s-37-199-145-199-153 91-153 199c0 109 43 199 153 199" id="C"/><path fill="#3d4752" d="M171-186c-28 9-72 68-16 82C280-73 468-83 468 67c0 156-143 209-304 189-82-10-142-52-142-145C22 27 92-8 149-37 93-44 7-71 46-139c18-31 57-50 88-68-72-42-81-200-12-260 44-38 127-63 198-37l158-15v34l-83 38c32 34 44 118 23 175-31 81-147 125-247 86zm38 159C146-1 71 69 114 158c30 63 162 55 218 18 29-19 55-47 51-93-7-88-92-94-174-110zm-29-235c60 75 184 20 169-81-9-64-29-114-99-116-98-3-122 132-70 197" id="D"/><g id="b"><use transform="matrix(0.018,0,0,0.018,0,0)" xlink:href="#B"/><use transform="matrix(0.018,0,0,0.018,9.197999999999999,0)" xlink:href="#C"/><use transform="matrix(0.018,0,0,0.018,18.953999999999997,0)" xlink:href="#D"/><use transform="matrix(0.018,0,0,0.018,27.557999999999996,0)" xlink:href="#z"/><use transform="matrix(0.018,0,0,0.018,32.958,0)" xlink:href="#A"/></g><g id="c"><use transform="matrix(0.018,0,0,0.018,0,0)" xlink:href="#w"/><use transform="matrix(0.018,0,0,0.018,12.905999999999999,0)" xlink:href="#x"/><use transform="matrix(0.018,0,0,0.018,23.147999999999993,0)" xlink:href="#y"/><use transform="matrix(0.018,0,0,0.018,39.294,0)" xlink:href="#z"/><use transform="matrix(0.018,0,0,0.018,44.693999999999996,0)" xlink:href="#A"/></g><path fill="#3d4752" d="M294 0C209 0 108 2 25-1v-26l89-37v-571l-89-37v-26h292c227 1 370 93 370 321C687-133 537 0 294 0zm-92-68c248 21 391-75 393-304 2-221-163-272-393-256v560" id="E"/><path fill="#3d4752" d="M233-514c87 3 156 45 156 132v302l83 27v23L310 12v-71c-35 38-70 69-138 70C85 12 27-46 30-134c4-141 149-158 281-173-1-16 1-41 0-60-1-92-140-105-204-56l-36 86H45c1-38-1-78 1-114 49-38 100-66 187-63zm77 261c-95 7-197 18-199 118-1 55 31 89 86 87 57-2 84-40 113-72v-133" id="F"/><path fill="#3d4752" d="M229-509c47 0 105 15 135 34v127h-26l-37-86c-64-27-173-19-165 61 8 84 122 76 177 120 33 26 64 57 62 116-3 100-76 148-174 148C136 11 92-5 50-31v-127h26l36 87c55 34 183 31 177-55-7-93-117-87-177-128-34-23-63-52-61-109 3-102 78-146 178-146" id="G"/><path fill="#3d4752" d="M343-438c-73 0-104 54-141 95v280l78 37V0H30v-26l88-37v-600l-93-27v-23l177-41v331c34-39 86-86 154-86 100 1 161 43 161 145v301l88 37V0H350v-26l83-37v-298c-1-54-38-77-90-77" id="H"/><path fill="#3d4752" d="M309 11c-66 0-102-14-137-47L94 0v-659L0-687v-22l176-39v312c35-40 73-73 142-73 146 0 217 97 217 242 0 157-70 278-226 278zm-6-61c110 0 145-104 145-215 0-101-47-178-148-181-65-2-98 48-124 91v239c23 39 71 66 127 66" id="I"/><path fill="#3d4752" d="M316-434c-70 6-120 46-120 120v251l106 37V0H25v-26l88-36v-362l-92-27v-23l175-41v104c31-55 97-121 183-88v151h-26" id="J"/><g id="d"><use transform="matrix(0.018,0,0,0.018,0,0)" xlink:href="#E"/><use transform="matrix(0.018,0,0,0.018,13.085999999999999,0)" xlink:href="#F"/><use transform="matrix(0.018,0,0,0.018,21.762000000000004,0)" xlink:href="#G"/><use transform="matrix(0.018,0,0,0.018,29.412,0)" xlink:href="#H"/><use transform="matrix(0.018,0,0,0.018,40.482,0)" xlink:href="#I"/><use transform="matrix(0.018,0,0,0.018,50.742,0)" xlink:href="#C"/><use transform="matrix(0.018,0,0,0.018,60.498,0)" xlink:href="#F"/><use transform="matrix(0.018,0,0,0.018,69.17399999999999,0)" xlink:href="#J"/><use transform="matrix(0.018,0,0,0.018,76.428,0)" xlink:href="#x"/></g><g id="e"><use transform="matrix(0.018,0,0,0.018,0,0)" xlink:href="#w"/><use transform="matrix(0.018,0,0,0.018,12.905999999999999,0)" xlink:href="#x"/><use transform="matrix(0.018,0,0,0.018,23.147999999999993,0)" xlink:href="#y"/><use transform="matrix(0.018,0,0,0.018,39.294,0)" xlink:href="#z"/><use transform="matrix(0.018,0,0,0.018,44.693999999999996,0)" xlink:href="#A"/></g><path fill="#3d4752" d="M321-692c143-6 225 50 225 190 0 186-148 226-344 214v225l88 37V0H24v-26l89-37v-566l-88-36v-26zm135 192c0-137-121-141-254-131v278c142 8 254-7 254-147" id="K"/><path fill="#3d4752" d="M116-498c-10-162 38-266 193-264h66v148h-26l-37-88c-104-4-119 93-113 204h119v68H198v367l110 37V0H27v-26l88-37v-367H26v-38" id="L"/><path fill="#3d4752" d="M25-711l178-41v689l94 37V0H31v-26l88-37v-598l-94-27v-23" id="M"/><path fill="#3d4752" d="M252-509c149 0 208 103 203 259H117c-1 108 29 194 135 194 63 0 113-26 147-60l44 43c-48 46-97 84-184 84C102 11 35-91 35-248c0-147 71-261 217-261zm126 200c19-124-147-176-220-93-20 23-30 59-37 93h257" id="N"/><g id="f"><use transform="matrix(0.018,0,0,0.018,0,0)" xlink:href="#K"/><use transform="matrix(0.018,0,0,0.018,10.097999999999999,0)" xlink:href="#J"/><use transform="matrix(0.018,0,0,0.018,17.136,0)" xlink:href="#C"/><use transform="matrix(0.018,0,0,0.018,26.891999999999992,0)" xlink:href="#L"/><use transform="matrix(0.018,0,0,0.018,33.083999999999996,0)" xlink:href="#z"/><use transform="matrix(0.018,0,0,0.018,38.483999999999995,0)" xlink:href="#M"/><use transform="matrix(0.018,0,0,0.018,44.00999999999999,0)" xlink:href="#N"/></g><path fill="#3d4752" d="M339 11C160 11 82-76 82-253v-376l-87-37v-26h264v26l-89 37v388c0 121 46 182 170 182 130 0 179-79 179-207v-363l-86-37v-26h256v26l-89 37c0 118 1 239 1 355 0 182-78 285-262 285" id="O"/><g id="g"><use transform="matrix(0.018,0,0,0.018,0,0)" xlink:href="#O"/><use transform="matrix(0.018,0,0,0.018,12.312,0)" xlink:href="#G"/><use transform="matrix(0.018,0,0,0.018,19.962,0)" xlink:href="#N"/><use transform="matrix(0.018,0,0,0.018,28.872000000000003,0)" xlink:href="#J"/><use transform="matrix(0.018,0,0,0.018,36.126,0)" xlink:href="#G"/></g><path fill="#3d4752" d="M270-703c81-2 142 16 187 48v159h-26l-44-113c-29-15-58-27-110-26-74 3-130 32-130 106 0 126 160 125 239 187 44 35 87 78 84 156C466-56 380 8 250 11 165 13 102-9 55-43v-156h26l41 115c30 18 67 27 121 25 77-3 137-36 137-115 0-130-158-131-238-194-44-35-87-78-84-158 5-120 91-174 212-177" id="P"/><path fill="#3d4752" d="M250 11C150 11 92-32 92-134v-294L5-454v-24l171-40v381c0 54 35 77 87 77 74 0 108-53 145-95v-273l-88-26v-24l168-40v436l83 27v23L408 10v-86c-38 42-83 87-158 87" id="Q"/><path fill="#3d4752" d="M173-486c82-41 198-28 258 29v121h-26l-37-87c-26-17-56-25-95-25-109 0-151 95-151 205 0 107 52 191 158 191 55 0 83-24 113-54l47 42c-40 40-91 76-173 75C110 8 35-93 35-243c0-118 57-202 138-243" id="R"/><path fill="#3d4752" d="M324 11c-66 0-101-13-136-46v229l110 33v26H20v-26l88-33v-614l-88-27v-24l168-41v77c37-38 77-75 149-74 145 2 210 98 210 243 0 155-67 277-223 277zm-6-61c110 0 142-104 142-214 0-101-41-181-141-184-65-2-102 52-128 94l1 240c23 39 70 64 126 64" id="S"/><path fill="#3d4752" d="M337-34c-33 20-79 45-128 45-81 1-119-46-119-127v-315H4v-37l87-30v-131l83-30v161h145v67H173v306c1 40 13 70 55 70 28 0 64-17 80-30" id="T"/><g id="h"><use transform="matrix(0.018,0,0,0.018,0,0)" xlink:href="#P"/><use transform="matrix(0.018,0,0,0.018,9.45,0)" xlink:href="#Q"/><use transform="matrix(0.018,0,0,0.018,19.997999999999998,0)" xlink:href="#I"/><use transform="matrix(0.018,0,0,0.018,30.257999999999992,0)" xlink:href="#G"/><use transform="matrix(0.018,0,0,0.018,37.907999999999994,0)" xlink:href="#R"/><use transform="matrix(0.018,0,0,0.018,46.27799999999999,0)" xlink:href="#J"/><use transform="matrix(0.018,0,0,0.018,53.53199999999999,0)" xlink:href="#z"/><use transform="matrix(0.018,0,0,0.018,58.93199999999999,0)" xlink:href="#S"/><use transform="matrix(0.018,0,0,0.018,69.40799999999999,0)" xlink:href="#T"/><use transform="matrix(0.018,0,0,0.018,75.564,0)" xlink:href="#z"/><use transform="matrix(0.018,0,0,0.018,80.964,0)" xlink:href="#C"/><use transform="matrix(0.018,0,0,0.018,90.72,0)" xlink:href="#A"/><use transform="matrix(0.018,0,0,0.018,101.718,0)" xlink:href="#G"/></g><path fill="#3d4752" d="M144-459c47 125 101 243 139 377 35-130 83-246 123-370l-69-35v-26h210v26l-61 35C419-263 339-36 271 135c-33 87-88 133-212 123v-59c68 6 106-10 127-60 18-42 35-96 50-140L54-459l-64-28v-26h227v26" id="U"/><g id="i"><use transform="matrix(0.018,0,0,0.018,0,0)" xlink:href="#K"/><use transform="matrix(0.018,0,0,0.018,9.45,0)" xlink:href="#F"/><use transform="matrix(0.018,0,0,0.018,18.125999999999998,0)" xlink:href="#U"/><use transform="matrix(0.018,0,0,0.018,27.701999999999998,0)" xlink:href="#y"/><use transform="matrix(0.018,0,0,0.018,43.848,0)" xlink:href="#N"/><use transform="matrix(0.018,0,0,0.018,52.757999999999996,0)" xlink:href="#A"/><use transform="matrix(0.018,0,0,0.018,63.75599999999999,0)" xlink:href="#T"/><use transform="matrix(0.018,0,0,0.018,69.91199999999999,0)" xlink:href="#G"/></g><g id="j"><use transform="matrix(0.018,0,0,0.018,0,0)" xlink:href="#E"/><use transform="matrix(0.018,0,0,0.018,13.085999999999999,0)" xlink:href="#Q"/><use transform="matrix(0.018,0,0,0.018,23.634000000000004,0)" xlink:href="#N"/><use transform="matrix(0.018,0,0,0.018,32.544,0)" xlink:href="#G"/></g><path fill="#3d4752" d="M496-494l-48-125H308v556l109 37V0H111v-26l108-36v-557H76L28-494H0v-198h523v198h-27" id="V"/><g id="k"><use transform="matrix(0.018,0,0,0.018,0,0)" xlink:href="#V"/><use transform="matrix(0.018,0,0,0.018,8.982,0)" xlink:href="#J"/><use transform="matrix(0.018,0,0,0.018,16.235999999999997,0)" xlink:href="#F"/><use transform="matrix(0.018,0,0,0.018,24.912,0)" xlink:href="#A"/><use transform="matrix(0.018,0,0,0.018,35.91,0)" xlink:href="#G"/><use transform="matrix(0.018,0,0,0.018,43.559999999999995,0)" xlink:href="#F"/><use transform="matrix(0.018,0,0,0.018,52.236,0)" xlink:href="#R"/><use transform="matrix(0.018,0,0,0.018,60.605999999999995,0)" xlink:href="#T"/><use transform="matrix(0.018,0,0,0.018,66.762,0)" xlink:href="#z"/><use transform="matrix(0.018,0,0,0.018,72.162,0)" xlink:href="#C"/><use transform="matrix(0.018,0,0,0.018,81.918,0)" xlink:href="#A"/><use transform="matrix(0.018,0,0,0.018,92.91600000000001,0)" xlink:href="#G"/></g><path fill="#3d4752" d="M132-342c0 173 96 276 269 282 42 1 59-9 91-19l63-127h26L568-41c-55 26-100 52-177 52C176 11 40-119 40-336c0-172 87-283 210-339 92-42 242-34 324 6 2 52 0 118 1 175h-28l-48-128c-31-8-70-11-110-11-170 0-257 121-257 291" id="W"/><g id="l"><use transform="matrix(0.018,0,0,0.018,0,0)" xlink:href="#W"/><use transform="matrix(0.018,0,0,0.018,11.088,0)" xlink:href="#C"/><use transform="matrix(0.018,0,0,0.018,20.843999999999998,0)" xlink:href="#A"/><use transform="matrix(0.018,0,0,0.018,31.842,0)" xlink:href="#A"/><use transform="matrix(0.018,0,0,0.018,42.839999999999996,0)" xlink:href="#N"/><use transform="matrix(0.018,0,0,0.018,51.74999999999999,0)" xlink:href="#R"/><use transform="matrix(0.018,0,0,0.018,60.12,0)" xlink:href="#T"/><use transform="matrix(0.018,0,0,0.018,66.276,0)" xlink:href="#z"/><use transform="matrix(0.018,0,0,0.018,71.676,0)" xlink:href="#C"/><use transform="matrix(0.018,0,0,0.018,81.43200000000002,0)" xlink:href="#A"/><use transform="matrix(0.018,0,0,0.018,92.43,0)" xlink:href="#G"/></g><g id="m"><use transform="matrix(0.018,0,0,0.018,0,0)" xlink:href="#O"/><use transform="matrix(0.018,0,0,0.018,12.312,0)" xlink:href="#G"/><use transform="matrix(0.018,0,0,0.018,19.962,0)" xlink:href="#N"/><use transform="matrix(0.018,0,0,0.018,28.872000000000003,0)" xlink:href="#J"/></g><g id="n"><use transform="matrix(0.018,0,0,0.018,0,0)" xlink:href="#W"/><use transform="matrix(0.018,0,0,0.018,11.088,0)" xlink:href="#C"/><use transform="matrix(0.018,0,0,0.018,20.843999999999998,0)" xlink:href="#A"/><use transform="matrix(0.018,0,0,0.018,31.842,0)" xlink:href="#A"/><use transform="matrix(0.018,0,0,0.018,42.839999999999996,0)" xlink:href="#N"/><use transform="matrix(0.018,0,0,0.018,51.74999999999999,0)" xlink:href="#R"/><use transform="matrix(0.018,0,0,0.018,60.12,0)" xlink:href="#T"/><use transform="matrix(0.018,0,0,0.018,66.276,0)" xlink:href="#z"/><use transform="matrix(0.018,0,0,0.018,71.676,0)" xlink:href="#C"/><use transform="matrix(0.018,0,0,0.018,81.43200000000002,0)" xlink:href="#A"/></g><g id="o"><use transform="matrix(0.018,0,0,0.018,0,0)" xlink:href="#P"/><use transform="matrix(0.018,0,0,0.018,9.45,0)" xlink:href="#T"/><use transform="matrix(0.018,0,0,0.018,15.605999999999998,0)" xlink:href="#F"/><use transform="matrix(0.018,0,0,0.018,24.281999999999996,0)" xlink:href="#T"/><use transform="matrix(0.018,0,0,0.018,30.437999999999995,0)" xlink:href="#Q"/><use transform="matrix(0.018,0,0,0.018,40.986,0)" xlink:href="#G"/></g><path fill="#333" d="M146-102V0H94v-102L6-248h54l60 105 60-105h54" id="X"/><path fill="#333" d="M185-48c-13 30-37 53-82 52C43 2 14-33 14-96s30-98 90-98c62 0 83 45 84 108H66c0 31 8 55 39 56 18 0 30-7 34-22zm-45-69c5-46-57-63-70-21-2 6-4 13-4 21h74" id="Y"/><path fill="#333" d="M137-138c1-29-70-34-71-4 15 46 118 7 119 86 1 83-164 76-172 9l43-7c4 19 20 25 44 25 33 8 57-30 24-41C81-84 22-81 20-136c-2-80 154-74 161-7" id="Z"/><g id="p"><use transform="matrix(0.04938271604938272,0,0,0.04938271604938272,0,0)" xlink:href="#X"/><use transform="matrix(0.04938271604938272,0,0,0.04938271604938272,10.864197530864198,0)" xlink:href="#Y"/><use transform="matrix(0.04938271604938272,0,0,0.04938271604938272,20.74074074074074,0)" xlink:href="#Z"/></g><path fill="#333" d="M175 0L67-191c6 58 2 128 3 191H24v-248h59L193-55c-6-58-2-129-3-193h46V0h-61" id="aa"/><path fill="#333" d="M110-194c64 0 96 36 96 99 0 64-35 99-97 99-61 0-95-36-95-99 0-62 34-99 96-99zm-1 164c35 0 45-28 45-65 0-40-10-65-43-65-34 0-45 26-45 65 0 36 10 65 43 65" id="ab"/><g id="q"><use transform="matrix(0.04938271604938272,0,0,0.04938271604938272,0,0)" xlink:href="#aa"/><use transform="matrix(0.04938271604938272,0,0,0.04938271604938272,12.790123456790125,0)" xlink:href="#ab"/></g><g id="r"><use transform="matrix(0.018,0,0,0.018,0,0)" xlink:href="#P"/><use transform="matrix(0.018,0,0,0.018,9.45,0)" xlink:href="#Q"/><use transform="matrix(0.018,0,0,0.018,19.997999999999998,0)" xlink:href="#I"/><use transform="matrix(0.018,0,0,0.018,30.257999999999992,0)" xlink:href="#G"/><use transform="matrix(0.018,0,0,0.018,37.907999999999994,0)" xlink:href="#R"/><use transform="matrix(0.018,0,0,0.018,46.27799999999999,0)" xlink:href="#J"/><use transform="matrix(0.018,0,0,0.018,53.53199999999999,0)" xlink:href="#z"/><use transform="matrix(0.018,0,0,0.018,58.93199999999999,0)" xlink:href="#S"/><use transform="matrix(0.018,0,0,0.018,69.40799999999999,0)" xlink:href="#T"/><use transform="matrix(0.018,0,0,0.018,75.564,0)" xlink:href="#z"/><use transform="matrix(0.018,0,0,0.018,80.964,0)" xlink:href="#C"/><use transform="matrix(0.018,0,0,0.018,90.72,0)" xlink:href="#A"/></g><g id="s"><use transform="matrix(0.018,0,0,0.018,0,0)" xlink:href="#E"/><use transform="matrix(0.018,0,0,0.018,13.085999999999999,0)" xlink:href="#N"/><use transform="matrix(0.018,0,0,0.018,21.996,0)" xlink:href="#T"/><use transform="matrix(0.018,0,0,0.018,28.151999999999997,0)" xlink:href="#F"/><use transform="matrix(0.018,0,0,0.018,36.827999999999996,0)" xlink:href="#z"/><use transform="matrix(0.018,0,0,0.018,42.227999999999994,0)" xlink:href="#M"/><use transform="matrix(0.018,0,0,0.018,47.75399999999999,0)" xlink:href="#G"/></g><g id="t"><use transform="matrix(0.018,0,0,0.018,0,0)" xlink:href="#K"/><use transform="matrix(0.018,0,0,0.018,9.45,0)" xlink:href="#F"/><use transform="matrix(0.018,0,0,0.018,18.125999999999998,0)" xlink:href="#U"/><use transform="matrix(0.018,0,0,0.018,27.701999999999998,0)" xlink:href="#y"/><use transform="matrix(0.018,0,0,0.018,43.848,0)" xlink:href="#N"/><use transform="matrix(0.018,0,0,0.018,52.757999999999996,0)" xlink:href="#A"/><use transform="matrix(0.018,0,0,0.018,63.75599999999999,0)" xlink:href="#T"/><use transform="matrix(0.018,0,0,0.018,69.91199999999999,0)" xlink:href="#G"/></g><g id="u"><use transform="matrix(0.018,0,0,0.018,0,0)" xlink:href="#E"/><use transform="matrix(0.018,0,0,0.018,13.085999999999999,0)" xlink:href="#Q"/><use transform="matrix(0.018,0,0,0.018,23.634000000000004,0)" xlink:href="#N"/><use transform="matrix(0.018,0,0,0.018,32.544,0)" xlink:href="#G"/></g><g id="v"><use transform="matrix(0.018,0,0,0.018,0,0)" xlink:href="#V"/><use transform="matrix(0.018,0,0,0.018,8.982,0)" xlink:href="#J"/><use transform="matrix(0.018,0,0,0.018,16.235999999999997,0)" xlink:href="#F"/><use transform="matrix(0.018,0,0,0.018,24.912,0)" xlink:href="#A"/><use transform="matrix(0.018,0,0,0.018,35.91,0)" xlink:href="#G"/><use transform="matrix(0.018,0,0,0.018,43.559999999999995,0)" xlink:href="#F"/><use transform="matrix(0.018,0,0,0.018,52.236,0)" xlink:href="#R"/><use transform="matrix(0.018,0,0,0.018,60.605999999999995,0)" xlink:href="#T"/><use transform="matrix(0.018,0,0,0.018,66.762,0)" xlink:href="#z"/><use transform="matrix(0.018,0,0,0.018,72.162,0)" xlink:href="#C"/><use transform="matrix(0.018,0,0,0.018,81.918,0)" xlink:href="#A"/><use transform="matrix(0.018,0,0,0.018,92.91600000000001,0)" xlink:href="#G"/></g></defs></g></svg>