<svg xmlns="http://www.w3.org/2000/svg" xmlns:xlink="http://www.w3.org/1999/xlink" xmlns:lucid="lucid" width="897.47" height="1029.65"><g transform="translate(-495 -91.41732283464556)" lucid:page-tab-id="0_0"><path d="M1096 231.42c-8.84 0-16 7.16-16 16v48c0 8.83 7.16 16 16 16h128c8.84 0 16-7.17 16-16v-48c0-8.84-7.16-16-16-16z" stroke="#3d4752" stroke-width="2" fill="#fbf0ff"/><use xlink:href="#a" transform="matrix(1,0,0,1,1088,239.41732283464557) translate(29.727000000000004 37.175)"/><path d="M817.46 254.95a5 5 0 0 1 7.08 0l12.92 12.93a5 5 0 0 1 0 7.07l-12.92 12.93a5 5 0 0 1-7.08 0l-12.92-12.93a5 5 0 0 1 0-7.07z" stroke="#3d4752" stroke-width="2" fill="#fff"/><path d="M558 371.42c-8.84 0-16 7.16-16 16v48c0 8.83 7.16 16 16 16h128c8.84 0 16-7.17 16-16v-48c0-8.84-7.16-16-16-16z" stroke="#3d4752" stroke-width="2" fill="#e3fae3"/><use xlink:href="#b" transform="matrix(1,0,0,1,550,379.4173228346456) translate(50.022000000000006 37.175)"/><path d="M928.4 271.92h-87.97v-1h87.97zm134.22 0h-72.1v-1h72.1z" stroke="#635dff" stroke-width=".05" fill="#635dff"/><path d="M840.44 271.92h-.55l.03-.5-.04-.5h.54z" fill="#635dff"/><path d="M840.47 271.94h-.6l.04-.52-.03-.53h.6zm-.55-1l.04.48-.04.47h.5v-.96z" stroke="#635dff" stroke-width=".05" fill="#635dff"/><path d="M1077.38 271.42l-14.26 4.63v-9.27z" fill="#635dff"/><path d="M1079 271.42l-16.38 5.32V266.1zm-15.38 3.94l12.14-3.94-12.14-3.95z" stroke="#635dff" stroke-width=".05" fill="#635dff"/><use xlink:href="#c" transform="matrix(1,0,0,1,928.4042688391877,260.7506561679789) translate(0 14.222222222222223)"/><path d="M685.17 271.92h-57.15l-.88.07-.84.2-.8.32-.73.45-.66.56-.55.66-.45.72-.33.8-.2.82-.07 77.5h-1l.07-77.62.25-1 .4-.95.52-.87.66-.78.78-.66.87-.54.94-.4.98-.22 1-.08h57.2zm116.4 0h-47.4v-1h47.4z" stroke="#635dff" stroke-width=".05" fill="#635dff"/><path d="M802.07 271.42l.04.5h-.54v-1h.55z" fill="#635dff"/><path d="M802.1 271.42l.03.52h-.6v-1.05h.6zm-.52-.48v.95h.5l-.04-.48.04-.48z" stroke="#635dff" stroke-width=".05" fill="#635dff"/><path d="M622 368.8l-4.64-14.27h9.28z" fill="#635dff"/><path d="M622 370.42l-5.32-16.4h10.64zm-3.95-15.4L622 367.2l3.95-12.15z" stroke="#635dff" stroke-width=".05" fill="#635dff"/><use xlink:href="#d" transform="matrix(1,0,0,1,685.1728395061727,260.7506561679789) translate(0 14.222222222222223)"/><use xlink:href="#e" transform="matrix(1,0,0,1,685.1728395061727,260.7506561679789) translate(31.506172839506174 14.222222222222223)"/><path d="M1201.47 320c-8.84 0-16 7.16-16 16v48c0 8.84 7.16 16 16 16h128c8.84 0 16-7.16 16-16v-48c0-8.84-7.16-16-16-16z" stroke="#3d4752" stroke-width="2" fill="#fbf0ff"/><use xlink:href="#f" transform="matrix(1,0,0,1,1193.4696528974084,328) translate(39.258 37.175)"/><path d="M958 661.07c-8.84 0-16 7.16-16 16v48c0 8.83 7.16 16 16 16h128c8.84 0 16-7.17 16-16v-48c0-8.84-7.16-16-16-16z" stroke="#3d4752" stroke-width="2" fill="#d7faf5"/><use xlink:href="#g" transform="matrix(1,0,0,1,950,669.068005531501) translate(42.885000000000005 27.950000000000003)"/><use xlink:href="#h" transform="matrix(1,0,0,1,950,669.068005531501) translate(1.016999999999996 46.4)"/><use xlink:href="#i" transform="matrix(1,0,0,1,950,669.068005531501) translate(107.685 46.4)"/><path d="M958 781.07c-8.84 0-16 7.16-16 16v48c0 8.83 7.16 16 16 16h128c8.84 0 16-7.17 16-16v-48c0-8.84-7.16-16-16-16z" stroke="#3d4752" stroke-width="2" fill="#d7faf5"/><use xlink:href="#j" transform="matrix(1,0,0,1,950,789.068005531501) translate(21.141 27.950000000000003)"/><use xlink:href="#k" transform="matrix(1,0,0,1,950,789.068005531501) translate(44.298 46.4)"/><path d="M958 901.07c-8.84 0-16 7.16-16 16v48c0 8.83 7.16 16 16 16h128c8.84 0 16-7.17 16-16v-48c0-8.84-7.16-16-16-16z" stroke="#3d4752" stroke-width="2" fill="#d7faf5"/><use xlink:href="#l" transform="matrix(1,0,0,1,950,909.068005531501) translate(33.993 37.175)"/><path d="M958 1021.07c-8.84 0-16 7.16-16 16v48c0 8.83 7.16 16 16 16h128c8.84 0 16-7.17 16-16v-48c0-8.84-7.16-16-16-16z" stroke="#3d4752" stroke-width="2" fill="#d7faf5"/><use xlink:href="#m" transform="matrix(1,0,0,1,950,1029.068005531501) translate(25.784999999999997 27.950000000000003)"/><use xlink:href="#n" transform="matrix(1,0,0,1,950,1029.068005531501) translate(44.298 46.4)"/><path d="M558 661.07c-8.84 0-16 7.16-16 16v48c0 8.83 7.16 16 16 16h128c8.84 0 16-7.17 16-16v-48c0-8.84-7.16-16-16-16z" stroke="#3d4752" stroke-width="2" fill="#d7faf5"/><use xlink:href="#o" transform="matrix(1,0,0,1,550,669.068005531501) translate(8.127000000000002 37.175)"/><use xlink:href="#p" transform="matrix(1,0,0,1,550,669.068005531501) translate(49.202999999999996 37.175)"/><path d="M559 781.07c-8.84 0-16 7.16-16 16v48c0 8.83 7.16 16 16 16h128c8.84 0 16-7.17 16-16v-48c0-8.84-7.16-16-16-16z" stroke="#3d4752" stroke-width="2" fill="#d7faf5"/><use xlink:href="#q" transform="matrix(1,0,0,1,551,789.068005531501) translate(45.540000000000006 37.175)"/><path d="M757 371.42c-8.84 0-16 7.16-16 16v48c0 8.83 7.16 16 16 16h128c8.84 0 16-7.17 16-16v-48c0-8.84-7.16-16-16-16z" stroke="#3d4752" stroke-width="2" fill="#fff3d9"/><use xlink:href="#r" transform="matrix(1,0,0,1,749,379.4173228346455) translate(40.257000000000005 37.175)"/><path d="M821.5 354.03h-1v-12.98h1zm0-34.3h-1v-28.88h1z" stroke="#635dff" stroke-width=".05" fill="#635dff"/><path d="M821 290.35l.5-.04v.56h-1v-.55z" fill="#635dff"/><path d="M821 290.32l.52-.04v.6h-1.04v-.6zm-.48.52h.96v-.5l-.48.03-.48-.03z" stroke="#635dff" stroke-width=".05" fill="#635dff"/><path d="M821 368.8l-4.64-14.27h9.28z" fill="#635dff"/><path d="M821 370.42l-5.32-16.4h10.64zm-3.95-15.4L821 367.2l3.95-12.15z" stroke="#635dff" stroke-width=".05" fill="#635dff"/><use xlink:href="#s" transform="matrix(1,0,0,1,782.5308641975308,319.71665340222836) translate(0 14.222222222222223)"/><use xlink:href="#t" transform="matrix(1,0,0,1,782.5308641975308,319.71665340222836) translate(39.45679012345679 14.222222222222223)"/><path d="M739.5 411.42h-20.12" stroke="#fc9432" fill="none"/><path d="M740 411.92h-.5v-1h.5z" stroke="#fc9432" stroke-width=".05" fill="#fc9432"/><path d="M704.62 411.42l14.26-4.64v9.27z" stroke="#fc9432" fill="#fc9432"/><path d="M618.46 494.95a5 5 0 0 1 7.08 0l12.92 12.93a5 5 0 0 1 0 7.07l-12.92 12.93a5 5 0 0 1-7.08 0l-12.92-12.93a5 5 0 0 1 0-7.07z" stroke="#3d4752" stroke-width="2" fill="#fff"/><path d="M622 452.92v23.18" stroke="#54c45e" fill="none"/><path d="M622.5 452.93h-1v-.5h1z" stroke="#54c45e" stroke-width=".05" fill="#54c45e"/><path d="M622 490.87l-4.64-14.27h9.28z" stroke="#54c45e" fill="#54c45e"/><path d="M622.5 643.68h-1v-37.8h1zm0-59.14h-1v-53.7h1z" stroke="#54c45e" stroke-width=".05" fill="#54c45e"/><path d="M622 530.35l.5-.04v.56h-1v-.55z" fill="#54c45e"/><path d="M622 530.32l.52-.04v.6h-1.04v-.6zm-.48.52h.96v-.5l-.48.03-.48-.03z" stroke="#54c45e" stroke-width=".05" fill="#54c45e"/><path d="M622 658.45l-4.64-14.27h9.28z" fill="#54c45e"/><path d="M622 660.07l-5.32-16.4h10.64zm-3.95-15.4l3.95 12.16 3.95-12.15z" stroke="#54c45e" stroke-width=".05" fill="#54c45e"/><use xlink:href="#u" transform="matrix(1,0,0,1,606.6913580246913,584.5419947506562) translate(0 14.222222222222223)"/><path d="M748.66 511.92H641.43v-1h107.23zm72.84-43.12l-.07 37.62-.25 1-.4.95-.52.87-.66.77-.78.68-.87.53-.94.4-.98.24-1 .08h-42.75v-1h42.7l.9-.07.83-.2.8-.33.73-.45.66-.56.55-.65.45-.74.33-.78.2-.82.07-37.5z" stroke="#e81313" stroke-width=".05" fill="#e81313"/><path d="M641.44 511.92h-.55l.03-.5-.04-.5h.54z" fill="#e81313"/><path d="M641.47 511.94h-.6l.04-.52-.03-.53h.6zm-.55-1l.04.48-.04.47h.5v-.96z" stroke="#e81313" stroke-width=".05" fill="#e81313"/><path d="M825.64 468.3h-9.28l4.64-14.26z" fill="#e81313"/><path d="M826.32 468.8h-10.64l5.32-16.38zm-9.27-1h7.9L821 455.65z" stroke="#e81313" stroke-width=".05" fill="#e81313"/><use xlink:href="#v" transform="matrix(1,0,0,1,748.6635280984472,500.7506561679789) translate(0 14.222222222222223)"/><path d="M1241.5 271.42h138.97a6 6 0 0 1 6 6V354a6 6 0 0 1-6 6h-17.62" stroke="#ba23f6" fill="none"/><path d="M1241.5 271.92h-.5v-1h.5z" stroke="#ba23f6" stroke-width=".05" fill="#ba23f6"/><path d="M1348.1 360l14.25-4.64v9.28z" stroke="#ba23f6" fill="#ba23f6"/><path d="M954.04 411.9l-35.66.02v-1h35.66zm206.46-6.46l-.08 1-.24 1-.4.93-.52.87-.66.77-.78.68-.87.53-.94.4-1 .24h-23.53v-1h23.4l.83-.2.8-.32.73-.45.66-.56.55-.65.45-.74.33-.78.2-.84.07-.88v-92.48h1z" stroke="#ba23f6" stroke-width=".05" fill="#ba23f6"/><path d="M1160.5 312.93h-1v-.5h1z" fill="#ba23f6"/><path d="M1160.53 312.96h-1.06v-.57h1.06zm-1-.52v.47h.94v-.46z" stroke="#ba23f6" stroke-width=".05" fill="#ba23f6"/><path d="M917.88 416.05l-14.26-4.63 14.26-4.64z" fill="#ba23f6"/><path d="M918.38 416.74L902 411.42l16.38-5.33zm-13.14-5.32l12.14 3.94v-7.9z" stroke="#ba23f6" stroke-width=".05" fill="#ba23f6"/><use xlink:href="#w" transform="matrix(1,0,0,1,954.036638789327,400.7506561679789) translate(0 14.222222222222223)"/><use xlink:href="#x" transform="matrix(1,0,0,1,954.036638789327,400.7506561679789) translate(70.02469135802471 14.222222222222223)"/><use xlink:href="#y" transform="matrix(1,0,0,1,954.036638789327,400.7506561679789) translate(109.4814814814815 14.222222222222223)"/><path d="M892.1 210.96v1l-385.08-.04-.88.07-.84.2-.8.32-.73.45-.66.56-.55.66-.45.72-.33.8-.2.82-.07 188.86.07.88.2.84.33.8.45.73.56.66.67.57.73.45.8.33.82.2 18.5.07v1l-18.62-.08-1-.24-.95-.4-.87-.52-.78-.67-.66-.76-.53-.87-.38-.94-.24-1-.08-1 .07-189 .25-1.02.4-.93.52-.87.66-.78.78-.66.87-.54.94-.4.98-.22 1-.08zm262.9.03l1 .23.95.4.87.53.78.66.66.78.53.87.38.94.24 1 .08 1v12.52h-1v-12.48l-.07-.88-.2-.84-.33-.8-.45-.73-.56-.67-.67-.56-.73-.45-.8-.33-.82-.2-60.84-.02v-1z" stroke="#ba23f6" stroke-width=".05" fill="#ba23f6"/><path d="M1160.5 230.42h-1v-.52h1z" fill="#ba23f6"/><path d="M1160.53 230.44h-1.06v-.56h1.06zm-1-.5v.45h.94v-.47z" stroke="#ba23f6" stroke-width=".05" fill="#ba23f6"/><path d="M539.38 411.42l-14.26 4.63v-9.27z" fill="#ba23f6"/><path d="M541 411.42l-16.38 5.32V406.1zm-15.38 3.94l12.14-3.94-12.14-3.95z" stroke="#ba23f6" stroke-width=".05" fill="#ba23f6"/><use xlink:href="#z" transform="matrix(1,0,0,1,892.1129864041256,200.75065616797892) translate(0 14.222222222222223)"/><use xlink:href="#A" transform="matrix(1,0,0,1,892.1129864041256,200.75065616797892) translate(47.25925925925926 14.222222222222223)"/><use xlink:href="#B" transform="matrix(1,0,0,1,892.1129864041256,200.75065616797892) translate(68.88888888888889 14.222222222222223)"/><use xlink:href="#C" transform="matrix(1,0,0,1,892.1129864041256,200.75065616797892) translate(111.30864197530865 14.222222222222223)"/><path d="M1201.47 420c-8.84 0-16 7.16-16 16v48c0 8.84 7.16 16 16 16h128c8.84 0 16-7.16 16-16v-48c0-8.84-7.16-16-16-16z" stroke="#3d4752" stroke-width="2" fill="#fbf0ff"/><use xlink:href="#D" transform="matrix(1,0,0,1,1193.4696528974084,428) translate(18.567000000000007 37.175)"/><use xlink:href="#E" transform="matrix(1,0,0,1,1193.4696528974084,428) translate(73.143 37.175)"/><path d="M1201.47 520c-8.84 0-16 7.16-16 16v48c0 8.84 7.16 16 16 16h128c8.84 0 16-7.16 16-16v-48c0-8.84-7.16-16-16-16z" stroke="#3d4752" stroke-width="2" fill="#fbf0ff"/><use xlink:href="#F" transform="matrix(1,0,0,1,1193.4696528974084,528) translate(21.141 27.950000000000003)"/><use xlink:href="#G" transform="matrix(1,0,0,1,1193.4696528974084,528) translate(50.526 46.4)"/><path d="M1201.47 620c-8.84 0-16 7.16-16 16v48c0 8.84 7.16 16 16 16h128c8.84 0 16-7.16 16-16v-48c0-8.84-7.16-16-16-16z" stroke="#3d4752" stroke-width="2" fill="#fbf0ff"/><use xlink:href="#H" transform="matrix(1,0,0,1,1193.4696528974084,628) translate(12.780000000000001 37.175)"/><use xlink:href="#E" transform="matrix(1,0,0,1,1193.4696528974084,628) translate(78.92999999999999 37.175)"/><path d="M1241.5 271.42h138.97a6 6 0 0 1 6 6v183.25a6 6 0 0 1-6 6h-17.62" stroke="#ba23f6" fill="none"/><path d="M1241.5 271.92h-.5v-1h.5z" stroke="#ba23f6" stroke-width=".05" fill="#ba23f6"/><path d="M1348.1 466.67l14.25-4.64v9.27z" stroke="#ba23f6" fill="#ba23f6"/><path d="M1241.5 271.42h138.97a6 6 0 0 1 6 6V554a6 6 0 0 1-6 6h-17.62" stroke="#ba23f6" fill="none"/><path d="M1241.5 271.92h-.5v-1h.5z" stroke="#ba23f6" stroke-width=".05" fill="#ba23f6"/><path d="M1348.1 560l14.25-4.64v9.28z" stroke="#ba23f6" fill="#ba23f6"/><path d="M1241.5 271.42h138.97a6 6 0 0 1 6 6v383.25a6 6 0 0 1-6 6h-17.62" stroke="#ba23f6" fill="none"/><path d="M1241.5 271.92h-.5v-1h.5z" stroke="#ba23f6" stroke-width=".05" fill="#ba23f6"/><path d="M1348.1 666.67l14.25-4.64v9.27z" stroke="#ba23f6" fill="#ba23f6"/><path d="M1017.46 543.54a5 5 0 0 1 7.08 0l12.92 12.92a5 5 0 0 1 0 7.08l-12.92 12.92a5 5 0 0 1-7.08 0l-12.92-12.92a5 5 0 0 1 0-7.08z" stroke="#3d4752" stroke-width="2" fill="#fff"/><path d="M1075.22 561.5h-19v-1h19zm108.75-1h-18.14v-1h18.14z" stroke="#ba23f6" stroke-width=".05" fill="#ba23f6"/><path d="M1184.47 560.5h-.5v-1h.5z" fill="#ba23f6"/><path d="M1184.5 560.52h-.57v-1.04h.56zm-.52-1v.96h.46v-.96z" stroke="#ba23f6" stroke-width=".05" fill="#ba23f6"/><path d="M1055.73 565.64l-14.27-4.64 14.27-4.64z" fill="#ba23f6"/><path d="M1056.23 566.32l-16.4-5.32 16.4-5.32zm-13.15-5.32l12.15 3.95v-7.9z" stroke="#ba23f6" stroke-width=".05" fill="#ba23f6"/><use xlink:href="#I" transform="matrix(1,0,0,1,1075.2163388798313,549.3333333333334) translate(0 14.222222222222223)"/><use xlink:href="#J" transform="matrix(1,0,0,1,1075.2163388798313,549.3333333333334) translate(31.506172839506178 14.222222222222223)"/><path d="M1022.5 643.68h-1l-.02-21.5h1zm-1-42.84h-1v-21.4h1z" stroke="#54c45e" stroke-width=".05" fill="#54c45e"/><path d="M1021 578.93l.5-.04v.54h-1v-.55z" fill="#54c45e"/><path d="M1021 578.9l.52-.03v.6h-1.04v-.6zm-.48.52h.96v-.5l-.48.04-.48-.04z" stroke="#54c45e" stroke-width=".05" fill="#54c45e"/><path d="M1022 658.45l-4.64-14.27h9.28z" fill="#54c45e"/><path d="M1022 660.07l-5.32-16.4h10.64zm-3.95-15.4l3.95 12.16 3.95-12.15z" stroke="#54c45e" stroke-width=".05" fill="#54c45e"/><use xlink:href="#K" transform="matrix(1,0,0,1,981.6172839506173,600.8440835149087) translate(0 14.222222222222223)"/><use xlink:href="#L" transform="matrix(1,0,0,1,981.6172839506173,600.8440835149087) translate(63.01234567901235 14.222222222222223)"/><path d="M524.62 411.92l-18.5.07-.82.2-.8.32-.73.45-.66.56-.55.66-.45.72-.33.8-.2.84-.07.88.07 137.44.2.82.33.8.45.73.56.66.67.55.73.45.8.33.84.2.88.07h339.3v1H506.98l-1-.08-1-.24-.93-.4-.87-.52-.78-.66-.66-.78-.53-.87-.38-.94-.25-1-.07-137.6.08-1 .24-1 .4-.93.52-.87.66-.78.78-.66.87-.54.94-.4 1-.23 18.6-.08zm476.95 147.58v1h-44.04v-1z" stroke="#e81313" stroke-width=".05" fill="#e81313"/><path d="M1002.07 560l.04.5h-.54v-1h.55z" fill="#e81313"/><path d="M1002.1 560l.03.52h-.6v-1.04h.6zm-.52-.48v.96h.5l-.04-.48.04-.48z" stroke="#e81313" stroke-width=".05" fill="#e81313"/><path d="M539.38 411.42l-14.26 4.63v-9.27z" fill="#e81313"/><path d="M541 411.42l-16.38 5.32V406.1zm-15.38 3.94l12.14-3.94-12.14-3.95z" stroke="#e81313" stroke-width=".05" fill="#e81313"/><use xlink:href="#M" transform="matrix(1,0,0,1,846.3215534509815,549.3333333333334) translate(0 14.222222222222223)"/><use xlink:href="#N" transform="matrix(1,0,0,1,846.3215534509815,549.3333333333334) translate(32.44444444444444 14.222222222222223)"/><use xlink:href="#O" transform="matrix(1,0,0,1,846.3215534509815,549.3333333333334) translate(95.45679012345678 14.222222222222223)"/><path d="M703.5 701.07H816a6 6 0 0 1 6 6v226a6 6 0 0 0 6 6h96.62" stroke="#008573" fill="none"/><path d="M703.5 701.57h-.5v-1h.5z" stroke="#008573" stroke-width=".05" fill="#008573"/><path d="M939.38 939.07l-14.26 4.63v-9.27z" stroke="#008573" fill="#008573"/><path d="M703.5 701.07H816a6 6 0 0 1 6 6v108a6 6 0 0 0 6 6h96.62" stroke="#008573" fill="none"/><path d="M703.5 701.57h-.5v-1h.5z" stroke="#008573" stroke-width=".05" fill="#008573"/><path d="M939.38 821.07l-14.26 4.63v-9.27z" stroke="#008573" fill="#008573"/><path d="M703.5 701.07h221.12" stroke="#008573" fill="none"/><path d="M703.5 701.57h-.5v-1h.5z" stroke="#008573" stroke-width=".05" fill="#008573"/><path d="M939.38 701.07l-14.26 4.63v-9.27z" stroke="#008573" fill="#008573"/><path d="M1022 742.57v21.1" stroke="#008573" fill="none"/><path d="M1022.5 742.58h-1v-.5h1z" stroke="#008573" stroke-width=".05" fill="#008573"/><path d="M1022 778.45l-4.64-14.27h9.28z" stroke="#008573" fill="#008573"/><path d="M1022 862.57v21.1" stroke="#008573" fill="none"/><path d="M1022.5 862.58h-1v-.5h1z" stroke="#008573" stroke-width=".05" fill="#008573"/><path d="M1022 898.45l-4.64-14.27h9.28z" stroke="#008573" fill="#008573"/><path d="M1022 982.57v21.1" stroke="#008573" fill="none"/><path d="M1022.5 982.58h-1v-.5h1z" stroke="#008573" stroke-width=".05" fill="#008573"/><path d="M1022 1018.45l-4.64-14.27h9.28z" stroke="#008573" fill="#008573"/><path d="M558 901.07c-8.84 0-16 7.16-16 16v48c0 8.83 7.16 16 16 16h128c8.84 0 16-7.17 16-16v-48c0-8.84-7.16-16-16-16z" stroke="#3d4752" stroke-width="2" fill="#d7faf5"/><use xlink:href="#P" transform="matrix(1,0,0,1,550,909.068005531501) translate(51.903000000000006 37.175)"/><path d="M559 1021.07c-8.84 0-16 7.16-16 16v48c0 8.83 7.16 16 16 16h128c8.84 0 16-7.17 16-16v-48c0-8.84-7.16-16-16-16z" stroke="#3d4752" stroke-width="2" fill="#d7faf5"/><g><use xlink:href="#Q" transform="matrix(1,0,0,1,551,1029.068005531501) translate(21.71699999999999 37.175)"/></g><path d="M850 134.87c0 12.95-12.98 23.45-29 23.45s-29-10.5-29-23.45 12.98-23.45 29-23.45 29 10.5 29 23.45z" stroke="#3d4752" stroke-width="2" fill="#f2f2ff"/><g><use xlink:href="#R" transform="matrix(1,0,0,1,797,116.41732283464556) translate(3.4620000000000033 23.65)"/><use xlink:href="#S" transform="matrix(1,0,0,1,797,116.41732283464556) translate(8.412000000000003 23.65)"/></g><path d="M821 159.82v76.28" stroke="#635dff" fill="none"/><path d="M820.96 159.32h.54v.5h-1v-.54z" stroke="#635dff" stroke-width=".05" fill="#635dff"/><path d="M821 250.87l-4.64-14.27h9.28z" stroke="#635dff" fill="#635dff"/><path d="M703.5 701.07H816a6 6 0 0 1 6 6v348a6 6 0 0 0 6 6h96.62" stroke="#008573" fill="none"/><path d="M703.5 701.57h-.5v-1h.5z" stroke="#008573" stroke-width=".05" fill="#008573"/><path d="M939.38 1061.07l-14.26 4.63v-9.27z" stroke="#008573" fill="#008573"/><path d="M540.5 701.07H507a6 6 0 0 0-6 6v108a6 6 0 0 0 6 6h18.62" stroke="#008573" fill="none"/><path d="M541 701.57h-.5v-1h.5z" stroke="#008573" stroke-width=".05" fill="#008573"/><path d="M540.38 821.07l-14.26 4.63v-9.27z" stroke="#008573" fill="#008573"/><path d="M540.5 701.07H507a6 6 0 0 0-6 6v228a6 6 0 0 0 6 6h17.62" stroke="#008573" fill="none"/><path d="M541 701.57h-.5v-1h.5z" stroke="#008573" stroke-width=".05" fill="#008573"/><path d="M539.38 941.07l-14.26 4.63v-9.27z" stroke="#008573" fill="#008573"/><path d="M540.5 701.07H507a6 6 0 0 0-6 6v348a6 6 0 0 0 6 6h18.62" stroke="#008573" fill="none"/><path d="M541 701.57h-.5v-1h.5z" stroke="#008573" stroke-width=".05" fill="#008573"/><path d="M540.38 1061.07l-14.26 4.63v-9.27z" stroke="#008573" fill="#008573"/><defs><path fill="#3d4752" d="M202-387h324v-242l-88-36v-26h263v26l-88 36v566l88 37V0H438v-26l88-36v-251H202v250l88 37V0H25v-26l89-37v-566l-89-36v-26h265v26l-88 36v242" id="T"/><path fill="#3d4752" d="M276-509c158 0 231 103 231 260 0 153-81 260-233 260C115 11 35-90 35-249c0-153 87-260 241-260zm-1 459c107 0 145-91 145-199s-37-199-145-199-153 91-153 199c0 109 43 199 153 199" id="U"/><path fill="#3d4752" d="M330-441c-71 2-99 56-135 95v283l83 37V0H27v-26l87-36v-361l-93-27v-23l174-41v90c37-40 87-85 159-85 64 1 125 34 134 93 42-42 86-91 165-93 99-3 146 54 145 151v295l89 37V0H632v-26l82-36v-300c1-48-32-81-80-79-71 4-99 57-137 97l1 281 83 37V0H338v-26l76-36v-299c1-48-37-82-84-80" id="V"/><path fill="#3d4752" d="M252-509c149 0 208 103 203 259H117c-1 108 29 194 135 194 63 0 113-26 147-60l44 43c-48 46-97 84-184 84C102 11 35-91 35-248c0-147 71-261 217-261zm126 200c19-124-147-176-220-93-20 23-30 59-37 93h257" id="W"/><path fill="#3d4752" d="M324 11c-66 0-101-13-136-46v229l110 33v26H20v-26l88-33v-614l-88-27v-24l168-41v77c37-38 77-75 149-74 145 2 210 98 210 243 0 155-67 277-223 277zm-6-61c110 0 142-104 142-214 0-101-41-181-141-184-65-2-102 52-128 94l1 240c23 39 70 64 126 64" id="X"/><path fill="#3d4752" d="M233-514c87 3 156 45 156 132v302l83 27v23L310 12v-71c-35 38-70 69-138 70C85 12 27-46 30-134c4-141 149-158 281-173-1-16 1-41 0-60-1-92-140-105-204-56l-36 86H45c1-38-1-78 1-114 49-38 100-66 187-63zm77 261c-95 7-197 18-199 118-1 55 31 89 86 87 57-2 84-40 113-72v-133" id="Y"/><path fill="#3d4752" d="M171-186c-28 9-72 68-16 82C280-73 468-83 468 67c0 156-143 209-304 189-82-10-142-52-142-145C22 27 92-8 149-37 93-44 7-71 46-139c18-31 57-50 88-68-72-42-81-200-12-260 44-38 127-63 198-37l158-15v34l-83 38c32 34 44 118 23 175-31 81-147 125-247 86zm38 159C146-1 71 69 114 158c30 63 162 55 218 18 29-19 55-47 51-93-7-88-92-94-174-110zm-29-235c60 75 184 20 169-81-9-64-29-114-99-116-98-3-122 132-70 197" id="Z"/><g id="a"><use transform="matrix(0.018,0,0,0.018,0,0)" xlink:href="#T"/><use transform="matrix(0.018,0,0,0.018,13.068,0)" xlink:href="#U"/><use transform="matrix(0.018,0,0,0.018,22.823999999999998,0)" xlink:href="#V"/><use transform="matrix(0.018,0,0,0.018,38.97,0)" xlink:href="#W"/><use transform="matrix(0.018,0,0,0.018,47.879999999999995,0)" xlink:href="#X"/><use transform="matrix(0.018,0,0,0.018,58.355999999999995,0)" xlink:href="#Y"/><use transform="matrix(0.018,0,0,0.018,67.032,0)" xlink:href="#Z"/><use transform="matrix(0.018,0,0,0.018,75.636,0)" xlink:href="#W"/></g><path fill="#3d4752" d="M490 0H25v-26l89-37v-566l-89-37v-26h267v26l-88 37v556h210l66-129h26" id="aa"/><path fill="#3d4752" d="M25-481l177-41v459l83 37V0H31v-26l88-37v-368l-94-27v-23zm200-200c0 37-21 56-62 56-42 0-63-18-63-54 0-37 21-55 63-55 41 0 62 18 62 53" id="ab"/><path fill="#3d4752" d="M338-438c-74 0-103 54-140 95v280l78 37V0H26v-26l88-37v-360l-93-27v-23l177-41v91c34-39 85-86 153-86 100 1 162 43 162 145v301l88 37V0H346v-26l83-37v-298c-1-54-38-77-91-77" id="ac"/><g id="b"><use transform="matrix(0.018,0,0,0.018,0,0)" xlink:href="#aa"/><use transform="matrix(0.018,0,0,0.018,9.197999999999999,0)" xlink:href="#U"/><use transform="matrix(0.018,0,0,0.018,18.953999999999997,0)" xlink:href="#Z"/><use transform="matrix(0.018,0,0,0.018,27.557999999999996,0)" xlink:href="#ab"/><use transform="matrix(0.018,0,0,0.018,32.958,0)" xlink:href="#ac"/></g><path fill="#333" d="M135-194c52 0 70 43 70 98 0 56-19 99-73 100-30 1-46-15-58-35L72 0H24l1-261h50v104c11-23 29-37 60-37zM114-30c31 0 40-27 40-66 0-37-7-63-39-63s-41 28-41 65c0 36 8 64 40 64" id="ad"/><path fill="#333" d="M135-150c-39-12-60 13-60 57V0H25l-1-190h47c2 13-1 29 3 40 6-28 27-53 61-41v41" id="ae"/><path fill="#333" d="M110-194c64 0 96 36 96 99 0 64-35 99-97 99-61 0-95-36-95-99 0-62 34-99 96-99zm-1 164c35 0 45-28 45-65 0-40-10-65-43-65-34 0-45 26-45 65 0 36 10 65 43 65" id="af"/><path fill="#333" d="M231 0h-52l-39-155L100 0H48L-1-190h46L77-45c9-52 24-97 36-145h53l37 145 32-145h46" id="ag"/><path fill="#333" d="M137-138c1-29-70-34-71-4 15 46 118 7 119 86 1 83-164 76-172 9l43-7c4 19 20 25 44 25 33 8 57-30 24-41C81-84 22-81 20-136c-2-80 154-74 161-7" id="ah"/><path fill="#333" d="M185-48c-13 30-37 53-82 52C43 2 14-33 14-96s30-98 90-98c62 0 83 45 84 108H66c0 31 8 55 39 56 18 0 30-7 34-22zm-45-69c5-46-57-63-70-21-2 6-4 13-4 21h74" id="ai"/><g id="c"><use transform="matrix(0.04938271604938272,0,0,0.04938271604938272,0,0)" xlink:href="#ad"/><use transform="matrix(0.04938271604938272,0,0,0.04938271604938272,10.814814814814815,0)" xlink:href="#ae"/><use transform="matrix(0.04938271604938272,0,0,0.04938271604938272,17.728395061728396,0)" xlink:href="#af"/><use transform="matrix(0.04938271604938272,0,0,0.04938271604938272,28.543209876543205,0)" xlink:href="#ag"/><use transform="matrix(0.04938271604938272,0,0,0.04938271604938272,42.37037037037037,0)" xlink:href="#ah"/><use transform="matrix(0.04938271604938272,0,0,0.04938271604938272,52.246913580246904,0)" xlink:href="#ai"/></g><path fill="#333" d="M25 0v-261h50V0H25" id="aj"/><path fill="#333" d="M88-194c31-1 46 15 58 34l-1-101h50l1 261h-48c-2-10 0-23-3-31C134-8 116 4 84 4 32 4 16-41 15-95c0-56 19-97 73-99zm17 164c33 0 40-30 41-66 1-37-9-64-41-64s-38 30-39 65c0 43 13 65 39 65" id="ak"/><g id="d"><use transform="matrix(0.04938271604938272,0,0,0.04938271604938272,0,0)" xlink:href="#af"/><use transform="matrix(0.04938271604938272,0,0,0.04938271604938272,10.814814814814815,0)" xlink:href="#aj"/><use transform="matrix(0.04938271604938272,0,0,0.04938271604938272,15.753086419753087,0)" xlink:href="#ak"/></g><path fill="#333" d="M85 4C-2 5 27-109 22-190h50c7 57-23 150 33 157 60-5 35-97 40-157h50l1 190h-47c-2-12 1-28-3-38-12 25-28 42-61 42" id="al"/><g id="e"><use transform="matrix(0.04938271604938272,0,0,0.04938271604938272,0,0)" xlink:href="#al"/><use transform="matrix(0.04938271604938272,0,0,0.04938271604938272,10.814814814814815,0)" xlink:href="#ah"/><use transform="matrix(0.04938271604938272,0,0,0.04938271604938272,20.69135802469136,0)" xlink:href="#ai"/><use transform="matrix(0.04938271604938272,0,0,0.04938271604938272,30.567901234567906,0)" xlink:href="#ae"/></g><path fill="#3d4752" d="M270-703c81-2 142 16 187 48v159h-26l-44-113c-29-15-58-27-110-26-74 3-130 32-130 106 0 126 160 125 239 187 44 35 87 78 84 156C466-56 380 8 250 11 165 13 102-9 55-43v-156h26l41 115c30 18 67 27 121 25 77-3 137-36 137-115 0-130-158-131-238-194-44-35-87-78-84-158 5-120 91-174 212-177" id="am"/><path fill="#3d4752" d="M316-434c-70 6-120 46-120 120v251l106 37V0H25v-26l88-36v-362l-92-27v-23l175-41v104c31-55 97-121 183-88v151h-26" id="an"/><path fill="#3d4752" d="M142-459c43 126 97 241 130 377 35-133 90-247 133-372l-71-34v-26h211v26l-59 33L307 0h-80L53-459l-63-29v-26h225v26" id="ao"/><path fill="#3d4752" d="M173-486c82-41 198-28 258 29v121h-26l-37-87c-26-17-56-25-95-25-109 0-151 95-151 205 0 107 52 191 158 191 55 0 83-24 113-54l47 42c-40 40-91 76-173 75C110 8 35-93 35-243c0-118 57-202 138-243" id="ap"/><path fill="#3d4752" d="M229-509c47 0 105 15 135 34v127h-26l-37-86c-64-27-173-19-165 61 8 84 122 76 177 120 33 26 64 57 62 116-3 100-76 148-174 148C136 11 92-5 50-31v-127h26l36 87c55 34 183 31 177-55-7-93-117-87-177-128-34-23-63-52-61-109 3-102 78-146 178-146" id="aq"/><g id="f"><use transform="matrix(0.018,0,0,0.018,0,0)" xlink:href="#am"/><use transform="matrix(0.018,0,0,0.018,9.45,0)" xlink:href="#W"/><use transform="matrix(0.018,0,0,0.018,18.36,0)" xlink:href="#an"/><use transform="matrix(0.018,0,0,0.018,25.613999999999997,0)" xlink:href="#ao"/><use transform="matrix(0.018,0,0,0.018,35.153999999999996,0)" xlink:href="#ab"/><use transform="matrix(0.018,0,0,0.018,40.553999999999995,0)" xlink:href="#ap"/><use transform="matrix(0.018,0,0,0.018,48.924,0)" xlink:href="#W"/><use transform="matrix(0.018,0,0,0.018,57.83399999999999,0)" xlink:href="#aq"/></g><path fill="#3d4752" d="M132-342c0 173 96 276 269 282 42 1 59-9 91-19l63-127h26L568-41c-55 26-100 52-177 52C176 11 40-119 40-336c0-172 87-283 210-339 92-42 242-34 324 6 2 52 0 118 1 175h-28l-48-128c-31-8-70-11-110-11-170 0-257 121-257 291" id="ar"/><path fill="#3d4752" d="M343-438c-73 0-104 54-141 95v280l78 37V0H30v-26l88-37v-600l-93-27v-23l177-41v331c34-39 86-86 154-86 100 1 161 43 161 145v301l88 37V0H350v-26l83-37v-298c-1-54-38-77-90-77" id="as"/><g id="g"><use transform="matrix(0.018,0,0,0.018,0,0)" xlink:href="#ar"/><use transform="matrix(0.018,0,0,0.018,11.088,0)" xlink:href="#as"/><use transform="matrix(0.018,0,0,0.018,22.157999999999998,0)" xlink:href="#U"/><use transform="matrix(0.018,0,0,0.018,31.913999999999994,0)" xlink:href="#U"/><use transform="matrix(0.018,0,0,0.018,41.669999999999995,0)" xlink:href="#aq"/><use transform="matrix(0.018,0,0,0.018,49.31999999999999,0)" xlink:href="#W"/></g><path fill="#3d4752" d="M250 11C150 11 92-32 92-134v-294L5-454v-24l171-40v381c0 54 35 77 87 77 74 0 108-53 145-95v-273l-88-26v-24l168-40v436l83 27v23L408 10v-86c-38 42-83 87-158 87" id="at"/><path fill="#3d4752" d="M309 11c-66 0-102-14-137-47L94 0v-659L0-687v-22l176-39v312c35-40 73-73 142-73 146 0 217 97 217 242 0 157-70 278-226 278zm-6-61c110 0 145-104 145-215 0-101-47-178-148-181-65-2-98 48-124 91v239c23 39 71 66 127 66" id="au"/><path fill="#3d4752" d="M337-34c-33 20-79 45-128 45-81 1-119-46-119-127v-315H4v-37l87-30v-131l83-30v161h145v67H173v306c1 40 13 70 55 70 28 0 64-17 80-30" id="av"/><g id="h"><use transform="matrix(0.018,0,0,0.018,0,0)" xlink:href="#am"/><use transform="matrix(0.018,0,0,0.018,9.45,0)" xlink:href="#at"/><use transform="matrix(0.018,0,0,0.018,19.997999999999998,0)" xlink:href="#au"/><use transform="matrix(0.018,0,0,0.018,30.257999999999992,0)" xlink:href="#aq"/><use transform="matrix(0.018,0,0,0.018,37.907999999999994,0)" xlink:href="#ap"/><use transform="matrix(0.018,0,0,0.018,46.27799999999999,0)" xlink:href="#an"/><use transform="matrix(0.018,0,0,0.018,53.53199999999999,0)" xlink:href="#ab"/><use transform="matrix(0.018,0,0,0.018,58.93199999999999,0)" xlink:href="#X"/><use transform="matrix(0.018,0,0,0.018,69.40799999999999,0)" xlink:href="#av"/><use transform="matrix(0.018,0,0,0.018,75.564,0)" xlink:href="#ab"/><use transform="matrix(0.018,0,0,0.018,80.964,0)" xlink:href="#U"/><use transform="matrix(0.018,0,0,0.018,90.72,0)" xlink:href="#ac"/></g><path fill="#3d4752" d="M321-692c143-6 225 50 225 190 0 186-148 226-344 214v225l88 37V0H24v-26l89-37v-566l-88-36v-26zm135 192c0-137-121-141-254-131v278c142 8 254-7 254-147" id="aw"/><path fill="#3d4752" d="M25-711l178-41v689l94 37V0H31v-26l88-37v-598l-94-27v-23" id="ax"/><g id="i"><use transform="matrix(0.018,0,0,0.018,0,0)" xlink:href="#aw"/><use transform="matrix(0.018,0,0,0.018,10.097999999999999,0)" xlink:href="#ax"/><use transform="matrix(0.018,0,0,0.018,15.623999999999999,0)" xlink:href="#Y"/><use transform="matrix(0.018,0,0,0.018,24.299999999999997,0)" xlink:href="#ac"/></g><g id="j"><use transform="matrix(0.018,0,0,0.018,0,0)" xlink:href="#am"/><use transform="matrix(0.018,0,0,0.018,9.45,0)" xlink:href="#at"/><use transform="matrix(0.018,0,0,0.018,19.997999999999998,0)" xlink:href="#au"/><use transform="matrix(0.018,0,0,0.018,30.257999999999992,0)" xlink:href="#aq"/><use transform="matrix(0.018,0,0,0.018,37.907999999999994,0)" xlink:href="#ap"/><use transform="matrix(0.018,0,0,0.018,46.27799999999999,0)" xlink:href="#an"/><use transform="matrix(0.018,0,0,0.018,53.53199999999999,0)" xlink:href="#ab"/><use transform="matrix(0.018,0,0,0.018,58.93199999999999,0)" xlink:href="#X"/><use transform="matrix(0.018,0,0,0.018,69.40799999999999,0)" xlink:href="#av"/><use transform="matrix(0.018,0,0,0.018,75.564,0)" xlink:href="#ab"/><use transform="matrix(0.018,0,0,0.018,80.964,0)" xlink:href="#U"/><use transform="matrix(0.018,0,0,0.018,90.72,0)" xlink:href="#ac"/></g><path fill="#3d4752" d="M294 0C209 0 108 2 25-1v-26l89-37v-571l-89-37v-26h292c227 1 370 93 370 321C687-133 537 0 294 0zm-92-68c248 21 391-75 393-304 2-221-163-272-393-256v560" id="ay"/><g id="k"><use transform="matrix(0.018,0,0,0.018,0,0)" xlink:href="#ay"/><use transform="matrix(0.018,0,0,0.018,13.085999999999999,0)" xlink:href="#W"/><use transform="matrix(0.018,0,0,0.018,21.996,0)" xlink:href="#av"/><use transform="matrix(0.018,0,0,0.018,28.151999999999997,0)" xlink:href="#Y"/><use transform="matrix(0.018,0,0,0.018,36.827999999999996,0)" xlink:href="#ab"/><use transform="matrix(0.018,0,0,0.018,42.227999999999994,0)" xlink:href="#ax"/><use transform="matrix(0.018,0,0,0.018,47.75399999999999,0)" xlink:href="#aq"/></g><path fill="#3d4752" d="M25-711l178-41v689l94 37V0H31v-26l88-37v-598l-94-27v-23zm276 430L490-56l77 30V0H425L208-260l188-201-69-28v-24h239v24l-102 33" id="az"/><g id="l"><use transform="matrix(0.018,0,0,0.018,0,0)" xlink:href="#ar"/><use transform="matrix(0.018,0,0,0.018,11.088,0)" xlink:href="#as"/><use transform="matrix(0.018,0,0,0.018,22.157999999999998,0)" xlink:href="#W"/><use transform="matrix(0.018,0,0,0.018,31.067999999999998,0)" xlink:href="#ap"/><use transform="matrix(0.018,0,0,0.018,39.437999999999995,0)" xlink:href="#az"/><use transform="matrix(0.018,0,0,0.018,49.553999999999995,0)" xlink:href="#U"/><use transform="matrix(0.018,0,0,0.018,59.309999999999995,0)" xlink:href="#at"/><use transform="matrix(0.018,0,0,0.018,69.85799999999999,0)" xlink:href="#av"/></g><g id="m"><use transform="matrix(0.018,0,0,0.018,0,0)" xlink:href="#ar"/><use transform="matrix(0.018,0,0,0.018,11.088,0)" xlink:href="#U"/><use transform="matrix(0.018,0,0,0.018,20.843999999999998,0)" xlink:href="#ac"/><use transform="matrix(0.018,0,0,0.018,31.842,0)" xlink:href="#ac"/><use transform="matrix(0.018,0,0,0.018,42.839999999999996,0)" xlink:href="#W"/><use transform="matrix(0.018,0,0,0.018,51.74999999999999,0)" xlink:href="#ap"/><use transform="matrix(0.018,0,0,0.018,60.12,0)" xlink:href="#av"/><use transform="matrix(0.018,0,0,0.018,66.276,0)" xlink:href="#ab"/><use transform="matrix(0.018,0,0,0.018,71.676,0)" xlink:href="#U"/><use transform="matrix(0.018,0,0,0.018,81.43200000000002,0)" xlink:href="#ac"/></g><g id="n"><use transform="matrix(0.018,0,0,0.018,0,0)" xlink:href="#ay"/><use transform="matrix(0.018,0,0,0.018,13.085999999999999,0)" xlink:href="#W"/><use transform="matrix(0.018,0,0,0.018,21.996,0)" xlink:href="#av"/><use transform="matrix(0.018,0,0,0.018,28.151999999999997,0)" xlink:href="#Y"/><use transform="matrix(0.018,0,0,0.018,36.827999999999996,0)" xlink:href="#ab"/><use transform="matrix(0.018,0,0,0.018,42.227999999999994,0)" xlink:href="#ax"/><use transform="matrix(0.018,0,0,0.018,47.75399999999999,0)" xlink:href="#aq"/></g><path fill="#3d4752" d="M339 11C160 11 82-76 82-253v-376l-87-37v-26h264v26l-89 37v388c0 121 46 182 170 182 130 0 179-79 179-207v-363l-86-37v-26h256v26l-89 37c0 118 1 239 1 355 0 182-78 285-262 285" id="aA"/><g id="o"><use transform="matrix(0.018,0,0,0.018,0,0)" xlink:href="#aA"/><use transform="matrix(0.018,0,0,0.018,12.312,0)" xlink:href="#aq"/><use transform="matrix(0.018,0,0,0.018,19.962,0)" xlink:href="#W"/><use transform="matrix(0.018,0,0,0.018,28.872000000000003,0)" xlink:href="#an"/></g><path fill="#3d4752" d="M255-509c65 0 107 14 141 47v-197l-94-28v-22c58-14 117-27 174-42v677l83 26v22L396 15c0-21-1-54 0-79-36 39-79 75-151 75C100 11 35-86 35-231c0-155 64-278 220-278zm141 125c-22-39-80-64-135-64-109 0-139 105-139 215 0 100 41 183 141 183 70 0 104-49 133-95v-239" id="aB"/><g id="p"><use transform="matrix(0.018,0,0,0.018,0,0)" xlink:href="#ay"/><use transform="matrix(0.018,0,0,0.018,13.085999999999999,0)" xlink:href="#Y"/><use transform="matrix(0.018,0,0,0.018,21.762000000000004,0)" xlink:href="#aq"/><use transform="matrix(0.018,0,0,0.018,29.412,0)" xlink:href="#as"/><use transform="matrix(0.018,0,0,0.018,40.482,0)" xlink:href="#au"/><use transform="matrix(0.018,0,0,0.018,50.742,0)" xlink:href="#U"/><use transform="matrix(0.018,0,0,0.018,60.498,0)" xlink:href="#Y"/><use transform="matrix(0.018,0,0,0.018,69.17399999999999,0)" xlink:href="#an"/><use transform="matrix(0.018,0,0,0.018,76.428,0)" xlink:href="#aB"/></g><path fill="#3d4752" d="M116-498c-10-162 38-266 193-264h66v148h-26l-37-88c-104-4-119 93-113 204h119v68H198v367l110 37V0H27v-26l88-37v-367H26v-38" id="aC"/><g id="q"><use transform="matrix(0.018,0,0,0.018,0,0)" xlink:href="#aw"/><use transform="matrix(0.018,0,0,0.018,10.097999999999999,0)" xlink:href="#an"/><use transform="matrix(0.018,0,0,0.018,17.136,0)" xlink:href="#U"/><use transform="matrix(0.018,0,0,0.018,26.891999999999992,0)" xlink:href="#aC"/><use transform="matrix(0.018,0,0,0.018,33.083999999999996,0)" xlink:href="#ab"/><use transform="matrix(0.018,0,0,0.018,38.483999999999995,0)" xlink:href="#ax"/><use transform="matrix(0.018,0,0,0.018,44.00999999999999,0)" xlink:href="#W"/></g><path fill="#3d4752" d="M321-692c140-10 219 45 219 182 0 114-58 162-147 184L524-63l80 37V0H462L296-315h-94v252l88 37V0H25v-26l89-37-1-566-88-36v-26zm129 184c0-136-120-131-248-123v251c134 4 248 10 248-128" id="aD"/><g id="r"><use transform="matrix(0.018,0,0,0.018,0,0)" xlink:href="#aD"/><use transform="matrix(0.018,0,0,0.018,10.601999999999999,0)" xlink:href="#W"/><use transform="matrix(0.018,0,0,0.018,19.511999999999997,0)" xlink:href="#Z"/><use transform="matrix(0.018,0,0,0.018,28.115999999999996,0)" xlink:href="#ab"/><use transform="matrix(0.018,0,0,0.018,33.516,0)" xlink:href="#aq"/><use transform="matrix(0.018,0,0,0.018,41.166,0)" xlink:href="#av"/><use transform="matrix(0.018,0,0,0.018,47.321999999999996,0)" xlink:href="#W"/><use transform="matrix(0.018,0,0,0.018,56.23199999999999,0)" xlink:href="#an"/></g><path fill="#333" d="M135-194c87-1 58 113 63 194h-50c-7-57 23-157-34-157-59 0-34 97-39 157H25l-1-190h47c2 12-1 28 3 38 12-26 28-41 61-42" id="aE"/><g id="s"><use transform="matrix(0.04938271604938272,0,0,0.04938271604938272,0,0)" xlink:href="#aE"/><use transform="matrix(0.04938271604938272,0,0,0.04938271604938272,10.814814814814815,0)" xlink:href="#ai"/><use transform="matrix(0.04938271604938272,0,0,0.04938271604938272,20.69135802469136,0)" xlink:href="#ag"/></g><g id="t"><use transform="matrix(0.04938271604938272,0,0,0.04938271604938272,0,0)" xlink:href="#al"/><use transform="matrix(0.04938271604938272,0,0,0.04938271604938272,10.814814814814815,0)" xlink:href="#ah"/><use transform="matrix(0.04938271604938272,0,0,0.04938271604938272,20.69135802469136,0)" xlink:href="#ai"/><use transform="matrix(0.04938271604938272,0,0,0.04938271604938272,30.567901234567906,0)" xlink:href="#ae"/></g><path fill="#333" d="M146-102V0H94v-102L6-248h54l60 105 60-105h54" id="aF"/><g id="u"><use transform="matrix(0.04938271604938272,0,0,0.04938271604938272,0,0)" xlink:href="#aF"/><use transform="matrix(0.04938271604938272,0,0,0.04938271604938272,10.864197530864198,0)" xlink:href="#ai"/><use transform="matrix(0.04938271604938272,0,0,0.04938271604938272,20.74074074074074,0)" xlink:href="#ah"/></g><path fill="#333" d="M175 0L67-191c6 58 2 128 3 191H24v-248h59L193-55c-6-58-2-129-3-193h46V0h-61" id="aG"/><g id="v"><use transform="matrix(0.04938271604938272,0,0,0.04938271604938272,0,0)" xlink:href="#aG"/><use transform="matrix(0.04938271604938272,0,0,0.04938271604938272,12.790123456790125,0)" xlink:href="#af"/></g><path fill="#333" d="M195-6C206 82 75 100 31 46c-4-6-6-13-8-21l49-6c3 16 16 24 34 25 40 0 42-37 40-79-11 22-30 35-61 35-53 0-70-43-70-97 0-56 18-96 73-97 30 0 46 14 59 34l2-30h47zm-90-29c32 0 41-27 41-63 0-35-9-62-40-62-32 0-39 29-40 63 0 36 9 62 39 62" id="aH"/><path fill="#333" d="M25-224v-37h50v37H25zM25 0v-190h50V0H25" id="aI"/><path fill="#333" d="M115-3C79 11 28 4 28-45v-112H4v-33h27l15-45h31v45h36v33H77v99c-1 23 16 31 38 25v30" id="aJ"/><g id="w"><use transform="matrix(0.04938271604938272,0,0,0.04938271604938272,0,0)" xlink:href="#ae"/><use transform="matrix(0.04938271604938272,0,0,0.04938271604938272,6.913580246913581,0)" xlink:href="#ai"/><use transform="matrix(0.04938271604938272,0,0,0.04938271604938272,16.790123456790127,0)" xlink:href="#aH"/><use transform="matrix(0.04938271604938272,0,0,0.04938271604938272,27.604938271604947,0)" xlink:href="#aI"/><use transform="matrix(0.04938271604938272,0,0,0.04938271604938272,32.543209876543216,0)" xlink:href="#ah"/><use transform="matrix(0.04938271604938272,0,0,0.04938271604938272,42.41975308641976,0)" xlink:href="#aJ"/><use transform="matrix(0.04938271604938272,0,0,0.04938271604938272,48.296296296296305,0)" xlink:href="#ai"/><use transform="matrix(0.04938271604938272,0,0,0.04938271604938272,58.17283950617284,0)" xlink:href="#ae"/></g><g id="x"><use transform="matrix(0.04938271604938272,0,0,0.04938271604938272,0,0)" xlink:href="#aE"/><use transform="matrix(0.04938271604938272,0,0,0.04938271604938272,10.814814814814815,0)" xlink:href="#ai"/><use transform="matrix(0.04938271604938272,0,0,0.04938271604938272,20.69135802469136,0)" xlink:href="#ag"/></g><path fill="#333" d="M133-34C117-15 103 5 69 4 32 3 11-16 11-54c-1-60 55-63 116-61 1-26-3-47-28-47-18 1-26 9-28 27l-52-2c7-38 36-58 82-57s74 22 75 68l1 82c-1 14 12 18 25 15v27c-30 8-71 5-69-32zm-48 3c29 0 43-24 42-57-32 0-66-3-65 30 0 17 8 27 23 27" id="aK"/><path fill="#333" d="M190-63c-7 42-38 67-86 67-59 0-84-38-90-98-12-110 154-137 174-36l-49 2c-2-19-15-32-35-32-30 0-35 28-38 64-6 74 65 87 74 30" id="aL"/><g id="y"><use transform="matrix(0.04938271604938272,0,0,0.04938271604938272,0,0)" xlink:href="#aK"/><use transform="matrix(0.04938271604938272,0,0,0.04938271604938272,9.876543209876544,0)" xlink:href="#aL"/><use transform="matrix(0.04938271604938272,0,0,0.04938271604938272,19.75308641975309,0)" xlink:href="#aL"/><use transform="matrix(0.04938271604938272,0,0,0.04938271604938272,29.629629629629633,0)" xlink:href="#af"/><use transform="matrix(0.04938271604938272,0,0,0.04938271604938272,40.44444444444445,0)" xlink:href="#al"/><use transform="matrix(0.04938271604938272,0,0,0.04938271604938272,51.25925925925927,0)" xlink:href="#aE"/><use transform="matrix(0.04938271604938272,0,0,0.04938271604938272,62.074074074074076,0)" xlink:href="#aJ"/></g><g id="z"><use transform="matrix(0.04938271604938272,0,0,0.04938271604938272,0,0)" xlink:href="#aj"/><use transform="matrix(0.04938271604938272,0,0,0.04938271604938272,4.938271604938272,0)" xlink:href="#af"/><use transform="matrix(0.04938271604938272,0,0,0.04938271604938272,15.753086419753087,0)" xlink:href="#aH"/><use transform="matrix(0.04938271604938272,0,0,0.04938271604938272,26.567901234567902,0)" xlink:href="#aI"/><use transform="matrix(0.04938271604938272,0,0,0.04938271604938272,31.506172839506174,0)" xlink:href="#aE"/></g><g id="A"><use transform="matrix(0.04938271604938272,0,0,0.04938271604938272,0,0)" xlink:href="#aJ"/><use transform="matrix(0.04938271604938272,0,0,0.04938271604938272,5.8765432098765435,0)" xlink:href="#af"/></g><g id="B"><use transform="matrix(0.04938271604938272,0,0,0.04938271604938272,0,0)" xlink:href="#al"/><use transform="matrix(0.04938271604938272,0,0,0.04938271604938272,10.814814814814815,0)" xlink:href="#ah"/><use transform="matrix(0.04938271604938272,0,0,0.04938271604938272,20.69135802469136,0)" xlink:href="#ai"/><use transform="matrix(0.04938271604938272,0,0,0.04938271604938272,30.567901234567906,0)" xlink:href="#ae"/></g><path fill="#333" d="M114-157C55-157 80-60 75 0H25v-261h50l-1 109c12-26 28-41 61-42 86-1 58 113 63 194h-50c-7-57 23-157-34-157" id="aM"/><g id="C"><use transform="matrix(0.04938271604938272,0,0,0.04938271604938272,0,0)" xlink:href="#ak"/><use transform="matrix(0.04938271604938272,0,0,0.04938271604938272,10.814814814814815,0)" xlink:href="#aK"/><use transform="matrix(0.04938271604938272,0,0,0.04938271604938272,20.69135802469136,0)" xlink:href="#ah"/><use transform="matrix(0.04938271604938272,0,0,0.04938271604938272,30.567901234567906,0)" xlink:href="#aM"/><use transform="matrix(0.04938271604938272,0,0,0.04938271604938272,41.38271604938272,0)" xlink:href="#ad"/><use transform="matrix(0.04938271604938272,0,0,0.04938271604938272,52.19753086419754,0)" xlink:href="#af"/><use transform="matrix(0.04938271604938272,0,0,0.04938271604938272,63.01234567901235,0)" xlink:href="#aK"/><use transform="matrix(0.04938271604938272,0,0,0.04938271604938272,72.8888888888889,0)" xlink:href="#ae"/><use transform="matrix(0.04938271604938272,0,0,0.04938271604938272,79.80246913580248,0)" xlink:href="#ak"/></g><path fill="#3d4752" d="M51-64l268-628h82L651-65l79 39V0H475v-26l80-39-62-165c-95 1-195-3-286 2L146-65l80 39V0H-27v-26zm413-238c-38-101-82-196-112-305-30 109-76 204-115 305h227" id="aN"/><g id="D"><use transform="matrix(0.018,0,0,0.018,0,0)" xlink:href="#aN"/><use transform="matrix(0.018,0,0,0.018,12.905999999999999,0)" xlink:href="#au"/><use transform="matrix(0.018,0,0,0.018,23.165999999999997,0)" xlink:href="#U"/><use transform="matrix(0.018,0,0,0.018,32.922,0)" xlink:href="#at"/><use transform="matrix(0.018,0,0,0.018,43.47,0)" xlink:href="#av"/></g><path fill="#3d4752" d="M27-26l87-37v-566l-89-37v-26h463v187h-25l-49-114H205v232h146l35-94h22v259h-22l-35-92H204v251l110 37V0H27v-26" id="aO"/><g id="E"><use transform="matrix(0.018,0,0,0.018,0,0)" xlink:href="#aO"/><use transform="matrix(0.018,0,0,0.018,8.963999999999999,0)" xlink:href="#Y"/><use transform="matrix(0.018,0,0,0.018,17.64,0)" xlink:href="#ax"/><use transform="matrix(0.018,0,0,0.018,23.166000000000004,0)" xlink:href="#ap"/><use transform="matrix(0.018,0,0,0.018,31.536,0)" xlink:href="#U"/><use transform="matrix(0.018,0,0,0.018,41.292,0)" xlink:href="#ac"/></g><g id="F"><use transform="matrix(0.018,0,0,0.018,0,0)" xlink:href="#am"/><use transform="matrix(0.018,0,0,0.018,9.45,0)" xlink:href="#at"/><use transform="matrix(0.018,0,0,0.018,19.997999999999998,0)" xlink:href="#au"/><use transform="matrix(0.018,0,0,0.018,30.257999999999992,0)" xlink:href="#aq"/><use transform="matrix(0.018,0,0,0.018,37.907999999999994,0)" xlink:href="#ap"/><use transform="matrix(0.018,0,0,0.018,46.27799999999999,0)" xlink:href="#an"/><use transform="matrix(0.018,0,0,0.018,53.53199999999999,0)" xlink:href="#ab"/><use transform="matrix(0.018,0,0,0.018,58.93199999999999,0)" xlink:href="#X"/><use transform="matrix(0.018,0,0,0.018,69.40799999999999,0)" xlink:href="#av"/><use transform="matrix(0.018,0,0,0.018,75.564,0)" xlink:href="#ab"/><use transform="matrix(0.018,0,0,0.018,80.964,0)" xlink:href="#U"/><use transform="matrix(0.018,0,0,0.018,90.72,0)" xlink:href="#ac"/></g><g id="G"><use transform="matrix(0.018,0,0,0.018,0,0)" xlink:href="#aw"/><use transform="matrix(0.018,0,0,0.018,10.097999999999999,0)" xlink:href="#ax"/><use transform="matrix(0.018,0,0,0.018,15.623999999999999,0)" xlink:href="#Y"/><use transform="matrix(0.018,0,0,0.018,24.299999999999997,0)" xlink:href="#ac"/><use transform="matrix(0.018,0,0,0.018,35.297999999999995,0)" xlink:href="#aq"/></g><g id="H"><use transform="matrix(0.018,0,0,0.018,0,0)" xlink:href="#ar"/><use transform="matrix(0.018,0,0,0.018,11.088,0)" xlink:href="#U"/><use transform="matrix(0.018,0,0,0.018,20.843999999999998,0)" xlink:href="#ac"/><use transform="matrix(0.018,0,0,0.018,31.842,0)" xlink:href="#av"/><use transform="matrix(0.018,0,0,0.018,37.998,0)" xlink:href="#Y"/><use transform="matrix(0.018,0,0,0.018,46.674,0)" xlink:href="#ap"/><use transform="matrix(0.018,0,0,0.018,55.044,0)" xlink:href="#av"/></g><g id="I"><use transform="matrix(0.04938271604938272,0,0,0.04938271604938272,0,0)" xlink:href="#aH"/><use transform="matrix(0.04938271604938272,0,0,0.04938271604938272,10.814814814814815,0)" xlink:href="#ai"/><use transform="matrix(0.04938271604938272,0,0,0.04938271604938272,20.69135802469136,0)" xlink:href="#aJ"/></g><g id="J"><use transform="matrix(0.04938271604938272,0,0,0.04938271604938272,0,0)" xlink:href="#ah"/><use transform="matrix(0.04938271604938272,0,0,0.04938271604938272,9.876543209876544,0)" xlink:href="#aJ"/><use transform="matrix(0.04938271604938272,0,0,0.04938271604938272,15.753086419753087,0)" xlink:href="#aK"/><use transform="matrix(0.04938271604938272,0,0,0.04938271604938272,25.629629629629633,0)" xlink:href="#ae"/><use transform="matrix(0.04938271604938272,0,0,0.04938271604938272,32.543209876543216,0)" xlink:href="#aJ"/><use transform="matrix(0.04938271604938272,0,0,0.04938271604938272,38.41975308641976,0)" xlink:href="#ai"/><use transform="matrix(0.04938271604938272,0,0,0.04938271604938272,48.296296296296305,0)" xlink:href="#ak"/></g><g id="K"><use transform="matrix(0.04938271604938272,0,0,0.04938271604938272,0,0)" xlink:href="#aj"/><use transform="matrix(0.04938271604938272,0,0,0.04938271604938272,4.938271604938272,0)" xlink:href="#af"/><use transform="matrix(0.04938271604938272,0,0,0.04938271604938272,15.753086419753087,0)" xlink:href="#aH"/><use transform="matrix(0.04938271604938272,0,0,0.04938271604938272,26.567901234567902,0)" xlink:href="#aH"/><use transform="matrix(0.04938271604938272,0,0,0.04938271604938272,37.382716049382715,0)" xlink:href="#ai"/><use transform="matrix(0.04938271604938272,0,0,0.04938271604938272,47.25925925925926,0)" xlink:href="#ak"/></g><g id="L"><use transform="matrix(0.04938271604938272,0,0,0.04938271604938272,0,0)" xlink:href="#aI"/><use transform="matrix(0.04938271604938272,0,0,0.04938271604938272,4.938271604938272,0)" xlink:href="#aE"/></g><g id="M"><use transform="matrix(0.04938271604938272,0,0,0.04938271604938272,0,0)" xlink:href="#aE"/><use transform="matrix(0.04938271604938272,0,0,0.04938271604938272,10.814814814814815,0)" xlink:href="#af"/><use transform="matrix(0.04938271604938272,0,0,0.04938271604938272,21.62962962962963,0)" xlink:href="#aJ"/></g><g id="N"><use transform="matrix(0.04938271604938272,0,0,0.04938271604938272,0,0)" xlink:href="#aj"/><use transform="matrix(0.04938271604938272,0,0,0.04938271604938272,4.938271604938272,0)" xlink:href="#af"/><use transform="matrix(0.04938271604938272,0,0,0.04938271604938272,15.753086419753087,0)" xlink:href="#aH"/><use transform="matrix(0.04938271604938272,0,0,0.04938271604938272,26.567901234567902,0)" xlink:href="#aH"/><use transform="matrix(0.04938271604938272,0,0,0.04938271604938272,37.382716049382715,0)" xlink:href="#ai"/><use transform="matrix(0.04938271604938272,0,0,0.04938271604938272,47.25925925925926,0)" xlink:href="#ak"/></g><g id="O"><use transform="matrix(0.04938271604938272,0,0,0.04938271604938272,0,0)" xlink:href="#aI"/><use transform="matrix(0.04938271604938272,0,0,0.04938271604938272,4.938271604938272,0)" xlink:href="#aE"/></g><g id="P"><use transform="matrix(0.018,0,0,0.018,0,0)" xlink:href="#ay"/><use transform="matrix(0.018,0,0,0.018,13.085999999999999,0)" xlink:href="#at"/><use transform="matrix(0.018,0,0,0.018,23.634000000000004,0)" xlink:href="#W"/><use transform="matrix(0.018,0,0,0.018,32.544,0)" xlink:href="#aq"/></g><path fill="#3d4752" d="M496-494l-48-125H308v556l109 37V0H111v-26l108-36v-557H76L28-494H0v-198h523v198h-27" id="aP"/><g id="Q"><use transform="matrix(0.018,0,0,0.018,0,0)" xlink:href="#aP"/><use transform="matrix(0.018,0,0,0.018,8.982,0)" xlink:href="#an"/><use transform="matrix(0.018,0,0,0.018,16.235999999999997,0)" xlink:href="#Y"/><use transform="matrix(0.018,0,0,0.018,24.912,0)" xlink:href="#ac"/><use transform="matrix(0.018,0,0,0.018,35.91,0)" xlink:href="#aq"/><use transform="matrix(0.018,0,0,0.018,43.559999999999995,0)" xlink:href="#Y"/><use transform="matrix(0.018,0,0,0.018,52.236,0)" xlink:href="#ap"/><use transform="matrix(0.018,0,0,0.018,60.605999999999995,0)" xlink:href="#av"/><use transform="matrix(0.018,0,0,0.018,66.762,0)" xlink:href="#ab"/><use transform="matrix(0.018,0,0,0.018,72.162,0)" xlink:href="#U"/><use transform="matrix(0.018,0,0,0.018,81.918,0)" xlink:href="#ac"/><use transform="matrix(0.018,0,0,0.018,92.91600000000001,0)" xlink:href="#aq"/></g><g id="S"><use transform="matrix(0.018,0,0,0.018,0,0)" xlink:href="#aA"/><use transform="matrix(0.018,0,0,0.018,12.312,0)" xlink:href="#aq"/><use transform="matrix(0.018,0,0,0.018,19.962,0)" xlink:href="#W"/><use transform="matrix(0.018,0,0,0.018,28.872000000000003,0)" xlink:href="#an"/></g></defs></g></svg>