<svg xmlns="http://www.w3.org/2000/svg" xmlns:xlink="http://www.w3.org/1999/xlink" xmlns:lucid="lucid" width="1450" height="1246"><g transform="translate(-210.43307086614163 -42.917322834645574)" lucid:page-tab-id="0_0"><path d="M230.43 89.92a6 6 0 0 1 6-6h268a6 6 0 0 1 6 6v398a6 6 0 0 1-6 6h-268a6 6 0 0 1-6-6z" fill="#fff"/><path d="M230.43 160.92v38h280v-38M230.43 234.92v38h280v-38M230.43 308.92v38h280v-38M230.43 382.92v38h280v-38M230.43 456.92v31a6 6 0 0 0 6 6h268a6 6 0 0 0 6-6v-31" fill="#f2f3f5"/><path d="M230.43 123.92v-34a6 6 0 0 1 6-6h268a6 6 0 0 1 6 6v34" fill="#ffd9d9"/><path d="M230.43 89.92a6 6 0 0 1 6-6h268a6 6 0 0 1 6 6v398a6 6 0 0 1-6 6h-268a6 6 0 0 1-6-6zM230.43 123.92h280M406.43 123.92v370" stroke="#3a414a" fill="none"/><use xlink:href="#a" transform="matrix(1,0,0,1,240.43307086614163,83.91732283464557) translate(0 24.444444444444443)"/><use xlink:href="#b" transform="matrix(1,0,0,1,235.43307086614163,126.41732283464557) translate(0 20.444444444444443)"/><use xlink:href="#c" transform="matrix(1,0,0,1,235.43307086614163,126.41732283464557) translate(97.34567901234568 20.444444444444443)"/><use xlink:href="#d" transform="matrix(1,0,0,1,411.43307086614163,126.41732283464557) translate(10.02469135802469 20.444444444444443)"/><use xlink:href="#e" transform="matrix(1,0,0,1,235.43307086614163,163.41732283464557) translate(0 20.444444444444443)"/><use xlink:href="#f" transform="matrix(1,0,0,1,235.43307086614163,163.41732283464557) translate(108.45679012345681 20.444444444444443)"/><use xlink:href="#d" transform="matrix(1,0,0,1,411.43307086614163,163.41732283464557) translate(10.02469135802469 20.444444444444443)"/><use xlink:href="#g" transform="matrix(1,0,0,1,235.43307086614163,200.41732283464557) translate(0 20.444444444444443)"/><use xlink:href="#d" transform="matrix(1,0,0,1,411.43307086614163,200.41732283464557) translate(10.02469135802469 20.444444444444443)"/><use xlink:href="#h" transform="matrix(1,0,0,1,235.43307086614163,237.41732283464557) translate(0 20.444444444444443)"/><use xlink:href="#d" transform="matrix(1,0,0,1,411.43307086614163,237.41732283464557) translate(10.02469135802469 20.444444444444443)"/><use xlink:href="#i" transform="matrix(1,0,0,1,235.43307086614163,274.4173228346456) translate(0 20.444444444444443)"/><use xlink:href="#d" transform="matrix(1,0,0,1,411.43307086614163,274.4173228346456) translate(10.02469135802469 20.444444444444443)"/><use xlink:href="#j" transform="matrix(1,0,0,1,235.43307086614163,311.4173228346456) translate(0 20.444444444444443)"/><use xlink:href="#d" transform="matrix(1,0,0,1,411.43307086614163,311.4173228346456) translate(10.02469135802469 20.444444444444443)"/><use xlink:href="#k" transform="matrix(1,0,0,1,235.43307086614163,348.4173228346456) translate(0 20.444444444444443)"/><use xlink:href="#l" transform="matrix(1,0,0,1,411.43307086614163,348.4173228346456) translate(18.04938271604938 20.444444444444443)"/><use xlink:href="#m" transform="matrix(1,0,0,1,235.43307086614163,385.4173228346456) translate(0 20.444444444444443)"/><use xlink:href="#n" transform="matrix(1,0,0,1,235.43307086614163,385.4173228346456) translate(80.18518518518518 20.444444444444443)"/><use xlink:href="#o" transform="matrix(1,0,0,1,411.43307086614163,385.4173228346456) translate(4.469135802469133 20.444444444444443)"/><use xlink:href="#p" transform="matrix(1,0,0,1,235.43307086614163,422.4173228346456) translate(0 20.444444444444443)"/><use xlink:href="#n" transform="matrix(1,0,0,1,235.43307086614163,422.4173228346456) translate(89.93827160493828 20.444444444444443)"/><use xlink:href="#o" transform="matrix(1,0,0,1,411.43307086614163,422.4173228346456) translate(4.469135802469133 20.444444444444443)"/><use xlink:href="#q" transform="matrix(1,0,0,1,235.43307086614163,459.4173228346456) translate(0 20.444444444444443)"/><use xlink:href="#d" transform="matrix(1,0,0,1,411.43307086614163,459.4173228346456) translate(10.02469135802469 20.444444444444443)"/><path d="M1380.43 449.92a6 6 0 0 1 6-6h248a6 6 0 0 1 6 6v361a6 6 0 0 1-6 6h-248a6 6 0 0 1-6-6z" fill="#fff"/><path d="M1380.43 520.92v38h260v-38M1380.43 594.92v38h260v-38M1380.43 668.92v38h260v-38M1380.43 742.92v38h260v-38" fill="#f2f3f5"/><path d="M1380.43 483.92v-34a6 6 0 0 1 6-6h248a6 6 0 0 1 6 6v34" fill="#ced4db"/><path d="M1380.43 449.92a6 6 0 0 1 6-6h248a6 6 0 0 1 6 6v361a6 6 0 0 1-6 6h-248a6 6 0 0 1-6-6zM1380.43 483.92h260M1536.43 483.92v333" stroke="#3a414a" fill="none"/><use xlink:href="#r" transform="matrix(1,0,0,1,1390.4330708661416,443.9173228346456) translate(0 24.444444444444443)"/><use xlink:href="#s" transform="matrix(1,0,0,1,1385.4330708661416,486.4173228346456) translate(0 20.444444444444443)"/><use xlink:href="#c" transform="matrix(1,0,0,1,1385.4330708661416,486.4173228346456) translate(66.5432098765432 20.444444444444443)"/><use xlink:href="#d" transform="matrix(1,0,0,1,1541.4330708661416,486.4173228346456) translate(10.02469135802469 20.444444444444443)"/><use xlink:href="#t" transform="matrix(1,0,0,1,1385.4330708661416,523.4173228346456) translate(0 20.444444444444443)"/><use xlink:href="#d" transform="matrix(1,0,0,1,1541.4330708661416,523.4173228346456) translate(10.02469135802469 20.444444444444443)"/><use xlink:href="#g" transform="matrix(1,0,0,1,1385.4330708661416,560.4173228346456) translate(0 20.444444444444443)"/><use xlink:href="#d" transform="matrix(1,0,0,1,1541.4330708661416,560.4173228346456) translate(10.02469135802469 20.444444444444443)"/><use xlink:href="#h" transform="matrix(1,0,0,1,1385.4330708661416,597.4173228346456) translate(0 20.444444444444443)"/><use xlink:href="#d" transform="matrix(1,0,0,1,1541.4330708661416,597.4173228346456) translate(10.02469135802469 20.444444444444443)"/><use xlink:href="#i" transform="matrix(1,0,0,1,1385.4330708661416,634.4173228346456) translate(0 20.444444444444443)"/><use xlink:href="#d" transform="matrix(1,0,0,1,1541.4330708661416,634.4173228346456) translate(10.02469135802469 20.444444444444443)"/><use xlink:href="#u" transform="matrix(1,0,0,1,1385.4330708661416,671.4173228346456) translate(0 20.444444444444443)"/><use xlink:href="#v" transform="matrix(1,0,0,1,1385.4330708661416,671.4173228346456) translate(22.160493827160494 20.444444444444443)"/><use xlink:href="#l" transform="matrix(1,0,0,1,1541.4330708661416,671.4173228346456) translate(18.04938271604938 20.444444444444443)"/><use xlink:href="#m" transform="matrix(1,0,0,1,1385.4330708661416,708.4173228346456) translate(0 20.444444444444443)"/><use xlink:href="#n" transform="matrix(1,0,0,1,1385.4330708661416,708.4173228346456) translate(80.18518518518518 20.444444444444443)"/><use xlink:href="#o" transform="matrix(1,0,0,1,1541.4330708661416,708.4173228346456) translate(4.469135802469133 20.444444444444443)"/><use xlink:href="#p" transform="matrix(1,0,0,1,1385.4330708661416,745.4173228346456) translate(0 20.444444444444443)"/><use xlink:href="#n" transform="matrix(1,0,0,1,1385.4330708661416,745.4173228346456) translate(89.93827160493828 20.444444444444443)"/><use xlink:href="#o" transform="matrix(1,0,0,1,1541.4330708661416,745.4173228346456) translate(4.469135802469133 20.444444444444443)"/><use xlink:href="#q" transform="matrix(1,0,0,1,1385.4330708661416,782.4173228346456) translate(0 20.444444444444443)"/><use xlink:href="#d" transform="matrix(1,0,0,1,1541.4330708661416,782.4173228346456) translate(10.02469135802469 20.444444444444443)"/><path d="M830.43 89.92a6 6 0 0 1 6-6h248a6 6 0 0 1 6 6v361a6 6 0 0 1-6 6h-248a6 6 0 0 1-6-6z" fill="#fff"/><path d="M830.43 160.92v38h260v-38M830.43 234.92v38h260v-38M830.43 308.92v38h260v-38M830.43 382.92v38h260v-38" fill="#f2f3f5"/><path d="M830.43 123.92v-34a6 6 0 0 1 6-6h248a6 6 0 0 1 6 6v34" fill="#c3f7c8"/><path d="M830.43 89.92a6 6 0 0 1 6-6h248a6 6 0 0 1 6 6v361a6 6 0 0 1-6 6h-248a6 6 0 0 1-6-6zM830.43 123.92h260M986.43 123.92v333" stroke="#3a414a" fill="none"/><use xlink:href="#w" transform="matrix(1,0,0,1,840.4330708661416,83.91732283464557) translate(0 24.444444444444443)"/><use xlink:href="#x" transform="matrix(1,0,0,1,835.4330708661416,126.41732283464557) translate(0 20.444444444444443)"/><use xlink:href="#c" transform="matrix(1,0,0,1,835.4330708661416,126.41732283464557) translate(91.29629629629629 20.444444444444443)"/><use xlink:href="#d" transform="matrix(1,0,0,1,991.4330708661416,126.41732283464557) translate(10.02469135802469 20.444444444444443)"/><use xlink:href="#e" transform="matrix(1,0,0,1,835.4330708661416,163.41732283464557) translate(0 20.444444444444443)"/><use xlink:href="#c" transform="matrix(1,0,0,1,835.4330708661416,163.41732283464557) translate(108.45679012345681 20.444444444444443)"/><use xlink:href="#d" transform="matrix(1,0,0,1,991.4330708661416,163.41732283464557) translate(10.02469135802469 20.444444444444443)"/><use xlink:href="#y" transform="matrix(1,0,0,1,835.4330708661416,200.41732283464557) translate(0 20.444444444444443)"/><use xlink:href="#c" transform="matrix(1,0,0,1,835.4330708661416,200.41732283464557) translate(124.50617283950619 20.444444444444443)"/><use xlink:href="#z" transform="matrix(1,0,0,1,991.4330708661416,200.41732283464557) translate(35.30246913580247 20.444444444444443)"/><use xlink:href="#A" transform="matrix(1,0,0,1,835.4330708661416,237.41732283464557) translate(0 20.444444444444443)"/><use xlink:href="#f" transform="matrix(1,0,0,1,835.4330708661416,237.41732283464557) translate(90.12345679012346 20.444444444444443)"/><use xlink:href="#d" transform="matrix(1,0,0,1,991.4330708661416,237.41732283464557) translate(10.02469135802469 20.444444444444443)"/><use xlink:href="#B" transform="matrix(1,0,0,1,835.4330708661416,274.4173228346456) translate(0 20.444444444444443)"/><use xlink:href="#z" transform="matrix(1,0,0,1,991.4330708661416,274.4173228346456) translate(35.30246913580247 20.444444444444443)"/><use xlink:href="#C" transform="matrix(1,0,0,1,835.4330708661416,311.4173228346456) translate(0 20.444444444444443)"/><use xlink:href="#o" transform="matrix(1,0,0,1,991.4330708661416,311.4173228346456) translate(4.469135802469133 20.444444444444443)"/><use xlink:href="#u" transform="matrix(1,0,0,1,835.4330708661416,348.4173228346456) translate(0 20.444444444444443)"/><use xlink:href="#D" transform="matrix(1,0,0,1,835.4330708661416,348.4173228346456) translate(22.160493827160494 20.444444444444443)"/><use xlink:href="#l" transform="matrix(1,0,0,1,991.4330708661416,348.4173228346456) translate(18.04938271604938 20.444444444444443)"/><use xlink:href="#m" transform="matrix(1,0,0,1,835.4330708661416,385.4173228346456) translate(0 20.444444444444443)"/><use xlink:href="#n" transform="matrix(1,0,0,1,835.4330708661416,385.4173228346456) translate(80.18518518518518 20.444444444444443)"/><use xlink:href="#o" transform="matrix(1,0,0,1,991.4330708661416,385.4173228346456) translate(4.469135802469133 20.444444444444443)"/><use xlink:href="#p" transform="matrix(1,0,0,1,835.4330708661416,422.4173228346456) translate(0 20.444444444444443)"/><use xlink:href="#n" transform="matrix(1,0,0,1,835.4330708661416,422.4173228346456) translate(89.93827160493828 20.444444444444443)"/><use xlink:href="#o" transform="matrix(1,0,0,1,991.4330708661416,422.4173228346456) translate(4.469135802469133 20.444444444444443)"/><path d="M830.43 895.92a6 6 0 0 1 6-6h268a6 6 0 0 1 6 6v361a6 6 0 0 1-6 6h-268a6 6 0 0 1-6-6z" fill="#fff"/><path d="M830.43 966.92v38h280v-38M830.43 1040.92v38h280v-38M830.43 1114.92v38h280v-38M830.43 1188.92v38h280v-38" fill="#f2f3f5"/><path d="M830.43 929.92v-34a6 6 0 0 1 6-6h268a6 6 0 0 1 6 6v34" fill="#cfe4ff"/><path d="M830.43 895.92a6 6 0 0 1 6-6h268a6 6 0 0 1 6 6v361a6 6 0 0 1-6 6h-268a6 6 0 0 1-6-6zM830.43 929.92h280M1008.65 929.92v333" stroke="#3a414a" fill="none"/><use xlink:href="#E" transform="matrix(1,0,0,1,840.4330708661416,889.9173228346456) translate(0 24.444444444444443)"/><use xlink:href="#y" transform="matrix(1,0,0,1,835.4330708661416,932.4173228346456) translate(0 20.444444444444443)"/><use xlink:href="#c" transform="matrix(1,0,0,1,835.4330708661416,932.4173228346456) translate(124.50617283950619 20.444444444444443)"/><use xlink:href="#z" transform="matrix(1,0,0,1,1013.6451804878637,932.4173228346456) translate(34.30246913580247 20.444444444444443)"/><use xlink:href="#e" transform="matrix(1,0,0,1,835.4330708661416,969.4173228346456) translate(0 20.444444444444443)"/><use xlink:href="#c" transform="matrix(1,0,0,1,835.4330708661416,969.4173228346456) translate(108.45679012345681 20.444444444444443)"/><use xlink:href="#d" transform="matrix(1,0,0,1,1013.6451804878637,969.4173228346456) translate(9.02469135802469 20.444444444444443)"/><use xlink:href="#e" transform="matrix(1,0,0,1,835.4330708661416,1006.4173228346456) translate(0 20.444444444444443)"/><use xlink:href="#f" transform="matrix(1,0,0,1,835.4330708661416,1006.4173228346456) translate(108.45679012345681 20.444444444444443)"/><use xlink:href="#F" transform="matrix(1,0,0,1,1013.6451804878637,1006.4173228346456) translate(21.95679012345679 20.444444444444443)"/><use xlink:href="#A" transform="matrix(1,0,0,1,835.4330708661416,1043.4173228346456) translate(0 20.444444444444443)"/><use xlink:href="#f" transform="matrix(1,0,0,1,835.4330708661416,1043.4173228346456) translate(90.12345679012346 20.444444444444443)"/><use xlink:href="#d" transform="matrix(1,0,0,1,1013.6451804878637,1043.4173228346456) translate(9.02469135802469 20.444444444444443)"/><use xlink:href="#B" transform="matrix(1,0,0,1,835.4330708661416,1080.4173228346456) translate(0 20.444444444444443)"/><use xlink:href="#z" transform="matrix(1,0,0,1,1013.6451804878637,1080.4173228346456) translate(34.30246913580247 20.444444444444443)"/><use xlink:href="#C" transform="matrix(1,0,0,1,835.4330708661416,1117.4173228346456) translate(0 20.444444444444443)"/><use xlink:href="#o" transform="matrix(1,0,0,1,1013.6451804878637,1117.4173228346456) translate(3.4691358024691326 20.444444444444443)"/><use xlink:href="#u" transform="matrix(1,0,0,1,835.4330708661416,1154.4173228346456) translate(0 20.444444444444443)"/><use xlink:href="#v" transform="matrix(1,0,0,1,835.4330708661416,1154.4173228346456) translate(22.160493827160494 20.444444444444443)"/><use xlink:href="#l" transform="matrix(1,0,0,1,1013.6451804878637,1154.4173228346456) translate(17.04938271604938 20.444444444444443)"/><use xlink:href="#m" transform="matrix(1,0,0,1,835.4330708661416,1191.4173228346456) translate(0 20.444444444444443)"/><use xlink:href="#n" transform="matrix(1,0,0,1,835.4330708661416,1191.4173228346456) translate(80.18518518518518 20.444444444444443)"/><use xlink:href="#o" transform="matrix(1,0,0,1,1013.6451804878637,1191.4173228346456) translate(3.4691358024691326 20.444444444444443)"/><use xlink:href="#p" transform="matrix(1,0,0,1,835.4330708661416,1228.4173228346456) translate(0 20.444444444444443)"/><use xlink:href="#n" transform="matrix(1,0,0,1,835.4330708661416,1228.4173228346456) translate(89.93827160493828 20.444444444444443)"/><use xlink:href="#o" transform="matrix(1,0,0,1,1013.6451804878637,1228.4173228346456) translate(3.4691358024691326 20.444444444444443)"/><path d="M830.43 529.92a6 6 0 0 1 6-6h268a6 6 0 0 1 6 6v287a6 6 0 0 1-6 6h-268a6 6 0 0 1-6-6z" fill="#fff"/><path d="M830.43 600.92v38h280v-38M830.43 674.92v38h280v-38M830.43 748.92v38h280v-38" fill="#f2f3f5"/><path d="M830.43 563.92v-34a6 6 0 0 1 6-6h268a6 6 0 0 1 6 6v34" fill="#ffdda6"/><path d="M830.43 529.92a6 6 0 0 1 6-6h268a6 6 0 0 1 6 6v287a6 6 0 0 1-6 6h-268a6 6 0 0 1-6-6zM830.43 563.92h280M1007.77 563.92v259" stroke="#3a414a" fill="none"/><use xlink:href="#G" transform="matrix(1,0,0,1,840.4330708661416,523.9173228346456) translate(0 24.444444444444443)"/><use xlink:href="#H" transform="matrix(1,0,0,1,835.4330708661416,566.4173228346456) translate(0 20.444444444444443)"/><use xlink:href="#c" transform="matrix(1,0,0,1,835.4330708661416,566.4173228346456) translate(114.69135802469135 20.444444444444443)"/><use xlink:href="#d" transform="matrix(1,0,0,1,1012.7664041994749,566.4173228346456) translate(9.52469135802469 20.444444444444443)"/><use xlink:href="#e" transform="matrix(1,0,0,1,835.4330708661416,603.4173228346456) translate(0 20.444444444444443)"/><use xlink:href="#c" transform="matrix(1,0,0,1,835.4330708661416,603.4173228346456) translate(108.45679012345681 20.444444444444443)"/><use xlink:href="#d" transform="matrix(1,0,0,1,1012.7664041994749,603.4173228346456) translate(9.52469135802469 20.444444444444443)"/><use xlink:href="#e" transform="matrix(1,0,0,1,835.4330708661416,640.4173228346456) translate(0 20.444444444444443)"/><use xlink:href="#f" transform="matrix(1,0,0,1,835.4330708661416,640.4173228346456) translate(108.45679012345681 20.444444444444443)"/><use xlink:href="#d" transform="matrix(1,0,0,1,1012.7664041994749,640.4173228346456) translate(9.52469135802469 20.444444444444443)"/><use xlink:href="#x" transform="matrix(1,0,0,1,835.4330708661416,677.4173228346456) translate(0 20.444444444444443)"/><use xlink:href="#c" transform="matrix(1,0,0,1,835.4330708661416,677.4173228346456) translate(91.29629629629629 20.444444444444443)"/><use xlink:href="#d" transform="matrix(1,0,0,1,1012.7664041994749,677.4173228346456) translate(9.52469135802469 20.444444444444443)"/><use xlink:href="#A" transform="matrix(1,0,0,1,835.4330708661416,714.4173228346456) translate(0 20.444444444444443)"/><use xlink:href="#f" transform="matrix(1,0,0,1,835.4330708661416,714.4173228346456) translate(90.12345679012346 20.444444444444443)"/><use xlink:href="#d" transform="matrix(1,0,0,1,1012.7664041994749,714.4173228346456) translate(9.52469135802469 20.444444444444443)"/><use xlink:href="#B" transform="matrix(1,0,0,1,835.4330708661416,751.4173228346456) translate(0 20.444444444444443)"/><use xlink:href="#z" transform="matrix(1,0,0,1,1012.7664041994749,751.4173228346456) translate(34.80246913580247 20.444444444444443)"/><use xlink:href="#m" transform="matrix(1,0,0,1,835.4330708661416,788.4173228346456) translate(0 20.444444444444443)"/><use xlink:href="#n" transform="matrix(1,0,0,1,835.4330708661416,788.4173228346456) translate(80.18518518518518 20.444444444444443)"/><use xlink:href="#o" transform="matrix(1,0,0,1,1012.7664041994749,788.4173228346456) translate(3.9691358024691326 20.444444444444443)"/><path d="M230.43 569.92a6 6 0 0 1 6-6h248a6 6 0 0 1 6 6v361a6 6 0 0 1-6 6h-248a6 6 0 0 1-6-6z" fill="#fff"/><path d="M230.43 640.92v38h260v-38M230.43 714.92v38h260v-38M230.43 788.92v38h260v-38M230.43 862.92v38h260v-38" fill="#f2f3f5"/><path d="M230.43 603.92v-34a6 6 0 0 1 6-6h248a6 6 0 0 1 6 6v34" fill="#ffd6f5"/><path d="M230.43 569.92a6 6 0 0 1 6-6h248a6 6 0 0 1 6 6v361a6 6 0 0 1-6 6h-248a6 6 0 0 1-6-6zM230.43 603.92h260M386.43 603.92v333" stroke="#3a414a" fill="none"/><use xlink:href="#I" transform="matrix(1,0,0,1,240.43307086614163,563.9173228346456) translate(0 24.444444444444443)"/><use xlink:href="#J" transform="matrix(1,0,0,1,235.43307086614163,606.4173228346456) translate(0 20.444444444444443)"/><use xlink:href="#c" transform="matrix(1,0,0,1,235.43307086614163,606.4173228346456) translate(113.51851851851852 20.444444444444443)"/><use xlink:href="#d" transform="matrix(1,0,0,1,391.43307086614163,606.4173228346456) translate(10.02469135802469 20.444444444444443)"/><use xlink:href="#e" transform="matrix(1,0,0,1,235.43307086614163,643.4173228346456) translate(0 20.444444444444443)"/><use xlink:href="#c" transform="matrix(1,0,0,1,235.43307086614163,643.4173228346456) translate(108.45679012345681 20.444444444444443)"/><use xlink:href="#d" transform="matrix(1,0,0,1,391.43307086614163,643.4173228346456) translate(10.02469135802469 20.444444444444443)"/><use xlink:href="#y" transform="matrix(1,0,0,1,235.43307086614163,680.4173228346456) translate(0 20.444444444444443)"/><use xlink:href="#c" transform="matrix(1,0,0,1,235.43307086614163,680.4173228346456) translate(124.50617283950619 20.444444444444443)"/><use xlink:href="#z" transform="matrix(1,0,0,1,391.43307086614163,680.4173228346456) translate(35.30246913580247 20.444444444444443)"/><use xlink:href="#A" transform="matrix(1,0,0,1,235.43307086614163,717.4173228346456) translate(0 20.444444444444443)"/><use xlink:href="#f" transform="matrix(1,0,0,1,235.43307086614163,717.4173228346456) translate(90.12345679012346 20.444444444444443)"/><use xlink:href="#d" transform="matrix(1,0,0,1,391.43307086614163,717.4173228346456) translate(10.02469135802469 20.444444444444443)"/><use xlink:href="#C" transform="matrix(1,0,0,1,235.43307086614163,754.4173228346456) translate(0 20.444444444444443)"/><use xlink:href="#o" transform="matrix(1,0,0,1,391.43307086614163,754.4173228346456) translate(4.469135802469133 20.444444444444443)"/><use xlink:href="#u" transform="matrix(1,0,0,1,235.43307086614163,791.4173228346456) translate(0 20.444444444444443)"/><use xlink:href="#D" transform="matrix(1,0,0,1,235.43307086614163,791.4173228346456) translate(22.160493827160494 20.444444444444443)"/><use xlink:href="#l" transform="matrix(1,0,0,1,391.43307086614163,791.4173228346456) translate(18.04938271604938 20.444444444444443)"/><use xlink:href="#u" transform="matrix(1,0,0,1,235.43307086614163,828.4173228346456) translate(0 20.444444444444443)"/><use xlink:href="#v" transform="matrix(1,0,0,1,235.43307086614163,828.4173228346456) translate(22.160493827160494 20.444444444444443)"/><use xlink:href="#l" transform="matrix(1,0,0,1,391.43307086614163,828.4173228346456) translate(18.04938271604938 20.444444444444443)"/><use xlink:href="#m" transform="matrix(1,0,0,1,235.43307086614163,865.4173228346456) translate(0 20.444444444444443)"/><use xlink:href="#n" transform="matrix(1,0,0,1,235.43307086614163,865.4173228346456) translate(80.18518518518518 20.444444444444443)"/><use xlink:href="#o" transform="matrix(1,0,0,1,391.43307086614163,865.4173228346456) translate(4.469135802469133 20.444444444444443)"/><use xlink:href="#p" transform="matrix(1,0,0,1,235.43307086614163,902.4173228346456) translate(0 20.444444444444443)"/><use xlink:href="#n" transform="matrix(1,0,0,1,235.43307086614163,902.4173228346456) translate(89.93827160493828 20.444444444444443)"/><use xlink:href="#o" transform="matrix(1,0,0,1,391.43307086614163,902.4173228346456) translate(4.469135802469133 20.444444444444443)"/><path d="M230.43 1012.92a6 6 0 0 1 6-6h248a6 6 0 0 1 6 6v250a6 6 0 0 1-6 6h-248a6 6 0 0 1-6-6z" fill="#fff"/><path d="M230.43 1083.92v38h260v-38M230.43 1157.92v38h260v-38M230.43 1231.92v31a6 6 0 0 0 6 6h248a6 6 0 0 0 6-6v-31" fill="#f2f3f5"/><path d="M230.43 1046.92v-34a6 6 0 0 1 6-6h248a6 6 0 0 1 6 6v34" fill="#dedeff"/><path d="M230.43 1012.92a6 6 0 0 1 6-6h248a6 6 0 0 1 6 6v250a6 6 0 0 1-6 6h-248a6 6 0 0 1-6-6zM230.43 1046.92h260M386.43 1046.92v222" stroke="#3a414a" fill="none"/><use xlink:href="#K" transform="matrix(1,0,0,1,240.43307086614163,1006.9173228346456) translate(0 24.444444444444443)"/><use xlink:href="#L" transform="matrix(1,0,0,1,235.43307086614163,1049.4173228346456) translate(0 20.444444444444443)"/><use xlink:href="#c" transform="matrix(1,0,0,1,235.43307086614163,1049.4173228346456) translate(61.666666666666664 20.444444444444443)"/><use xlink:href="#z" transform="matrix(1,0,0,1,391.43307086614163,1049.4173228346456) translate(35.30246913580247 20.444444444444443)"/><use xlink:href="#M" transform="matrix(1,0,0,1,235.43307086614163,1086.4173228346456) translate(0 20.444444444444443)"/><use xlink:href="#f" transform="matrix(1,0,0,1,235.43307086614163,1086.4173228346456) translate(41.851851851851855 20.444444444444443)"/><use xlink:href="#d" transform="matrix(1,0,0,1,391.43307086614163,1086.4173228346456) translate(10.02469135802469 20.444444444444443)"/><use xlink:href="#N" transform="matrix(1,0,0,1,235.43307086614163,1123.4173228346456) translate(0 20.444444444444443)"/><use xlink:href="#f" transform="matrix(1,0,0,1,235.43307086614163,1123.4173228346456) translate(40.67901234567901 20.444444444444443)"/><use xlink:href="#d" transform="matrix(1,0,0,1,391.43307086614163,1123.4173228346456) translate(10.02469135802469 20.444444444444443)"/><use xlink:href="#h" transform="matrix(1,0,0,1,235.43307086614163,1160.4173228346456) translate(0 20.444444444444443)"/><use xlink:href="#d" transform="matrix(1,0,0,1,391.43307086614163,1160.4173228346456) translate(10.02469135802469 20.444444444444443)"/><use xlink:href="#j" transform="matrix(1,0,0,1,235.43307086614163,1197.4173228346456) translate(0 20.444444444444443)"/><use xlink:href="#z" transform="matrix(1,0,0,1,391.43307086614163,1197.4173228346456) translate(35.30246913580247 20.444444444444443)"/><use xlink:href="#O" transform="matrix(1,0,0,1,235.43307086614163,1234.4173228346456) translate(0 20.444444444444443)"/><use xlink:href="#P" transform="matrix(1,0,0,1,391.43307086614163,1234.4173228346456) translate(29.098765432098766 20.444444444444443)"/><path d="M1570.43 231.92c0 6.62-26.86 12-60 12-33.13 0-60-5.38-60-12v-96c0-6.63 26.87-12 60-12 33.14 0 60 5.37 60 12z" stroke="#3a414a" fill="#fcfcca"/><path d="M1570.43 135.92c0 6.62-26.86 12-60 12-33.13 0-60-5.38-60-12" stroke="#3a414a" fill="none"/><use xlink:href="#Q" transform="matrix(1,0,0,1,1455.4330708661416,152.91732283464557) translate(7.5 47.34027777777778)"/><path d="M530.87 142.42H664.4a6 6 0 0 1 6 6v24.66a6 6 0 0 0 6 6h134.73" stroke="#e81313" stroke-width="2" fill="none"/><path d="M530.87 152.42v-20M510.87 142.42h20" stroke="#e81313" stroke-width="2" fill="#fff"/><path d="M829.5 189.08l-20-10 20-10" stroke="#e81313" stroke-width="2" fill="#fff" fill-opacity="0"/><path d="M829.5 179.08h-20" stroke="#e81313" stroke-width="2" fill="#fff"/><path d="M530.87 142.42H664.4a6 6 0 0 1 6 6v464.8a6 6 0 0 0 6 6h134.73" stroke="#e81313" stroke-width="2" fill="none"/><path d="M530.87 152.42v-20M510.87 142.42h20" stroke="#e81313" stroke-width="2" fill="#fff"/><path d="M829.5 629.23l-20-10 20-10" stroke="#e81313" stroke-width="2" fill="#fff" fill-opacity="0"/><path d="M829.5 619.23h-20" stroke="#e81313" stroke-width="2" fill="#fff"/><path d="M530.88 179.42h113.55a6 6 0 0 1 6 6v464.94a6 6 0 0 0 6 6h154.7" stroke="#e81313" stroke-width="2" fill="none"/><path d="M530.88 189.42v-20M510.88 179.42h20" stroke="#e81313" stroke-width="2" fill="#fff"/><path d="M829.52 666.36l-20-10 20-10" stroke="#e81313" stroke-width="2" fill="#fff" fill-opacity="0"/><path d="M829.52 656.36h-20" stroke="#e81313" stroke-width="2" fill="#fff"/><path d="M1510.43 423.45v-160.2" stroke="#fcce14" stroke-width="2" fill="none"/><path d="M1520.43 423.45h-20M1510.43 443.45v-20" stroke="#fcce14" stroke-width="2" fill="#fff"/><path d="M1520.43 244.86l-10 20-10-20" stroke="#fcce14" stroke-width="2" fill="#fff" fill-opacity="0"/><path d="M1510.43 244.86v20" stroke="#fcce14" stroke-width="2" fill="#fff"/><path d="M1572.43 183.92h32.5a6 6 0 0 1 6 6v207.53a6 6 0 0 1-6 6h-63a6 6 0 0 0-6 6v13.38" stroke="#6f7681" stroke-width="3" fill="none"/><path d="M1572.47 185.42h-1.54v-3h1.54z" stroke="#6f7681" stroke-width=".05" fill="#6f7681"/><path d="M1535.92 438.6l-4.63-14.27h9.26z" stroke="#6f7681" stroke-width="3" fill="#6f7681"/><path d="M370.43 63.45v-3.53a6 6 0 0 1 6-6h1027.5a6 6 0 0 1 6 6v118a6 6 0 0 0 6 6h15.18" stroke="#fcce14" stroke-width="2" fill="none"/><path d="M380.43 63.45h-20M370.43 83.45v-20" stroke="#fcce14" stroke-width="2" fill="#fff"/><path d="M1449.5 193.92l-20-10 20-10" stroke="#fcce14" stroke-width="2" fill="#fff" fill-opacity="0"/><path d="M1449.5 183.92h-20" stroke="#fcce14" stroke-width="2" fill="#fff"/><path d="M960.43 63.45v-3.53a6 6 0 0 1 6-6h437.5a6 6 0 0 1 6 6v118a6 6 0 0 0 6 6h15.18" stroke="#fcce14" stroke-width="2" fill="none"/><path d="M970.43 63.45h-20M960.43 83.45v-20" stroke="#fcce14" stroke-width="2" fill="#fff"/><path d="M1449.5 193.92l-20-10 20-10" stroke="#fcce14" stroke-width="2" fill="#fff" fill-opacity="0"/><path d="M1449.5 183.92h-20" stroke="#fcce14" stroke-width="2" fill="#fff"/><path d="M360.43 543.45v-33.53a6 6 0 0 1 6-6h858a6 6 0 0 0 6-6v-308a6 6 0 0 1 6-6h194.68" stroke="#fcce14" stroke-width="2" fill="none"/><path d="M370.43 543.45h-20M360.43 563.45v-20" stroke="#fcce14" stroke-width="2" fill="#fff"/><path d="M1449.5 193.92l-20-10 20-10" stroke="#fcce14" stroke-width="2" fill="#fff" fill-opacity="0"/><path d="M1449.5 183.92h-20" stroke="#fcce14" stroke-width="2" fill="#fff"/><path d="M970.43 503.45a1 1 0 0 1 1-1h253a6 6 0 0 0 6-6V189.92a6 6 0 0 1 6-6h194.68" stroke="#fcce14" stroke-width="2" fill="none"/><path d="M980.43 503.45h-20M970.43 523.45v-20" stroke="#fcce14" stroke-width="2" fill="#fff"/><path d="M1449.5 193.92l-20-10 20-10" stroke="#fcce14" stroke-width="2" fill="#fff" fill-opacity="0"/><path d="M1449.5 183.92h-20" stroke="#fcce14" stroke-width="2" fill="#fff"/><path d="M360.43 986.45v-16.53a6 6 0 0 1 6-6h423a6 6 0 0 0 6-6v-98a6 6 0 0 1 6-6h423a6 6 0 0 0 6-6v-658a6 6 0 0 1 6-6h194.68" stroke="#fcce14" stroke-width="2" fill="none"/><path d="M370.43 986.45h-20M360.43 1006.45v-20" stroke="#fcce14" stroke-width="2" fill="#fff"/><path d="M1449.5 193.92l-20-10 20-10" stroke="#fcce14" stroke-width="2" fill="#fff" fill-opacity="0"/><path d="M1449.5 183.92h-20" stroke="#fcce14" stroke-width="2" fill="#fff"/><path d="M970.43 869.45v-9.53a6 6 0 0 1 6-6h248a6 6 0 0 0 6-6v-658a6 6 0 0 1 6-6h194.68" stroke="#fcce14" stroke-width="2" fill="none"/><path d="M980.43 869.45h-20M970.43 889.45v-20" stroke="#fcce14" stroke-width="2" fill="#fff"/><path d="M1449.5 193.92l-20-10 20-10" stroke="#fcce14" stroke-width="2" fill="#fff" fill-opacity="0"/><path d="M1449.5 183.92h-20" stroke="#fcce14" stroke-width="2" fill="#fff"/><path d="M530.87 142.42H664.4a6 6 0 0 1 6 6V979.1a6 6 0 0 0 6 6h134.73" stroke="#e81313" stroke-width="2" fill="none"/><path d="M530.87 152.42v-20M510.87 142.42h20" stroke="#e81313" stroke-width="2" fill="#fff"/><path d="M829.5 995.1l-20-10 20-10" stroke="#e81313" stroke-width="2" fill="#fff" fill-opacity="0"/><path d="M829.5 985.1h-20" stroke="#e81313" stroke-width="2" fill="#fff"/><path d="M530.88 179.42h113.55a6 6 0 0 1 6 6v830.8a6 6 0 0 0 6 6h154.7" stroke="#e81313" stroke-width="2" fill="none"/><path d="M530.88 189.42v-20M510.88 179.42h20" stroke="#e81313" stroke-width="2" fill="#fff"/><path d="M829.5 1032.23l-20-10 20-10" stroke="#e81313" stroke-width="2" fill="#fff" fill-opacity="0"/><path d="M829.5 1022.23h-20" stroke="#e81313" stroke-width="2" fill="#fff"/><path d="M809.94 947.97h-183.5a6 6 0 0 1-6-6V702.23a6 6 0 0 0-6-6H509.7" stroke="#1071e5" stroke-width="2" fill="none"/><path d="M809.94 937.97v20M829.94 947.97h-20" stroke="#1071e5" stroke-width="2" fill="#fff"/><path d="M491.33 686.23l20 10-20 10" stroke="#1071e5" stroke-width="2" fill="#fff" fill-opacity="0"/><path d="M491.33 696.23h20" stroke="#1071e5" stroke-width="2" fill="#fff"/><path d="M809.94 947.97h-183.5a6 6 0 0 1-6-6V222.22a6 6 0 0 1 6-6h184.7" stroke="#1071e5" stroke-width="2" fill="none"/><path d="M809.94 937.97v20M829.94 947.97h-20" stroke="#1071e5" stroke-width="2" fill="#fff"/><path d="M829.5 226.22l-20-10 20-10" stroke="#1071e5" stroke-width="2" fill="#fff" fill-opacity="0"/><path d="M829.5 216.22h-20" stroke="#1071e5" stroke-width="2" fill="#fff"/><path d="M809.97 1059.36H596.43a6 6 0 0 1-6-6v-314a6 6 0 0 0-6-6h-74.7" stroke="#1071e5" stroke-width="2" fill="none"/><path d="M809.97 1049.36v20M829.97 1059.36h-20" stroke="#1071e5" stroke-width="2" fill="#fff"/><path d="M491.34 723.36l20 10-20 10" stroke="#1071e5" stroke-width="2" fill="#fff" fill-opacity="0"/><path d="M491.34 733.36h20" stroke="#1071e5" stroke-width="2" fill="#fff"/><path d="M809.97 1059.36H596.43a6 6 0 0 1-6-6V736.6a6 6 0 0 1 6-6h214.73" stroke="#1071e5" stroke-width="2" fill="none"/><path d="M809.97 1049.36v20M829.97 1059.36h-20" stroke="#1071e5" stroke-width="2" fill="#fff"/><path d="M829.54 740.6l-20-10 20-10" stroke="#1071e5" stroke-width="2" fill="#fff" fill-opacity="0"/><path d="M829.54 730.6h-20" stroke="#1071e5" stroke-width="2" fill="#fff"/><path d="M809.97 1059.36H596.43a6 6 0 0 1-6-6v-794a6 6 0 0 1 6-6h214.7" stroke="#1071e5" stroke-width="2" fill="none"/><path d="M809.97 1049.36v20M829.97 1059.36h-20" stroke="#1071e5" stroke-width="2" fill="#fff"/><path d="M829.52 263.36l-20-10 20-10" stroke="#1071e5" stroke-width="2" fill="#fff" fill-opacity="0"/><path d="M829.52 253.36h-20" stroke="#1071e5" stroke-width="2" fill="#fff"/><path d="M809.97 1096.48h-33.54a6 6 0 0 1-6-6v-794a6 6 0 0 1 6-6h34.13" stroke="#3a414a" fill="none"/><path d="M809.97 1086.48v20M829.97 1096.48h-20" stroke="#3a414a" fill="#fff"/><path d="M829.75 300.48l-20-10 20-10" stroke="#3a414a" fill="#fff" fill-opacity="0"/><path d="M829.75 290.48h-20" stroke="#3a414a" fill="#fff"/><path d="M809.97 1096.48h-33.54a6 6 0 0 1-6-6V773.7a6 6 0 0 1 6-6h34.74" stroke="#1071e5" stroke-width="2" fill="none"/><path d="M809.97 1086.48v20M829.97 1096.48h-20" stroke="#1071e5" stroke-width="2" fill="#fff"/><path d="M829.55 777.7l-20-10 20-10" stroke="#1071e5" stroke-width="2" fill="#fff" fill-opacity="0"/><path d="M829.55 767.7h-20" stroke="#1071e5" stroke-width="2" fill="#fff"/><path d="M809.98 1133.6h-73.55a6 6 0 0 1-6-6V776.5a6 6 0 0 0-6-6h-214.7" stroke="#1071e5" stroke-width="2" fill="none"/><path d="M809.98 1123.6v20M829.98 1133.6h-20" stroke="#1071e5" stroke-width="2" fill="#fff"/><path d="M491.35 760.5l20 10-20 10" stroke="#1071e5" stroke-width="2" fill="#fff" fill-opacity="0"/><path d="M491.35 770.5h20" stroke="#1071e5" stroke-width="2" fill="#fff"/><path d="M809.98 1133.6h-73.55a6 6 0 0 1-6-6v-794a6 6 0 0 1 6-6h74.73" stroke="#1071e5" stroke-width="2" fill="none"/><path d="M809.98 1123.6v20M829.98 1133.6h-20" stroke="#1071e5" stroke-width="2" fill="#fff"/><path d="M829.53 337.6l-20-10 20-10" stroke="#1071e5" stroke-width="2" fill="#fff" fill-opacity="0"/><path d="M829.53 327.6h-20" stroke="#1071e5" stroke-width="2" fill="#fff"/><path d="M809.94 141.94h-3.5a6 6 0 0 0-6 6v539.54a6 6 0 0 0 6 6h4.7" stroke="#54c45e" stroke-width="2" fill="none"/><path d="M809.94 131.94v20M829.94 141.94h-20" stroke="#54c45e" stroke-width="2" fill="#fff"/><path d="M829.53 703.48l-20-10 20-10" stroke="#54c45e" stroke-width="2" fill="#fff" fill-opacity="0"/><path d="M829.53 693.48h-20" stroke="#54c45e" stroke-width="2" fill="#fff"/><path d="M810 364.74H566.42a6 6 0 0 0-6 6v430.9a6 6 0 0 1-6 6h-44.7" stroke="#54c45e" stroke-width="2" fill="none"/><path d="M810 354.74v20M830 364.74h-20" stroke="#54c45e" stroke-width="2" fill="#fff"/><path d="M491.36 797.63l20 10-20 10" stroke="#54c45e" stroke-width="2" fill="#fff" fill-opacity="0"/><path d="M491.36 807.63h20" stroke="#54c45e" stroke-width="2" fill="#fff"/><path d="M530.87 141.96h3.56a6 6 0 0 1 6 6V653.1a6 6 0 0 1-6 6H509.7" stroke="#e81313" stroke-width="2" fill="none"/><path d="M530.87 151.96v-20M510.87 141.96h20" stroke="#e81313" stroke-width="2" fill="#fff"/><path d="M491.32 649.1l20 10-20 10" stroke="#e81313" stroke-width="2" fill="#fff" fill-opacity="0"/><path d="M491.32 659.1h20" stroke="#e81313" stroke-width="2" fill="#fff"/><defs><path fill="#3a414a" d="M169-182c-1-43-94-46-97-3 18 66 151 10 154 114 3 95-165 93-204 36-6-8-10-19-12-30l50-8c3 46 112 56 116 5-17-69-150-10-154-114-4-87 153-88 188-35 5 8 8 18 10 28" id="R"/><path fill="#3a414a" d="M85 4C-2 5 27-109 22-190h50c7 57-23 150 33 157 60-5 35-97 40-157h50l1 190h-47c-2-12 1-28-3-38-12 25-28 42-61 42" id="S"/><path fill="#3a414a" d="M135-194c52 0 70 43 70 98 0 56-19 99-73 100-30 1-46-15-58-35L72 0H24l1-261h50v104c11-23 29-37 60-37zM114-30c31 0 40-27 40-66 0-37-7-63-39-63s-41 28-41 65c0 36 8 64 40 64" id="T"/><path fill="#3a414a" d="M137-138c1-29-70-34-71-4 15 46 118 7 119 86 1 83-164 76-172 9l43-7c4 19 20 25 44 25 33 8 57-30 24-41C81-84 22-81 20-136c-2-80 154-74 161-7" id="U"/><path fill="#3a414a" d="M190-63c-7 42-38 67-86 67-59 0-84-38-90-98-12-110 154-137 174-36l-49 2c-2-19-15-32-35-32-30 0-35 28-38 64-6 74 65 87 74 30" id="V"/><path fill="#3a414a" d="M135-150c-39-12-60 13-60 57V0H25l-1-190h47c2 13-1 29 3 40 6-28 27-53 61-41v41" id="W"/><path fill="#3a414a" d="M25-224v-37h50v37H25zM25 0v-190h50V0H25" id="X"/><path fill="#3a414a" d="M185-48c-13 30-37 53-82 52C43 2 14-33 14-96s30-98 90-98c62 0 83 45 84 108H66c0 31 8 55 39 56 18 0 30-7 34-22zm-45-69c5-46-57-63-70-21-2 6-4 13-4 21h74" id="Y"/><g id="a"><use transform="matrix(0.06172839506172839,0,0,0.06172839506172839,0,0)" xlink:href="#R"/><use transform="matrix(0.06172839506172839,0,0,0.06172839506172839,14.814814814814813,0)" xlink:href="#S"/><use transform="matrix(0.06172839506172839,0,0,0.06172839506172839,28.33333333333333,0)" xlink:href="#T"/><use transform="matrix(0.06172839506172839,0,0,0.06172839506172839,41.85185185185185,0)" xlink:href="#U"/><use transform="matrix(0.06172839506172839,0,0,0.06172839506172839,54.197530864197525,0)" xlink:href="#V"/><use transform="matrix(0.06172839506172839,0,0,0.06172839506172839,66.5432098765432,0)" xlink:href="#W"/><use transform="matrix(0.06172839506172839,0,0,0.06172839506172839,75.18518518518518,0)" xlink:href="#X"/><use transform="matrix(0.06172839506172839,0,0,0.06172839506172839,81.35802469135801,0)" xlink:href="#T"/><use transform="matrix(0.06172839506172839,0,0,0.06172839506172839,94.87654320987653,0)" xlink:href="#Y"/><use transform="matrix(0.06172839506172839,0,0,0.06172839506172839,107.22222222222221,0)" xlink:href="#W"/></g><path fill="#3a414a" d="M135-143c-3-34-86-38-87 0 15 53 115 12 119 90S17 21 10-45l28-5c4 36 97 45 98 0-10-56-113-15-118-90-4-57 82-63 122-42 12 7 21 19 24 35" id="Z"/><path fill="#3a414a" d="M84 4C-5 8 30-112 23-190h32v120c0 31 7 50 39 49 72-2 45-101 50-169h31l1 190h-30c-1-10 1-25-2-33-11 22-28 36-60 37" id="aa"/><path fill="#3a414a" d="M115-194c53 0 69 39 70 98 0 66-23 100-70 100C84 3 66-7 56-30L54 0H23l1-261h32v101c10-23 28-34 59-34zm-8 174c40 0 45-34 45-75 0-40-5-75-45-74-42 0-51 32-51 76 0 43 10 73 51 73" id="ab"/><path fill="#3a414a" d="M96-169c-40 0-48 33-48 73s9 75 48 75c24 0 41-14 43-38l32 2c-6 37-31 61-74 61-59 0-76-41-82-99-10-93 101-131 147-64 4 7 5 14 7 22l-32 3c-4-21-16-35-41-35" id="ac"/><path fill="#3a414a" d="M114-163C36-179 61-72 57 0H25l-1-190h30c1 12-1 29 2 39 6-27 23-49 58-41v29" id="ad"/><path fill="#3a414a" d="M24-231v-30h32v30H24zM24 0v-190h32V0H24" id="ae"/><path fill="#3a414a" d="M100-194c63 0 86 42 84 106H49c0 40 14 67 53 68 26 1 43-12 49-29l28 8c-11 28-37 45-77 45C44 4 14-33 15-96c1-61 26-98 85-98zm52 81c6-60-76-77-97-28-3 7-6 17-6 28h103" id="af"/><g id="b"><use transform="matrix(0.06172839506172839,0,0,0.06172839506172839,0,0)" xlink:href="#Z"/><use transform="matrix(0.06172839506172839,0,0,0.06172839506172839,11.11111111111111,0)" xlink:href="#aa"/><use transform="matrix(0.06172839506172839,0,0,0.06172839506172839,23.45679012345679,0)" xlink:href="#ab"/><use transform="matrix(0.06172839506172839,0,0,0.06172839506172839,35.80246913580247,0)" xlink:href="#ac"/><use transform="matrix(0.06172839506172839,0,0,0.06172839506172839,46.91358024691358,0)" xlink:href="#ad"/><use transform="matrix(0.06172839506172839,0,0,0.06172839506172839,54.25925925925926,0)" xlink:href="#ae"/><use transform="matrix(0.06172839506172839,0,0,0.06172839506172839,59.135802469135804,0)" xlink:href="#ab"/><use transform="matrix(0.06172839506172839,0,0,0.06172839506172839,71.48148148148148,0)" xlink:href="#af"/><use transform="matrix(0.06172839506172839,0,0,0.06172839506172839,83.82716049382717,0)" xlink:href="#ad"/></g><path fill="#3a414a" d="M85-194c31 0 48 13 60 33l-1-100h32l1 261h-30c-2-10 0-23-3-31C134-8 116 4 85 4 32 4 16-35 15-94c0-66 23-100 70-100zm9 24c-40 0-46 34-46 75 0 40 6 74 45 74 42 0 51-32 51-76 0-42-9-74-50-73" id="ag"/><g id="c"><use transform="matrix(0.06172839506172839,0,0,0.06172839506172839,0,0)" xlink:href="#ae"/><use transform="matrix(0.06172839506172839,0,0,0.06172839506172839,4.876543209876543,0)" xlink:href="#ag"/></g><path fill="#3a414a" d="M108 0H70L1-190h34L89-25l56-165h34" id="ah"/><path fill="#3a414a" d="M141-36C126-15 110 5 73 4 37 3 15-17 15-53c-1-64 63-63 125-63 3-35-9-54-41-54-24 1-41 7-42 31l-33-3c5-37 33-52 76-52 45 0 72 20 72 64v82c-1 20 7 32 28 27v20c-31 9-61-2-59-35zM48-53c0 20 12 33 32 33 41-3 63-29 60-74-43 2-92-5-92 41" id="ai"/><path fill="#3a414a" d="M106-169C34-169 62-67 57 0H25v-261h32l-1 103c12-21 28-36 61-36 89 0 53 116 60 194h-32v-121c2-32-8-49-39-48" id="aj"/><g id="d"><use transform="matrix(0.06172839506172839,0,0,0.06172839506172839,0,0)" xlink:href="#ah"/><use transform="matrix(0.06172839506172839,0,0,0.06172839506172839,11.11111111111111,0)" xlink:href="#ai"/><use transform="matrix(0.06172839506172839,0,0,0.06172839506172839,23.45679012345679,0)" xlink:href="#ad"/><use transform="matrix(0.06172839506172839,0,0,0.06172839506172839,30.80246913580247,0)" xlink:href="#ac"/><use transform="matrix(0.06172839506172839,0,0,0.06172839506172839,41.91358024691358,0)" xlink:href="#aj"/><use transform="matrix(0.06172839506172839,0,0,0.06172839506172839,54.25925925925926,0)" xlink:href="#ai"/><use transform="matrix(0.06172839506172839,0,0,0.06172839506172839,66.60493827160494,0)" xlink:href="#ad"/></g><g id="e"><use transform="matrix(0.06172839506172839,0,0,0.06172839506172839,0,0)" xlink:href="#Z"/><use transform="matrix(0.06172839506172839,0,0,0.06172839506172839,11.11111111111111,0)" xlink:href="#aa"/><use transform="matrix(0.06172839506172839,0,0,0.06172839506172839,23.45679012345679,0)" xlink:href="#ab"/><use transform="matrix(0.06172839506172839,0,0,0.06172839506172839,35.80246913580247,0)" xlink:href="#Z"/><use transform="matrix(0.06172839506172839,0,0,0.06172839506172839,46.91358024691358,0)" xlink:href="#ac"/><use transform="matrix(0.06172839506172839,0,0,0.06172839506172839,58.0246913580247,0)" xlink:href="#ad"/><use transform="matrix(0.06172839506172839,0,0,0.06172839506172839,65.37037037037038,0)" xlink:href="#ae"/><use transform="matrix(0.06172839506172839,0,0,0.06172839506172839,70.24691358024693,0)" xlink:href="#ab"/><use transform="matrix(0.06172839506172839,0,0,0.06172839506172839,82.59259259259261,0)" xlink:href="#af"/><use transform="matrix(0.06172839506172839,0,0,0.06172839506172839,94.9382716049383,0)" xlink:href="#ad"/></g><path fill="#3a414a" d="M117-194c89-4 53 116 60 194h-32v-121c0-31-8-49-39-48C34-167 62-67 57 0H25l-1-190h30c1 10-1 24 2 32 11-22 29-35 61-36" id="ak"/><path fill="#3a414a" d="M210-169c-67 3-38 105-44 169h-31v-121c0-29-5-50-35-48C34-165 62-65 56 0H25l-1-190h30c1 10-1 24 2 32 10-44 99-50 107 0 11-21 27-35 58-36 85-2 47 119 55 194h-31v-121c0-29-5-49-35-48" id="al"/><g id="f"><use transform="matrix(0.06172839506172839,0,0,0.06172839506172839,0,0)" xlink:href="#ak"/><use transform="matrix(0.06172839506172839,0,0,0.06172839506172839,12.345679012345679,0)" xlink:href="#ai"/><use transform="matrix(0.06172839506172839,0,0,0.06172839506172839,24.691358024691358,0)" xlink:href="#al"/><use transform="matrix(0.06172839506172839,0,0,0.06172839506172839,43.148148148148145,0)" xlink:href="#af"/></g><g id="g"><use transform="matrix(0.06172839506172839,0,0,0.06172839506172839,0,0)" xlink:href="#aa"/><use transform="matrix(0.06172839506172839,0,0,0.06172839506172839,12.345679012345679,0)" xlink:href="#Z"/><use transform="matrix(0.06172839506172839,0,0,0.06172839506172839,23.45679012345679,0)" xlink:href="#af"/><use transform="matrix(0.06172839506172839,0,0,0.06172839506172839,35.80246913580247,0)" xlink:href="#ad"/><use transform="matrix(0.06172839506172839,0,0,0.06172839506172839,43.148148148148145,0)" xlink:href="#ak"/><use transform="matrix(0.06172839506172839,0,0,0.06172839506172839,55.49382716049382,0)" xlink:href="#ai"/><use transform="matrix(0.06172839506172839,0,0,0.06172839506172839,67.8395061728395,0)" xlink:href="#al"/><use transform="matrix(0.06172839506172839,0,0,0.06172839506172839,86.29629629629629,0)" xlink:href="#af"/></g><path fill="#3a414a" d="M24 0v-261h32V0H24" id="am"/><g id="h"><use transform="matrix(0.06172839506172839,0,0,0.06172839506172839,0,0)" xlink:href="#af"/><use transform="matrix(0.06172839506172839,0,0,0.06172839506172839,12.345679012345679,0)" xlink:href="#al"/><use transform="matrix(0.06172839506172839,0,0,0.06172839506172839,30.80246913580247,0)" xlink:href="#ai"/><use transform="matrix(0.06172839506172839,0,0,0.06172839506172839,43.148148148148145,0)" xlink:href="#ae"/><use transform="matrix(0.06172839506172839,0,0,0.06172839506172839,48.02469135802469,0)" xlink:href="#am"/></g><path fill="#3a414a" d="M115-194c55 1 70 41 70 98S169 2 115 4C84 4 66-9 55-30l1 105H24l-1-265h31l2 30c10-21 28-34 59-34zm-8 174c40 0 45-34 45-75s-6-73-45-74c-42 0-51 32-51 76 0 43 10 73 51 73" id="an"/><path fill="#3a414a" d="M206 0h-36l-40-164L89 0H53L-1-190h32L70-26l43-164h34l41 164 42-164h31" id="ao"/><path fill="#3a414a" d="M100-194c62-1 85 37 85 99 1 63-27 99-86 99S16-35 15-95c0-66 28-99 85-99zM99-20c44 1 53-31 53-75 0-43-8-75-51-75s-53 32-53 75 10 74 51 75" id="ap"/><g id="i"><use transform="matrix(0.06172839506172839,0,0,0.06172839506172839,0,0)" xlink:href="#an"/><use transform="matrix(0.06172839506172839,0,0,0.06172839506172839,12.345679012345679,0)" xlink:href="#ai"/><use transform="matrix(0.06172839506172839,0,0,0.06172839506172839,24.691358024691358,0)" xlink:href="#Z"/><use transform="matrix(0.06172839506172839,0,0,0.06172839506172839,35.80246913580247,0)" xlink:href="#Z"/><use transform="matrix(0.06172839506172839,0,0,0.06172839506172839,46.91358024691358,0)" xlink:href="#ao"/><use transform="matrix(0.06172839506172839,0,0,0.06172839506172839,62.901234567901234,0)" xlink:href="#ap"/><use transform="matrix(0.06172839506172839,0,0,0.06172839506172839,75.24691358024691,0)" xlink:href="#ad"/><use transform="matrix(0.06172839506172839,0,0,0.06172839506172839,82.5925925925926,0)" xlink:href="#ag"/></g><g id="j"><use transform="matrix(0.06172839506172839,0,0,0.06172839506172839,0,0)" xlink:href="#an"/><use transform="matrix(0.06172839506172839,0,0,0.06172839506172839,12.345679012345679,0)" xlink:href="#aj"/><use transform="matrix(0.06172839506172839,0,0,0.06172839506172839,24.691358024691358,0)" xlink:href="#ap"/><use transform="matrix(0.06172839506172839,0,0,0.06172839506172839,37.03703703703704,0)" xlink:href="#ak"/><use transform="matrix(0.06172839506172839,0,0,0.06172839506172839,49.382716049382715,0)" xlink:href="#af"/></g><g id="k"><use transform="matrix(0.06172839506172839,0,0,0.06172839506172839,0,0)" xlink:href="#Z"/><use transform="matrix(0.06172839506172839,0,0,0.06172839506172839,11.11111111111111,0)" xlink:href="#aa"/><use transform="matrix(0.06172839506172839,0,0,0.06172839506172839,23.45679012345679,0)" xlink:href="#ab"/><use transform="matrix(0.06172839506172839,0,0,0.06172839506172839,35.80246913580247,0)" xlink:href="#Z"/><use transform="matrix(0.06172839506172839,0,0,0.06172839506172839,46.91358024691358,0)" xlink:href="#ac"/><use transform="matrix(0.06172839506172839,0,0,0.06172839506172839,58.0246913580247,0)" xlink:href="#ad"/><use transform="matrix(0.06172839506172839,0,0,0.06172839506172839,65.37037037037038,0)" xlink:href="#ae"/><use transform="matrix(0.06172839506172839,0,0,0.06172839506172839,70.24691358024693,0)" xlink:href="#ab"/><use transform="matrix(0.06172839506172839,0,0,0.06172839506172839,82.59259259259261,0)" xlink:href="#af"/><use transform="matrix(0.06172839506172839,0,0,0.06172839506172839,94.9382716049383,0)" xlink:href="#ag"/></g><path fill="#3a414a" d="M59-47c-2 24 18 29 38 22v24C64 9 27 4 27-40v-127H5v-23h24l9-43h21v43h35v23H59v120" id="aq"/><path fill="#3a414a" d="M179-190L93 31C79 59 56 82 12 73V49c39 6 53-20 64-50L1-190h34L92-34l54-156h33" id="ar"/><g id="l"><use transform="matrix(0.06172839506172839,0,0,0.06172839506172839,0,0)" xlink:href="#aq"/><use transform="matrix(0.06172839506172839,0,0,0.06172839506172839,6.172839506172839,0)" xlink:href="#ae"/><use transform="matrix(0.06172839506172839,0,0,0.06172839506172839,11.049382716049383,0)" xlink:href="#ak"/><use transform="matrix(0.06172839506172839,0,0,0.06172839506172839,23.395061728395063,0)" xlink:href="#ar"/><use transform="matrix(0.06172839506172839,0,0,0.06172839506172839,34.50617283950618,0)" xlink:href="#ae"/><use transform="matrix(0.06172839506172839,0,0,0.06172839506172839,39.38271604938272,0)" xlink:href="#ak"/><use transform="matrix(0.06172839506172839,0,0,0.06172839506172839,51.7283950617284,0)" xlink:href="#aq"/></g><g id="m"><use transform="matrix(0.06172839506172839,0,0,0.06172839506172839,0,0)" xlink:href="#ac"/><use transform="matrix(0.06172839506172839,0,0,0.06172839506172839,11.11111111111111,0)" xlink:href="#ad"/><use transform="matrix(0.06172839506172839,0,0,0.06172839506172839,18.45679012345679,0)" xlink:href="#af"/><use transform="matrix(0.06172839506172839,0,0,0.06172839506172839,30.80246913580247,0)" xlink:href="#ai"/><use transform="matrix(0.06172839506172839,0,0,0.06172839506172839,43.148148148148145,0)" xlink:href="#aq"/><use transform="matrix(0.06172839506172839,0,0,0.06172839506172839,49.32098765432099,0)" xlink:href="#af"/><use transform="matrix(0.06172839506172839,0,0,0.06172839506172839,61.666666666666664,0)" xlink:href="#ag"/></g><g id="n"><use transform="matrix(0.06172839506172839,0,0,0.06172839506172839,0,0)" xlink:href="#ai"/><use transform="matrix(0.06172839506172839,0,0,0.06172839506172839,12.345679012345679,0)" xlink:href="#aq"/></g><g id="o"><use transform="matrix(0.06172839506172839,0,0,0.06172839506172839,0,0)" xlink:href="#ag"/><use transform="matrix(0.06172839506172839,0,0,0.06172839506172839,12.345679012345679,0)" xlink:href="#ai"/><use transform="matrix(0.06172839506172839,0,0,0.06172839506172839,24.691358024691358,0)" xlink:href="#aq"/><use transform="matrix(0.06172839506172839,0,0,0.06172839506172839,30.864197530864196,0)" xlink:href="#af"/><use transform="matrix(0.06172839506172839,0,0,0.06172839506172839,43.20987654320987,0)" xlink:href="#aq"/><use transform="matrix(0.06172839506172839,0,0,0.06172839506172839,49.382716049382715,0)" xlink:href="#ae"/><use transform="matrix(0.06172839506172839,0,0,0.06172839506172839,54.25925925925926,0)" xlink:href="#al"/><use transform="matrix(0.06172839506172839,0,0,0.06172839506172839,72.71604938271605,0)" xlink:href="#af"/></g><path fill="#3a414a" d="M101-234c-31-9-42 10-38 44h38v23H63V0H32v-167H5v-23h27c-7-52 17-82 69-68v24" id="as"/><g id="p"><use transform="matrix(0.06172839506172839,0,0,0.06172839506172839,0,0)" xlink:href="#al"/><use transform="matrix(0.06172839506172839,0,0,0.06172839506172839,18.456790123456788,0)" xlink:href="#ap"/><use transform="matrix(0.06172839506172839,0,0,0.06172839506172839,30.80246913580247,0)" xlink:href="#ag"/><use transform="matrix(0.06172839506172839,0,0,0.06172839506172839,43.148148148148145,0)" xlink:href="#ae"/><use transform="matrix(0.06172839506172839,0,0,0.06172839506172839,48.02469135802469,0)" xlink:href="#as"/><use transform="matrix(0.06172839506172839,0,0,0.06172839506172839,54.19753086419753,0)" xlink:href="#ae"/><use transform="matrix(0.06172839506172839,0,0,0.06172839506172839,59.074074074074076,0)" xlink:href="#af"/><use transform="matrix(0.06172839506172839,0,0,0.06172839506172839,71.41975308641976,0)" xlink:href="#ag"/></g><g id="q"><use transform="matrix(0.06172839506172839,0,0,0.06172839506172839,0,0)" xlink:href="#an"/><use transform="matrix(0.06172839506172839,0,0,0.06172839506172839,12.345679012345679,0)" xlink:href="#ae"/><use transform="matrix(0.06172839506172839,0,0,0.06172839506172839,17.22222222222222,0)" xlink:href="#ac"/><use transform="matrix(0.06172839506172839,0,0,0.06172839506172839,28.333333333333332,0)" xlink:href="#aq"/><use transform="matrix(0.06172839506172839,0,0,0.06172839506172839,34.50617283950617,0)" xlink:href="#aa"/><use transform="matrix(0.06172839506172839,0,0,0.06172839506172839,46.85185185185185,0)" xlink:href="#ad"/><use transform="matrix(0.06172839506172839,0,0,0.06172839506172839,54.197530864197525,0)" xlink:href="#af"/></g><path fill="#3a414a" d="M199 0l-22-63H83L61 0H9l90-248h61L250 0h-51zm-33-102l-36-108c-10 38-24 72-36 108h72" id="at"/><path fill="#3a414a" d="M88-194c31-1 46 15 58 34l-1-101h50l1 261h-48c-2-10 0-23-3-31C134-8 116 4 84 4 32 4 16-41 15-95c0-56 19-97 73-99zm17 164c33 0 40-30 41-66 1-37-9-64-41-64s-38 30-39 65c0 43 13 65 39 65" id="au"/><path fill="#3a414a" d="M220-157c-53 9-28 100-34 157h-49v-107c1-27-5-49-29-50C55-147 81-57 75 0H25l-1-190h47c2 12-1 28 3 38 10-53 101-56 108 0 13-22 24-43 59-42 82 1 51 116 57 194h-49v-107c-1-25-5-48-29-50" id="av"/><path fill="#3a414a" d="M135-194c87-1 58 113 63 194h-50c-7-57 23-157-34-157-59 0-34 97-39 157H25l-1-190h47c2 12-1 28 3 38 12-26 28-41 61-42" id="aw"/><g id="r"><use transform="matrix(0.06172839506172839,0,0,0.06172839506172839,0,0)" xlink:href="#at"/><use transform="matrix(0.06172839506172839,0,0,0.06172839506172839,15.987654320987653,0)" xlink:href="#au"/><use transform="matrix(0.06172839506172839,0,0,0.06172839506172839,29.50617283950617,0)" xlink:href="#av"/><use transform="matrix(0.06172839506172839,0,0,0.06172839506172839,49.25925925925925,0)" xlink:href="#X"/><use transform="matrix(0.06172839506172839,0,0,0.06172839506172839,55.432098765432094,0)" xlink:href="#aw"/></g><g id="s"><use transform="matrix(0.06172839506172839,0,0,0.06172839506172839,0,0)" xlink:href="#ai"/><use transform="matrix(0.06172839506172839,0,0,0.06172839506172839,12.345679012345679,0)" xlink:href="#ag"/><use transform="matrix(0.06172839506172839,0,0,0.06172839506172839,24.691358024691358,0)" xlink:href="#al"/><use transform="matrix(0.06172839506172839,0,0,0.06172839506172839,43.148148148148145,0)" xlink:href="#ae"/><use transform="matrix(0.06172839506172839,0,0,0.06172839506172839,48.02469135802469,0)" xlink:href="#ak"/></g><g id="t"><use transform="matrix(0.06172839506172839,0,0,0.06172839506172839,0,0)" xlink:href="#ak"/><use transform="matrix(0.06172839506172839,0,0,0.06172839506172839,12.345679012345679,0)" xlink:href="#ai"/><use transform="matrix(0.06172839506172839,0,0,0.06172839506172839,24.691358024691358,0)" xlink:href="#al"/><use transform="matrix(0.06172839506172839,0,0,0.06172839506172839,43.148148148148145,0)" xlink:href="#af"/></g><g id="u"><use transform="matrix(0.06172839506172839,0,0,0.06172839506172839,0,0)" xlink:href="#ae"/><use transform="matrix(0.06172839506172839,0,0,0.06172839506172839,4.876543209876543,0)" xlink:href="#Z"/></g><g id="v"><use transform="matrix(0.06172839506172839,0,0,0.06172839506172839,0,0)" xlink:href="#ai"/><use transform="matrix(0.06172839506172839,0,0,0.06172839506172839,12.345679012345679,0)" xlink:href="#ac"/><use transform="matrix(0.06172839506172839,0,0,0.06172839506172839,23.45679012345679,0)" xlink:href="#aq"/><use transform="matrix(0.06172839506172839,0,0,0.06172839506172839,29.62962962962963,0)" xlink:href="#ae"/><use transform="matrix(0.06172839506172839,0,0,0.06172839506172839,34.50617283950617,0)" xlink:href="#ah"/><use transform="matrix(0.06172839506172839,0,0,0.06172839506172839,45.61728395061728,0)" xlink:href="#af"/></g><path fill="#3a414a" d="M24-248c93 1 206-16 204 79-1 75-69 88-152 82V0H24v-248zm52 121c47 0 100 7 100-41 0-47-54-39-100-39v80" id="ax"/><path fill="#3a414a" d="M133-34C117-15 103 5 69 4 32 3 11-16 11-54c-1-60 55-63 116-61 1-26-3-47-28-47-18 1-26 9-28 27l-52-2c7-38 36-58 82-57s74 22 75 68l1 82c-1 14 12 18 25 15v27c-30 8-71 5-69-32zm-48 3c29 0 43-24 42-57-32 0-66-3-65 30 0 17 8 27 23 27" id="ay"/><path fill="#3a414a" d="M123 10C108 53 80 86 19 72V37c35 8 53-11 59-39L3-190h52l48 148c12-52 28-100 44-148h51" id="az"/><path fill="#3a414a" d="M115-3C79 11 28 4 28-45v-112H4v-33h27l15-45h31v45h36v33H77v99c-1 23 16 31 38 25v30" id="aA"/><g id="w"><use transform="matrix(0.06172839506172839,0,0,0.06172839506172839,0,0)" xlink:href="#ax"/><use transform="matrix(0.06172839506172839,0,0,0.06172839506172839,14.814814814814813,0)" xlink:href="#ay"/><use transform="matrix(0.06172839506172839,0,0,0.06172839506172839,27.160493827160494,0)" xlink:href="#az"/><use transform="matrix(0.06172839506172839,0,0,0.06172839506172839,39.50617283950617,0)" xlink:href="#av"/><use transform="matrix(0.06172839506172839,0,0,0.06172839506172839,59.25925925925925,0)" xlink:href="#Y"/><use transform="matrix(0.06172839506172839,0,0,0.06172839506172839,71.60493827160494,0)" xlink:href="#aw"/><use transform="matrix(0.06172839506172839,0,0,0.06172839506172839,85.12345679012346,0)" xlink:href="#aA"/><use transform="matrix(0.06172839506172839,0,0,0.06172839506172839,92.46913580246914,0)" xlink:href="#U"/></g><g id="x"><use transform="matrix(0.06172839506172839,0,0,0.06172839506172839,0,0)" xlink:href="#an"/><use transform="matrix(0.06172839506172839,0,0,0.06172839506172839,12.345679012345679,0)" xlink:href="#ai"/><use transform="matrix(0.06172839506172839,0,0,0.06172839506172839,24.691358024691358,0)" xlink:href="#ar"/><use transform="matrix(0.06172839506172839,0,0,0.06172839506172839,35.80246913580247,0)" xlink:href="#al"/><use transform="matrix(0.06172839506172839,0,0,0.06172839506172839,54.25925925925925,0)" xlink:href="#af"/><use transform="matrix(0.06172839506172839,0,0,0.06172839506172839,66.60493827160494,0)" xlink:href="#ak"/><use transform="matrix(0.06172839506172839,0,0,0.06172839506172839,78.95061728395062,0)" xlink:href="#aq"/></g><g id="y"><use transform="matrix(0.06172839506172839,0,0,0.06172839506172839,0,0)" xlink:href="#Z"/><use transform="matrix(0.06172839506172839,0,0,0.06172839506172839,11.11111111111111,0)" xlink:href="#aa"/><use transform="matrix(0.06172839506172839,0,0,0.06172839506172839,23.45679012345679,0)" xlink:href="#ab"/><use transform="matrix(0.06172839506172839,0,0,0.06172839506172839,35.80246913580247,0)" xlink:href="#Z"/><use transform="matrix(0.06172839506172839,0,0,0.06172839506172839,46.91358024691358,0)" xlink:href="#ac"/><use transform="matrix(0.06172839506172839,0,0,0.06172839506172839,58.0246913580247,0)" xlink:href="#ad"/><use transform="matrix(0.06172839506172839,0,0,0.06172839506172839,65.37037037037038,0)" xlink:href="#ae"/><use transform="matrix(0.06172839506172839,0,0,0.06172839506172839,70.24691358024693,0)" xlink:href="#an"/><use transform="matrix(0.06172839506172839,0,0,0.06172839506172839,82.59259259259261,0)" xlink:href="#aq"/><use transform="matrix(0.06172839506172839,0,0,0.06172839506172839,88.76543209876544,0)" xlink:href="#ae"/><use transform="matrix(0.06172839506172839,0,0,0.06172839506172839,93.64197530864199,0)" xlink:href="#ap"/><use transform="matrix(0.06172839506172839,0,0,0.06172839506172839,105.98765432098767,0)" xlink:href="#ak"/></g><g id="z"><use transform="matrix(0.06172839506172839,0,0,0.06172839506172839,0,0)" xlink:href="#ae"/><use transform="matrix(0.06172839506172839,0,0,0.06172839506172839,4.876543209876543,0)" xlink:href="#ak"/><use transform="matrix(0.06172839506172839,0,0,0.06172839506172839,17.22222222222222,0)" xlink:href="#aq"/></g><path fill="#3a414a" d="M143 0L79-87 56-68V0H24v-261h32v163l83-92h37l-77 82L181 0h-38" id="aB"/><path fill="#3a414a" d="M177-190C167-65 218 103 67 71c-23-6-38-20-44-43l32-5c15 47 100 32 89-28v-30C133-14 115 1 83 1 29 1 15-40 15-95c0-56 16-97 71-98 29-1 48 16 59 35 1-10 0-23 2-32h30zM94-22c36 0 50-32 50-73 0-42-14-75-50-75-39 0-46 34-46 75s6 73 46 73" id="aC"/><g id="A"><use transform="matrix(0.06172839506172839,0,0,0.06172839506172839,0,0)" xlink:href="#an"/><use transform="matrix(0.06172839506172839,0,0,0.06172839506172839,12.345679012345679,0)" xlink:href="#ai"/><use transform="matrix(0.06172839506172839,0,0,0.06172839506172839,24.691358024691358,0)" xlink:href="#ac"/><use transform="matrix(0.06172839506172839,0,0,0.06172839506172839,35.80246913580247,0)" xlink:href="#aB"/><use transform="matrix(0.06172839506172839,0,0,0.06172839506172839,46.91358024691358,0)" xlink:href="#ai"/><use transform="matrix(0.06172839506172839,0,0,0.06172839506172839,59.25925925925926,0)" xlink:href="#aC"/><use transform="matrix(0.06172839506172839,0,0,0.06172839506172839,71.60493827160494,0)" xlink:href="#af"/></g><g id="B"><use transform="matrix(0.06172839506172839,0,0,0.06172839506172839,0,0)" xlink:href="#an"/><use transform="matrix(0.06172839506172839,0,0,0.06172839506172839,12.345679012345679,0)" xlink:href="#ad"/><use transform="matrix(0.06172839506172839,0,0,0.06172839506172839,19.691358024691358,0)" xlink:href="#ae"/><use transform="matrix(0.06172839506172839,0,0,0.06172839506172839,24.5679012345679,0)" xlink:href="#ac"/><use transform="matrix(0.06172839506172839,0,0,0.06172839506172839,35.67901234567901,0)" xlink:href="#af"/></g><g id="C"><use transform="matrix(0.06172839506172839,0,0,0.06172839506172839,0,0)" xlink:href="#ag"/><use transform="matrix(0.06172839506172839,0,0,0.06172839506172839,12.345679012345679,0)" xlink:href="#aa"/><use transform="matrix(0.06172839506172839,0,0,0.06172839506172839,24.691358024691358,0)" xlink:href="#ad"/><use transform="matrix(0.06172839506172839,0,0,0.06172839506172839,32.03703703703704,0)" xlink:href="#ai"/><use transform="matrix(0.06172839506172839,0,0,0.06172839506172839,44.382716049382715,0)" xlink:href="#aq"/><use transform="matrix(0.06172839506172839,0,0,0.06172839506172839,50.55555555555556,0)" xlink:href="#ae"/><use transform="matrix(0.06172839506172839,0,0,0.06172839506172839,55.4320987654321,0)" xlink:href="#ap"/><use transform="matrix(0.06172839506172839,0,0,0.06172839506172839,67.77777777777779,0)" xlink:href="#ak"/></g><g id="D"><use transform="matrix(0.06172839506172839,0,0,0.06172839506172839,0,0)" xlink:href="#ag"/><use transform="matrix(0.06172839506172839,0,0,0.06172839506172839,12.345679012345679,0)" xlink:href="#aa"/><use transform="matrix(0.06172839506172839,0,0,0.06172839506172839,24.691358024691358,0)" xlink:href="#af"/></g><path fill="#3a414a" d="M135-194c53 0 70 44 70 98 0 56-19 98-73 100-31 1-45-17-59-34 3 33 2 69 2 105H25l-1-265h48c2 10 0 23 3 31 11-24 29-35 60-35zM114-30c33 0 39-31 40-66 0-38-9-64-40-64-56 0-55 130 0 130" id="aD"/><path fill="#3a414a" d="M110-194c64 0 96 36 96 99 0 64-35 99-97 99-61 0-95-36-95-99 0-62 34-99 96-99zm-1 164c35 0 45-28 45-65 0-40-10-65-43-65-34 0-45 26-45 65 0 36 10 65 43 65" id="aE"/><g id="E"><use transform="matrix(0.06172839506172839,0,0,0.06172839506172839,0,0)" xlink:href="#R"/><use transform="matrix(0.06172839506172839,0,0,0.06172839506172839,14.814814814814813,0)" xlink:href="#S"/><use transform="matrix(0.06172839506172839,0,0,0.06172839506172839,28.33333333333333,0)" xlink:href="#T"/><use transform="matrix(0.06172839506172839,0,0,0.06172839506172839,41.85185185185185,0)" xlink:href="#U"/><use transform="matrix(0.06172839506172839,0,0,0.06172839506172839,54.197530864197525,0)" xlink:href="#V"/><use transform="matrix(0.06172839506172839,0,0,0.06172839506172839,66.5432098765432,0)" xlink:href="#W"/><use transform="matrix(0.06172839506172839,0,0,0.06172839506172839,75.18518518518518,0)" xlink:href="#X"/><use transform="matrix(0.06172839506172839,0,0,0.06172839506172839,81.35802469135801,0)" xlink:href="#aD"/><use transform="matrix(0.06172839506172839,0,0,0.06172839506172839,94.87654320987653,0)" xlink:href="#aA"/><use transform="matrix(0.06172839506172839,0,0,0.06172839506172839,102.22222222222221,0)" xlink:href="#X"/><use transform="matrix(0.06172839506172839,0,0,0.06172839506172839,108.39506172839505,0)" xlink:href="#aE"/><use transform="matrix(0.06172839506172839,0,0,0.06172839506172839,121.91358024691357,0)" xlink:href="#aw"/><use transform="matrix(0.06172839506172839,0,0,0.06172839506172839,135.43209876543207,0)" xlink:href="#U"/></g><path fill="#3a414a" d="M127-220V0H93v-220H8v-28h204v28h-85" id="aF"/><g id="F"><use transform="matrix(0.06172839506172839,0,0,0.06172839506172839,0,0)" xlink:href="#aF"/><use transform="matrix(0.06172839506172839,0,0,0.06172839506172839,12.28395061728395,0)" xlink:href="#ar"/><use transform="matrix(0.06172839506172839,0,0,0.06172839506172839,23.39506172839506,0)" xlink:href="#an"/><use transform="matrix(0.06172839506172839,0,0,0.06172839506172839,35.74074074074074,0)" xlink:href="#af"/></g><path fill="#3a414a" d="M136-208V0H84v-208H4v-40h212v40h-80" id="aG"/><g id="G"><use transform="matrix(0.06172839506172839,0,0,0.06172839506172839,0,0)" xlink:href="#aG"/><use transform="matrix(0.06172839506172839,0,0,0.06172839506172839,12.28395061728395,0)" xlink:href="#W"/><use transform="matrix(0.06172839506172839,0,0,0.06172839506172839,20.925925925925924,0)" xlink:href="#ay"/><use transform="matrix(0.06172839506172839,0,0,0.06172839506172839,33.2716049382716,0)" xlink:href="#aw"/><use transform="matrix(0.06172839506172839,0,0,0.06172839506172839,46.79012345679012,0)" xlink:href="#U"/><use transform="matrix(0.06172839506172839,0,0,0.06172839506172839,59.1358024691358,0)" xlink:href="#ay"/><use transform="matrix(0.06172839506172839,0,0,0.06172839506172839,71.48148148148148,0)" xlink:href="#V"/><use transform="matrix(0.06172839506172839,0,0,0.06172839506172839,83.82716049382717,0)" xlink:href="#aA"/><use transform="matrix(0.06172839506172839,0,0,0.06172839506172839,91.17283950617285,0)" xlink:href="#X"/><use transform="matrix(0.06172839506172839,0,0,0.06172839506172839,97.34567901234568,0)" xlink:href="#aE"/><use transform="matrix(0.06172839506172839,0,0,0.06172839506172839,110.8641975308642,0)" xlink:href="#aw"/><use transform="matrix(0.06172839506172839,0,0,0.06172839506172839,124.38271604938272,0)" xlink:href="#U"/></g><g id="H"><use transform="matrix(0.06172839506172839,0,0,0.06172839506172839,0,0)" xlink:href="#aq"/><use transform="matrix(0.06172839506172839,0,0,0.06172839506172839,6.172839506172839,0)" xlink:href="#ad"/><use transform="matrix(0.06172839506172839,0,0,0.06172839506172839,13.518518518518519,0)" xlink:href="#ai"/><use transform="matrix(0.06172839506172839,0,0,0.06172839506172839,25.864197530864196,0)" xlink:href="#ak"/><use transform="matrix(0.06172839506172839,0,0,0.06172839506172839,38.20987654320987,0)" xlink:href="#Z"/><use transform="matrix(0.06172839506172839,0,0,0.06172839506172839,49.32098765432099,0)" xlink:href="#ai"/><use transform="matrix(0.06172839506172839,0,0,0.06172839506172839,61.666666666666664,0)" xlink:href="#ac"/><use transform="matrix(0.06172839506172839,0,0,0.06172839506172839,72.77777777777777,0)" xlink:href="#aq"/><use transform="matrix(0.06172839506172839,0,0,0.06172839506172839,78.9506172839506,0)" xlink:href="#ae"/><use transform="matrix(0.06172839506172839,0,0,0.06172839506172839,83.82716049382715,0)" xlink:href="#ap"/><use transform="matrix(0.06172839506172839,0,0,0.06172839506172839,96.17283950617283,0)" xlink:href="#ak"/></g><path fill="#3a414a" d="M67-125c0 53 21 87 73 88 37 1 54-22 65-47l45 17C233-25 199 4 140 4 58 4 20-42 15-125 8-235 124-281 211-232c18 10 29 29 36 50l-46 12c-8-25-30-41-62-41-52 0-71 34-72 86" id="aH"/><g id="I"><use transform="matrix(0.06172839506172839,0,0,0.06172839506172839,0,0)" xlink:href="#aH"/><use transform="matrix(0.06172839506172839,0,0,0.06172839506172839,15.987654320987653,0)" xlink:href="#aE"/><use transform="matrix(0.06172839506172839,0,0,0.06172839506172839,29.50617283950617,0)" xlink:href="#aw"/><use transform="matrix(0.06172839506172839,0,0,0.06172839506172839,43.02469135802469,0)" xlink:href="#aw"/><use transform="matrix(0.06172839506172839,0,0,0.06172839506172839,56.54320987654321,0)" xlink:href="#Y"/><use transform="matrix(0.06172839506172839,0,0,0.06172839506172839,68.88888888888889,0)" xlink:href="#V"/><use transform="matrix(0.06172839506172839,0,0,0.06172839506172839,81.23456790123457,0)" xlink:href="#aA"/><use transform="matrix(0.06172839506172839,0,0,0.06172839506172839,88.58024691358025,0)" xlink:href="#X"/><use transform="matrix(0.06172839506172839,0,0,0.06172839506172839,94.75308641975309,0)" xlink:href="#aE"/><use transform="matrix(0.06172839506172839,0,0,0.06172839506172839,108.27160493827161,0)" xlink:href="#aw"/><use transform="matrix(0.06172839506172839,0,0,0.06172839506172839,121.79012345679013,0)" xlink:href="#U"/></g><g id="J"><use transform="matrix(0.06172839506172839,0,0,0.06172839506172839,0,0)" xlink:href="#ac"/><use transform="matrix(0.06172839506172839,0,0,0.06172839506172839,11.11111111111111,0)" xlink:href="#ap"/><use transform="matrix(0.06172839506172839,0,0,0.06172839506172839,23.45679012345679,0)" xlink:href="#ak"/><use transform="matrix(0.06172839506172839,0,0,0.06172839506172839,35.80246913580247,0)" xlink:href="#ak"/><use transform="matrix(0.06172839506172839,0,0,0.06172839506172839,48.148148148148145,0)" xlink:href="#af"/><use transform="matrix(0.06172839506172839,0,0,0.06172839506172839,60.49382716049382,0)" xlink:href="#ac"/><use transform="matrix(0.06172839506172839,0,0,0.06172839506172839,71.60493827160494,0)" xlink:href="#aq"/><use transform="matrix(0.06172839506172839,0,0,0.06172839506172839,77.77777777777777,0)" xlink:href="#ae"/><use transform="matrix(0.06172839506172839,0,0,0.06172839506172839,82.65432098765432,0)" xlink:href="#ap"/><use transform="matrix(0.06172839506172839,0,0,0.06172839506172839,95,0)" xlink:href="#ak"/></g><g id="K"><use transform="matrix(0.06172839506172839,0,0,0.06172839506172839,0,0)" xlink:href="#aH"/><use transform="matrix(0.06172839506172839,0,0,0.06172839506172839,15.987654320987653,0)" xlink:href="#aE"/><use transform="matrix(0.06172839506172839,0,0,0.06172839506172839,29.50617283950617,0)" xlink:href="#aw"/><use transform="matrix(0.06172839506172839,0,0,0.06172839506172839,43.02469135802469,0)" xlink:href="#aA"/><use transform="matrix(0.06172839506172839,0,0,0.06172839506172839,50.37037037037037,0)" xlink:href="#ay"/><use transform="matrix(0.06172839506172839,0,0,0.06172839506172839,62.716049382716044,0)" xlink:href="#V"/><use transform="matrix(0.06172839506172839,0,0,0.06172839506172839,75.06172839506172,0)" xlink:href="#aA"/></g><path fill="#3a414a" d="M145-31C134-9 116 4 85 4 32 4 16-35 15-94c0-59 17-99 70-100 32-1 48 14 60 33 0-11-1-24 2-32h30l-1 268h-32zM93-21c41 0 51-33 51-76s-8-73-50-73c-40 0-46 35-46 75s5 74 45 74" id="aI"/><g id="L"><use transform="matrix(0.06172839506172839,0,0,0.06172839506172839,0,0)" xlink:href="#aI"/><use transform="matrix(0.06172839506172839,0,0,0.06172839506172839,12.345679012345679,0)" xlink:href="#aa"/><use transform="matrix(0.06172839506172839,0,0,0.06172839506172839,24.691358024691358,0)" xlink:href="#af"/><use transform="matrix(0.06172839506172839,0,0,0.06172839506172839,37.03703703703704,0)" xlink:href="#ad"/><use transform="matrix(0.06172839506172839,0,0,0.06172839506172839,44.382716049382715,0)" xlink:href="#ar"/></g><g id="M"><use transform="matrix(0.06172839506172839,0,0,0.06172839506172839,0,0)" xlink:href="#as"/><use transform="matrix(0.06172839506172839,0,0,0.06172839506172839,6.172839506172839,0)" xlink:href="#ae"/><use transform="matrix(0.06172839506172839,0,0,0.06172839506172839,11.049382716049383,0)" xlink:href="#ad"/><use transform="matrix(0.06172839506172839,0,0,0.06172839506172839,18.395061728395063,0)" xlink:href="#Z"/><use transform="matrix(0.06172839506172839,0,0,0.06172839506172839,29.506172839506174,0)" xlink:href="#aq"/></g><g id="N"><use transform="matrix(0.06172839506172839,0,0,0.06172839506172839,0,0)" xlink:href="#am"/><use transform="matrix(0.06172839506172839,0,0,0.06172839506172839,4.876543209876543,0)" xlink:href="#ai"/><use transform="matrix(0.06172839506172839,0,0,0.06172839506172839,17.22222222222222,0)" xlink:href="#Z"/><use transform="matrix(0.06172839506172839,0,0,0.06172839506172839,28.333333333333332,0)" xlink:href="#aq"/></g><g id="O"><use transform="matrix(0.06172839506172839,0,0,0.06172839506172839,0,0)" xlink:href="#ag"/><use transform="matrix(0.06172839506172839,0,0,0.06172839506172839,12.345679012345679,0)" xlink:href="#af"/><use transform="matrix(0.06172839506172839,0,0,0.06172839506172839,24.691358024691358,0)" xlink:href="#Z"/><use transform="matrix(0.06172839506172839,0,0,0.06172839506172839,35.80246913580247,0)" xlink:href="#ac"/><use transform="matrix(0.06172839506172839,0,0,0.06172839506172839,46.91358024691358,0)" xlink:href="#ad"/><use transform="matrix(0.06172839506172839,0,0,0.06172839506172839,54.25925925925926,0)" xlink:href="#ae"/><use transform="matrix(0.06172839506172839,0,0,0.06172839506172839,59.135802469135804,0)" xlink:href="#an"/><use transform="matrix(0.06172839506172839,0,0,0.06172839506172839,71.48148148148148,0)" xlink:href="#aq"/><use transform="matrix(0.06172839506172839,0,0,0.06172839506172839,77.65432098765432,0)" xlink:href="#ae"/><use transform="matrix(0.06172839506172839,0,0,0.06172839506172839,82.53086419753086,0)" xlink:href="#ap"/><use transform="matrix(0.06172839506172839,0,0,0.06172839506172839,94.87654320987654,0)" xlink:href="#ak"/></g><path fill="#3a414a" d="M141 0L90-78 38 0H4l68-98-65-92h35l48 74 47-74h35l-64 92 68 98h-35" id="aJ"/><g id="P"><use transform="matrix(0.06172839506172839,0,0,0.06172839506172839,0,0)" xlink:href="#aq"/><use transform="matrix(0.06172839506172839,0,0,0.06172839506172839,6.172839506172839,0)" xlink:href="#af"/><use transform="matrix(0.06172839506172839,0,0,0.06172839506172839,18.51851851851852,0)" xlink:href="#aJ"/><use transform="matrix(0.06172839506172839,0,0,0.06172839506172839,29.62962962962963,0)" xlink:href="#aq"/></g><path fill="#3a414a" d="M30-248c118-7 216 8 213 122C240-48 200 0 122 0H30v-248zM63-27c89 8 146-16 146-99s-60-101-146-95v194" id="aK"/><g id="Q"><use transform="matrix(0.06172839506172839,0,0,0.06172839506172839,0,0)" xlink:href="#aK"/><use transform="matrix(0.06172839506172839,0,0,0.06172839506172839,15.987654320987653,0)" xlink:href="#ai"/><use transform="matrix(0.06172839506172839,0,0,0.06172839506172839,28.333333333333332,0)" xlink:href="#aq"/><use transform="matrix(0.06172839506172839,0,0,0.06172839506172839,34.50617283950617,0)" xlink:href="#ai"/><use transform="matrix(0.06172839506172839,0,0,0.06172839506172839,46.85185185185185,0)" xlink:href="#ab"/><use transform="matrix(0.06172839506172839,0,0,0.06172839506172839,59.197530864197525,0)" xlink:href="#ai"/><use transform="matrix(0.06172839506172839,0,0,0.06172839506172839,71.5432098765432,0)" xlink:href="#Z"/><use transform="matrix(0.06172839506172839,0,0,0.06172839506172839,82.65432098765432,0)" xlink:href="#af"/></g></defs></g></svg>