<svg xmlns="http://www.w3.org/2000/svg" xmlns:xlink="http://www.w3.org/1999/xlink" xmlns:lucid="lucid" width="1880" height="840"><g transform="translate(4.566929133858366 -241.41732283464557)" lucid:page-tab-id="0_0"><path d="M495.43 511.42c0 49.7-40.3 90-90 90s-90-40.3-90-90 40.3-90 90-90 90 40.3 90 90z" stroke="#3a414a" fill="#d7faf5"/><use xlink:href="#a" transform="matrix(1,0,0,1,335.43307086614163,421.4173228346456) translate(60.74074074074074 81.11111111111111)"/><use xlink:href="#b" transform="matrix(1,0,0,1,335.43307086614163,421.4173228346456) translate(3.3950617283950635 107.77777777777777)"/><use xlink:href="#c" transform="matrix(1,0,0,1,335.43307086614163,421.4173228346456) translate(56.358024691358025 107.77777777777777)"/><path d="M495.43 791.42c0 49.7-40.3 90-90 90s-90-40.3-90-90 40.3-90 90-90 90 40.3 90 90z" stroke="#3a414a" fill="#d7faf5"/><use xlink:href="#d" transform="matrix(1,0,0,1,335.43307086614163,701.4173228346456) translate(60.74074074074074 81.11111111111111)"/><use xlink:href="#e" transform="matrix(1,0,0,1,335.43307086614163,701.4173228346456) translate(13.888888888888886 107.77777777777777)"/><path d="M825.43 451.42c0 49.7-40.3 90-90 90s-90-40.3-90-90 40.3-90 90-90 90 40.3 90 90z" stroke="#3a414a" fill="#d7faf5"/><use xlink:href="#f" transform="matrix(1,0,0,1,665.4330708661416,361.4173228346456) translate(60.74074074074074 81.11111111111111)"/><use xlink:href="#g" transform="matrix(1,0,0,1,665.4330708661416,361.4173228346456) translate(31.75925925925926 107.77777777777777)"/><path d="M1035.43 971.42c0 49.7-40.3 90-90 90s-90-40.3-90-90 40.3-90 90-90 90 40.3 90 90z" stroke="#3a414a" fill="#d7faf5"/><use xlink:href="#h" transform="matrix(1,0,0,1,875.4330708661416,881.4173228346456) translate(60.74074074074074 81.11111111111111)"/><use xlink:href="#i" transform="matrix(1,0,0,1,875.4330708661416,881.4173228346456) translate(26.203703703703702 107.77777777777777)"/><path d="M1375.43 971.42c0 49.7-40.3 90-90 90s-90-40.3-90-90 40.3-90 90-90 90 40.3 90 90z" stroke="#3a414a" fill="#d7faf5"/><use xlink:href="#j" transform="matrix(1,0,0,1,1215.4330708661416,881.4173228346456) translate(60.74074074074074 81.11111111111111)"/><use xlink:href="#k" transform="matrix(1,0,0,1,1215.4330708661416,881.4173228346456) translate(12.469135802469133 107.77777777777777)"/><path d="M695.43 971.42c0 49.7-40.3 90-90 90s-90-40.3-90-90 40.3-90 90-90 90 40.3 90 90z" stroke="#3a414a" fill="#d7faf5"/><use xlink:href="#l" transform="matrix(1,0,0,1,535.4330708661416,881.4173228346456) translate(60.74074074074074 81.11111111111111)"/><use xlink:href="#m" transform="matrix(1,0,0,1,535.4330708661416,881.4173228346456) translate(8.981481481481474 107.77777777777777)"/><path d="M1575.43 511.42c0 49.7-40.3 90-90 90s-90-40.3-90-90 40.3-90 90-90 90 40.3 90 90z" stroke="#3a414a" fill="#d7faf5"/><use xlink:href="#n" transform="matrix(1,0,0,1,1415.4330708661416,421.4173228346456) translate(60.74074074074074 67.77777777777777)"/><use xlink:href="#o" transform="matrix(1,0,0,1,1415.4330708661416,421.4173228346456) translate(38.580246913580254 94.44444444444446)"/><use xlink:href="#p" transform="matrix(1,0,0,1,1415.4330708661416,421.4173228346456) translate(15.740740740740733 121.11111111111111)"/><path d="M15.43 447.42a6 6 0 0 1 6-6h168a6 6 0 0 1 6 6v128a6 6 0 0 1-6 6h-168a6 6 0 0 1-6-6z" stroke="#3a414a" fill="#fff3d9"/><use xlink:href="#q" transform="matrix(1,0,0,1,35.433070866141634,441.4173228346456) translate(46.60493827160494 74.44444444444444)"/><path d="M231.32 511.92H196.4v-1h34.92zm67.23 0H279.5v-1h19.05z" stroke="#3a414a" stroke-width=".05" fill="#3a414a"/><path d="M196.4 511.92h-.5v-1h.5z" fill="#3a414a"/><path d="M196.44 511.94h-.57v-1.05h.57zm-.52-1v.95h.47v-.96z" stroke="#3a414a" stroke-width=".05" fill="#3a414a"/><path d="M313.32 511.42l-14.27 4.63v-9.27z" fill="#3a414a"/><path d="M314.93 511.42l-16.38 5.32V506.1zm-15.38 3.94l12.15-3.94-12.15-3.95z" stroke="#3a414a" stroke-width=".05" fill="#3a414a"/><use xlink:href="#r" transform="matrix(1,0,0,1,231.3168368436877,500.75065616797895) translate(0 14.222222222222223)"/><path d="M635.43 267.42a6 6 0 0 1 6-6h228a6 6 0 0 1 6 6v68a6 6 0 0 1-6 6h-228a6 6 0 0 1-6-6z" fill="#fff0f0"/><path d="M875.43 261.42h-234a6 6 0 0 0-6 6v68a6 6 0 0 0 6 6h234" stroke="#3a414a" fill="none"/><use xlink:href="#s" transform="matrix(1,0,0,1,683.4330708661416,277.4173228346456) translate(48.60493827160494 17.77777777777778)"/><use xlink:href="#t" transform="matrix(1,0,0,1,683.4330708661416,277.4173228346456) translate(24.5 44.44444444444444)"/><path d="M1675.43 447.42a6 6 0 0 1 6-6h168a6 6 0 0 1 6 6v128a6 6 0 0 1-6 6h-168a6 6 0 0 1-6-6z" stroke="#3a414a" fill="#dedeff"/><use xlink:href="#u" transform="matrix(1,0,0,1,1695.4330708661416,441.4173228346456) translate(38.580246913580254 74.44444444444444)"/><path d="M414.14 379.65l-1.43 3.4-1.3 3.52-1.18 3.63-1.05 3.78-.92 3.93-.8 4.13-.63 4.33-.48 4.57-.3 4.83-.1 4.66-1-.02.1-4.68.3-4.88.5-4.6.64-4.37.8-4.17.92-3.97 1.07-3.82 1.2-3.66 1.3-3.55 1.46-3.46.6-1.3h1.12zm204.45-77.57l-2.74.03-30.35 1.25-23.67 1.97-19.2 2.42-15.94 2.68-13.46 2.85-11.5 2.95-9.95 3-8.7 3.02-7.64 3.02-6.77 3-6.06 3-5.43 3-1.66 1h-1.93l3.1-1.87 5.48-3 6.08-3.03 6.8-3.03 7.7-3.04 8.72-3.03 10-3L513 312.3l13.5-2.86 15.98-2.7 19.24-2.4 23.72-1.98 30.4-1.25 2.74-.02z" stroke="#635dff" stroke-width=".05" fill="#635dff"/><path d="M405.94 420.4v.53h-1v-.54z" fill="#635dff"/><path d="M405.97 420.4v.56l-.53-.02h-.53l.02-.57zm-1 .5h.94l.02-.46-.95-.02z" stroke="#635dff" stroke-width=".05" fill="#635dff"/><path d="M633.35 301.43l-14.22 4.78-.1-9.26z" fill="#635dff"/><path d="M634.97 301.42l-16.33 5.5-.1-10.66zm-15.34 4.1l12.1-4.07-12.18-3.82z" stroke="#635dff" stroke-width=".05" fill="#635dff"/><use xlink:href="#v" transform="matrix(1,0,0,1,399.3782308870513,335.2678256982286) translate(9.363024691358024 14.222222222222223)"/><use xlink:href="#w" transform="matrix(1,0,0,1,399.3782308870513,335.2678256982286) translate(0.004999999999999005 35.55555555555556)"/><path d="M1305.36 267.9l19.76 1.2 16.3 1.72 13.77 2.02 11.84 2.26 10.33 2.42 9.13 2.54 8.15 2.65 7.32 2.73 6.64 2.8 6.07 2.84 5.57 2.9 5.13 2.96 4.76 3.02 4.43 3.08 4.14 3.15 3.9 3.2 3.65 3.3 3.45 3.38 3.26 3.48 3.1 3.6 2.94 3.7 2.8 3.84 2.65 4 2.52 4.17 2.4 4.36 2.28 4.6 2.15 4.84 2.03 5.12 1.9 5.44 1.75 5.82 1.6 6.24 1.43 6.73 1.24 7.3 1 7.96.6 7.25-1 .1-.6-7.24-1-7.92-1.2-7.26-1.43-6.7-1.6-6.2-1.73-5.77-1.88-5.4-2.02-5.07-2.14-4.8-2.25-4.55-2.4-4.33-2.5-4.14-2.63-3.95-2.77-3.8-2.9-3.7-3.08-3.54-3.24-3.44-3.42-3.35-3.62-3.25-3.86-3.2-4.1-3.1-4.4-3.06-4.73-3-5.1-2.95-5.52-2.9-6.02-2.82-6.6-2.77-7.28-2.7-8.1-2.64-9.1-2.53-10.3-2.42-11.8-2.25-13.72-2.02-16.26-1.7-19.72-1.2-24.77-.5-5.1.1v-1l5.1-.1zm-132.5 8.73l-210.7 21.17-51.73 3.35-34.52.76v-1l34.5-.75 51.68-3.35 210.8-21.18z" stroke="#635dff" stroke-width=".05" fill="#635dff"/><path d="M875.93 301.9l-.53.02v-1h.5z" fill="#635dff"/><path d="M875.95 301.93h-.58v-1.04l.56-.02zm-.53-1v.96l.48-.02-.02-.95z" stroke="#635dff" stroke-width=".05" fill="#635dff"/><path d="M1485.38 419.3l-5.14-14.1 9.26-.32z" fill="#635dff"/><path d="M1485.43 420.92l-5.9-16.2 10.64-.36zm-4.5-15.24l4.4 12 3.5-12.28z" stroke="#635dff" stroke-width=".05" fill="#635dff"/><use xlink:href="#x" transform="matrix(1,0,0,1,1172.8692591045778,260.3070936920371) translate(0 14.222222222222223)"/><use xlink:href="#y" transform="matrix(1,0,0,1,1172.8692591045778,260.3070936920371) translate(44.39506172839507 14.222222222222223)"/><path d="M1055.43 307.42a6 6 0 0 1 6-6h228a6 6 0 0 1 6 6v68a6 6 0 0 1-6 6h-228a6 6 0 0 1-6-6z" fill="#fff0f0"/><path d="M1295.43 301.42h-234a6 6 0 0 0-6 6v68a6 6 0 0 0 6 6h234" stroke="#3a414a" fill="none"/><use xlink:href="#z" transform="matrix(1,0,0,1,1103.4330708661416,317.4173228346456) translate(33.75925925925926 17.77777777777778)"/><use xlink:href="#t" transform="matrix(1,0,0,1,1103.4330708661416,317.4173228346456) translate(24.5 44.44444444444444)"/><path d="M913.33 421.53l-6.05 4.6-5.44 3.78-5.1 3.25-4.9 2.83-4.8 2.5-4.74 2.24-4.76 2-4.83 1.8-4.93 1.6-5.08 1.42-5.3 1.24-5.54 1.06-5.84.86-6.22.65-6.66.42-6.7.14v-1l6.66-.13 6.62-.42 6.17-.64 5.8-.85 5.5-1.05 5.24-1.23 5.04-1.4 4.9-1.6 4.8-1.78 4.7-2 4.73-2.2 4.76-2.5 4.86-2.8 5.06-3.22 5.4-3.76 6.03-4.58 2.63-2.17h1.56zm125.34-78.8l-3.66.4-5.8.85-5.5 1.05-5.23 1.23-5.05 1.4-4.9 1.6-4.8 1.78-4.7 2-4.72 2.2-4.76 2.5-4.86 2.8-5.06 3.22-5.4 3.76-6.03 4.57-7.22 5.97-20.5 19.17h-1.46l21.3-19.92 7.25-6 6.05-4.6 5.45-3.8 5.1-3.24 4.9-2.82 4.78-2.5 4.75-2.24 4.77-2 4.82-1.8 4.93-1.6 5.1-1.43 5.27-1.25 5.54-1.05 5.84-.86 3.68-.4z" stroke="#fc9432" stroke-width=".05" fill="#fc9432"/><path d="M826.46 451.9l-.54.02v-1h.52z" fill="#fc9432"/><path d="M826.5 451.93h-.6v-1.04l.56-.02zm-.55-1v.96l.48-.02-.02-.95z" stroke="#fc9432" stroke-width=".05" fill="#fc9432"/><path d="M1053.35 341.5l-14 5.35-.48-9.26z" fill="#fc9432"/><path d="M1054.97 341.42l-16.1 6.14-.53-10.63zm-15.16 4.72l11.94-4.56-12.33-3.33z" stroke="#fc9432" stroke-width=".05" fill="#fc9432"/><use xlink:href="#A" transform="matrix(1,0,0,1,902.5895332224823,397.2414641763347) translate(0 14.222222222222223)"/><path d="M1377.94 368.65l4.97 4.1 5.25 4.73 5.64 5.53 6.2 6.64 7.16 8.3 8.77 11.08 9.9 13.7-.8.57-9.9-13.68-8.74-11.05-7.13-8.26-6.2-6.6-5.6-5.5-5.22-4.7-4.93-4.07-2.88-2.2h1.65zm-75.5-27.6l6.54.42 6.08.64 5.73.86 5.4 1.03 5.2 1.2 2.52.7h-.67v.86l-2.1-.6-5.14-1.2-5.38-1.02-5.68-.84-6.05-.63-6.5-.4-6.5-.14v-1z" stroke="#fc9432" stroke-width=".05" fill="#fc9432"/><path d="M1295.92 340.93l-.02 1h-.5v-1z" fill="#fc9432"/><path d="M1295.95 340.9l-.02 1.05h-.56v-1.06zm-.53 1h.46l.02-.95h-.48z" stroke="#fc9432" stroke-width=".05" fill="#fc9432"/><path d="M1433.85 435.13l-11.95-9.07 7.62-5.3z" fill="#fc9432"/><path d="M1434.78 436.45l-13.73-10.4 8.75-6.1zm-12.03-10.38l10.18 7.73-3.7-12.23z" stroke="#fc9432" stroke-width=".05" fill="#fc9432"/><use xlink:href="#A" transform="matrix(1,0,0,1,1333.254153692872,345.9090447014081) translate(0 14.222222222222223)"/><path d="M1601.35 511.92h-9.03v-1h9.03zm73.12 0h-24.92v-1h24.92z" stroke="#3a414a" stroke-width=".05" fill="#3a414a"/><path d="M1674.97 511.92h-.5v-1h.5z" fill="#3a414a"/><path d="M1675 511.94h-.57v-1.05h.56zm-.52-1v.95h.47v-.96z" stroke="#3a414a" stroke-width=".05" fill="#3a414a"/><path d="M1591.82 516.05l-14.27-4.63 14.27-4.64z" fill="#3a414a"/><path d="M1592.32 516.74l-16.4-5.32 16.4-5.33zm-13.15-5.32l12.15 3.94v-7.9z" stroke="#3a414a" stroke-width=".05" fill="#3a414a"/><use xlink:href="#r" transform="matrix(1,0,0,1,1601.3519240228982,500.75065616797895) translate(0 14.222222222222223)"/><path d="M220.32 295.06l-1.28.38-9.53 3.32-8.72 3.45-8.02 3.58-7.4 3.66-6.8 3.74-6.3 3.8-5.82 3.9-5.4 3.92-5.04 3.98-4.7 4.05-4.36 4.1-4.08 4.17-3.82 4.24-3.57 4.3-3.34 4.4-3.12 4.5-2.9 4.6-2.74 4.72-2.53 4.85-2.35 5-2.17 5.16-1.98 5.34-1.8 5.55-1.6 5.78-1.43 6.04-1.22 6.33-.98 6.66-.74 7.03-.46 7.43-.16 7.43-1-.02.16-7.45.47-7.5.74-7.06 1-6.7 1.2-6.37 1.44-6.08 1.62-5.83 1.82-5.6 2-5.38 2.2-5.2 2.35-5.04 2.56-4.88 2.73-4.76 2.94-4.63 3.15-4.54 3.37-4.43 3.58-4.35 3.85-4.27 4.1-4.18 4.4-4.14 4.73-4.07 5.06-4 5.45-3.96 5.86-3.9 6.33-3.82 6.85-3.76 7.43-3.68 8.06-3.6 8.76-3.46 9.57-3.33 1.6-.5zm115.38-15.64l20.94.9 22.35 1.87 23.57 2.97 24.52 4.15 25.06 5.33 25.18 6.47 24.83 7.5 24.03 8.36 22.85 9.05 21.4 9.52 19.77 9.8 18.07 9.94 16.38 9.9 14.76 9.8 12.8 9.3-.6.8-12.77-9.27-14.73-9.77-16.35-9.9-18.05-9.9-19.73-9.8-21.36-9.5-22.8-9.04-24-8.35-24.78-7.48-25.15-6.47-25.03-5.33-24.47-4.14-23.54-2.98-22.32-1.88-20.9-.88h-19.4l-17.87.74-16.4 1.37-10.37 1.3v-1l10.28-1.3 16.45-1.37 17.9-.74z" stroke="#fc9432" stroke-width=".05" fill="#fc9432"/><path d="M105.94 440.45v.5h-1v-.53z" fill="#fc9432"/><path d="M105.97 440.42v.56h-1.06l.02-.58zm-1 .5h.94l.02-.45-.95-.02z" stroke="#fc9432" stroke-width=".05" fill="#fc9432"/><path d="M663.52 393.87l-14.06-5.22 5.75-7.26z" fill="#fc9432"/><path d="M664.8 394.88l-16.16-6 6.6-8.34zm-14.52-6.46l11.97 4.45-7.07-10.63z" stroke="#fc9432" stroke-width=".05" fill="#fc9432"/><use xlink:href="#A" transform="matrix(1,0,0,1,220.31870872084997,277.1136270491036) translate(0 14.222222222222223)"/><path d="M837.4 487.96L868.28 498l28.88 8.07 27.57 6.47 26.93 5.14 26.95 3.98 27.8 2.92 29.82 1.86 34.08.7 31.2-1.8v1l-31.18 1.8-34.14-.7-29.86-1.87-27.83-2.92-27-3.98-26.97-5.15-27.62-6.48-28.9-8.08-30.92-10.06-1.37-.5.35-.93zm557.04 23.97l-69.2 1.5-119.2 6.87v-1l119.16-6.88 69.22-1.5z" stroke="#fc9432" stroke-width=".05" fill="#fc9432"/><path d="M1394.93 511.4v.52h-.5l-.03-1h.55z" fill="#fc9432"/><path d="M1394.96 511.4v.54h-.56l-.02-1.04h.6zm-.53-.45l.02.95h.46v-.5l.02-.46z" stroke="#fc9432" stroke-width=".05" fill="#fc9432"/><path d="M836.98 483.4l-3.14 8.73-11.85-9.2z" fill="#fc9432"/><path d="M837.68 482.93l-3.6 10.02-13.6-10.56zm-4.08 8.38l2.68-7.4-12.77-.42z" stroke="#fc9432" stroke-width=".05" fill="#fc9432"/><use xlink:href="#B" transform="matrix(1,0,0,1,1101.5052483482752,512.1522278295562) translate(0 14.222222222222223)"/><use xlink:href="#C" transform="matrix(1,0,0,1,1101.5052483482752,512.1522278295562) translate(53.23456790123458 14.222222222222223)"/><path d="M528.06 751.76l-2.46 19.33-1.3 15.35-.55 12.84v11.05l.4 9.72.72 8.7 1 7.83 1.2 7.16 1.4 6.6 1.57 6.1 1.7 5.7 1.88 5.36 2 5.04 2.12 4.8 2.27 4.55 2 3.66-.86.48-2.02-3.67-2.28-4.6-2.15-4.82-2.02-5.1-1.88-5.38-1.73-5.74-1.58-6.15-1.4-6.63-1.23-7.2-1-7.9-.72-8.7-.4-9.78v-11.1l.55-12.88 1.3-15.4 2.47-19.4 16.63-82h1.02zM501.4 511.03l4.75.3 4.2.43 3.7.55 3.35.65 3 .7 2.75.77 2.5.8 2.3.87 2.14.88 1.97.94 1.85.96 1.74 1 1.63 1.04 1.54 1.07 1.46 1.1 1.4 1.16 1.32 1.2 1.27 1.24 1.2 1.3 1.17 1.35 1.13 1.4 1.08 1.5 1.05 1.58 1 1.66.97 1.76.94 1.9.9 2 .87 2.2.83 2.36.78 2.58.74 2.84.66 3.15.6 3.5.5 3.98.38 4.56.22 5.3v6.28l-.34 7.67-.82 9.7-1.68 13.17-3.16 18.46h-1.02l3.2-18.6 1.66-13.13.83-9.68.32-7.62v-6.25l-.22-5.25-.38-4.5-.5-3.95-.58-3.48-.66-3.1-.72-2.8-.76-2.54-.8-2.33-.86-2.14-.88-2-.92-1.84-.95-1.73-1-1.64-1-1.53-1.07-1.46-1.1-1.4-1.14-1.3-1.2-1.27-1.23-1.22-1.3-1.17-1.35-1.1-1.43-1.1-1.5-1.05-1.6-1-1.7-1-1.82-.94-1.95-.9-2.1-.88-2.26-.84-2.46-.8-2.7-.76-2.97-.7-3.3-.62-3.7-.54-4.13-.44-4.72-.3-4.92-.1.02-1z" stroke="#54c45e" stroke-width=".05" fill="#54c45e"/><path d="M496.46 510.93l-.02 1h-.52v-1z" fill="#54c45e"/><path d="M496.5 510.9l-.04 1.05h-.57v-1.06zm-.54.52v.47h.46l.02-.95h-.5z" stroke="#54c45e" stroke-width=".05" fill="#54c45e"/><path d="M549.73 898.1l-11.75-9.33 7.73-5.13z" fill="#54c45e"/><path d="M550.63 899.44l-13.5-10.7 8.87-5.9zm-11.8-10.64l10 7.94-3.42-12.3z" stroke="#54c45e" stroke-width=".05" fill="#54c45e"/><use xlink:href="#D" transform="matrix(1,0,0,1,516.036878012109,626.9253627716574) translate(0.005000000000002558 14.222222222222223)"/><use xlink:href="#E" transform="matrix(1,0,0,1,516.036878012109,626.9253627716574) translate(13.758086419753088 35.55555555555556)"/><path d="M713 971.92h-16.56v-1H713zm125.55 0H792.9v-1h45.65z" stroke="#54c45e" stroke-width=".05" fill="#54c45e"/><path d="M696.45 971.92h-.53v-1h.53z" fill="#54c45e"/><path d="M696.47 971.94h-.58v-1.05h.57zm-.52-1v.95h.47v-.96z" stroke="#54c45e" stroke-width=".05" fill="#54c45e"/><path d="M853.32 971.42l-14.27 4.63v-9.27z" fill="#54c45e"/><path d="M854.93 971.42l-16.38 5.32V966.1zm-15.38 3.94l12.15-3.94-12.15-3.95z" stroke="#54c45e" stroke-width=".05" fill="#54c45e"/><use xlink:href="#F" transform="matrix(1,0,0,1,712.9976026167946,960.7506561679791) translate(0 14.222222222222223)"/><path d="M1048.14 971.92h-11.7v-1h11.7zm130.4 0h-30.9v-1h30.9z" stroke="#54c45e" stroke-width=".05" fill="#54c45e"/><path d="M1036.45 971.92h-.53v-1h.53z" fill="#54c45e"/><path d="M1036.47 971.94h-.58v-1.05h.57zm-.52-1v.95h.47v-.96z" stroke="#54c45e" stroke-width=".05" fill="#54c45e"/><path d="M1193.32 971.42l-14.27 4.63v-9.27z" fill="#54c45e"/><path d="M1194.93 971.42l-16.38 5.32V966.1zm-15.38 3.94l12.15-3.94-12.15-3.95z" stroke="#54c45e" stroke-width=".05" fill="#54c45e"/><use xlink:href="#G" transform="matrix(1,0,0,1,1048.1404156416813,960.7506561679791) translate(0 14.222222222222223)"/><path d="M561.18 673l-15.24 8.12-15.17 8.9-15.17 9.8-15.28 10.76-14.14 10.9-.6-.8 14.15-10.9 15.3-10.8 15.22-9.8 15.2-8.93 15.28-8.13 5.27-2.53h2.3zm850.54-108.16l-17.18 11.08-17.5 10.27-17.48 9.3-17.6 8.42-17.78 7.62-18.1 6.9-18.6 6.17-19.2 5.52-20.06 4.85-21.14 4.18-22.58 3.5-24.52 2.74-27.25 1.9-31.33.85-38.3-.56-54.66-3.16-214.6-18.03-36.38-.53-29.42.8-25.34 1.78-22.6 2.53-20.67 3.2-19.2 3.8-18.1 4.37-17.24 4.94-16.58 5.5-16.05 6.1-11.25 4.82v-1.08l10.87-4.66 16.1-6.12 16.6-5.52 17.27-4.96L660 637l19.25-3.8 20.7-3.2 22.66-2.55 25.4-1.77 29.46-.8 36.43.53 214.6 18.04 54.62 3.15 38.27.55 31.28-.86 27.2-1.9 24.5-2.74 22.53-3.5L1248 634l20-4.85 19.2-5.5 18.53-6.16 18.08-6.88 17.76-7.6 17.55-8.42 17.46-9.3 17.46-10.24 17.16-11.06z" stroke="#e81313" stroke-width=".05" fill="#e81313"/><path d="M1412.06 564.4l.1.15-.45.3-.53-.84.43-.27z" fill="#e81313"/><path d="M1412.08 564.4l.13.16-.5.32-.57-.88.47-.3zm-.88-.4l.52.8.4-.26-.08-.12-.45-.66z" stroke="#e81313" stroke-width=".05" fill="#e81313"/><path d="M488.43 724.98l-13.95 5.5 8.06-12.65z" fill="#e81313"/><path d="M489.26 725.2l-16.03 6.3 9.26-14.52zm-13.54 4.24l11.9-4.67-5.03-6.1z" stroke="#e81313" stroke-width=".05" fill="#e81313"/><use xlink:href="#H" transform="matrix(1,0,0,1,887.6207953595572,644.3778946652861) translate(0 14.222222222222223)"/><use xlink:href="#I" transform="matrix(1,0,0,1,887.6207953595572,644.3778946652861) translate(102.37037037037038 14.222222222222223)"/><path d="M405.93 700.42h-1v-28.3h1zm0-49.64h-1V618.3h1z" stroke="#e81313" stroke-width=".05" fill="#e81313"/><path d="M405.93 700.93h-1v-.53h1z" fill="#e81313"/><path d="M405.96 700.96l-.52-.02h-.53v-.56h1.06zm-1-.53v.47h.95v-.47z" stroke="#e81313" stroke-width=".05" fill="#e81313"/><path d="M410.07 617.8h-9.27l4.63-14.26z" fill="#e81313"/><path d="M410.76 618.3H400.1l5.33-16.38zm-9.27-1h7.88l-3.95-12.15z" stroke="#e81313" stroke-width=".05" fill="#e81313"/><use xlink:href="#H" transform="matrix(1,0,0,1,327.1614659278701,650.7759733656767) translate(0 14.222222222222223)"/><use xlink:href="#I" transform="matrix(1,0,0,1,327.1614659278701,650.7759733656767) translate(102.37037037037038 14.222222222222223)"/><path d="M715.43 707.42a6 6 0 0 1 6-6h228a6 6 0 0 1 6 6v68a6 6 0 0 1-6 6h-228a6 6 0 0 1-6-6z" fill="#fff0f0"/><path d="M955.43 701.42h-234a6 6 0 0 0-6 6v68a6 6 0 0 0 6 6h234" stroke="#3a414a" fill="none"/><use xlink:href="#J" transform="matrix(1,0,0,1,763.4330708661416,717.4173228346456) translate(10.981481481481474 17.77777777777778)"/><use xlink:href="#t" transform="matrix(1,0,0,1,763.4330708661416,717.4173228346456) translate(24.5 44.44444444444444)"/><path d="M613.66 827.26l-1.93 6.94-1.7 7.24-1.44 7.53-1.15 7.76-.84 7.94-.5 8.1-.16 7.66-1-.03.16-7.68.52-8.13.84-8 1.15-7.8 1.45-7.56 1.7-7.3 1.95-6.97.12-.35h1.05zm85.08-84.06l-2.9.5-3.92.82-3.8.98-3.74 1.12-3.65 1.27-3.58 1.4-3.52 1.58-3.47 1.72-3.4 1.88-3.38 2.04-3.33 2.2-3.3 2.4-3.26 2.6-3.23 2.77-3.2 3-3.15 3.22-3.12 3.46-3.08 3.72-3.03 4-2.98 4.28-2.9 4.58-2.84 4.9-2.73 5.23-1.13 2.4h-1.1l1.33-2.85 2.75-5.27 2.85-4.94 2.93-4.62 3-4.3 3.06-4.04 3.1-3.75 3.15-3.5 3.18-3.25 3.22-3.03 3.26-2.8 3.3-2.62 3.32-2.42 3.36-2.23 3.4-2.06 3.46-1.9 3.5-1.73 3.56-1.58 3.62-1.44 3.7-1.3 3.76-1.13 3.86-1 3.95-.83 2.92-.5z" stroke="#54c45e" stroke-width=".05" fill="#54c45e"/><path d="M605.94 880.4v.53h-1v-.54z" fill="#54c45e"/><path d="M605.97 880.4v.56l-.53-.02h-.53l.02-.57zm-1 .5h.94l.02-.46-.95-.02z" stroke="#54c45e" stroke-width=".05" fill="#54c45e"/><path d="M713.36 741.54l-13.86 5.75-.73-9.26z" fill="#54c45e"/><path d="M714.97 741.42l-15.92 6.6-.83-10.62zm-15.03 5.14l11.8-4.9-12.42-2.97z" stroke="#54c45e" stroke-width=".05" fill="#54c45e"/><use xlink:href="#K" transform="matrix(1,0,0,1,531.2916965275168,805.2905730400702) translate(0.0049999999999954525 14.222222222222223)"/><use xlink:href="#y" transform="matrix(1,0,0,1,531.2916965275168,805.2905730400702) translate(113.28895061728394 14.222222222222223)"/><path d="M945.12 569.26l-6.88 1.45-9.23 2.38-8.04 2.43-7.1 2.48-6.37 2.5-5.74 2.56-5.2 2.6-4.78 2.6-4.38 2.66-4.07 2.7-3.78 2.75-3.53 2.8-3.3 2.86-3.13 2.94-2.96 3-2.8 3.1-2.63 3.2-2.5 3.3-2.4 3.46-2.28 3.6-2.17 3.75-2.07 3.95-1.96 4.17-1.86 4.42-1.75 4.7-1.62 5.02-1.5 5.4-1.38 5.85-1.2 6.36-1.03 6.96-.8 7.66-.54 8.5-.2 9.06-1-.02.2-9.07.54-8.55.8-7.7 1.04-7 1.22-6.4 1.38-5.9 1.52-5.45 1.65-5.07 1.76-4.74 1.88-4.46 2-4.2 2.07-4 2.2-3.8 2.3-3.62 2.4-3.48 2.55-3.34 2.67-3.23 2.8-3.14 3-3.04 3.14-2.96 3.34-2.88 3.57-2.83 3.8-2.77 4.1-2.72 4.43-2.68 4.8-2.64 5.25-2.6 5.77-2.57 6.4-2.53 7.15-2.48 8.1-2.44 9.26-2.38 7.12-1.5zm439.1-23.53l-1.94.58-15.73 4.05-17.7 3.75-20.23 3.4-23.72 3-28.9 2.4-37.93 1.54-158.54-2.8-26.06-.1v-1l26.07.1 158.52 2.8 37.87-1.54 28.86-2.4 23.68-2.98 20.2-3.4 17.64-3.75 15.7-4.02 1.9-.57z" stroke="#54c45e" stroke-width=".05" fill="#54c45e"/><path d="M835.94 700.4v.52h-1v-.53z" fill="#54c45e"/><path d="M835.97 700.38v.56h-1.06l.02-.58zm-1 .5h.94l.02-.45-.95-.02z" stroke="#54c45e" stroke-width=".05" fill="#54c45e"/><path d="M1398.17 540.9l-12.27 8.64-2.73-8.86z" fill="#54c45e"/><path d="M1399.72 540.43l-14.1 9.9-3.13-10.16zm-13.54 8.3l10.45-7.35-12.77-.2z" stroke="#54c45e" stroke-width=".05" fill="#54c45e"/><use xlink:href="#L" transform="matrix(1,0,0,1,945.122079536239,540.7226942126877) translate(0.005000000000002558 14.222222222222223)"/><use xlink:href="#w" transform="matrix(1,0,0,1,945.122079536239,540.7226942126877) translate(25.091419753086413 35.55555555555556)"/><path d="M1040.43 707.42a6 6 0 0 1 6-6h228a6 6 0 0 1 6 6v68a6 6 0 0 1-6 6h-228a6 6 0 0 1-6-6z" fill="#fff0f0"/><path d="M1280.43 701.42h-234a6 6 0 0 0-6 6v68a6 6 0 0 0 6 6h234" stroke="#3a414a" fill="none"/><use xlink:href="#M" transform="matrix(1,0,0,1,1088.4330708661416,717.4173228346456) translate(28.203703703703702 17.77777777777778)"/><use xlink:href="#t" transform="matrix(1,0,0,1,1088.4330708661416,717.4173228346456) translate(24.5 44.44444444444444)"/><path d="M1715.43 971.42c0 49.7-40.3 90-90 90s-90-40.3-90-90 40.3-90 90-90 90 40.3 90 90z" stroke="#3a414a" fill="#d7faf5"/><use xlink:href="#N" transform="matrix(1,0,0,1,1555.4330708661416,881.4173228346456) translate(60.74074074074074 81.11111111111111)"/><use xlink:href="#O" transform="matrix(1,0,0,1,1555.4330708661416,881.4173228346456) translate(44.69135802469136 107.77777777777777)"/><path d="M1436.7 971.92h-60.26v-1h60.25zm81.85 0h-44.37v-1h44.37z" stroke="#54c45e" stroke-width=".05" fill="#54c45e"/><path d="M1376.45 971.92h-.53v-1h.53z" fill="#54c45e"/><path d="M1376.47 971.94h-.58v-1.05h.57zm-.52-1v.95h.47v-.96z" stroke="#54c45e" stroke-width=".05" fill="#54c45e"/><path d="M1533.32 971.42l-14.27 4.63v-9.27z" fill="#54c45e"/><path d="M1534.93 971.42l-16.38 5.32V966.1zm-15.38 3.94l12.15-3.94-12.15-3.95z" stroke="#54c45e" stroke-width=".05" fill="#54c45e"/><use xlink:href="#P" transform="matrix(1,0,0,1,1436.6935226132591,960.7506561679791) translate(0 14.222222222222223)"/><path d="M1365.43 707.42a6 6 0 0 1 6-6h228a6 6 0 0 1 6 6v68a6 6 0 0 1-6 6h-228a6 6 0 0 1-6-6z" fill="#fff0f0"/><path d="M1605.43 701.42h-234a6 6 0 0 0-6 6v68a6 6 0 0 0 6 6h234" stroke="#3a414a" fill="none"/><use xlink:href="#Q" transform="matrix(1,0,0,1,1413.4330708661416,717.4173228346456) translate(14.469135802469133 17.77777777777778)"/><use xlink:href="#t" transform="matrix(1,0,0,1,1413.4330708661416,717.4173228346456) translate(24.5 44.44444444444444)"/><path d="M1769.1 683.34l3.64 5.52 3.07 5.1 2.6 4.72 2.15 4.4 1.82 4.1 1.52 3.9 1.25 3.65 1.04 3.47.82 3.3.67 3.17.5 3.03.35 2.93.23 2.84.1 2.75v2.68l-.12 2.62-.23 2.57-.33 2.52-.43 2.5-.53 2.48-.64 2.46-.75 2.45-.87 2.47-.98 2.46-1.12 2.48-1.25 2.5-1.4 2.54-.25.42-1.64 2.64-1.9 2.8-2.2 2.95-2.55 3.16-3 3.4-3.5 3.66-4.17 4-4.96 4.36-5.97 4.83-7.26 5.4-8.96 6.07-11.2 6.94-14.3 8.04-18.6 9.47-25 11.42-34.88 14.2-52.2 18.7-165.95 50-39.7 12.16-.3-.96 39.7-12.16 165.94-49.98 52.14-18.7 34.86-14.2 24.94-11.4 18.58-9.44 14.25-8.02 11.17-6.92 8.92-6.05 7.23-5.37 5.92-4.8 4.93-4.35 4.13-3.95 3.5-3.63 2.95-3.36 2.53-3.12 2.17-2.93 1.88-2.74 1.62-2.6.24-.42 1.4-2.5 1.22-2.46 1.1-2.44.97-2.43.85-2.4.73-2.4.63-2.43.53-2.44.42-2.46.32-2.5.22-2.52.12-2.58v-2.63l-.1-2.7-.23-2.8-.35-2.9-.5-3-.65-3.1-.83-3.28-1.02-3.43-1.25-3.62-1.5-3.82-1.8-4.08-2.15-4.36-2.56-4.7-3.04-5.04-3.62-5.5-4.32-5.98-.43-.54h1.27zm-175.86-130.02l19.8 9.43 22.25 11.73 22.5 13.1 20.94 13.38 18.42 12.88 15.68 11.97 10.7 8.92h-1.56l-9.77-8.13-15.63-11.95-18.38-12.86-20.92-13.37-22.47-13.08-22.2-11.7-19.77-9.42-8.06-3.42.4-.9z" stroke="#54c45e" stroke-width=".05" fill="#54c45e"/><path d="M1372.06 943.56l-.48.14-.32-.95.5-.15z" fill="#54c45e"/><path d="M1372.1 943.57l-.54.16-.33-1 .55-.16zm-.8-.8l.3.9.43-.13-.28-.9z" stroke="#54c45e" stroke-width=".05" fill="#54c45e"/><path d="M1586.25 545.86l-3.5 8.6-11.46-9.68z" fill="#54c45e"/><path d="M1586.97 545.42l-4 9.86-13.18-11.1zm-4.42 8.2l2.98-7.3-12.74-.93z" stroke="#54c45e" stroke-width=".05" fill="#54c45e"/><use xlink:href="#R" transform="matrix(1,0,0,1,1690.5824422244357,634.7151564789954) translate(18.15314814814814 14.222222222222223)"/><use xlink:href="#S" transform="matrix(1,0,0,1,1690.5824422244357,634.7151564789954) translate(0.005000000000002558 35.55555555555556)"/><path d="M949.2 841.17l-1.38 9.28-1.03 9.8-.65 10.22-.2 9.96-1-.03.2-9.97.65-10.25 1.03-9.85 1.37-9.32 1.47-7.66h1zm74.58-97.75l-3.1.65-3.1.8-3.02.92-2.95 1-2.87 1.15-2.82 1.26-2.76 1.38-2.73 1.5-2.68 1.63-2.66 1.78-2.64 1.92-2.62 2.07-2.6 2.25-2.6 2.43-2.57 2.64-2.57 2.85-2.57 3.1-2.57 3.38-2.56 3.68-2.54 4-2.53 4.4-2.5 4.77-2.45 5.23-2.4 5.7-2.33 6.27-.6 1.83h-1.04l.7-2.16 2.34-6.3 2.42-5.75 2.47-5.28 2.53-4.8 2.54-4.42 2.57-4.05 2.58-3.7 2.58-3.42 2.6-3.13 2.6-2.9 2.6-2.66 2.63-2.46 2.63-2.28 2.66-2.1 2.67-1.94 2.68-1.8 2.73-1.64 2.78-1.52 2.8-1.4 2.87-1.27 2.9-1.16 3-1.04 3.06-.92 3.16-.8 3.12-.66z" stroke="#54c45e" stroke-width=".05" fill="#54c45e"/><path d="M945.94 880.4v.53h-1v-.54z" fill="#54c45e"/><path d="M945.97 880.4v.56l-.53-.02h-.53l.02-.57zm-1 .5h.94l.02-.46-.95-.02z" stroke="#54c45e" stroke-width=".05" fill="#54c45e"/><path d="M1038.36 741.57l-13.78 5.93-.85-9.23z" fill="#54c45e"/><path d="M1039.97 741.42l-15.82 6.8-1-10.6zm-14.95 5.35l11.73-5.05-12.46-2.8z" stroke="#54c45e" stroke-width=".05" fill="#54c45e"/><g><use xlink:href="#T" transform="matrix(1,0,0,1,884.1617509394825,812.0039016652324) translate(0 14.222222222222223)"/><use xlink:href="#y" transform="matrix(1,0,0,1,884.1617509394825,812.0039016652324) translate(78.9135802469136 14.222222222222223)"/></g><path d="M1288.42 838.57l-1.28 12.26-.88 14.1-.32 15.5-1-.02.32-15.52.88-14.13 1.3-12.3 1.47-10.08h1.03zm60.4-94.88l-.14.02-2.55.66-2.46.74-2.4.83-2.3.92-2.25 1-2.2 1.1-2.16 1.18-2.12 1.28-2.1 1.4-2.05 1.5-2.06 1.6-2.03 1.76-2 1.9-2.02 2.05-2 2.23-2.03 2.44-2.02 2.66-2.02 2.92-2.03 3.2-2.04 3.55-2.05 3.92-2.06 4.38-2.05 4.9-2.05 5.5-2 6.2-1 3.5h-1.02l1.05-3.8 2.03-6.24 2.06-5.53 2.07-4.93 2.08-4.4 2.07-3.97 2.07-3.58 2.05-3.26 2.05-2.95 2.05-2.7 2.04-2.47 2.05-2.27 2.04-2.1 2.04-1.9 2.07-1.8 2.08-1.64 2.1-1.52 2.13-1.4 2.16-1.32 2.2-1.2 2.23-1.12 2.28-1.02 2.36-.93 2.42-.83 2.5-.76 2.6-.65.15-.04z" stroke="#54c45e" stroke-width=".05" fill="#54c45e"/><path d="M1285.94 880.4v.53h-1v-.54z" fill="#54c45e"/><path d="M1285.97 880.4v.56l-.53-.02h-.53l.02-.57zm-1 .5h.94l.02-.46-.95-.02z" stroke="#54c45e" stroke-width=".05" fill="#54c45e"/><path d="M1363.36 741.6l-13.67 6.16-1.03-9.2z" fill="#54c45e"/><path d="M1364.97 741.42l-15.7 7.08-1.17-10.58zm-14.86 5.6l11.65-5.25-12.5-2.6z" stroke="#54c45e" stroke-width=".05" fill="#54c45e"/><g><use xlink:href="#U" transform="matrix(1,0,0,1,1210.1557883105506,807.0395076253104) translate(0 14.222222222222223)"/><use xlink:href="#y" transform="matrix(1,0,0,1,1210.1557883105506,807.0395076253104) translate(104.44444444444446 14.222222222222223)"/></g><path d="M1383.15 676.58l-6.7 10.13-5.5 7.58-4.83 6.1-4.4 5.08-4.1 4.38-3.9 3.8-3.74 3.4-3.65 3-3.58 2.73-3.54 2.47-3.52 2.24-3.54 2.04-3.57 1.86-3.6 1.7-3.7 1.56-3.78 1.4-3.9 1.27-4.05 1.14-4.2.98-4.43.85-4.65.68-4.94.52-5.27.33-5.15.1v-1l5.12-.1 5.23-.33 4.9-.5 4.6-.7 4.38-.82 4.17-.98 4-1.12 3.86-1.25 3.74-1.4 3.65-1.53 3.58-1.68 3.53-1.86 3.5-2.02 3.5-2.22 3.5-2.44 3.55-2.7 3.63-2.98 3.72-3.35 3.86-3.8 4.1-4.34 4.35-5.07 4.8-6.05 5.46-7.54 6.7-10.1 6.23-10.33h1.17zm43.92-75.7l-24.97 43.5h-1.15l25.25-44z" stroke="#54c45e" stroke-width=".05" fill="#54c45e"/><path d="M1280.92 741.9l-.52.02v-1h.5z" fill="#54c45e"/><path d="M1280.95 741.93h-.58v-1.04l.56-.02zm-.53-1v.96l.48-.02-.02-.95z" stroke="#54c45e" stroke-width=".05" fill="#54c45e"/><path d="M1430.85 602.62l-7.9-4.83 11.37-9.77z" fill="#54c45e"/><path d="M1431.18 603.4l-9.1-5.54 13.1-11.2zm-7.4-5.68l6.74 4.1 2.96-12.4z" stroke="#54c45e" stroke-width=".05" fill="#54c45e"/><g><use xlink:href="#T" transform="matrix(1,0,0,1,1326.859999393116,644.3794230741927) translate(0 14.222222222222223)"/><use xlink:href="#y" transform="matrix(1,0,0,1,1326.859999393116,644.3794230741927) translate(78.9135802469136 14.222222222222223)"/></g><path d="M1608.25 665.68l6.83 11.24 4.73 8.6 3.36 6.73 2.42 5.4 1.75 4.44 1.3 3.7.94 3.12.7 2.68.5 2.32.33 2.04.23 1.8.14 1.6.06 1.46v1.32l-.05 1.2-.1 1.1-.12 1-.16.95-.2.86-.2.82-.23.78-.25.72-.28.7-.3.65-.3.63-.33.6-.34.58-.37.55-.4.53-.4.5-.44.52-.46.48-.48.48-.52.47-.54.45-.6.45-.6.43-.67.42-.73.4-.77.42-.84.4-.9.37-1 .38-1.1.36-1.2.33-1.35.32-1.5.27-1.7.25-1.92.2-2.2.14-2.07.05v-1l2.03-.03 2.17-.14 1.9-.2 1.64-.24 1.46-.3 1.3-.3 1.17-.32 1.06-.34.95-.36.87-.36.8-.38.74-.38.67-.4.63-.4.6-.4.53-.42.52-.43.48-.42.46-.45.42-.45.4-.47.4-.48.35-.5.35-.52.32-.54.3-.56.3-.6.28-.6.26-.66.24-.7.22-.73.2-.77.18-.83.15-.9.12-.97.08-1.06.05-1.16v-1.26l-.06-1.4-.13-1.57-.23-1.76-.33-2-.48-2.27-.7-2.64-.93-3.1-1.27-3.66-1.75-4.4-2.4-5.36-3.33-6.7-4.7-8.56-6.8-11.2-7.06-10.58h1.2zm-50.52-67.78l24.9 31.3 3.7 5.1h-1.23l-3.28-4.5-24.87-31.27-3.76-4.47.76-.64z" stroke="#54c45e" stroke-width=".05" fill="#54c45e"/><path d="M1605.92 741.9l-.52.02v-1h.5z" fill="#54c45e"/><path d="M1605.95 741.93h-.58v-1.04l.56-.02zm-.53-1v.96l.48-.02-.02-.95z" stroke="#54c45e" stroke-width=".05" fill="#54c45e"/><path d="M1556.8 590.37l-7.1 5.98-5.64-13.9z" fill="#54c45e"/><path d="M1557.65 590.3l-8.15 6.87-6.48-15.96zm-7.74 5.22l6.05-5.08-10.84-6.76z" stroke="#54c45e" stroke-width=".05" fill="#54c45e"/><g><use xlink:href="#U" transform="matrix(1,0,0,1,1512.1855913729441,634.3099218551841) translate(0 14.222222222222223)"/><use xlink:href="#y" transform="matrix(1,0,0,1,1512.1855913729441,634.3099218551841) translate(104.44444444444446 14.222222222222223)"/></g><defs><path fill="#3a414a" d="M27 0v-27h64v-190l-56 39v-29l58-41h29v221h61V0H27" id="V"/><path fill="#3a414a" d="M33 0v-38h34V0H33" id="W"/><g id="a"><use transform="matrix(0.06172839506172839,0,0,0.06172839506172839,0,0)" xlink:href="#V"/><use transform="matrix(0.06172839506172839,0,0,0.06172839506172839,12.345679012345679,0)" xlink:href="#W"/></g><path fill="#3a414a" d="M232-93c-1 65-40 97-104 97C67 4 28-28 28-90v-158h33c8 89-33 224 67 224 102 0 64-133 71-224h33v155" id="X"/><path fill="#3a414a" d="M135-143c-3-34-86-38-87 0 15 53 115 12 119 90S17 21 10-45l28-5c4 36 97 45 98 0-10-56-113-15-118-90-4-57 82-63 122-42 12 7 21 19 24 35" id="Y"/><path fill="#3a414a" d="M100-194c63 0 86 42 84 106H49c0 40 14 67 53 68 26 1 43-12 49-29l28 8c-11 28-37 45-77 45C44 4 14-33 15-96c1-61 26-98 85-98zm52 81c6-60-76-77-97-28-3 7-6 17-6 28h103" id="Z"/><path fill="#3a414a" d="M114-163C36-179 61-72 57 0H25l-1-190h30c1 12-1 29 2 39 6-27 23-49 58-41v29" id="aa"/><g id="b"><use transform="matrix(0.06172839506172839,0,0,0.06172839506172839,0,0)" xlink:href="#X"/><use transform="matrix(0.06172839506172839,0,0,0.06172839506172839,15.987654320987653,0)" xlink:href="#Y"/><use transform="matrix(0.06172839506172839,0,0,0.06172839506172839,27.098765432098766,0)" xlink:href="#Z"/><use transform="matrix(0.06172839506172839,0,0,0.06172839506172839,39.44444444444444,0)" xlink:href="#aa"/></g><path fill="#3a414a" d="M205 0l-28-72H64L36 0H1l101-248h38L239 0h-34zm-38-99l-47-123c-12 45-31 82-46 123h93" id="ab"/><path fill="#3a414a" d="M96-169c-40 0-48 33-48 73s9 75 48 75c24 0 41-14 43-38l32 2c-6 37-31 61-74 61-59 0-76-41-82-99-10-93 101-131 147-64 4 7 5 14 7 22l-32 3c-4-21-16-35-41-35" id="ac"/><path fill="#3a414a" d="M100-194c62-1 85 37 85 99 1 63-27 99-86 99S16-35 15-95c0-66 28-99 85-99zM99-20c44 1 53-31 53-75 0-43-8-75-51-75s-53 32-53 75 10 74 51 75" id="ad"/><path fill="#3a414a" d="M84 4C-5 8 30-112 23-190h32v120c0 31 7 50 39 49 72-2 45-101 50-169h31l1 190h-30c-1-10 1-25-2-33-11 22-28 36-60 37" id="ae"/><path fill="#3a414a" d="M117-194c89-4 53 116 60 194h-32v-121c0-31-8-49-39-48C34-167 62-67 57 0H25l-1-190h30c1 10-1 24 2 32 11-22 29-35 61-36" id="af"/><path fill="#3a414a" d="M59-47c-2 24 18 29 38 22v24C64 9 27 4 27-40v-127H5v-23h24l9-43h21v43h35v23H59v120" id="ag"/><g id="c"><use transform="matrix(0.06172839506172839,0,0,0.06172839506172839,0,0)" xlink:href="#ab"/><use transform="matrix(0.06172839506172839,0,0,0.06172839506172839,14.814814814814813,0)" xlink:href="#ac"/><use transform="matrix(0.06172839506172839,0,0,0.06172839506172839,25.925925925925924,0)" xlink:href="#ac"/><use transform="matrix(0.06172839506172839,0,0,0.06172839506172839,37.03703703703704,0)" xlink:href="#ad"/><use transform="matrix(0.06172839506172839,0,0,0.06172839506172839,49.382716049382715,0)" xlink:href="#ae"/><use transform="matrix(0.06172839506172839,0,0,0.06172839506172839,61.72839506172839,0)" xlink:href="#af"/><use transform="matrix(0.06172839506172839,0,0,0.06172839506172839,74.07407407407408,0)" xlink:href="#ag"/></g><path fill="#3a414a" d="M64 0c3-98 48-159 88-221H18v-27h164v26C143-157 98-101 97 0H64" id="ah"/><g id="d"><use transform="matrix(0.06172839506172839,0,0,0.06172839506172839,0,0)" xlink:href="#ah"/><use transform="matrix(0.06172839506172839,0,0,0.06172839506172839,12.345679012345679,0)" xlink:href="#W"/></g><path fill="#3a414a" d="M212-179c-10-28-35-45-73-45-59 0-87 40-87 99 0 60 29 101 89 101 43 0 62-24 78-52l27 14C228-24 195 4 139 4 59 4 22-46 18-125c-6-104 99-153 187-111 19 9 31 26 39 46" id="ai"/><path fill="#3a414a" d="M24-231v-30h32v30H24zM24 0v-190h32V0H24" id="aj"/><g id="e"><use transform="matrix(0.06172839506172839,0,0,0.06172839506172839,0,0)" xlink:href="#ai"/><use transform="matrix(0.06172839506172839,0,0,0.06172839506172839,15.987654320987653,0)" xlink:href="#ad"/><use transform="matrix(0.06172839506172839,0,0,0.06172839506172839,28.333333333333332,0)" xlink:href="#af"/><use transform="matrix(0.06172839506172839,0,0,0.06172839506172839,40.67901234567901,0)" xlink:href="#af"/><use transform="matrix(0.06172839506172839,0,0,0.06172839506172839,53.02469135802469,0)" xlink:href="#Z"/><use transform="matrix(0.06172839506172839,0,0,0.06172839506172839,65.37037037037037,0)" xlink:href="#ac"/><use transform="matrix(0.06172839506172839,0,0,0.06172839506172839,76.48148148148148,0)" xlink:href="#ag"/><use transform="matrix(0.06172839506172839,0,0,0.06172839506172839,82.65432098765432,0)" xlink:href="#aj"/><use transform="matrix(0.06172839506172839,0,0,0.06172839506172839,87.53086419753086,0)" xlink:href="#ad"/><use transform="matrix(0.06172839506172839,0,0,0.06172839506172839,99.87654320987654,0)" xlink:href="#af"/></g><path fill="#3a414a" d="M101-251c68 0 85 55 85 127S166 4 100 4C33 4 14-52 14-124c0-73 17-127 87-127zm-1 229c47 0 54-49 54-102s-4-102-53-102c-51 0-55 48-55 102 0 53 5 102 54 102" id="ak"/><g id="f"><use transform="matrix(0.06172839506172839,0,0,0.06172839506172839,0,0)" xlink:href="#ak"/><use transform="matrix(0.06172839506172839,0,0,0.06172839506172839,12.345679012345679,0)" xlink:href="#W"/></g><path fill="#3a414a" d="M141-36C126-15 110 5 73 4 37 3 15-17 15-53c-1-64 63-63 125-63 3-35-9-54-41-54-24 1-41 7-42 31l-33-3c5-37 33-52 76-52 45 0 72 20 72 64v82c-1 20 7 32 28 27v20c-31 9-61-2-59-35zM48-53c0 20 12 33 32 33 41-3 63-29 60-74-43 2-92-5-92 41" id="al"/><g id="g"><use transform="matrix(0.06172839506172839,0,0,0.06172839506172839,0,0)" xlink:href="#ai"/><use transform="matrix(0.06172839506172839,0,0,0.06172839506172839,15.987654320987653,0)" xlink:href="#ad"/><use transform="matrix(0.06172839506172839,0,0,0.06172839506172839,28.333333333333332,0)" xlink:href="#af"/><use transform="matrix(0.06172839506172839,0,0,0.06172839506172839,40.67901234567901,0)" xlink:href="#ag"/><use transform="matrix(0.06172839506172839,0,0,0.06172839506172839,46.851851851851855,0)" xlink:href="#al"/><use transform="matrix(0.06172839506172839,0,0,0.06172839506172839,59.19753086419753,0)" xlink:href="#ac"/><use transform="matrix(0.06172839506172839,0,0,0.06172839506172839,70.30864197530865,0)" xlink:href="#ag"/></g><path fill="#3a414a" d="M126-127c33 6 58 20 58 59 0 88-139 92-164 29-3-8-5-16-6-25l32-3c6 27 21 44 54 44 32 0 52-15 52-46 0-38-36-46-79-43v-28c39 1 72-4 72-42 0-27-17-43-46-43-28 0-47 15-49 41l-32-3c6-42 35-63 81-64 48-1 79 21 79 65 0 36-21 52-52 59" id="am"/><g id="h"><use transform="matrix(0.06172839506172839,0,0,0.06172839506172839,0,0)" xlink:href="#am"/><use transform="matrix(0.06172839506172839,0,0,0.06172839506172839,12.345679012345679,0)" xlink:href="#W"/></g><path fill="#3a414a" d="M30-248c87 1 191-15 191 75 0 78-77 80-158 76V0H30v-248zm33 125c57 0 124 11 124-50 0-59-68-47-124-48v98" id="an"/><path fill="#3a414a" d="M179-190L93 31C79 59 56 82 12 73V49c39 6 53-20 64-50L1-190h34L92-34l54-156h33" id="ao"/><path fill="#3a414a" d="M210-169c-67 3-38 105-44 169h-31v-121c0-29-5-50-35-48C34-165 62-65 56 0H25l-1-190h30c1 10-1 24 2 32 10-44 99-50 107 0 11-21 27-35 58-36 85-2 47 119 55 194h-31v-121c0-29-5-49-35-48" id="ap"/><g id="i"><use transform="matrix(0.06172839506172839,0,0,0.06172839506172839,0,0)" xlink:href="#an"/><use transform="matrix(0.06172839506172839,0,0,0.06172839506172839,14.814814814814813,0)" xlink:href="#al"/><use transform="matrix(0.06172839506172839,0,0,0.06172839506172839,27.160493827160494,0)" xlink:href="#ao"/><use transform="matrix(0.06172839506172839,0,0,0.06172839506172839,38.27160493827161,0)" xlink:href="#ap"/><use transform="matrix(0.06172839506172839,0,0,0.06172839506172839,56.72839506172839,0)" xlink:href="#Z"/><use transform="matrix(0.06172839506172839,0,0,0.06172839506172839,69.07407407407408,0)" xlink:href="#af"/><use transform="matrix(0.06172839506172839,0,0,0.06172839506172839,81.41975308641976,0)" xlink:href="#ag"/></g><path fill="#3a414a" d="M155-56V0h-30v-56H8v-25l114-167h33v167h35v25h-35zm-30-156c-27 46-58 90-88 131h88v-131" id="aq"/><g id="j"><use transform="matrix(0.06172839506172839,0,0,0.06172839506172839,0,0)" xlink:href="#aq"/><use transform="matrix(0.06172839506172839,0,0,0.06172839506172839,12.345679012345679,0)" xlink:href="#W"/></g><path fill="#3a414a" d="M127-220V0H93v-220H8v-28h204v28h-85" id="ar"/><g id="k"><use transform="matrix(0.06172839506172839,0,0,0.06172839506172839,0,0)" xlink:href="#ar"/><use transform="matrix(0.06172839506172839,0,0,0.06172839506172839,12.716049382716047,0)" xlink:href="#aa"/><use transform="matrix(0.06172839506172839,0,0,0.06172839506172839,20.061728395061728,0)" xlink:href="#al"/><use transform="matrix(0.06172839506172839,0,0,0.06172839506172839,32.407407407407405,0)" xlink:href="#af"/><use transform="matrix(0.06172839506172839,0,0,0.06172839506172839,44.75308641975308,0)" xlink:href="#Y"/><use transform="matrix(0.06172839506172839,0,0,0.06172839506172839,55.86419753086419,0)" xlink:href="#al"/><use transform="matrix(0.06172839506172839,0,0,0.06172839506172839,68.20987654320987,0)" xlink:href="#ac"/><use transform="matrix(0.06172839506172839,0,0,0.06172839506172839,79.32098765432099,0)" xlink:href="#ag"/><use transform="matrix(0.06172839506172839,0,0,0.06172839506172839,85.49382716049382,0)" xlink:href="#aj"/><use transform="matrix(0.06172839506172839,0,0,0.06172839506172839,90.37037037037037,0)" xlink:href="#ad"/><use transform="matrix(0.06172839506172839,0,0,0.06172839506172839,102.71604938271605,0)" xlink:href="#af"/></g><path fill="#3a414a" d="M101-251c82-7 93 87 43 132L82-64C71-53 59-42 53-27h129V0H18c2-99 128-94 128-182 0-28-16-43-45-43s-46 15-49 41l-32-3c6-41 34-60 81-64" id="as"/><g id="l"><use transform="matrix(0.06172839506172839,0,0,0.06172839506172839,0,0)" xlink:href="#as"/><use transform="matrix(0.06172839506172839,0,0,0.06172839506172839,12.345679012345679,0)" xlink:href="#W"/></g><path fill="#3a414a" d="M185-189c-5-48-123-54-124 2 14 75 158 14 163 119 3 78-121 87-175 55-17-10-28-26-33-46l33-7c5 56 141 63 141-1 0-78-155-14-162-118-5-82 145-84 179-34 5 7 8 16 11 25" id="at"/><path fill="#3a414a" d="M115-194c53 0 69 39 70 98 0 66-23 100-70 100C84 3 66-7 56-30L54 0H23l1-261h32v101c10-23 28-34 59-34zm-8 174c40 0 45-34 45-75 0-40-5-75-45-74-42 0-51 32-51 76 0 43 10 73 51 73" id="au"/><path fill="#3a414a" d="M115-194c55 1 70 41 70 98S169 2 115 4C84 4 66-9 55-30l1 105H24l-1-265h31l2 30c10-21 28-34 59-34zm-8 174c40 0 45-34 45-75s-6-73-45-74c-42 0-51 32-51 76 0 43 10 73 51 73" id="av"/><g id="m"><use transform="matrix(0.06172839506172839,0,0,0.06172839506172839,0,0)" xlink:href="#at"/><use transform="matrix(0.06172839506172839,0,0,0.06172839506172839,14.814814814814813,0)" xlink:href="#ae"/><use transform="matrix(0.06172839506172839,0,0,0.06172839506172839,27.160493827160494,0)" xlink:href="#au"/><use transform="matrix(0.06172839506172839,0,0,0.06172839506172839,39.50617283950617,0)" xlink:href="#Y"/><use transform="matrix(0.06172839506172839,0,0,0.06172839506172839,50.61728395061728,0)" xlink:href="#ac"/><use transform="matrix(0.06172839506172839,0,0,0.06172839506172839,61.72839506172839,0)" xlink:href="#aa"/><use transform="matrix(0.06172839506172839,0,0,0.06172839506172839,69.07407407407408,0)" xlink:href="#aj"/><use transform="matrix(0.06172839506172839,0,0,0.06172839506172839,73.95061728395062,0)" xlink:href="#av"/><use transform="matrix(0.06172839506172839,0,0,0.06172839506172839,86.2962962962963,0)" xlink:href="#ag"/><use transform="matrix(0.06172839506172839,0,0,0.06172839506172839,92.46913580246914,0)" xlink:href="#aj"/><use transform="matrix(0.06172839506172839,0,0,0.06172839506172839,97.34567901234568,0)" xlink:href="#ad"/><use transform="matrix(0.06172839506172839,0,0,0.06172839506172839,109.69135802469137,0)" xlink:href="#af"/></g><path fill="#3a414a" d="M110-160c48 1 74 30 74 79 0 53-28 85-80 85-65 0-83-55-86-122-5-90 50-162 133-122 14 7 22 21 27 39l-31 6c-5-40-67-38-82-6-9 19-15 44-15 74 11-20 30-34 60-33zm-7 138c34 0 49-23 49-58s-16-56-50-56c-29 0-50 16-49 49 1 36 15 65 50 65" id="aw"/><g id="n"><use transform="matrix(0.06172839506172839,0,0,0.06172839506172839,0,0)" xlink:href="#aw"/><use transform="matrix(0.06172839506172839,0,0,0.06172839506172839,12.345679012345679,0)" xlink:href="#W"/></g><path fill="#3a414a" d="M85-194c31 0 48 13 60 33l-1-100h32l1 261h-30c-2-10 0-23-3-31C134-8 116 4 85 4 32 4 16-35 15-94c0-66 23-100 70-100zm9 24c-40 0-46 34-46 75 0 40 6 74 45 74 42 0 51-32 51-76 0-42-9-74-50-73" id="ax"/><g id="o"><use transform="matrix(0.06172839506172839,0,0,0.06172839506172839,0,0)" xlink:href="#ab"/><use transform="matrix(0.06172839506172839,0,0,0.06172839506172839,14.814814814814813,0)" xlink:href="#ax"/><use transform="matrix(0.06172839506172839,0,0,0.06172839506172839,27.160493827160494,0)" xlink:href="#ap"/><use transform="matrix(0.06172839506172839,0,0,0.06172839506172839,45.61728395061728,0)" xlink:href="#aj"/><use transform="matrix(0.06172839506172839,0,0,0.06172839506172839,50.49382716049382,0)" xlink:href="#af"/></g><path fill="#3a414a" d="M30-248c118-7 216 8 213 122C240-48 200 0 122 0H30v-248zM63-27c89 8 146-16 146-99s-60-101-146-95v194" id="ay"/><path fill="#3a414a" d="M106-169C34-169 62-67 57 0H25v-261h32l-1 103c12-21 28-36 61-36 89 0 53 116 60 194h-32v-121c2-32-8-49-39-48" id="az"/><g id="p"><use transform="matrix(0.06172839506172839,0,0,0.06172839506172839,0,0)" xlink:href="#ay"/><use transform="matrix(0.06172839506172839,0,0,0.06172839506172839,15.987654320987653,0)" xlink:href="#al"/><use transform="matrix(0.06172839506172839,0,0,0.06172839506172839,28.333333333333332,0)" xlink:href="#Y"/><use transform="matrix(0.06172839506172839,0,0,0.06172839506172839,39.44444444444444,0)" xlink:href="#az"/><use transform="matrix(0.06172839506172839,0,0,0.06172839506172839,51.79012345679012,0)" xlink:href="#au"/><use transform="matrix(0.06172839506172839,0,0,0.06172839506172839,64.1358024691358,0)" xlink:href="#ad"/><use transform="matrix(0.06172839506172839,0,0,0.06172839506172839,76.48148148148148,0)" xlink:href="#al"/><use transform="matrix(0.06172839506172839,0,0,0.06172839506172839,88.82716049382717,0)" xlink:href="#aa"/><use transform="matrix(0.06172839506172839,0,0,0.06172839506172839,96.17283950617285,0)" xlink:href="#ax"/></g><g id="q"><use transform="matrix(0.06172839506172839,0,0,0.06172839506172839,0,0)" xlink:href="#X"/><use transform="matrix(0.06172839506172839,0,0,0.06172839506172839,15.987654320987653,0)" xlink:href="#Y"/><use transform="matrix(0.06172839506172839,0,0,0.06172839506172839,27.098765432098766,0)" xlink:href="#Z"/><use transform="matrix(0.06172839506172839,0,0,0.06172839506172839,39.44444444444444,0)" xlink:href="#aa"/></g><path fill="#333" d="M24 0v-248h52v208h133V0H24" id="aA"/><path fill="#333" d="M110-194c64 0 96 36 96 99 0 64-35 99-97 99-61 0-95-36-95-99 0-62 34-99 96-99zm-1 164c35 0 45-28 45-65 0-40-10-65-43-65-34 0-45 26-45 65 0 36 10 65 43 65" id="aB"/><path fill="#333" d="M195-6C206 82 75 100 31 46c-4-6-6-13-8-21l49-6c3 16 16 24 34 25 40 0 42-37 40-79-11 22-30 35-61 35-53 0-70-43-70-97 0-56 18-96 73-97 30 0 46 14 59 34l2-30h47zm-90-29c32 0 41-27 41-63 0-35-9-62-40-62-32 0-39 29-40 63 0 36 9 62 39 62" id="aC"/><path fill="#333" d="M25-224v-37h50v37H25zM25 0v-190h50V0H25" id="aD"/><path fill="#333" d="M135-194c87-1 58 113 63 194h-50c-7-57 23-157-34-157-59 0-34 97-39 157H25l-1-190h47c2 12-1 28 3 38 12-26 28-41 61-42" id="aE"/><g id="r"><use transform="matrix(0.04938271604938272,0,0,0.04938271604938272,0,0)" xlink:href="#aA"/><use transform="matrix(0.04938271604938272,0,0,0.04938271604938272,10.814814814814815,0)" xlink:href="#aB"/><use transform="matrix(0.04938271604938272,0,0,0.04938271604938272,21.62962962962963,0)" xlink:href="#aC"/><use transform="matrix(0.04938271604938272,0,0,0.04938271604938272,32.44444444444444,0)" xlink:href="#aD"/><use transform="matrix(0.04938271604938272,0,0,0.04938271604938272,37.382716049382715,0)" xlink:href="#aE"/></g><g id="s"><use transform="matrix(0.06172839506172839,0,0,0.06172839506172839,0,0)" xlink:href="#X"/><use transform="matrix(0.06172839506172839,0,0,0.06172839506172839,15.987654320987653,0)" xlink:href="#Y"/><use transform="matrix(0.06172839506172839,0,0,0.06172839506172839,27.098765432098766,0)" xlink:href="#Z"/><use transform="matrix(0.06172839506172839,0,0,0.06172839506172839,39.44444444444444,0)" xlink:href="#aa"/></g><g id="t"><use transform="matrix(0.06172839506172839,0,0,0.06172839506172839,0,0)" xlink:href="#ay"/><use transform="matrix(0.06172839506172839,0,0,0.06172839506172839,15.987654320987653,0)" xlink:href="#al"/><use transform="matrix(0.06172839506172839,0,0,0.06172839506172839,28.333333333333332,0)" xlink:href="#ag"/><use transform="matrix(0.06172839506172839,0,0,0.06172839506172839,34.50617283950617,0)" xlink:href="#al"/><use transform="matrix(0.06172839506172839,0,0,0.06172839506172839,46.85185185185185,0)" xlink:href="#au"/><use transform="matrix(0.06172839506172839,0,0,0.06172839506172839,59.197530864197525,0)" xlink:href="#al"/><use transform="matrix(0.06172839506172839,0,0,0.06172839506172839,71.5432098765432,0)" xlink:href="#Y"/><use transform="matrix(0.06172839506172839,0,0,0.06172839506172839,82.65432098765432,0)" xlink:href="#Z"/></g><g id="u"><use transform="matrix(0.06172839506172839,0,0,0.06172839506172839,0,0)" xlink:href="#ab"/><use transform="matrix(0.06172839506172839,0,0,0.06172839506172839,14.814814814814813,0)" xlink:href="#ax"/><use transform="matrix(0.06172839506172839,0,0,0.06172839506172839,27.160493827160494,0)" xlink:href="#ap"/><use transform="matrix(0.06172839506172839,0,0,0.06172839506172839,45.61728395061728,0)" xlink:href="#aj"/><use transform="matrix(0.06172839506172839,0,0,0.06172839506172839,50.49382716049382,0)" xlink:href="#af"/></g><path fill="#333" d="M238-95c0 69-44 99-111 99C63 4 22-25 22-93v-155h51v151c-1 38 19 59 55 60 90 1 49-130 58-211h52v153" id="aF"/><path fill="#333" d="M137-138c1-29-70-34-71-4 15 46 118 7 119 86 1 83-164 76-172 9l43-7c4 19 20 25 44 25 33 8 57-30 24-41C81-84 22-81 20-136c-2-80 154-74 161-7" id="aG"/><path fill="#333" d="M185-48c-13 30-37 53-82 52C43 2 14-33 14-96s30-98 90-98c62 0 83 45 84 108H66c0 31 8 55 39 56 18 0 30-7 34-22zm-45-69c5-46-57-63-70-21-2 6-4 13-4 21h74" id="aH"/><path fill="#333" d="M135-150c-39-12-60 13-60 57V0H25l-1-190h47c2 13-1 29 3 40 6-28 27-53 61-41v41" id="aI"/><g id="v"><use transform="matrix(0.04938271604938272,0,0,0.04938271604938272,0,0)" xlink:href="#aF"/><use transform="matrix(0.04938271604938272,0,0,0.04938271604938272,12.790123456790125,0)" xlink:href="#aG"/><use transform="matrix(0.04938271604938272,0,0,0.04938271604938272,22.66666666666667,0)" xlink:href="#aH"/><use transform="matrix(0.04938271604938272,0,0,0.04938271604938272,32.543209876543216,0)" xlink:href="#aI"/></g><path fill="#333" d="M24-248c120-7 223 5 221 122C244-46 201 0 124 0H24v-248zM76-40c74 7 117-18 117-86 0-67-45-88-117-82v168" id="aJ"/><path fill="#333" d="M115-3C79 11 28 4 28-45v-112H4v-33h27l15-45h31v45h36v33H77v99c-1 23 16 31 38 25v30" id="aK"/><path fill="#333" d="M133-34C117-15 103 5 69 4 32 3 11-16 11-54c-1-60 55-63 116-61 1-26-3-47-28-47-18 1-26 9-28 27l-52-2c7-38 36-58 82-57s74 22 75 68l1 82c-1 14 12 18 25 15v27c-30 8-71 5-69-32zm-48 3c29 0 43-24 42-57-32 0-66-3-65 30 0 17 8 27 23 27" id="aL"/><path fill="#333" d="M25 0v-261h50V0H25" id="aM"/><g id="w"><use transform="matrix(0.04938271604938272,0,0,0.04938271604938272,0,0)" xlink:href="#aJ"/><use transform="matrix(0.04938271604938272,0,0,0.04938271604938272,12.790123456790125,0)" xlink:href="#aH"/><use transform="matrix(0.04938271604938272,0,0,0.04938271604938272,22.66666666666667,0)" xlink:href="#aK"/><use transform="matrix(0.04938271604938272,0,0,0.04938271604938272,28.54320987654322,0)" xlink:href="#aL"/><use transform="matrix(0.04938271604938272,0,0,0.04938271604938272,38.41975308641976,0)" xlink:href="#aD"/><use transform="matrix(0.04938271604938272,0,0,0.04938271604938272,43.35802469135803,0)" xlink:href="#aM"/><use transform="matrix(0.04938271604938272,0,0,0.04938271604938272,48.296296296296305,0)" xlink:href="#aG"/></g><g id="x"><use transform="matrix(0.04938271604938272,0,0,0.04938271604938272,0,0)" xlink:href="#aF"/><use transform="matrix(0.04938271604938272,0,0,0.04938271604938272,12.790123456790125,0)" xlink:href="#aG"/><use transform="matrix(0.04938271604938272,0,0,0.04938271604938272,22.66666666666667,0)" xlink:href="#aH"/><use transform="matrix(0.04938271604938272,0,0,0.04938271604938272,32.543209876543216,0)" xlink:href="#aI"/></g><g id="y"><use transform="matrix(0.04938271604938272,0,0,0.04938271604938272,0,0)" xlink:href="#aJ"/><use transform="matrix(0.04938271604938272,0,0,0.04938271604938272,12.790123456790125,0)" xlink:href="#aH"/><use transform="matrix(0.04938271604938272,0,0,0.04938271604938272,22.66666666666667,0)" xlink:href="#aK"/><use transform="matrix(0.04938271604938272,0,0,0.04938271604938272,28.54320987654322,0)" xlink:href="#aL"/><use transform="matrix(0.04938271604938272,0,0,0.04938271604938272,38.41975308641976,0)" xlink:href="#aD"/><use transform="matrix(0.04938271604938272,0,0,0.04938271604938272,43.35802469135803,0)" xlink:href="#aM"/><use transform="matrix(0.04938271604938272,0,0,0.04938271604938272,48.296296296296305,0)" xlink:href="#aG"/></g><g id="z"><use transform="matrix(0.06172839506172839,0,0,0.06172839506172839,0,0)" xlink:href="#ai"/><use transform="matrix(0.06172839506172839,0,0,0.06172839506172839,15.987654320987653,0)" xlink:href="#ad"/><use transform="matrix(0.06172839506172839,0,0,0.06172839506172839,28.333333333333332,0)" xlink:href="#af"/><use transform="matrix(0.06172839506172839,0,0,0.06172839506172839,40.67901234567901,0)" xlink:href="#ag"/><use transform="matrix(0.06172839506172839,0,0,0.06172839506172839,46.851851851851855,0)" xlink:href="#al"/><use transform="matrix(0.06172839506172839,0,0,0.06172839506172839,59.19753086419753,0)" xlink:href="#ac"/><use transform="matrix(0.06172839506172839,0,0,0.06172839506172839,70.30864197530865,0)" xlink:href="#ag"/></g><path fill="#333" d="M140-251c80 0 125 45 125 126 0 70-33 111-92 124 6 28 34 38 68 31l-1 36C177 83 129 55 120 2 51-6 15-50 15-125c0-81 44-126 125-126zm-1 214c52 0 73-35 73-88 0-50-21-86-72-86-52 0-73 35-73 86s22 88 72 88" id="aN"/><path fill="#333" d="M85 4C-2 5 27-109 22-190h50c7 57-23 150 33 157 60-5 35-97 40-157h50l1 190h-47c-2-12 1-28-3-38-12 25-28 42-61 42" id="aO"/><path fill="#333" d="M123 10C108 53 80 86 19 72V37c35 8 53-11 59-39L3-190h52l48 148c12-52 28-100 44-148h51" id="aP"/><g id="A"><use transform="matrix(0.04938271604938272,0,0,0.04938271604938272,0,0)" xlink:href="#aN"/><use transform="matrix(0.04938271604938272,0,0,0.04938271604938272,13.827160493827162,0)" xlink:href="#aO"/><use transform="matrix(0.04938271604938272,0,0,0.04938271604938272,24.641975308641975,0)" xlink:href="#aH"/><use transform="matrix(0.04938271604938272,0,0,0.04938271604938272,34.51851851851852,0)" xlink:href="#aI"/><use transform="matrix(0.04938271604938272,0,0,0.04938271604938272,41.4320987654321,0)" xlink:href="#aP"/></g><path fill="#333" d="M240-174c0 40-23 61-54 70L253 0h-59l-57-94H76V0H24v-248c93 4 217-23 216 74zM76-134c48-2 112 12 112-38 0-48-66-32-112-35v73" id="aQ"/><path fill="#333" d="M135-194c53 0 70 44 70 98 0 56-19 98-73 100-31 1-45-17-59-34 3 33 2 69 2 105H25l-1-265h48c2 10 0 23 3 31 11-24 29-35 60-35zM114-30c33 0 39-31 40-66 0-38-9-64-40-64-56 0-55 130 0 130" id="aR"/><g id="B"><use transform="matrix(0.04938271604938272,0,0,0.04938271604938272,0,0)" xlink:href="#aQ"/><use transform="matrix(0.04938271604938272,0,0,0.04938271604938272,12.790123456790125,0)" xlink:href="#aH"/><use transform="matrix(0.04938271604938272,0,0,0.04938271604938272,22.66666666666667,0)" xlink:href="#aR"/><use transform="matrix(0.04938271604938272,0,0,0.04938271604938272,33.48148148148149,0)" xlink:href="#aM"/><use transform="matrix(0.04938271604938272,0,0,0.04938271604938272,38.41975308641976,0)" xlink:href="#aP"/></g><g id="C"><use transform="matrix(0.04938271604938272,0,0,0.04938271604938272,0,0)" xlink:href="#aN"/><use transform="matrix(0.04938271604938272,0,0,0.04938271604938272,13.827160493827162,0)" xlink:href="#aO"/><use transform="matrix(0.04938271604938272,0,0,0.04938271604938272,24.641975308641975,0)" xlink:href="#aH"/><use transform="matrix(0.04938271604938272,0,0,0.04938271604938272,34.51851851851852,0)" xlink:href="#aI"/><use transform="matrix(0.04938271604938272,0,0,0.04938271604938272,41.4320987654321,0)" xlink:href="#aP"/></g><path fill="#333" d="M67-125c0 53 21 87 73 88 37 1 54-22 65-47l45 17C233-25 199 4 140 4 58 4 20-42 15-125 8-235 124-281 211-232c18 10 29 29 36 50l-46 12c-8-25-30-41-62-41-52 0-71 34-72 86" id="aS"/><path fill="#333" d="M114-157C55-157 80-60 75 0H25v-261h50l-1 109c12-26 28-41 61-42 86-1 58 113 63 194h-50c-7-57 23-157-34-157" id="aT"/><g id="D"><use transform="matrix(0.04938271604938272,0,0,0.04938271604938272,0,0)" xlink:href="#aS"/><use transform="matrix(0.04938271604938272,0,0,0.04938271604938272,12.790123456790125,0)" xlink:href="#aT"/><use transform="matrix(0.04938271604938272,0,0,0.04938271604938272,23.60493827160494,0)" xlink:href="#aB"/><use transform="matrix(0.04938271604938272,0,0,0.04938271604938272,34.41975308641975,0)" xlink:href="#aB"/><use transform="matrix(0.04938271604938272,0,0,0.04938271604938272,45.23456790123457,0)" xlink:href="#aG"/><use transform="matrix(0.04938271604938272,0,0,0.04938271604938272,55.111111111111114,0)" xlink:href="#aH"/></g><path fill="#333" d="M24-248c93 1 206-16 204 79-1 75-69 88-152 82V0H24v-248zm52 121c47 0 100 7 100-41 0-47-54-39-100-39v80" id="aU"/><g id="E"><use transform="matrix(0.04938271604938272,0,0,0.04938271604938272,0,0)" xlink:href="#aU"/><use transform="matrix(0.04938271604938272,0,0,0.04938271604938272,11.851851851851853,0)" xlink:href="#aM"/><use transform="matrix(0.04938271604938272,0,0,0.04938271604938272,16.790123456790127,0)" xlink:href="#aL"/><use transform="matrix(0.04938271604938272,0,0,0.04938271604938272,26.666666666666668,0)" xlink:href="#aE"/></g><path fill="#333" d="M190-63c-7 42-38 67-86 67-59 0-84-38-90-98-12-110 154-137 174-36l-49 2c-2-19-15-32-35-32-30 0-35 28-38 64-6 74 65 87 74 30" id="aV"/><g id="F"><use transform="matrix(0.04938271604938272,0,0,0.04938271604938272,0,0)" xlink:href="#aU"/><use transform="matrix(0.04938271604938272,0,0,0.04938271604938272,11.851851851851853,0)" xlink:href="#aO"/><use transform="matrix(0.04938271604938272,0,0,0.04938271604938272,22.666666666666668,0)" xlink:href="#aI"/><use transform="matrix(0.04938271604938272,0,0,0.04938271604938272,29.58024691358025,0)" xlink:href="#aV"/><use transform="matrix(0.04938271604938272,0,0,0.04938271604938272,39.45679012345679,0)" xlink:href="#aT"/><use transform="matrix(0.04938271604938272,0,0,0.04938271604938272,50.27160493827161,0)" xlink:href="#aL"/><use transform="matrix(0.04938271604938272,0,0,0.04938271604938272,60.14814814814815,0)" xlink:href="#aG"/><use transform="matrix(0.04938271604938272,0,0,0.04938271604938272,70.0246913580247,0)" xlink:href="#aH"/></g><path fill="#333" d="M136-208V0H84v-208H4v-40h212v40h-80" id="aW"/><g id="G"><use transform="matrix(0.04938271604938272,0,0,0.04938271604938272,0,0)" xlink:href="#aW"/><use transform="matrix(0.04938271604938272,0,0,0.04938271604938272,9.82716049382716,0)" xlink:href="#aI"/><use transform="matrix(0.04938271604938272,0,0,0.04938271604938272,16.74074074074074,0)" xlink:href="#aL"/><use transform="matrix(0.04938271604938272,0,0,0.04938271604938272,26.617283950617285,0)" xlink:href="#aE"/><use transform="matrix(0.04938271604938272,0,0,0.04938271604938272,37.4320987654321,0)" xlink:href="#aG"/><use transform="matrix(0.04938271604938272,0,0,0.04938271604938272,47.308641975308646,0)" xlink:href="#aL"/><use transform="matrix(0.04938271604938272,0,0,0.04938271604938272,57.18518518518519,0)" xlink:href="#aV"/><use transform="matrix(0.04938271604938272,0,0,0.04938271604938272,67.06172839506173,0)" xlink:href="#aK"/><use transform="matrix(0.04938271604938272,0,0,0.04938271604938272,72.93827160493828,0)" xlink:href="#aD"/><use transform="matrix(0.04938271604938272,0,0,0.04938271604938272,77.87654320987656,0)" xlink:href="#aB"/><use transform="matrix(0.04938271604938272,0,0,0.04938271604938272,88.69135802469137,0)" xlink:href="#aE"/></g><g id="H"><use transform="matrix(0.04938271604938272,0,0,0.04938271604938272,0,0)" xlink:href="#aS"/><use transform="matrix(0.04938271604938272,0,0,0.04938271604938272,12.790123456790125,0)" xlink:href="#aB"/><use transform="matrix(0.04938271604938272,0,0,0.04938271604938272,23.60493827160494,0)" xlink:href="#aE"/><use transform="matrix(0.04938271604938272,0,0,0.04938271604938272,34.41975308641975,0)" xlink:href="#aE"/><use transform="matrix(0.04938271604938272,0,0,0.04938271604938272,45.23456790123457,0)" xlink:href="#aH"/><use transform="matrix(0.04938271604938272,0,0,0.04938271604938272,55.111111111111114,0)" xlink:href="#aV"/><use transform="matrix(0.04938271604938272,0,0,0.04938271604938272,64.98765432098766,0)" xlink:href="#aK"/><use transform="matrix(0.04938271604938272,0,0,0.04938271604938272,70.8641975308642,0)" xlink:href="#aD"/><use transform="matrix(0.04938271604938272,0,0,0.04938271604938272,75.80246913580248,0)" xlink:href="#aB"/><use transform="matrix(0.04938271604938272,0,0,0.04938271604938272,86.61728395061729,0)" xlink:href="#aE"/></g><path fill="#333" d="M169-182c-1-43-94-46-97-3 18 66 151 10 154 114 3 95-165 93-204 36-6-8-10-19-12-30l50-8c3 46 112 56 116 5-17-69-150-10-154-114-4-87 153-88 188-35 5 8 8 18 10 28" id="aX"/><g id="I"><use transform="matrix(0.04938271604938272,0,0,0.04938271604938272,0,0)" xlink:href="#aX"/><use transform="matrix(0.04938271604938272,0,0,0.04938271604938272,11.851851851851853,0)" xlink:href="#aK"/><use transform="matrix(0.04938271604938272,0,0,0.04938271604938272,17.728395061728396,0)" xlink:href="#aL"/><use transform="matrix(0.04938271604938272,0,0,0.04938271604938272,27.60493827160494,0)" xlink:href="#aK"/><use transform="matrix(0.04938271604938272,0,0,0.04938271604938272,33.48148148148148,0)" xlink:href="#aO"/><use transform="matrix(0.04938271604938272,0,0,0.04938271604938272,44.2962962962963,0)" xlink:href="#aG"/></g><g id="J"><use transform="matrix(0.06172839506172839,0,0,0.06172839506172839,0,0)" xlink:href="#at"/><use transform="matrix(0.06172839506172839,0,0,0.06172839506172839,14.814814814814813,0)" xlink:href="#ae"/><use transform="matrix(0.06172839506172839,0,0,0.06172839506172839,27.160493827160494,0)" xlink:href="#au"/><use transform="matrix(0.06172839506172839,0,0,0.06172839506172839,39.50617283950617,0)" xlink:href="#Y"/><use transform="matrix(0.06172839506172839,0,0,0.06172839506172839,50.61728395061728,0)" xlink:href="#ac"/><use transform="matrix(0.06172839506172839,0,0,0.06172839506172839,61.72839506172839,0)" xlink:href="#aa"/><use transform="matrix(0.06172839506172839,0,0,0.06172839506172839,69.07407407407408,0)" xlink:href="#aj"/><use transform="matrix(0.06172839506172839,0,0,0.06172839506172839,73.95061728395062,0)" xlink:href="#av"/><use transform="matrix(0.06172839506172839,0,0,0.06172839506172839,86.2962962962963,0)" xlink:href="#ag"/><use transform="matrix(0.06172839506172839,0,0,0.06172839506172839,92.46913580246914,0)" xlink:href="#aj"/><use transform="matrix(0.06172839506172839,0,0,0.06172839506172839,97.34567901234568,0)" xlink:href="#ad"/><use transform="matrix(0.06172839506172839,0,0,0.06172839506172839,109.69135802469137,0)" xlink:href="#af"/></g><path fill="#333" d="M135-194c52 0 70 43 70 98 0 56-19 99-73 100-30 1-46-15-58-35L72 0H24l1-261h50v104c11-23 29-37 60-37zM114-30c31 0 40-27 40-66 0-37-7-63-39-63s-41 28-41 65c0 36 8 64 40 64" id="aY"/><g id="K"><use transform="matrix(0.04938271604938272,0,0,0.04938271604938272,0,0)" xlink:href="#aX"/><use transform="matrix(0.04938271604938272,0,0,0.04938271604938272,11.851851851851853,0)" xlink:href="#aO"/><use transform="matrix(0.04938271604938272,0,0,0.04938271604938272,22.666666666666668,0)" xlink:href="#aY"/><use transform="matrix(0.04938271604938272,0,0,0.04938271604938272,33.48148148148148,0)" xlink:href="#aG"/><use transform="matrix(0.04938271604938272,0,0,0.04938271604938272,43.358024691358025,0)" xlink:href="#aV"/><use transform="matrix(0.04938271604938272,0,0,0.04938271604938272,53.23456790123457,0)" xlink:href="#aI"/><use transform="matrix(0.04938271604938272,0,0,0.04938271604938272,60.14814814814815,0)" xlink:href="#aD"/><use transform="matrix(0.04938271604938272,0,0,0.04938271604938272,65.08641975308643,0)" xlink:href="#aR"/><use transform="matrix(0.04938271604938272,0,0,0.04938271604938272,75.90123456790124,0)" xlink:href="#aK"/><use transform="matrix(0.04938271604938272,0,0,0.04938271604938272,81.77777777777779,0)" xlink:href="#aD"/><use transform="matrix(0.04938271604938272,0,0,0.04938271604938272,86.71604938271605,0)" xlink:href="#aB"/><use transform="matrix(0.04938271604938272,0,0,0.04938271604938272,97.53086419753086,0)" xlink:href="#aE"/></g><g id="L"><use transform="matrix(0.04938271604938272,0,0,0.04938271604938272,0,0)" xlink:href="#aX"/><use transform="matrix(0.04938271604938272,0,0,0.04938271604938272,11.851851851851853,0)" xlink:href="#aO"/><use transform="matrix(0.04938271604938272,0,0,0.04938271604938272,22.666666666666668,0)" xlink:href="#aY"/><use transform="matrix(0.04938271604938272,0,0,0.04938271604938272,33.48148148148148,0)" xlink:href="#aG"/><use transform="matrix(0.04938271604938272,0,0,0.04938271604938272,43.358024691358025,0)" xlink:href="#aV"/><use transform="matrix(0.04938271604938272,0,0,0.04938271604938272,53.23456790123457,0)" xlink:href="#aI"/><use transform="matrix(0.04938271604938272,0,0,0.04938271604938272,60.14814814814815,0)" xlink:href="#aD"/><use transform="matrix(0.04938271604938272,0,0,0.04938271604938272,65.08641975308643,0)" xlink:href="#aR"/><use transform="matrix(0.04938271604938272,0,0,0.04938271604938272,75.90123456790124,0)" xlink:href="#aK"/><use transform="matrix(0.04938271604938272,0,0,0.04938271604938272,81.77777777777779,0)" xlink:href="#aD"/><use transform="matrix(0.04938271604938272,0,0,0.04938271604938272,86.71604938271605,0)" xlink:href="#aB"/><use transform="matrix(0.04938271604938272,0,0,0.04938271604938272,97.53086419753086,0)" xlink:href="#aE"/></g><g id="M"><use transform="matrix(0.06172839506172839,0,0,0.06172839506172839,0,0)" xlink:href="#an"/><use transform="matrix(0.06172839506172839,0,0,0.06172839506172839,14.814814814814813,0)" xlink:href="#al"/><use transform="matrix(0.06172839506172839,0,0,0.06172839506172839,27.160493827160494,0)" xlink:href="#ao"/><use transform="matrix(0.06172839506172839,0,0,0.06172839506172839,38.27160493827161,0)" xlink:href="#ap"/><use transform="matrix(0.06172839506172839,0,0,0.06172839506172839,56.72839506172839,0)" xlink:href="#Z"/><use transform="matrix(0.06172839506172839,0,0,0.06172839506172839,69.07407407407408,0)" xlink:href="#af"/><use transform="matrix(0.06172839506172839,0,0,0.06172839506172839,81.41975308641976,0)" xlink:href="#ag"/></g><path fill="#3a414a" d="M54-142c48-35 137-8 131 61C196 18 31 33 14-55l32-4c7 23 22 37 52 37 35-1 51-22 54-58 4-55-73-65-99-34H22l8-134h141v27H59" id="aZ"/><g id="N"><use transform="matrix(0.06172839506172839,0,0,0.06172839506172839,0,0)" xlink:href="#aZ"/><use transform="matrix(0.06172839506172839,0,0,0.06172839506172839,12.345679012345679,0)" xlink:href="#W"/></g><path fill="#3a414a" d="M160-131c35 5 61 23 61 61C221 17 115-2 30 0v-248c76 3 177-17 177 60 0 33-19 50-47 57zm-97-11c50-1 110 9 110-42 0-47-63-36-110-37v79zm0 115c55-2 124 14 124-45 0-56-70-42-124-44v89" id="ba"/><path fill="#3a414a" d="M143 0L79-87 56-68V0H24v-261h32v163l83-92h37l-77 82L181 0h-38" id="bb"/><g id="O"><use transform="matrix(0.06172839506172839,0,0,0.06172839506172839,0,0)" xlink:href="#ba"/><use transform="matrix(0.06172839506172839,0,0,0.06172839506172839,14.814814814814813,0)" xlink:href="#al"/><use transform="matrix(0.06172839506172839,0,0,0.06172839506172839,27.160493827160494,0)" xlink:href="#af"/><use transform="matrix(0.06172839506172839,0,0,0.06172839506172839,39.50617283950617,0)" xlink:href="#bb"/></g><path fill="#333" d="M88-194c31-1 46 15 58 34l-1-101h50l1 261h-48c-2-10 0-23-3-31C134-8 116 4 84 4 32 4 16-41 15-95c0-56 19-97 73-99zm17 164c33 0 40-30 41-66 1-37-9-64-41-64s-38 30-39 65c0 43 13 65 39 65" id="bc"/><g id="P"><use transform="matrix(0.04938271604938272,0,0,0.04938271604938272,0,0)" xlink:href="#aU"/><use transform="matrix(0.04938271604938272,0,0,0.04938271604938272,11.851851851851853,0)" xlink:href="#aL"/><use transform="matrix(0.04938271604938272,0,0,0.04938271604938272,21.7283950617284,0)" xlink:href="#aD"/><use transform="matrix(0.04938271604938272,0,0,0.04938271604938272,26.666666666666668,0)" xlink:href="#bc"/></g><g id="Q"><use transform="matrix(0.06172839506172839,0,0,0.06172839506172839,0,0)" xlink:href="#ar"/><use transform="matrix(0.06172839506172839,0,0,0.06172839506172839,12.716049382716047,0)" xlink:href="#aa"/><use transform="matrix(0.06172839506172839,0,0,0.06172839506172839,20.061728395061728,0)" xlink:href="#al"/><use transform="matrix(0.06172839506172839,0,0,0.06172839506172839,32.407407407407405,0)" xlink:href="#af"/><use transform="matrix(0.06172839506172839,0,0,0.06172839506172839,44.75308641975308,0)" xlink:href="#Y"/><use transform="matrix(0.06172839506172839,0,0,0.06172839506172839,55.86419753086419,0)" xlink:href="#al"/><use transform="matrix(0.06172839506172839,0,0,0.06172839506172839,68.20987654320987,0)" xlink:href="#ac"/><use transform="matrix(0.06172839506172839,0,0,0.06172839506172839,79.32098765432099,0)" xlink:href="#ag"/><use transform="matrix(0.06172839506172839,0,0,0.06172839506172839,85.49382716049382,0)" xlink:href="#aj"/><use transform="matrix(0.06172839506172839,0,0,0.06172839506172839,90.37037037037037,0)" xlink:href="#ad"/><use transform="matrix(0.06172839506172839,0,0,0.06172839506172839,102.71604938271605,0)" xlink:href="#af"/></g><path fill="#333" d="M220-157c-53 9-28 100-34 157h-49v-107c1-27-5-49-29-50C55-147 81-57 75 0H25l-1-190h47c2 12-1 28 3 38 10-53 101-56 108 0 13-22 24-43 59-42 82 1 51 116 57 194h-49v-107c-1-25-5-48-29-50" id="bd"/><g id="R"><use transform="matrix(0.04938271604938272,0,0,0.04938271604938272,0,0)" xlink:href="#aU"/><use transform="matrix(0.04938271604938272,0,0,0.04938271604938272,11.851851851851853,0)" xlink:href="#aL"/><use transform="matrix(0.04938271604938272,0,0,0.04938271604938272,21.7283950617284,0)" xlink:href="#aP"/><use transform="matrix(0.04938271604938272,0,0,0.04938271604938272,31.60493827160494,0)" xlink:href="#bd"/><use transform="matrix(0.04938271604938272,0,0,0.04938271604938272,47.40740740740741,0)" xlink:href="#aH"/><use transform="matrix(0.04938271604938272,0,0,0.04938271604938272,57.283950617283956,0)" xlink:href="#aE"/><use transform="matrix(0.04938271604938272,0,0,0.04938271604938272,68.09876543209877,0)" xlink:href="#aK"/></g><path fill="#333" d="M121-226c-27-7-43 5-38 36h38v33H83V0H34v-157H6v-33h28c-9-59 32-81 87-68v32" id="be"/><g id="S"><use transform="matrix(0.04938271604938272,0,0,0.04938271604938272,0,0)" xlink:href="#aS"/><use transform="matrix(0.04938271604938272,0,0,0.04938271604938272,12.790123456790125,0)" xlink:href="#aB"/><use transform="matrix(0.04938271604938272,0,0,0.04938271604938272,23.60493827160494,0)" xlink:href="#aE"/><use transform="matrix(0.04938271604938272,0,0,0.04938271604938272,34.41975308641975,0)" xlink:href="#be"/><use transform="matrix(0.04938271604938272,0,0,0.04938271604938272,40.2962962962963,0)" xlink:href="#aD"/><use transform="matrix(0.04938271604938272,0,0,0.04938271604938272,45.23456790123457,0)" xlink:href="#aI"/><use transform="matrix(0.04938271604938272,0,0,0.04938271604938272,52.14814814814815,0)" xlink:href="#bd"/><use transform="matrix(0.04938271604938272,0,0,0.04938271604938272,67.95061728395062,0)" xlink:href="#aL"/><use transform="matrix(0.04938271604938272,0,0,0.04938271604938272,77.82716049382717,0)" xlink:href="#aK"/><use transform="matrix(0.04938271604938272,0,0,0.04938271604938272,83.70370370370371,0)" xlink:href="#aD"/><use transform="matrix(0.04938271604938272,0,0,0.04938271604938272,88.64197530864197,0)" xlink:href="#aB"/><use transform="matrix(0.04938271604938272,0,0,0.04938271604938272,99.45679012345678,0)" xlink:href="#aE"/></g><g id="T"><use transform="matrix(0.04938271604938272,0,0,0.04938271604938272,0,0)" xlink:href="#aU"/><use transform="matrix(0.04938271604938272,0,0,0.04938271604938272,11.851851851851853,0)" xlink:href="#aL"/><use transform="matrix(0.04938271604938272,0,0,0.04938271604938272,21.7283950617284,0)" xlink:href="#aP"/><use transform="matrix(0.04938271604938272,0,0,0.04938271604938272,31.60493827160494,0)" xlink:href="#bd"/><use transform="matrix(0.04938271604938272,0,0,0.04938271604938272,47.40740740740741,0)" xlink:href="#aH"/><use transform="matrix(0.04938271604938272,0,0,0.04938271604938272,57.283950617283956,0)" xlink:href="#aE"/><use transform="matrix(0.04938271604938272,0,0,0.04938271604938272,68.09876543209877,0)" xlink:href="#aK"/></g><g id="U"><use transform="matrix(0.04938271604938272,0,0,0.04938271604938272,0,0)" xlink:href="#aW"/><use transform="matrix(0.04938271604938272,0,0,0.04938271604938272,9.82716049382716,0)" xlink:href="#aI"/><use transform="matrix(0.04938271604938272,0,0,0.04938271604938272,16.74074074074074,0)" xlink:href="#aL"/><use transform="matrix(0.04938271604938272,0,0,0.04938271604938272,26.617283950617285,0)" xlink:href="#aE"/><use transform="matrix(0.04938271604938272,0,0,0.04938271604938272,37.4320987654321,0)" xlink:href="#aG"/><use transform="matrix(0.04938271604938272,0,0,0.04938271604938272,47.308641975308646,0)" xlink:href="#aL"/><use transform="matrix(0.04938271604938272,0,0,0.04938271604938272,57.18518518518519,0)" xlink:href="#aV"/><use transform="matrix(0.04938271604938272,0,0,0.04938271604938272,67.06172839506173,0)" xlink:href="#aK"/><use transform="matrix(0.04938271604938272,0,0,0.04938271604938272,72.93827160493828,0)" xlink:href="#aD"/><use transform="matrix(0.04938271604938272,0,0,0.04938271604938272,77.87654320987656,0)" xlink:href="#aB"/><use transform="matrix(0.04938271604938272,0,0,0.04938271604938272,88.69135802469137,0)" xlink:href="#aE"/></g></defs></g></svg>